<svg width="22" height="21" viewBox="0 0 22 21" fill="none" xmlns="http://www.w3.org/2000/svg">
<path d="M6.18951 7.53182C6.18951 7.53182 4.84785 5.75157 5.80645 3.34814C6.76504 0.944707 9.39054 0.559326 11.3054 0.648154C13.2203 0.736981 17.3785 1.38838 21.2629 0.648154L20.06 2.4284L13.4674 4.58941H8.29593L6.68454 5.66228L6.18951 6.67084V7.53182Z" fill="url(#paint0_linear_10081_3579)"/>
<path d="M6.18951 7.53208C6.18951 7.53208 6.54575 5.21886 9.77314 5.51403C13.0005 5.80919 20.4139 6.55266 21.2629 0.647949C21.2629 0.647949 19.1019 4.00072 11.8523 3.02177C11.8523 3.02177 4.685 2.04235 6.18951 7.53208Z" fill="url(#paint1_linear_10081_3579)"/>
<path d="M18.4534 8.28533C20.5996 8.28533 20.9517 11.2587 20.3133 13.3078L19.7729 15.0917C19.251 16.7694 18.1839 18.2248 16.7409 19.2271C15.2978 20.2294 13.5614 20.7212 11.8071 20.6245C10.0454 20.5269 8.27715 20.2775 7.04698 19.7385C3.61556 18.2345 0.44599 14.9668 1.06686 9.15094C1.55078 4.61704 4.30027 2.50368 5.48787 1.79491C5.51602 1.778 5.54911 1.77125 5.58163 1.7758C5.61415 1.78035 5.64413 1.79592 5.66655 1.81991C5.68897 1.8439 5.70248 1.87486 5.70482 1.90761C5.70716 1.94037 5.69819 1.97293 5.67941 1.99986C4.83369 3.21523 2.87949 6.49305 4.26927 9.77088C4.26927 9.77088 5.79599 16.1225 12.372 14.9761C13.289 14.816 14.0861 14.2358 14.4696 13.3994C14.4803 13.3761 14.4849 13.3504 14.4831 13.3248C14.4814 13.2993 14.4732 13.2745 14.4594 13.2529C14.4456 13.2313 14.4266 13.2135 14.4041 13.2011C14.3817 13.1887 14.3565 13.1821 14.3308 13.1819H14.0569C13.4066 13.1819 12.783 12.9236 12.3231 12.4638C11.8633 12.0039 11.6049 11.3803 11.6049 10.7299V10.7299C11.6049 10.4077 11.6685 10.0886 11.7919 9.79095C11.9152 9.49328 12.0961 9.22285 12.3241 8.99512C12.5521 8.7674 12.8227 8.58684 13.1205 8.46378C13.4183 8.34072 13.7375 8.27757 14.0597 8.27793L18.4534 8.28533Z" fill="url(#paint2_linear_10081_3579)"/>
<path d="M14.2441 13.2027C14.2441 13.2027 20.7211 13.4225 17.5362 18.5944C17.5362 18.5944 20.7798 16.1755 20.6757 11.0536C20.6757 11.0536 20.6901 8.36625 18.6803 8.24365H13.7865C13.7865 8.24365 11.5728 8.30889 11.5728 10.5064C11.5728 12.4657 12.7617 13.2027 14.2441 13.2027Z" fill="url(#paint3_linear_10081_3579)"/>
<defs>
<linearGradient id="paint0_linear_10081_3579" x1="22.0781" y1="4.08374" x2="3.79164" y2="4.08374" gradientUnits="userSpaceOnUse">
<stop stop-color="#3F8CFC"/>
<stop offset="0.47" stop-color="#0F61D6"/>
<stop offset="0.57" stop-color="#0A51C1"/>
<stop offset="0.72" stop-color="#0441AC"/>
<stop offset="0.87" stop-color="#01379F"/>
<stop offset="1" stop-color="#00349B"/>
</linearGradient>
<linearGradient id="paint1_linear_10081_3579" x1="5.98225" y1="4.09001" x2="21.2629" y2="4.09001" gradientUnits="userSpaceOnUse">
<stop stop-color="#3F8CFC"/>
<stop offset="0.47" stop-color="#0F61D6"/>
<stop offset="0.57" stop-color="#0A51C1"/>
<stop offset="0.72" stop-color="#0441AC"/>
<stop offset="0.87" stop-color="#01379F"/>
<stop offset="1" stop-color="#00349B"/>
</linearGradient>
<linearGradient id="paint2_linear_10081_3579" x1="0.988207" y1="11.2037" x2="20.5992" y2="11.2037" gradientUnits="userSpaceOnUse">
<stop stop-color="#3F8CFC"/>
<stop offset="0.47" stop-color="#0F61D6"/>
<stop offset="0.57" stop-color="#0A51C1"/>
<stop offset="0.72" stop-color="#0441AC"/>
<stop offset="0.87" stop-color="#01379F"/>
<stop offset="1" stop-color="#00349B"/>
</linearGradient>
<linearGradient id="paint3_linear_10081_3579" x1="20.4532" y1="15.4285" x2="13.1004" y2="8.07525" gradientUnits="userSpaceOnUse">
<stop stop-color="#3F8CFC"/>
<stop offset="0.47" stop-color="#0F61D6"/>
<stop offset="0.57" stop-color="#0A51C1"/>
<stop offset="0.72" stop-color="#0441AC"/>
<stop offset="0.87" stop-color="#01379F"/>
<stop offset="1" stop-color="#00349B"/>
</linearGradient>
</defs>
</svg>
