<svg width="222" height="222" viewBox="0 0 222 222" fill="none" xmlns="http://www.w3.org/2000/svg">
<circle cx="110.318" cy="111.721" r="77.0877" fill="#111214" stroke="white" stroke-width="5.82456"/>
<path d="M139.131 13.7751C137.045 13.3013 135.079 14.6024 134.45 17.5793C133.821 20.5562 135.009 22.5927 137.158 23.1159C137.589 23.2403 138.041 23.2728 138.485 23.2113C138.929 23.1498 139.355 22.9958 139.736 22.7592C140.116 22.5225 140.443 22.2085 140.694 21.8376C140.946 21.4666 141.117 21.0469 141.196 20.6057L138.134 19.934L138.466 18.3854L143.395 19.4673L143.091 20.8744C142.976 21.5727 142.714 22.2386 142.323 22.8282C141.932 23.4178 141.42 23.9176 140.821 24.2946C140.222 24.6715 139.55 24.9171 138.849 25.015C138.148 25.1129 137.434 25.0609 136.755 24.8625C133.389 24.1271 131.643 21.1643 132.491 17.2187C133.34 13.273 136.253 11.3497 139.485 12.078C140.71 12.279 141.819 12.9199 142.606 13.8806C143.392 14.8413 143.801 16.0559 143.756 17.2965L141.832 16.8722C141.802 16.1255 141.518 15.4114 141.027 14.8482C140.536 14.285 139.867 13.9064 139.131 13.7751Z" fill="white"/>
<path d="M142.357 25.8955L151.146 15.5929L153.211 16.3566L153.006 29.8977L151.054 29.1623L151.203 25.6621L146.593 23.8802L144.33 26.5955L142.357 25.8955ZM151.238 23.9439L151.429 18.2092L151.358 18.1385L147.689 22.5579L151.238 23.9439Z" fill="white"/>
<path d="M162.489 20.5141L161.039 31.0854L161.138 31.1844L169.595 24.6931L171.61 25.874L165.19 36.8766L163.606 35.9573L168.23 28.0236L168.16 27.9529L160.318 33.9562L158.974 33.1784L160.374 23.3638L160.297 23.286L155.658 31.248L154.067 30.3217L160.495 19.312L162.489 20.5141Z" fill="white"/>
<path d="M174.842 28.3142L181.079 33.3912L180.004 34.7065L175.33 30.8952L172.89 33.8862L177.246 37.4359L176.207 38.7158L171.851 35.1661L169.397 38.1854L174.142 42.0533L173.096 43.3402L166.859 38.2632L174.842 28.3142Z" fill="white"/>
<path d="M175.831 46.0764L174.459 44.7047L183.326 35.5547L184.698 36.9265L175.831 46.0764Z" fill="white"/>
<path d="M184.098 55.4456L182.967 54.1021L185.979 43.2126L185.901 43.1348L178.738 49.0392L177.494 47.5542L187.266 39.3801L188.418 40.7589L185.399 51.6837L185.477 51.7615L192.633 45.7794L193.856 47.2431L184.098 55.4456Z" fill="white"/>
<path d="M197.101 54.9711C196.28 53.6417 195.085 53.2104 194.166 53.7761C193.247 54.3418 193.424 55.7772 193.721 56.7671L194.11 58.0046C194.64 59.5814 194.937 61.7876 192.978 62.9685C191.019 64.1493 188.898 63.4846 187.321 60.9179C185.822 58.4995 186.105 56.2368 188.007 54.9145L189.033 56.5621C187.908 57.3894 187.979 58.7753 188.757 60.034C189.619 61.434 190.935 61.9856 191.981 61.3492C193.028 60.7128 192.78 59.6309 192.37 58.2733L191.925 56.8096C191.302 54.7731 191.543 53.1326 193.049 52.178C194.93 51.0466 197.193 51.9376 198.529 54.1367C199.865 56.3358 199.597 58.641 197.871 59.7865L196.888 58.1955C197.829 57.4389 197.864 56.2156 197.101 54.9711Z" fill="white"/>
<path d="M193.255 72.0417L192.491 70.2598L204.201 65.2252L204.964 67.0071L193.255 72.0417Z" fill="white"/>
<path d="M194.732 75.7953L194.145 74.0204L203.21 71.0506L203.768 72.7547L202.298 73.2355L202.368 73.3062C202.949 73.3739 203.496 73.6143 203.938 73.9963C204.381 74.3782 204.699 74.8842 204.85 75.4488C205.437 77.3226 204.659 78.9348 202.446 79.6773L196.662 81.5723L196.068 79.7621L201.612 77.9519C201.888 77.8961 202.15 77.7824 202.38 77.6183C202.609 77.4541 202.802 77.2432 202.944 76.9994C203.086 76.7556 203.175 76.4845 203.205 76.2038C203.235 75.9232 203.205 75.6393 203.118 75.371C203.03 75.0726 202.879 74.7965 202.675 74.5613C202.472 74.326 202.22 74.1371 201.937 74.0071C201.655 73.8772 201.348 73.8093 201.037 73.8079C200.725 73.8065 200.418 73.8717 200.134 73.9992L194.732 75.7953Z" fill="white"/>
<path d="M201.625 82.0816C204.503 81.5088 206.829 82.8311 207.366 85.4616C207.627 86.3804 207.522 87.3646 207.072 88.2072C206.623 89.0499 205.864 89.6853 204.955 89.98L204.587 88.2405C205.047 88.0651 205.426 87.7266 205.651 87.2896C205.877 86.8527 205.934 86.3479 205.811 85.8717C205.507 84.3514 204.057 83.5948 202.056 83.9696C200.055 84.3443 198.959 85.6525 199.235 87.1728C199.3 87.6558 199.539 88.0983 199.908 88.4173C200.276 88.7363 200.748 88.9098 201.236 88.9052L201.611 90.6942C200.677 90.7637 199.753 90.4701 199.031 89.8745C198.309 89.279 197.845 88.4276 197.736 87.498C197.127 84.6838 198.846 82.6685 201.625 82.0816Z" fill="white"/>
<path d="M199.837 92.5693C200.169 92.5319 200.502 92.6278 200.763 92.836C201.024 93.0442 201.192 93.3475 201.23 93.6794C201.246 93.842 201.23 94.0062 201.183 94.1625C201.135 94.3189 201.057 94.4643 200.953 94.5905C200.85 94.7166 200.722 94.821 200.578 94.8977C200.433 94.9743 200.275 95.0217 200.113 95.0371C199.952 95.058 199.79 95.0464 199.634 95.0028C199.478 94.9593 199.333 94.8848 199.207 94.7837C199.081 94.6827 198.976 94.5572 198.9 94.4149C198.824 94.2725 198.777 94.1161 198.762 93.9552C198.739 93.7932 198.748 93.6282 198.79 93.47C198.832 93.3118 198.905 93.1637 199.006 93.0343C199.106 92.905 199.231 92.7972 199.374 92.7173C199.517 92.6374 199.674 92.5871 199.837 92.5693Z" fill="white"/>
<path d="M86.422 211.013L81.9743 210.087C79.0751 209.465 78.0074 207.534 78.4599 205.271C78.5627 204.501 78.9162 203.786 79.4657 203.237C80.0152 202.687 80.7302 202.334 81.5005 202.231L79.8034 196.616L81.9459 197.062L83.5157 202.323L83.6077 202.344L86.1391 202.867L87.1008 198.172L89.0029 198.575L86.422 211.013ZM83.4167 204.006C81.6065 203.61 80.659 204.274 80.3408 205.667C80.0226 207.06 80.6378 208.1 82.4763 208.468L84.8239 208.948L85.7573 204.479L83.4167 204.006Z" fill="white"/>
<path d="M77.7894 200.908C76.8348 203.687 74.5226 205.023 72.0123 204.182C69.9334 203.433 68.4273 201.502 69.5657 198.242L69.7708 197.627L76.1914 199.805C76.3496 199.468 76.4325 199.1 76.4344 198.727C76.4364 198.355 76.3572 197.986 76.2025 197.647C76.0478 197.308 75.8212 197.007 75.5385 196.764C75.2557 196.521 74.9235 196.343 74.565 196.241C74.1931 196.073 73.7812 196.014 73.377 196.07C72.9728 196.126 72.5928 196.296 72.2811 196.559L70.4779 195.944C71.3972 194.601 73.1155 194.085 75.0953 194.792C77.7187 195.676 78.7157 198.073 77.7894 200.908ZM71.0578 199.551C70.9302 199.85 70.8662 200.173 70.8698 200.498C70.8735 200.824 70.9447 201.145 71.079 201.441C71.2133 201.738 71.4077 202.003 71.6499 202.22C71.8921 202.438 72.1769 202.603 72.4861 202.704C73.1222 202.919 73.8171 202.877 74.4224 202.586C75.0276 202.296 75.4951 201.78 75.7247 201.149L71.0578 199.551Z" fill="white"/>
<path d="M63.0046 198.866C63.9733 199.311 64.8996 199.135 65.2249 198.498C65.4441 197.982 65.2249 197.409 64.3905 196.73L63.1672 195.79C61.7601 194.651 61.3641 193.52 61.9227 192.311C62.6794 190.762 64.539 190.275 66.731 191.349C68.8029 192.318 69.5807 193.831 69.0433 195.528L67.2897 194.694C67.5089 193.852 67.1129 193.188 66.0946 192.679C65.0764 192.17 64.0653 192.29 63.74 193.025C63.4501 193.57 63.7046 194.135 64.539 194.772L65.727 195.705C67.0987 196.794 67.5089 198.01 66.9644 199.205C66.2078 200.726 64.3693 201.136 62.3682 200.195C60.3671 199.255 59.7307 197.713 60.2752 196.151L61.8945 196.935C61.8163 197.337 61.8855 197.753 62.0895 198.108C62.2934 198.462 62.6183 198.731 63.0046 198.866Z" fill="white"/>
<path d="M59.7087 193.335C58.146 195.817 55.5933 196.588 53.3447 195.188C51.4991 193.993 50.4739 191.752 52.3265 188.838L52.68 188.287L58.3934 191.907C58.6265 191.616 58.7932 191.278 58.8819 190.916C58.9707 190.554 58.9793 190.177 58.9073 189.811C58.8352 189.446 58.6842 189.1 58.4648 188.799C58.2453 188.498 57.9628 188.248 57.6368 188.067C57.3157 187.816 56.9298 187.662 56.5242 187.622C56.1185 187.582 55.7099 187.658 55.3458 187.841L53.7336 186.823C54.9357 185.734 56.753 185.6 58.4924 186.773C60.8825 188.258 61.2996 190.825 59.7087 193.335ZM53.479 190.457C53.2851 190.719 53.1477 191.018 53.0756 191.336C53.0034 191.654 52.9981 191.983 53.0599 192.303C53.1218 192.623 53.2494 192.926 53.4347 193.194C53.6201 193.462 53.8591 193.688 54.1367 193.859C54.7024 194.211 55.383 194.33 56.0347 194.19C56.6865 194.05 57.2584 193.663 57.6298 193.109L53.479 190.457Z" fill="white"/>
<path d="M47.842 191.256L46.4207 190.146L47.3541 188.958L47.3329 188.937C46.8908 189.222 46.369 189.359 45.8437 189.327C45.3184 189.295 44.817 189.097 44.4125 188.76C44.2499 188.597 43.9388 188.371 43.8115 188.244L44.9216 186.823C45.1146 187.097 45.3539 187.337 45.6287 187.53C45.8456 187.724 46.1001 187.872 46.3765 187.965C46.6529 188.057 46.9453 188.092 47.2356 188.066C47.5259 188.041 47.8079 187.957 48.0643 187.818C48.3206 187.68 48.5458 187.49 48.7259 187.261L52.2543 182.601L53.7251 183.747L47.842 191.256Z" fill="white"/>
<path d="M45.2417 176.479L46.656 177.893L42.5689 187.171L41.1193 185.792L44.4568 178.82L44.4073 178.77L37.5838 182.412L36.1695 180.997L45.2417 176.479Z" fill="white"/>
<path d="M38.8477 176.803C36.592 178.677 33.9263 178.628 32.2151 176.605C30.8221 174.901 30.5463 172.447 33.2121 170.248L33.707 169.838L38.0345 175.043C38.3445 174.835 38.6058 174.563 38.8005 174.245C38.9952 173.927 39.1186 173.571 39.1622 173.2C39.2059 172.83 39.1688 172.455 39.0535 172.1C38.9381 171.746 38.7473 171.42 38.4942 171.146C38.2654 170.809 37.9448 170.543 37.5702 170.382C37.1956 170.22 36.7826 170.169 36.3799 170.234L35.1566 168.771C36.6486 168.099 38.3739 168.551 39.7104 170.185C41.5206 172.334 41.1317 174.901 38.8477 176.803ZM33.8061 172.143C33.5405 172.333 33.3173 172.576 33.1508 172.857C32.9842 173.137 32.8779 173.449 32.8387 173.773C32.7994 174.097 32.8281 174.426 32.9228 174.738C33.0175 175.05 33.1763 175.34 33.3889 175.587C33.8202 176.098 34.4336 176.421 35.099 176.487C35.7644 176.553 36.4294 176.357 36.9527 175.941L33.8061 172.143Z" fill="white"/>
<path d="M29.2884 159.48L29.1895 159.381L18.399 161.318L17.3878 159.501L30.7663 157.323L31.8553 159.275L22.9811 169.45L21.9699 167.633L29.2884 159.48Z" fill="white"/>
<path d="M15.7404 156.58C15.6711 156.444 15.6303 156.295 15.6207 156.143C15.611 155.99 15.6327 155.837 15.6844 155.693C15.7361 155.55 15.8166 155.418 15.9212 155.306C16.0257 155.195 16.1519 155.106 16.2921 155.045C16.4323 154.984 16.5835 154.952 16.7363 154.952C16.8892 154.952 17.0405 154.983 17.1809 155.043C17.3213 155.104 17.4479 155.192 17.5528 155.303C17.6578 155.414 17.7388 155.546 17.791 155.689C17.8604 155.826 17.9012 155.975 17.9108 156.127C17.9205 156.28 17.8988 156.433 17.8471 156.576C17.7954 156.72 17.7148 156.852 17.6103 156.964C17.5058 157.075 17.3795 157.164 17.2394 157.225C17.0992 157.286 16.948 157.318 16.7952 157.318C16.6423 157.318 16.491 157.287 16.3506 157.227C16.2102 157.166 16.0836 157.078 15.9786 156.967C15.8737 156.855 15.7927 156.724 15.7404 156.58ZM19.5164 155.958L18.7669 154.247L27.5138 150.436L28.2633 152.147L19.5164 155.958Z" fill="white"/>
<path d="M17.7771 147.883C18.166 148.908 18.9155 149.417 19.6014 149.198C20.2873 148.979 20.3651 148.434 20.2661 147.373L20.1176 145.811C19.9338 144.015 20.4641 142.933 21.7157 142.487C23.3561 141.95 24.9896 142.933 25.7745 145.245C26.5593 147.557 26.0007 149.007 24.4098 149.82L23.7875 147.982C24.53 147.55 24.728 146.801 24.3673 145.733C24.0067 144.665 23.243 144.029 22.4652 144.298C21.8783 144.474 21.6874 145.075 21.7935 146.087L21.9632 147.586C22.1399 149.332 21.5601 150.478 20.3227 150.923C18.7176 151.453 17.1336 150.435 16.3629 148.378C15.5921 146.32 16.2851 144.764 17.77 144.057L18.3569 145.761C18.0262 145.99 17.7868 146.328 17.6808 146.716C17.5747 147.104 17.6088 147.517 17.7771 147.883Z" fill="white"/>
<path d="M10.9045 142.438C10.8269 142.148 10.8674 141.838 11.0171 141.577C11.1668 141.316 11.4135 141.125 11.7035 141.045C11.9278 140.977 12.1672 140.978 12.3909 141.048C12.6145 141.118 12.8121 141.253 12.9579 141.437C13.1037 141.62 13.1911 141.843 13.2088 142.077C13.2265 142.31 13.1736 142.544 13.0571 142.747C12.9405 142.95 12.7656 143.114 12.555 143.217C12.3444 143.319 12.1078 143.357 11.8759 143.323C11.644 143.29 11.4274 143.188 11.2542 143.03C11.081 142.872 10.9592 142.666 10.9045 142.438ZM14.7299 142.431L14.2986 140.586L23.5405 138.231L23.9718 140.076L14.7299 142.431Z" fill="white"/>
<path d="M14.2842 133.331L14.6377 135.24L19.8279 134.293C20.8956 134.116 20.9734 133.543 20.8603 132.963C20.8089 132.656 20.7404 132.351 20.6552 132.051L22.2462 131.747C22.3812 132.105 22.4853 132.474 22.5573 132.85C22.659 133.193 22.6868 133.553 22.6388 133.907C22.5908 134.26 22.4681 134.6 22.2788 134.903C22.0896 135.206 21.8382 135.465 21.5412 135.663C21.2442 135.862 20.9085 135.995 20.5562 136.053L15.0125 137.1L15.2741 138.479L13.8175 138.748L13.5559 137.369L11.3002 137.8L10.9466 135.962L13.2094 135.537L12.8487 133.621L14.2842 133.331Z" fill="white"/>
</svg>
