<svg width="1920" height="363" viewBox="0 0 1920 363" fill="none" xmlns="http://www.w3.org/2000/svg">
<path d="M-1 180.968H1920.5" stroke="#0052C9" stroke-width="1.44796" stroke-miterlimit="10"/>
<path d="M525.885 185.834C528.572 185.834 530.751 183.656 530.751 180.968C530.751 178.281 528.572 176.103 525.885 176.103C523.198 176.103 521.02 178.281 521.02 180.968C521.02 183.656 523.198 185.834 525.885 185.834Z" fill="white" stroke="#0052C9" stroke-width="2.89624" stroke-miterlimit="10"/>
<path d="M525.881 135.367V137.539" stroke="#9E9E9E" stroke-width="1.44812" stroke-miterlimit="10"/>
<path d="M525.881 142.39V169.079" stroke="#9E9E9E" stroke-width="1.44812" stroke-miterlimit="10" stroke-dasharray="4.85 4.85"/>
<path d="M525.881 171.498V173.67" stroke="#9E9E9E" stroke-width="1.44812" stroke-miterlimit="10"/>
<path d="M746.27 185.834C748.957 185.834 751.136 183.656 751.136 180.968C751.136 178.281 748.957 176.103 746.27 176.103C743.583 176.103 741.404 178.281 741.404 180.968C741.404 183.656 743.583 185.834 746.27 185.834Z" fill="white" stroke="#0052C9" stroke-width="2.89624" stroke-miterlimit="10"/>
<path d="M746.273 226.57V224.398" stroke="#9E9E9E" stroke-width="1.44812" stroke-miterlimit="10"/>
<path d="M746.273 219.546V192.872" stroke="#9E9E9E" stroke-width="1.44812" stroke-miterlimit="10" stroke-dasharray="4.85 4.85"/>
<path d="M746.273 190.439V188.267" stroke="#9E9E9E" stroke-width="1.44812" stroke-miterlimit="10"/>
<path d="M1179.35 185.834C1182.04 185.834 1184.21 183.656 1184.21 180.968C1184.21 178.281 1182.04 176.103 1179.35 176.103C1176.66 176.103 1174.48 178.281 1174.48 180.968C1174.48 183.656 1176.66 185.834 1179.35 185.834Z" fill="white" stroke="#0052C9" stroke-width="2.89624" stroke-miterlimit="10"/>
<path d="M1179.35 226.57V224.398" stroke="#9E9E9E" stroke-width="1.44812" stroke-miterlimit="10"/>
<path d="M1179.35 219.546V192.872" stroke="#9E9E9E" stroke-width="1.44812" stroke-miterlimit="10" stroke-dasharray="4.85 4.85"/>
<path d="M1179.35 190.439V188.267" stroke="#9E9E9E" stroke-width="1.44812" stroke-miterlimit="10"/>
<path d="M1397.69 185.834C1400.38 185.834 1402.56 183.656 1402.56 180.968C1402.56 178.281 1400.38 176.103 1397.69 176.103C1395.01 176.103 1392.83 178.281 1392.83 180.968C1392.83 183.656 1395.01 185.834 1397.69 185.834Z" fill="white" stroke="#0052C9" stroke-width="2.89624" stroke-miterlimit="10"/>
<path d="M1397.7 135.367V137.539" stroke="#9E9E9E" stroke-width="1.44812" stroke-miterlimit="10"/>
<path d="M1397.7 142.39V169.079" stroke="#9E9E9E" stroke-width="1.44812" stroke-miterlimit="10" stroke-dasharray="4.85 4.85"/>
<path d="M1397.7 171.498V173.67" stroke="#9E9E9E" stroke-width="1.44812" stroke-miterlimit="10"/>
<path d="M961 185.834C963.688 185.834 965.866 183.656 965.866 180.968C965.866 178.281 963.688 176.103 961 176.103C958.313 176.103 956.135 178.281 956.135 180.968C956.135 183.656 958.313 185.834 961 185.834Z" fill="white" stroke="#0052C9" stroke-width="2.89624" stroke-miterlimit="10"/>
<path d="M961 135.367V137.539" stroke="#9E9E9E" stroke-width="1.44812" stroke-miterlimit="10"/>
<path d="M961 142.39V169.079" stroke="#9E9E9E" stroke-width="1.44812" stroke-miterlimit="10" stroke-dasharray="4.85 4.85"/>
<path d="M961 171.498V173.67" stroke="#9E9E9E" stroke-width="1.44812" stroke-miterlimit="10"/>
<path d="M1480.88 5H1315.69C1310.89 5 1307 8.89008 1307 13.6887V39.8128C1307 44.6115 1310.89 48.5016 1315.69 48.5016H1480.88C1485.67 48.5016 1489.56 44.6115 1489.56 39.8128V13.6887C1489.56 8.89008 1485.67 5 1480.88 5Z" fill="#0052C9"/>
<path d="M1364.56 37H1378.72V33.6094H1370.27V33.5L1373.28 30.5742C1377.36 26.8828 1378.45 25.0371 1378.45 22.7812C1378.45 19.3496 1375.63 16.9297 1371.39 16.9297C1367.22 16.9297 1364.35 19.4043 1364.37 23.2734H1368.28C1368.26 21.373 1369.48 20.1973 1371.34 20.2109C1373.16 20.1973 1374.48 21.291 1374.48 23.0547C1374.48 24.627 1373.49 25.7207 1371.64 27.4844L1364.53 34.0195L1364.56 37ZM1389.33 37.2734C1394.28 37.2734 1397.29 33.6094 1397.29 27.1016C1397.29 20.6348 1394.27 16.9297 1389.33 16.9297C1384.4 16.9297 1381.38 20.6348 1381.38 27.1016C1381.38 33.582 1384.37 37.2734 1389.33 37.2734ZM1385.59 27.1016C1385.59 22.5762 1387.05 20.3066 1389.33 20.293C1391.62 20.3066 1393.09 22.5762 1393.08 27.1016C1393.09 31.668 1391.63 33.8828 1389.33 33.8828C1387.04 33.8828 1385.56 31.668 1385.59 27.1016ZM1400.13 37H1414.3V33.6094H1405.85V33.5L1408.86 30.5742C1412.93 26.8828 1414.02 25.0371 1414.02 22.7812C1414.02 19.3496 1411.21 16.9297 1406.97 16.9297C1402.8 16.9297 1399.93 19.4043 1399.94 23.2734H1403.85C1403.84 21.373 1405.05 20.1973 1406.91 20.2109C1408.73 20.1973 1410.06 21.291 1410.06 23.0547C1410.06 24.627 1409.06 25.7207 1407.21 27.4844L1400.11 34.0195L1400.13 37ZM1424.55 37.2734C1429.02 37.2734 1432.23 34.8398 1432.21 31.4492C1432.23 28.9746 1430.63 27.2109 1427.72 26.8555V26.6914C1429.94 26.2949 1431.48 24.7227 1431.47 22.5078C1431.48 19.377 1428.73 16.9297 1424.61 16.9297C1420.54 16.9297 1417.48 19.2949 1417.41 22.6992H1421.35C1421.42 21.1816 1422.86 20.1973 1424.61 20.2109C1426.36 20.1973 1427.52 21.2363 1427.5 22.7539C1427.52 24.3125 1426.15 25.3789 1424.2 25.3789H1422.36V28.4141H1424.2C1426.52 28.4277 1427.96 29.5625 1427.94 31.1758C1427.96 32.7754 1426.55 33.8691 1424.58 33.8828C1422.66 33.8691 1421.23 32.8984 1421.16 31.4219H1417C1417.09 34.8809 1420.2 37.2734 1424.55 37.2734Z" fill="white"/>
<path d="M1328.56 77.8594V92H1330.22V81.3164H1330.34L1334.73 92H1336.3L1340.69 81.3164H1340.83V92H1342.49V77.8594H1340.38L1335.61 89.5H1335.44L1330.67 77.8594H1328.56ZM1355.26 82.3125H1357.02C1356.49 79.373 1354.18 77.6641 1351.32 77.6641C1347.68 77.6641 1345.06 80.457 1345.07 84.9297C1345.06 89.4023 1347.68 92.1953 1351.32 92.1953C1354.19 92.1953 1356.51 90.457 1357.02 87.5664H1355.26C1354.84 89.5 1353.18 90.5449 1351.32 90.5547C1348.76 90.5449 1346.78 88.5723 1346.77 84.9297C1346.78 81.2773 1348.76 79.3047 1351.32 79.3047C1353.18 79.3047 1354.85 80.3594 1355.26 82.3125ZM1370.71 77.8594H1368.97V88.8945H1368.84L1361.18 77.8594H1359.48V92H1361.24V80.9844H1361.38L1369.03 92H1370.71V77.8594ZM1383.82 80.8867V77.7227H1382.31V80.8867C1382.29 84.0605 1380.28 87.3906 1377.74 88.6406L1378.72 89.8711C1380.67 88.8262 1382.31 86.6289 1383.08 84.0703C1383.86 86.4824 1385.46 88.543 1387.37 89.5391L1388.31 88.3086C1385.84 87.0977 1383.82 83.9434 1383.82 80.8867ZM1389.91 93.582H1391.43V84.5977H1394.34V83.2695H1391.43V76.2188H1389.91V93.582ZM1400.07 77.0391C1397.42 77.0293 1395.54 78.6895 1395.55 81.043C1395.54 83.4258 1397.42 85.0664 1400.07 85.0664C1402.42 85.0664 1404.21 83.6992 1404.51 81.6484H1408.13V85.5352H1409.68V76.2188H1408.13V80.3789H1404.5C1404.17 78.3867 1402.39 77.0293 1400.07 77.0391ZM1397.02 81.043C1397.02 79.4414 1398.28 78.3281 1400.07 78.3477C1401.81 78.3281 1403.07 79.4414 1403.07 81.043C1403.07 82.625 1401.81 83.7676 1400.07 83.7773C1398.28 83.7676 1397.02 82.625 1397.02 81.043ZM1398.48 93.3477H1409.68V86.4141H1408.13V88.6211H1400.03V86.4141H1398.48V93.3477ZM1400.03 92.0977V89.8516H1408.13V92.0977H1400.03ZM1428.45 86.5312H1412.55V87.7812H1419.7V93.582H1421.2V87.7812H1428.45V86.5312ZM1414.58 84.4219H1426.39V76.9414H1424.85V79.3438H1416.1V76.9414H1414.58V84.4219ZM1416.1 83.1719V80.5938H1424.85V83.1719H1416.1ZM1449.21 76.2383H1447.68V88.9727H1449.21V76.2383ZM1435.05 85.2617L1435.89 86.4531C1437.92 85.6426 1439.5 83.9336 1440.25 81.8047C1441.02 83.8066 1442.59 85.3691 1444.6 86.1406L1445.4 84.9102C1442.81 83.9727 1441 81.5996 1441.02 78.9531V77.2148H1439.46V78.9531C1439.46 81.6973 1437.67 84.2363 1435.05 85.2617ZM1438 93.2109H1449.75V91.9219H1439.52V87.8008H1438V93.2109ZM1466.55 76.2188H1465.01V79.4219H1461.14V80.6914H1465.01V85.2031H1466.55V76.2188ZM1452.14 84.0117L1452.98 85.2422C1455.03 84.5 1456.6 82.9863 1457.34 81.0039C1458.11 82.7617 1459.65 84.1289 1461.57 84.8125L1462.39 83.6211C1459.85 82.791 1458.05 80.7012 1458.07 78.4258V76.7852H1456.57V78.4258C1456.55 80.9648 1454.75 83.1426 1452.14 84.0117ZM1455.3 87.3125H1465.03V89.0508H1455.34V93.3477H1467.2V92.1172H1456.84V90.2227H1466.55V86.082H1455.3V87.3125Z" fill="black"/>
<rect x="1302.75" y="0.75" width="190.5" height="121.5" rx="9.25" stroke="#0052C9" stroke-width="1.5"/>
<path d="M1043.88 5H878.689C873.89 5 870 8.89008 870 13.6887V39.8128C870 44.6115 873.89 48.5016 878.689 48.5016H1043.88C1048.67 48.5016 1052.56 44.6115 1052.56 39.8128V13.6887C1052.56 8.89008 1048.67 5 1043.88 5Z" fill="#0052C9"/>
<path d="M927.559 37H941.723V33.6094H933.273V33.5L936.281 30.5742C940.355 26.8828 941.449 25.0371 941.449 22.7812C941.449 19.3496 938.633 16.9297 934.395 16.9297C930.225 16.9297 927.354 19.4043 927.367 23.2734H931.277C931.264 21.373 932.48 20.1973 934.34 20.2109C936.158 20.1973 937.484 21.291 937.484 23.0547C937.484 24.627 936.486 25.7207 934.641 27.4844L927.531 34.0195L927.559 37ZM952.332 37.2734C957.281 37.2734 960.289 33.6094 960.289 27.1016C960.289 20.6348 957.268 16.9297 952.332 16.9297C947.396 16.9297 944.375 20.6348 944.375 27.1016C944.375 33.582 947.369 37.2734 952.332 37.2734ZM948.586 27.1016C948.586 22.5762 950.049 20.3066 952.332 20.293C954.615 20.3066 956.092 22.5762 956.078 27.1016C956.092 31.668 954.629 33.8828 952.332 33.8828C950.035 33.8828 948.559 31.668 948.586 27.1016ZM963.133 37H977.297V33.6094H968.848V33.5L971.855 30.5742C975.93 26.8828 977.023 25.0371 977.023 22.7812C977.023 19.3496 974.207 16.9297 969.969 16.9297C965.799 16.9297 962.928 19.4043 962.941 23.2734H966.852C966.838 21.373 968.055 20.1973 969.914 20.2109C971.732 20.1973 973.059 21.291 973.059 23.0547C973.059 24.627 972.061 25.7207 970.215 27.4844L963.105 34.0195L963.133 37ZM988.754 17.2031H984.871L979.977 20.3203V23.957L984.516 21.1133H984.625V37H988.754V17.2031Z" fill="white"/>
<path d="M915.695 63.2188H914.23V73.9805H915.695V63.2188ZM900.891 69.9766L901.066 71.1875C902.141 71.1875 903.479 71.1875 904.914 71.1191V73.9219H906.398V71.0312C907.707 70.9336 909.035 70.7773 910.246 70.5234L910.129 69.4883C907.219 69.9375 903.293 69.9766 900.891 69.9766ZM901.809 66.4219C901.809 67.9941 903.322 68.9902 905.598 68.9805C907.863 68.9902 909.396 67.9941 909.406 66.4219C909.396 64.8105 907.863 63.8438 905.598 63.8438C903.322 63.8438 901.809 64.8105 901.809 66.4219ZM903.215 66.4219C903.215 65.5039 904.143 64.9375 905.598 64.957C907.053 64.9375 908.01 65.5039 908.02 66.4219C908.01 67.3105 907.053 67.8672 905.598 67.8672C904.143 67.8672 903.215 67.3105 903.215 66.4219ZM903.996 80.3477H915.695V74.6055H914.172V76.2461H905.5V74.6055H903.996V80.3477ZM905.5 79.1172V77.4766H914.172V79.1172H905.5ZM908 72.9258H911.086V73.9219H912.551V63.5312H911.086V71.8125H908V72.9258ZM923.957 64.1953H922.414L917.863 81.1289H919.387L923.957 64.1953ZM929.113 64.1953C926.779 64.1758 925.139 65.7969 925.148 68.1211C925.139 70.4355 926.779 72.0566 929.113 72.0469C931.428 72.0566 933.088 70.4355 933.098 68.1211C933.088 65.7969 931.428 64.1758 929.113 64.1953ZM926.535 68.1211C926.516 66.5586 927.619 65.4551 929.113 65.4453C930.588 65.4551 931.682 66.5586 931.691 68.1211C931.682 69.6641 930.588 70.7676 929.113 70.7773C927.619 70.7676 926.516 69.6641 926.535 68.1211ZM928.254 80.3477H939.699V73.4727H938.195V75.543H929.777V73.4727H928.254V80.3477ZM929.777 79.0977V76.8125H938.195V79.0977H929.777ZM934.484 72.5547H935.93V68.5117H938.234V72.6914H939.699V63.2383H938.234V67.2227H935.93V63.5703H934.484V72.5547ZM962.082 63.2188H960.578V70.2305H958.176V63.6875H956.711V79.7227H958.176V71.5H960.578V80.582H962.082V63.2188ZM947.277 75.7773L948.176 76.8516C953.166 74.0684 954.719 69.8984 954.738 65.4844H947.941V66.7539H953.234C952.971 70.3477 951.311 73.5215 947.277 75.7773ZM966.789 63.9609H965.285V71.5195H973.371V63.9609H971.848V66.4609H966.789V63.9609ZM966.789 70.2695V67.6523H971.848V70.2695H966.789ZM967.043 74.2539H976.594V76.0508H967.082V80.3867H978.762V79.1367H968.586V77.2227H978.117V73.0234H967.043V74.2539ZM976.594 72.2031H978.117V68.2773H980.734V66.9883H978.117V63.2188H976.594V72.2031ZM1002.73 72.418H986.828V73.668H994.133V77.0664H995.656V73.668H1002.73V72.418ZM988.859 80.2109H1000.95V78.9219H990.383V75.4648H988.859V80.2109ZM988.957 70.7188H1000.6V63.7852H999.074V66.0117H990.48V63.7852H988.957V70.7188ZM990.48 69.4688V67.1836H999.074V69.4688H990.48ZM1008.78 64.5664C1006.2 64.5762 1004.4 66.9297 1004.41 70.6211C1004.4 74.3223 1006.2 76.666 1008.78 76.6562C1011.34 76.666 1013.16 74.3223 1013.18 70.6211C1013.16 66.9297 1011.34 64.5762 1008.78 64.5664ZM1005.85 70.6211C1005.86 67.7988 1007.06 65.9434 1008.78 65.9336C1010.52 65.9434 1011.69 67.7988 1011.69 70.6211C1011.69 73.4434 1010.52 75.2988 1008.78 75.2891C1007.06 75.2988 1005.86 73.4434 1005.85 70.6211ZM1016.05 80.582H1017.57V74.0586H1020.38V72.7695H1017.57V68.9023H1020.38V67.5938H1017.57V63.2188H1016.05V80.582ZM929.943 95.8867V92.7227H928.439V95.8867C928.42 99.0605 926.408 102.391 923.869 103.641L924.846 104.871C926.799 103.826 928.439 101.629 929.211 99.0703C929.982 101.482 931.584 103.543 933.498 104.539L934.436 103.309C931.965 102.098 929.943 98.9434 929.943 95.8867ZM936.037 108.582H937.561V99.5977H940.471V98.2695H937.561V91.2188H936.037V108.582ZM946.193 92.0391C943.547 92.0293 941.672 93.6895 941.682 96.043C941.672 98.4258 943.547 100.066 946.193 100.066C948.547 100.066 950.334 98.6992 950.637 96.6484H954.26V100.535H955.803V91.2188H954.26V95.3789H950.627C950.295 93.3867 948.518 92.0293 946.193 92.0391ZM943.146 96.043C943.146 94.4414 944.406 93.3281 946.193 93.3477C947.941 93.3281 949.201 94.4414 949.201 96.043C949.201 97.625 947.941 98.7676 946.193 98.7773C944.406 98.7676 943.146 97.625 943.146 96.043ZM944.611 108.348H955.803V101.414H954.26V103.621H946.154V101.414H944.611V108.348ZM946.154 107.098V104.852H954.26V107.098H946.154ZM977.268 91.2383H975.725V102.879H977.268V97.7812H979.865V96.4922H977.268V91.2383ZM963.635 101.102L963.811 102.352C966.867 102.361 971.018 102.332 974.787 101.668L974.65 100.555C973.127 100.779 971.486 100.916 969.865 100.994V99.7734C971.877 99.5781 973.146 98.6504 973.166 97.2148C973.146 95.6328 971.545 94.6562 969.084 94.6562C966.643 94.6562 965.012 95.6328 965.021 97.2148C965.012 98.6602 966.32 99.5879 968.342 99.7734V101.053C966.643 101.102 965.021 101.102 963.635 101.102ZM964.064 93.9922H974.123V92.8203H969.865V91.082H968.342V92.8203H964.064V93.9922ZM965.764 104.969H975.725V108.582H977.268V103.738H965.764V104.969ZM966.486 97.2148C966.477 96.2969 967.482 95.7305 969.084 95.75C970.686 95.7305 971.701 96.2969 971.701 97.2148C971.701 98.123 970.686 98.7383 969.084 98.7188C967.482 98.7383 966.477 98.123 966.486 97.2148ZM986.877 94.5195V93.7773H990.783V92.5078H981.408V93.7773H985.373V94.5195C985.354 97.0293 983.537 99.2656 980.939 100.145L981.721 101.375C983.801 100.623 985.402 99.0703 986.145 97.0781C986.896 98.8262 988.41 100.203 990.412 100.867L991.135 99.6562C988.586 98.8262 986.887 96.7949 986.877 94.5195ZM983.244 105.34C983.254 107.371 985.432 108.543 989.006 108.543C992.57 108.543 994.729 107.371 994.729 105.34C994.729 103.338 992.57 102.176 989.006 102.176C985.432 102.176 983.254 103.338 983.244 105.34ZM984.787 105.34C984.768 104.129 986.389 103.406 989.006 103.406C991.633 103.406 993.234 104.129 993.244 105.34C993.234 106.59 991.633 107.322 989.006 107.312C986.389 107.322 984.768 106.59 984.787 105.34ZM993.049 101.707H994.572V96.9414H997.189V95.6523H994.572V91.2188H993.049V101.707Z" fill="black"/>
<rect x="865.75" y="0.75" width="190.5" height="121.5" rx="9.25" stroke="#0052C9" stroke-width="1.5"/>
<path d="M608.876 5H443.689C438.89 5 435 8.89008 435 13.6887V39.8128C435 44.6115 438.89 48.5016 443.689 48.5016H608.876C613.675 48.5016 617.565 44.6115 617.565 39.8128V13.6887C617.565 8.89008 613.675 5 608.876 5Z" fill="#0052C9"/>
<path d="M492.559 37H506.723V33.6094H498.273V33.5L501.281 30.5742C505.355 26.8828 506.449 25.0371 506.449 22.7812C506.449 19.3496 503.633 16.9297 499.395 16.9297C495.225 16.9297 492.354 19.4043 492.367 23.2734H496.277C496.264 21.373 497.48 20.1973 499.34 20.2109C501.158 20.1973 502.484 21.291 502.484 23.0547C502.484 24.627 501.486 25.7207 499.641 27.4844L492.531 34.0195L492.559 37ZM517.332 37.2734C522.281 37.2734 525.289 33.6094 525.289 27.1016C525.289 20.6348 522.268 16.9297 517.332 16.9297C512.396 16.9297 509.375 20.6348 509.375 27.1016C509.375 33.582 512.369 37.2734 517.332 37.2734ZM513.586 27.1016C513.586 22.5762 515.049 20.3066 517.332 20.293C519.615 20.3066 521.092 22.5762 521.078 27.1016C521.092 31.668 519.629 33.8828 517.332 33.8828C515.035 33.8828 513.559 31.668 513.586 27.1016ZM536.664 17.2031H532.781L527.887 20.3203V23.957L532.426 21.1133H532.535V37H536.664V17.2031ZM548.914 37.2734C553.385 37.2871 556.42 34.4023 556.406 30.3828C556.42 26.6504 553.768 23.9844 550.199 23.9844C548.012 23.9844 546.057 25.0098 545.141 26.7734H544.949C544.977 22.877 546.385 20.457 549.078 20.457C550.678 20.457 551.812 21.3184 552.141 22.6992H556.188C555.791 19.4453 553.057 16.9297 549.078 16.9297C544.129 16.9297 540.943 20.8809 540.93 27.5664C540.916 34.8125 544.826 37.2598 548.914 37.2734ZM545.359 30.4922C545.387 28.5645 546.918 26.9785 548.941 26.9648C550.951 26.9785 552.414 28.5098 552.414 30.4922C552.414 32.4883 550.924 34.0332 548.887 34.0195C546.863 34.0332 545.387 32.4336 545.359 30.4922Z" fill="white"/>
<path d="M457.453 73.6094C457.473 77.3008 458.469 80.3672 460.266 82.9844H461.75C460.432 81.041 459.201 77.0957 459.191 73.6094C459.201 70.1328 460.432 66.1777 461.75 64.2539H460.266C458.469 66.8613 457.473 69.9277 457.453 73.6094ZM471.965 65.6797V65.5625H477.512V64.3125H464.68V65.5625H470.246V65.6797C470.236 68.0039 467.15 69.9766 464.133 70.4258L464.738 71.6367C467.404 71.1777 470.051 69.7324 471.105 67.6426C472.16 69.7324 474.807 71.1777 477.512 71.6367L478.078 70.4258C475.051 69.9766 471.955 68.0039 471.965 65.6797ZM463.195 74.3906H470.324V80.582H471.828V74.3906H479.016V73.1211H463.195V74.3906ZM484.816 73.6094C484.797 69.9277 483.801 66.8613 482.004 64.2539H480.52C481.838 66.1777 483.068 70.1328 483.078 73.6094C483.068 77.0957 481.838 81.041 480.52 82.9844H482.004C483.801 80.3672 484.797 77.3008 484.816 73.6094ZM502.16 63.2188H500.695V80.582H502.16V63.2188ZM487.316 75.7188L488.215 76.832C490.637 75.4062 492.316 73.6191 493.361 71.5977H497.043V79.7031H498.508V63.6875H497.043V70.3477H493.928C494.523 68.8047 494.797 67.1543 494.797 65.4453H488.059V66.7148H493.273C492.98 70.3477 491.086 73.4824 487.316 75.7188ZM518.918 63.2383H517.395V73.1602H518.918V63.2383ZM504.992 68.2188C504.982 70.6016 506.906 72.2617 509.543 72.2617C512.18 72.2617 514.084 70.6016 514.094 68.2188C514.084 65.7969 512.18 64.1562 509.543 64.1562C506.906 64.1562 504.982 65.7969 504.992 68.2188ZM506.496 68.2188C506.477 66.5977 507.756 65.4551 509.543 65.4648C511.311 65.4551 512.59 66.5977 512.59 68.2188C512.59 69.8301 511.311 70.9629 509.543 70.9531C507.756 70.9629 506.477 69.8301 506.496 68.2188ZM507.629 80.3477H518.918V74.0977H507.629V80.3477ZM509.133 79.0977V75.3477H517.414V79.0977H509.133ZM536.203 63.2383H534.68V75.9336H536.203V63.2383ZM522.277 68.707C522.268 71.2363 524.23 72.9941 526.828 72.9844C529.426 72.9941 531.369 71.2363 531.379 68.707C531.369 66.207 529.426 64.459 526.828 64.4492C524.23 64.459 522.268 66.207 522.277 68.707ZM523.781 68.707C523.762 67.0078 525.07 65.7969 526.828 65.7969C528.557 65.7969 529.875 67.0078 529.875 68.707C529.875 70.4355 528.557 71.6367 526.828 71.6367C525.07 71.6367 523.762 70.4355 523.781 68.707ZM524.992 80.2109H536.75V78.9219H526.516V74.6445H524.992V80.2109ZM547.805 65.7773V64.4492H546.203V65.7773C546.193 68.7656 542.824 71.3926 539.816 71.9688L540.52 73.2578C543.146 72.6426 545.891 70.7871 547.023 68.2383C548.146 70.7871 550.9 72.6523 553.527 73.2578L554.23 71.9688C551.213 71.4023 547.814 68.7559 547.805 65.7773ZM539.152 78.2188H555.051V76.9492H539.152V78.2188ZM575.852 63.2188H574.309V66.4219H570.441V67.6914H574.309V72.2031H575.852V63.2188ZM561.438 71.0117L562.277 72.2422C564.328 71.5 565.9 69.9863 566.643 68.0039C567.414 69.7617 568.947 71.1289 570.871 71.8125L571.691 70.6211C569.152 69.791 567.355 67.7012 567.375 65.4258V63.7852H565.871V65.4258C565.852 67.9648 564.055 70.1426 561.438 71.0117ZM564.602 74.3125H574.328V76.0508H564.641V80.3477H576.496V79.1172H566.145V77.2227H575.852V73.082H564.602V74.3125ZM593.078 63.2383H591.555V72.7695H593.078V63.2383ZM579.621 65.3477H586.027V67.5547H579.66V72.418H581.066C584.27 72.3984 586.643 72.3105 589.562 71.8516L589.387 70.582C586.564 71.041 584.25 71.1094 581.145 71.1289V68.7656H587.551V64.0781H579.621V65.3477ZM581.789 80.3477H593.078V73.6484H591.555V75.7188H583.332V73.6484H581.789V80.3477ZM583.332 79.0977V76.9492H591.555V79.0977H583.332ZM455.207 91.7656H442.375V92.9766H445.051V96.3359H442.434V97.5273H455.148V96.3359H452.531V92.9766H455.207V91.7656ZM440.891 100.223H456.711V98.9922H440.891V100.223ZM442.805 102.938H453.176V104.441H442.844V108.387H455.207V107.215H444.367V105.555H454.68V101.785H442.805V102.938ZM446.574 96.3359V92.9766H451.008V96.3359H446.574ZM472.922 91.2383H471.457V95.7891H469.016V91.5703H467.59V101.57H469.016V97.0586H471.457V103.074H472.922V91.2383ZM458.938 93.8555H464.055V96.2773H458.977V101.277H460.109C462.648 101.277 464.484 101.199 466.73 100.75L466.555 99.5195C464.504 99.9395 462.746 100.047 460.461 100.047V97.4492H465.52V92.5859H458.938V93.8555ZM460.383 107.312L461.008 108.504C463.576 108.074 466.057 106.736 467.121 104.793C468.176 106.736 470.646 108.074 473.234 108.504L473.859 107.312C470.812 106.844 467.883 104.998 467.883 102.703V102.254H466.359V102.703C466.34 104.998 463.41 106.844 460.383 107.312ZM491.281 99.9883H484.113V97.9766H489.719V96.707H487.102V93.0547H489.777V91.7852H476.945V93.0547H479.621V96.707H477.004V97.9766H482.59V99.9883H475.461V101.238H491.281V99.9883ZM477.395 108.348H489.348V102.918H477.395V108.348ZM478.918 107.098V104.109H487.844V107.098H478.918ZM481.145 96.707V93.0547H485.578V96.707H481.145ZM512.59 91.2188H511.086V98.2305H508.684V91.6875H507.219V107.723H508.684V99.5H511.086V108.582H512.59V91.2188ZM497.785 103.777L498.684 104.852C503.674 102.068 505.227 97.8984 505.246 93.4844H498.449V94.7539H503.742C503.479 98.3477 501.818 101.521 497.785 103.777ZM517.297 91.9609H515.793V99.5195H523.879V91.9609H522.355V94.4609H517.297V91.9609ZM517.297 98.2695V95.6523H522.355V98.2695H517.297ZM517.551 102.254H527.102V104.051H517.59V108.387H529.27V107.137H519.094V105.223H528.625V101.023H517.551V102.254ZM527.102 100.203H528.625V96.2773H531.242V94.9883H528.625V91.2188H527.102V100.203ZM553.234 100.047H537.336V101.316H544.641V104.871H546.184V101.316H553.234V100.047ZM539.133 95.1641C539.123 97.3027 541.555 98.6309 545.266 98.6211C548.977 98.6309 551.379 97.3027 551.379 95.1641C551.379 93.0059 548.977 91.6777 545.266 91.668C541.555 91.6777 539.123 93.0059 539.133 95.1641ZM539.387 108.211H551.457V106.902H540.93V103.133H539.387V108.211ZM540.773 95.1641C540.754 93.7773 542.561 92.9277 545.266 92.918C547.961 92.9277 549.758 93.7773 549.758 95.1641C549.758 96.5117 547.961 97.3711 545.266 97.3711C542.561 97.3711 540.754 96.5117 540.773 95.1641ZM559.426 92.2734C556.828 92.2637 554.904 93.9629 554.914 96.3945C554.904 98.8066 556.828 100.506 559.426 100.496C560.891 100.506 562.141 99.9492 562.941 99.0312H567.492V101.512H569.035V91.2188H567.492V93.7383H562.941C562.131 92.8203 560.891 92.2637 559.426 92.2734ZM556.379 96.3945C556.379 94.7441 557.648 93.5918 559.426 93.6016C561.145 93.5918 562.434 94.7441 562.434 96.3945C562.434 98.0059 561.145 99.1973 559.426 99.1875C557.648 99.1973 556.379 98.0059 556.379 96.3945ZM557.453 105.223C557.443 107.332 559.67 108.543 563.273 108.543C566.867 108.543 569.094 107.332 569.094 105.223C569.094 103.133 566.867 101.922 563.273 101.922C559.67 101.922 557.443 103.133 557.453 105.223ZM558.957 105.223C558.947 103.904 560.607 103.123 563.273 103.113C565.939 103.123 567.6 103.904 567.59 105.223C567.6 106.531 565.939 107.322 563.273 107.312C560.607 107.322 558.947 106.531 558.957 105.223ZM563.674 94.9883H567.492V97.7617H563.684C563.83 97.3418 563.918 96.8828 563.918 96.3945C563.918 95.8867 563.83 95.418 563.674 94.9883ZM591.77 91.2188H590.266V98.2305H587.863V91.6875H586.398V107.723H587.863V99.5H590.266V108.582H591.77V91.2188ZM576.965 103.777L577.863 104.852C582.854 102.068 584.406 97.8984 584.426 93.4844H577.629V94.7539H582.922C582.658 98.3477 580.998 101.521 576.965 103.777ZM600.402 95.8867V92.7227H598.879V95.8867C598.859 99.1777 596.721 102.498 594.133 103.68L595.109 104.969C597.141 103.943 598.85 101.746 599.65 99.1289C600.48 101.6 602.189 103.66 604.172 104.617L605.109 103.406C602.551 102.244 600.393 99.0605 600.402 95.8867ZM607.004 108.621H608.547V91.2188H607.004V108.621Z" fill="black"/>
<rect x="430.75" y="0.75" width="190.5" height="121.5" rx="9.25" stroke="#0052C9" stroke-width="1.5"/>
<path d="M828.876 244.776H663.689C658.89 244.776 655 248.667 655 253.465V279.589C655 284.388 658.89 288.278 663.689 288.278H828.876C833.675 288.278 837.565 284.388 837.565 279.589V253.465C837.565 248.667 833.675 244.776 828.876 244.776Z" fill="#0052C9"/>
<path d="M712.559 276.776H726.723V273.386H718.273V273.276L721.281 270.351C725.355 266.659 726.449 264.814 726.449 262.558C726.449 259.126 723.633 256.706 719.395 256.706C715.225 256.706 712.354 259.181 712.367 263.05H716.277C716.264 261.15 717.48 259.974 719.34 259.987C721.158 259.974 722.484 261.068 722.484 262.831C722.484 264.403 721.486 265.497 719.641 267.261L712.531 273.796L712.559 276.776ZM737.332 277.05C742.281 277.05 745.289 273.386 745.289 266.878C745.289 260.411 742.268 256.706 737.332 256.706C732.396 256.706 729.375 260.411 729.375 266.878C729.375 273.359 732.369 277.05 737.332 277.05ZM733.586 266.878C733.586 262.353 735.049 260.083 737.332 260.069C739.615 260.083 741.092 262.353 741.078 266.878C741.092 271.444 739.629 273.659 737.332 273.659C735.035 273.659 733.559 271.444 733.586 266.878ZM756.664 256.98H752.781L747.887 260.097V263.734L752.426 260.89H752.535V276.776H756.664V256.98ZM762.023 276.776H766.289L774.629 260.398V256.98H760.656V260.343H770.363V260.48L762.023 276.776Z" fill="white"/>
<path d="M720.402 305.456V305.339H725.949V304.089H713.117V305.339H718.684V305.456C718.674 307.78 715.588 309.753 712.57 310.202L713.176 311.413C715.842 310.954 718.488 309.509 719.543 307.419C720.598 309.509 723.244 310.954 725.949 311.413L726.516 310.202C723.488 309.753 720.393 307.78 720.402 305.456ZM711.633 314.167H718.762V320.359H720.266V314.167H727.453V312.898H711.633V314.167ZM735.07 305.515V303.855H733.508V305.515C733.508 308.142 731.691 310.544 729.094 311.511L729.895 312.722C731.936 311.931 733.537 310.31 734.299 308.249C735.08 310.173 736.672 311.667 738.684 312.409L739.465 311.198C736.887 310.3 735.051 308.044 735.07 305.515ZM731.574 315.593H741.73V320.359H743.254V314.323H731.574V315.593ZM741.73 313.464H743.254V302.995H741.73V313.464ZM762.023 311.257H746.203V312.526H762.023V311.257ZM747.102 308.991L747.648 310.222C750.51 309.86 753.156 308.581 754.113 306.657C755.07 308.581 757.736 309.86 760.578 310.222L761.145 308.991C758.068 308.64 755.178 307.126 755.109 305.163H760.617V303.894H747.648V305.163H753.117C753.049 307.146 750.129 308.64 747.102 308.991ZM748.117 317.194C748.107 319.206 750.363 320.319 754.113 320.319C757.834 320.319 760.07 319.206 760.09 317.194C760.07 315.202 757.834 314.05 754.113 314.05C750.363 314.05 748.107 315.202 748.117 317.194ZM749.68 317.194C749.66 315.974 751.33 315.28 754.113 315.261C756.867 315.28 758.537 315.974 758.547 317.194C758.537 318.405 756.867 319.099 754.113 319.089C751.33 319.099 749.66 318.405 749.68 317.194ZM769.582 306.12V305.905H773.488V304.616H764.094V305.905H768.039V306.12C768.02 308.503 766.184 310.534 763.566 311.355L764.367 312.566C766.428 311.882 768.059 310.437 768.82 308.552C769.582 310.29 771.154 311.628 773.176 312.273L773.898 311.062C771.359 310.28 769.562 308.337 769.582 306.12ZM763.273 315.437L763.508 316.726C766.525 316.716 770.627 316.716 774.367 316.062L774.27 314.929C772.775 315.134 771.174 315.261 769.582 315.329V311.843H768.039V315.388C766.32 315.437 764.68 315.437 763.273 315.437ZM775.383 320.359H776.906V311.53H779.738V310.222H776.906V302.995H775.383V320.359ZM692.121 341.386C692.141 345.077 693.137 348.144 694.934 350.761H696.418C695.1 348.818 693.869 344.872 693.859 341.386C693.869 337.909 695.1 333.954 696.418 332.03H694.934C693.137 334.638 692.141 337.704 692.121 341.386ZM713.684 339.999H706.516V337.831H705.012V339.999H697.863V341.269H713.684V339.999ZM698.781 337.499L699.27 338.691C702.141 338.388 704.709 337.353 705.773 335.605C706.828 337.353 709.406 338.388 712.277 338.691L712.746 337.499C709.504 337.196 706.74 335.878 706.613 333.944H712.082V332.694H706.516V330.956H705.012V332.694H699.504V333.944H704.924C704.787 335.878 702.033 337.196 698.781 337.499ZM699.777 345.448C699.768 347.314 701.994 348.319 705.773 348.319C709.533 348.319 711.73 347.314 711.75 345.448C711.73 343.583 709.533 342.577 705.773 342.577C701.994 342.577 699.768 343.583 699.777 345.448ZM701.34 345.448C701.32 344.355 702.961 343.739 705.773 343.73C708.557 343.739 710.197 344.355 710.207 345.448C710.197 346.542 708.557 347.148 705.773 347.128C702.961 347.148 701.32 346.542 701.34 345.448ZM725.793 332.636H724.016L720.5 334.98V336.757L723.938 334.472H724.016V346.776H725.793V332.636ZM734.562 332.636H732.785L729.27 334.98V336.757L732.707 334.472H732.785V346.776H734.562V332.636ZM739.719 345.468H737.824L736.75 350.78H738.195L739.719 345.468ZM746.77 346.972C749.904 346.972 751.711 344.335 751.711 339.706C751.711 335.116 749.875 332.441 746.77 332.441C743.654 332.441 741.818 335.116 741.828 339.706C741.818 344.335 743.635 346.972 746.77 346.972ZM743.527 339.706C743.537 336.044 744.738 333.974 746.77 333.964C748.801 333.974 750.002 336.044 749.992 339.706C750.002 343.368 748.811 345.409 746.77 345.409C744.719 345.409 743.537 343.368 743.527 339.706ZM758.684 346.972C761.818 346.972 763.625 344.335 763.625 339.706C763.625 335.116 761.789 332.441 758.684 332.441C755.568 332.441 753.732 335.116 753.742 339.706C753.732 344.335 755.549 346.972 758.684 346.972ZM755.441 339.706C755.451 336.044 756.652 333.974 758.684 333.964C760.715 333.974 761.916 336.044 761.906 339.706C761.916 343.368 760.725 345.409 758.684 345.409C756.633 345.409 755.451 343.368 755.441 339.706ZM770.598 346.972C773.732 346.972 775.539 344.335 775.539 339.706C775.539 335.116 773.703 332.441 770.598 332.441C767.482 332.441 765.646 335.116 765.656 339.706C765.646 344.335 767.463 346.972 770.598 346.972ZM767.355 339.706C767.365 336.044 768.566 333.974 770.598 333.964C772.629 333.974 773.83 336.044 773.82 339.706C773.83 343.368 772.639 345.409 770.598 345.409C768.547 345.409 767.365 343.368 767.355 339.706ZM786.027 333.456V333.339H791.574V332.089H778.742V333.339H784.309V333.456C784.299 335.78 781.213 337.753 778.195 338.202L778.801 339.413C781.467 338.954 784.113 337.509 785.168 335.419C786.223 337.509 788.869 338.954 791.574 339.413L792.141 338.202C789.113 337.753 786.018 335.78 786.027 333.456ZM777.258 342.167H784.387V348.359H785.891V342.167H793.078V340.898H777.258V342.167ZM798.879 341.386C798.859 337.704 797.863 334.638 796.066 332.03H794.582C795.9 333.954 797.131 337.909 797.141 341.386C797.131 344.872 795.9 348.818 794.582 350.761H796.066C797.863 348.144 798.859 345.077 798.879 341.386Z" fill="black"/>
<rect x="650.75" y="240.526" width="190.5" height="121.5" rx="9.25" stroke="#0052C9" stroke-width="1.5"/>
<path d="M1261.88 244.776H1096.69C1091.89 244.776 1088 248.667 1088 253.465V279.589C1088 284.388 1091.89 288.278 1096.69 288.278H1261.88C1266.67 288.278 1270.56 284.388 1270.56 279.589V253.465C1270.56 248.667 1266.67 244.776 1261.88 244.776Z" fill="#0052C9"/>
<path d="M1145.56 276.776H1159.72V273.386H1151.27V273.276L1154.28 270.351C1158.36 266.659 1159.45 264.814 1159.45 262.558C1159.45 259.126 1156.63 256.706 1152.39 256.706C1148.22 256.706 1145.35 259.181 1145.37 263.05H1149.28C1149.26 261.15 1150.48 259.974 1152.34 259.987C1154.16 259.974 1155.48 261.068 1155.48 262.831C1155.48 264.403 1154.49 265.497 1152.64 267.261L1145.53 273.796L1145.56 276.776ZM1170.33 277.05C1175.28 277.05 1178.29 273.386 1178.29 266.878C1178.29 260.411 1175.27 256.706 1170.33 256.706C1165.4 256.706 1162.38 260.411 1162.38 266.878C1162.38 273.359 1165.37 277.05 1170.33 277.05ZM1166.59 266.878C1166.59 262.353 1168.05 260.083 1170.33 260.069C1172.62 260.083 1174.09 262.353 1174.08 266.878C1174.09 271.444 1172.63 273.659 1170.33 273.659C1168.04 273.659 1166.56 271.444 1166.59 266.878ZM1181.13 276.776H1195.3V273.386H1186.85V273.276L1189.86 270.351C1193.93 266.659 1195.02 264.814 1195.02 262.558C1195.02 259.126 1192.21 256.706 1187.97 256.706C1183.8 256.706 1180.93 259.181 1180.94 263.05H1184.85C1184.84 261.15 1186.05 259.974 1187.91 259.987C1189.73 259.974 1191.06 261.068 1191.06 262.831C1191.06 264.403 1190.06 265.497 1188.21 267.261L1181.11 273.796L1181.13 276.776ZM1198.22 276.776H1212.39V273.386H1203.94V273.276L1206.95 270.351C1211.02 266.659 1212.11 264.814 1212.11 262.558C1212.11 259.126 1209.3 256.706 1205.06 256.706C1200.89 256.706 1198.02 259.181 1198.03 263.05H1201.94C1201.93 261.15 1203.14 259.974 1205 259.987C1206.82 259.974 1208.15 261.068 1208.15 262.831C1208.15 264.403 1207.15 265.497 1205.3 267.261L1198.2 273.796L1198.22 276.776Z" fill="white"/>
<path d="M1125.96 302.698H1124.44V309.632H1129.48V311.487H1122.33V312.757H1138.15V311.487H1131V309.632H1136.08V302.698H1134.55V304.905H1125.96V302.698ZM1124.38 318.987H1136.39V317.698H1125.92V314.144H1124.38V318.987ZM1125.96 308.401V306.116H1134.55V308.401H1125.96ZM1145.43 306.663V303.499H1143.93V306.663C1143.91 309.837 1141.9 313.167 1139.36 314.417L1140.34 315.648C1142.29 314.603 1143.93 312.405 1144.7 309.847C1145.47 312.259 1147.07 314.319 1148.99 315.316L1149.93 314.085C1147.46 312.874 1145.43 309.72 1145.43 306.663ZM1151.53 319.359H1153.05V310.374H1155.96V309.046H1153.05V301.995H1151.53V319.359ZM1175.47 302.015H1173.93V313.655H1175.47V308.558H1178.07V307.269H1175.47V302.015ZM1161.84 311.878L1162.02 313.128C1165.07 313.138 1169.22 313.109 1172.99 312.444L1172.86 311.331C1171.33 311.556 1169.69 311.693 1168.07 311.771V310.55C1170.08 310.355 1171.35 309.427 1171.37 307.991C1171.35 306.409 1169.75 305.433 1167.29 305.433C1164.85 305.433 1163.22 306.409 1163.23 307.991C1163.22 309.437 1164.53 310.364 1166.55 310.55V311.829C1164.85 311.878 1163.23 311.878 1161.84 311.878ZM1162.27 304.769H1172.33V303.597H1168.07V301.859H1166.55V303.597H1162.27V304.769ZM1163.97 315.745H1173.93V319.359H1175.47V314.515H1163.97V315.745ZM1164.69 307.991C1164.68 307.073 1165.69 306.507 1167.29 306.526C1168.89 306.507 1169.91 307.073 1169.91 307.991C1169.91 308.9 1168.89 309.515 1167.29 309.495C1165.69 309.515 1164.68 308.9 1164.69 307.991ZM1185.08 305.296V304.554H1188.99V303.284H1179.61V304.554H1183.58V305.296C1183.56 307.806 1181.74 310.042 1179.14 310.921L1179.93 312.151C1182.01 311.4 1183.61 309.847 1184.35 307.855C1185.1 309.603 1186.62 310.98 1188.62 311.644L1189.34 310.433C1186.79 309.603 1185.09 307.571 1185.08 305.296ZM1181.45 316.116C1181.46 318.148 1183.64 319.319 1187.21 319.319C1190.78 319.319 1192.93 318.148 1192.93 316.116C1192.93 314.114 1190.78 312.952 1187.21 312.952C1183.64 312.952 1181.46 314.114 1181.45 316.116ZM1182.99 316.116C1182.97 314.905 1184.59 314.183 1187.21 314.183C1189.84 314.183 1191.44 314.905 1191.45 316.116C1191.44 317.366 1189.84 318.099 1187.21 318.089C1184.59 318.099 1182.97 317.366 1182.99 316.116ZM1191.25 312.484H1192.78V307.718H1195.39V306.429H1192.78V301.995H1191.25V312.484ZM1215.82 301.995H1214.28V319.398H1215.82V301.995ZM1202.15 309.398C1202.16 313.099 1204 315.443 1206.59 315.433C1209.16 315.443 1211.03 313.099 1211.02 309.398C1211.03 305.706 1209.16 303.353 1206.59 303.343C1204 303.353 1202.16 305.706 1202.15 309.398ZM1203.64 309.398C1203.64 306.575 1204.85 304.72 1206.59 304.71C1208.33 304.72 1209.54 306.575 1209.54 309.398C1209.54 312.22 1208.33 314.075 1206.59 314.066C1204.85 314.075 1203.64 312.22 1203.64 309.398ZM1233.19 302.015H1231.64V306.819H1228.07V308.089H1231.64V314.749H1233.19V302.015ZM1218.87 311.273L1219.67 312.523C1221.73 311.751 1223.33 310.159 1224.09 308.148C1224.84 309.944 1226.35 311.4 1228.3 312.112L1229.11 310.882C1226.57 310.013 1224.83 307.835 1224.83 305.589V304.691H1228.71V303.421H1219.36V304.691H1223.29V305.589C1223.29 308.079 1221.43 310.374 1218.87 311.273ZM1222.04 318.987H1233.68V317.698H1223.58V313.597H1222.04V318.987ZM1125.77 331.577H1117.31V343.179H1118.7C1122.04 343.169 1124.37 343.071 1127.11 342.612L1126.96 341.343C1124.3 341.792 1122.07 341.909 1118.83 341.909V337.71H1125.14V336.46H1118.83V332.866H1125.77V331.577ZM1129.01 347.359H1130.55V329.995H1129.01V347.359ZM1142.8 331.812H1134.79V333.081H1141.26C1141.19 334.155 1141 335.181 1140.69 336.148L1133.91 336.597L1134.16 337.964L1140.2 337.378C1139.11 339.732 1137.09 341.734 1133.83 343.296L1134.69 344.526C1140.97 341.45 1142.78 336.821 1142.8 331.812ZM1146.29 347.359H1147.84V329.995H1146.29V347.359ZM1154.93 331.362C1152.6 331.372 1150.95 333.11 1150.96 335.581C1150.95 338.052 1152.6 339.78 1154.93 339.761C1157.22 339.78 1158.9 338.052 1158.91 335.581C1158.9 333.11 1157.22 331.372 1154.93 331.362ZM1152.35 335.581C1152.33 333.901 1153.43 332.681 1154.93 332.691C1156.4 332.681 1157.49 333.901 1157.5 335.581C1157.49 337.271 1156.4 338.472 1154.93 338.472C1153.43 338.472 1152.33 337.271 1152.35 335.581ZM1154.12 346.987H1166.04V345.698H1155.65V341.323H1154.12V346.987ZM1160.3 342.437H1161.74V336.362H1164.05V343.062H1165.51V330.015H1164.05V335.093H1161.74V330.347H1160.3V342.437ZM1176.96 331.577H1168.81V343.179H1170.18C1173.47 343.169 1175.75 343.071 1178.46 342.612L1178.29 341.343C1175.69 341.792 1173.49 341.909 1170.36 341.909V337.71H1176.57V336.46H1170.36V332.866H1176.96V331.577ZM1179.96 347.359H1181.49V338.296H1184.4V336.987H1181.49V329.995H1179.96V347.359ZM1194.34 331.812H1186.47V333.081H1192.82C1192.75 334.146 1192.57 335.171 1192.26 336.148L1185.59 336.597L1185.84 337.944L1191.79 337.378C1190.74 339.712 1188.77 341.724 1185.51 343.316L1186.37 344.487C1192.62 341.411 1194.33 336.821 1194.34 331.812ZM1197.25 347.359H1198.77V338.355H1201.59V337.066H1198.77V329.995H1197.25V347.359ZM1216.08 331.226H1208.32V332.476H1214.55V335.054H1208.36V340.366H1209.69C1213.14 340.376 1215.2 340.288 1217.66 339.898L1217.52 338.609C1215.18 339.009 1213.19 339.107 1209.91 339.097V336.304H1216.08V331.226ZM1210.77 346.987H1222.56V345.698H1212.29V341.792H1210.77V346.987ZM1217.19 335.874H1220.49V342.769H1222.04V330.015H1220.49V334.546H1217.19V335.874ZM1231.23 333.628V333.394H1235.22V332.163H1231.25V329.995H1229.71V332.163H1225.71V333.394H1229.71V333.628C1229.71 336.011 1227.86 338.14 1225.28 338.96L1226.04 340.171C1228.13 339.478 1229.75 337.984 1230.51 336.069C1231.3 337.798 1232.95 339.126 1235 339.722L1235.73 338.53C1233.13 337.778 1231.22 335.835 1231.23 333.628ZM1227.6 344.155C1227.59 346.177 1229.8 347.319 1233.46 347.319C1237.09 347.319 1239.3 346.177 1239.32 344.155C1239.3 342.173 1237.09 341.011 1233.46 341.03C1229.8 341.011 1227.59 342.173 1227.6 344.155ZM1229.14 344.155C1229.14 342.974 1230.76 342.241 1233.46 342.241C1236.16 342.241 1237.8 342.974 1237.8 344.155C1237.8 345.386 1236.16 346.109 1233.46 346.109C1230.76 346.109 1229.14 345.386 1229.14 344.155ZM1237.74 340.659H1239.26V330.015H1237.74V340.659Z" fill="black"/>
<rect x="1083.75" y="240.526" width="190.5" height="121.5" rx="9.25" stroke="#0052C9" stroke-width="1.5"/>
</svg>
