<svg width="76" height="73" viewBox="0 0 76 73" fill="none" xmlns="http://www.w3.org/2000/svg">
<path d="M19.6983 14.2927C16.4245 14.2927 13.1507 14.2869 9.87686 14.2985C9.27527 14.3004 8.82698 14.1092 8.62322 13.528C8.41557 12.9409 8.80758 12.296 9.45963 12.1608C9.71773 12.1067 9.98941 12.1222 10.2553 12.1222C16.5856 12.1222 22.9159 12.1222 29.2462 12.1222C29.3918 12.1222 29.5373 12.1183 29.6828 12.1222C30.463 12.1531 30.9617 12.5856 30.9559 13.2248C30.9501 13.8659 30.4552 14.2908 29.6673 14.2908C26.345 14.2966 23.0226 14.2927 19.7003 14.2927H19.6983Z" fill="white"/>
<path d="M19.8458 6.43233C23.1196 6.43233 26.3934 6.42847 29.6653 6.43427C30.461 6.43427 30.9519 6.85331 30.9539 7.49443C30.9558 8.12975 30.4551 8.56231 29.677 8.59321C29.5081 8.599 29.3373 8.59321 29.1685 8.59321C26.9368 8.59321 24.707 8.59321 22.4753 8.59321C18.4019 8.59321 14.3286 8.59321 10.2552 8.59321C10.0379 8.59321 9.81663 8.60673 9.60122 8.57969C8.96858 8.50052 8.55717 8.04671 8.57269 7.47125C8.58822 6.89772 9.02486 6.47289 9.66138 6.43813C9.99905 6.41882 10.3406 6.43233 10.6802 6.43233C13.7347 6.43233 16.7912 6.43233 19.8458 6.43233Z" fill="white"/>
<path d="M0.560547 50.7777C1.04764 49.2772 1.78314 47.9564 3.32593 47.1646C2.09752 45.4634 2.01601 43.5748 2.05483 41.6514C2.08588 40.1548 2.04706 38.6583 2.06453 37.1617C2.09558 34.3809 3.95275 32.5638 6.75889 32.5561C8.33468 32.5522 9.91241 32.5445 11.4882 32.5561C14.1177 32.5792 15.9866 34.408 16.0157 37.013C16.0389 39.0638 16.0098 41.1165 16.0234 43.1673C16.0331 44.5307 15.6392 45.7743 15.0473 46.7804C15.8837 47.7652 16.691 48.6516 17.4265 49.592C18.8102 51.3647 20.1647 53.1587 21.4999 54.9662C21.8084 55.3833 22.1344 55.5436 22.6487 55.5281C23.8325 55.4934 25.0163 55.5166 26.3068 55.5166C26.3068 54.4989 26.3999 53.5314 26.2893 52.589C25.9303 49.5495 27.5158 47.7266 30.0231 46.4347C30.2171 46.3343 30.4131 46.2416 30.6072 46.1412C30.776 46.0543 30.9449 45.9654 31.0827 45.8921C30.3142 42.7097 30.6615 39.5176 30.7236 36.3525C30.7644 34.2651 32.7535 32.5947 34.9775 32.5618C37.7662 32.5194 40.5568 32.5425 43.3454 32.5541C44.1916 32.558 44.6107 32.9616 44.6146 33.8055C44.6282 36.9917 44.6379 40.178 44.5952 43.3624C44.5855 44.1444 44.3701 44.9246 44.2478 45.7144C45.0086 46.1296 45.8139 46.5177 46.5649 46.9889C48.4066 48.1476 49.5477 49.6924 49.3594 52.0078C49.2682 53.1317 49.3439 54.2691 49.3439 55.5069C50.7683 55.5069 52.1423 55.5262 53.5143 55.4857C53.7142 55.4799 53.9432 55.2076 54.0965 55.0087C55.6975 52.9173 57.2713 50.8028 58.8879 48.723C59.3847 48.0838 59.9921 47.5277 60.6247 46.8537C60.6112 46.8267 60.5102 46.6684 60.4637 46.4946C60.1803 45.4576 59.734 44.4283 59.6738 43.3778C59.5496 41.2131 59.6079 39.0348 59.6428 36.8624C59.6816 34.4582 61.5155 32.6198 63.9432 32.558C65.7131 32.5136 67.4848 32.5155 69.2547 32.558C71.5621 32.6121 73.4096 34.2535 73.5338 36.5746C73.6638 38.9807 73.6463 41.4042 73.5047 43.8084C73.4387 44.9246 72.9244 46.0137 72.6139 47.1144C72.5382 47.1144 72.4606 47.1144 72.3849 47.1125C72.6469 47.3095 72.9089 47.5064 73.1709 47.7053C74.1955 48.4894 74.6962 49.5978 75.0901 50.7719V59.3169C74.7719 59.8692 74.3294 60.2284 73.6618 60.014C72.9943 59.7978 72.8972 59.2377 72.9011 58.6101C72.9166 56.3179 72.9108 54.0258 72.905 51.7355C72.9011 50.546 72.3519 49.6693 71.3234 49.0745C70.9566 48.8621 70.65 48.8679 70.2541 49.0996C67.7779 50.5518 65.2803 50.5324 62.839 49.0262C62.3577 48.7288 61.9793 48.7385 61.5854 49.0262C61.2807 49.2502 61.0032 49.5341 60.7722 49.8373C58.981 52.1777 57.1918 54.5201 55.4316 56.8838C55.0008 57.4631 54.504 57.7199 53.7763 57.7103C51.4495 57.6813 49.1227 57.6852 46.7939 57.7083C45.4665 57.7218 44.6088 58.726 44.7854 59.987C44.9271 61.0027 45.7305 61.6632 46.8968 61.667C49.7087 61.6786 52.5207 61.6381 55.3327 61.6902C56.3922 61.7095 57.1258 61.3233 57.7352 60.4987C59.1421 58.5947 60.584 56.7177 62.0142 54.8291C62.5964 54.0605 63.2213 53.8829 63.7802 54.3193C64.3352 54.7518 64.3216 55.3794 63.7297 56.1615C62.7109 57.5114 61.6688 58.8438 60.6791 60.2129C60.4579 60.518 60.3045 60.9467 60.3007 61.3214C60.2696 64.0229 60.2832 66.7245 60.2851 69.4261C60.2851 69.6578 60.3065 69.8915 60.3162 70.1174H72.9069C72.9069 68.1632 72.9147 66.2611 72.9031 64.357C72.8992 63.7487 72.9458 63.1868 73.6153 62.9222C74.2945 62.6538 74.7001 63.0671 75.0901 63.517V71.6275C74.7253 72.1895 74.2052 72.344 73.5435 72.344C49.734 72.3324 25.9264 72.3324 2.11693 72.344C1.45517 72.344 0.935087 72.1875 0.57025 71.6275V63.517C0.960315 63.0671 1.36591 62.6538 2.04512 62.9222C2.71658 63.1868 2.76509 63.7507 2.75539 64.359C2.74181 65.3959 2.75151 66.4329 2.75151 67.4719C2.75151 68.3544 2.75151 69.2388 2.75151 70.1194H15.3791C15.3791 69.8316 15.3791 69.5941 15.3791 69.3585C15.3791 66.7052 15.3966 64.05 15.3597 61.3967C15.3539 60.9796 15.187 60.5007 14.9406 60.1589C13.8965 58.7086 12.7942 57.3009 11.7152 55.8738C11.3892 55.4412 11.3038 54.9198 11.692 54.5549C11.9636 54.298 12.4507 54.1532 12.833 54.1687C13.097 54.1802 13.3939 54.5163 13.5918 54.7712C15.1094 56.7428 16.6134 58.726 18.1077 60.7169C18.5947 61.3658 19.2022 61.6844 20.0269 61.6806C22.9126 61.6632 25.7964 61.6767 28.6821 61.669C28.9926 61.669 29.3186 61.64 29.6078 61.5396C30.5257 61.219 31.0167 60.3327 30.8653 59.3497C30.7198 58.4074 29.9629 57.7257 28.9421 57.7141C26.5901 57.6909 24.2381 57.6852 21.888 57.7141C21.1622 57.7218 20.6635 57.4766 20.2288 56.8953C18.4686 54.5317 16.6774 52.1912 14.8901 49.8469C14.7019 49.5997 14.4962 49.3506 14.2555 49.1575C13.7917 48.7887 13.3551 48.6941 12.7554 49.0629C10.3607 50.5382 7.89416 50.546 5.46644 49.1421C4.97546 48.8582 4.63003 48.8891 4.20892 49.1537C3.25219 49.7542 2.75345 50.6116 2.74957 51.7394C2.74375 54.0316 2.73987 56.3237 2.75345 58.6159C2.75733 59.2416 2.66418 59.8055 1.99273 60.0198C1.32709 60.2342 0.88269 59.875 0.564428 59.3227V50.7777H0.560547ZM17.5876 70.1271H58.0301V63.8974H17.5876V70.1271ZM47.1549 55.449C47.1549 54.2961 47.0617 53.178 47.1762 52.0812C47.3451 50.4958 46.5611 49.5167 45.321 48.7732C44.7213 48.4141 44.0887 48.1012 43.4425 47.8386C43.2445 47.7575 42.8564 47.827 42.7128 47.9776C39.9513 50.8491 35.3947 50.88 32.6196 48.0568C32.4915 47.9274 32.15 47.8289 32.0219 47.9062C31.0361 48.499 30.0464 49.0977 29.1265 49.787C28.816 50.0207 28.5463 50.5093 28.5288 50.8955C28.4609 52.4056 28.5016 53.9215 28.5016 55.4219C32.5925 56.2909 33.4987 57.6349 32.7225 61.6284H42.9457C41.7541 58.7009 43.4075 55.5475 47.1529 55.4509L47.1549 55.449ZM42.3441 39.9501H32.8564C32.8564 41.1899 32.8098 42.393 32.8661 43.5922C32.9767 45.95 35.0124 47.8714 37.4595 47.9911C39.798 48.1051 42.0705 46.3034 42.3189 43.9861C42.4605 42.6788 42.3441 41.3444 42.3441 39.9521V39.9501ZM61.8396 38.3725C62.9283 38.4767 63.7647 38.1214 64.5584 37.5517C65.3676 36.9705 66.2351 37.3799 66.3515 38.3589C66.402 38.7896 66.435 39.2241 66.5107 39.6508C66.9551 42.1245 68.4008 43.119 70.8673 42.6903C71.2438 42.6247 71.4165 42.5127 71.4127 42.1052C71.3952 40.3924 71.4321 38.6795 71.3933 36.9666C71.3641 35.6767 70.4521 34.7613 69.1848 34.7362C67.4635 34.7034 65.7422 34.7092 64.0208 34.7343C62.9224 34.7498 61.989 35.5125 61.8551 36.5206C61.7775 37.1076 61.8415 37.712 61.8415 38.3744L61.8396 38.3725ZM13.8383 38.3589C13.8383 37.8993 13.8422 37.5151 13.8383 37.1308C13.8189 35.6361 12.934 34.7382 11.4436 34.7285C9.81926 34.7169 8.19495 34.7131 6.57065 34.7304C5.24133 34.7459 4.2943 35.6168 4.25937 36.928C4.2128 38.664 4.23803 40.402 4.25743 42.1381C4.25743 42.308 4.4088 42.5957 4.53494 42.6247C6.07191 42.9665 7.96984 42.9317 8.75968 40.852C9.02942 40.1413 9.07406 39.3476 9.29335 38.6138C9.42143 38.1851 9.59802 37.6811 9.92211 37.4224C10.3704 37.0651 10.8653 37.3644 11.3 37.6889C12.018 38.2257 12.8292 38.4806 13.8383 38.357V38.3589ZM4.64168 44.9227C5.27626 46.7533 7.15866 48.0259 9.10899 47.9931C11.1952 47.9583 13.1707 46.5583 13.619 44.5422C13.9004 43.2735 13.8286 41.9295 13.912 40.6801C12.9204 40.5179 12.0975 40.3808 11.2805 40.2475C10.0832 44.0093 8.74415 44.9574 4.64362 44.9227H4.64168ZM61.8124 40.6704C61.8124 41.5529 61.7891 42.4412 61.8163 43.3315C61.9056 46.3439 64.6438 48.5029 67.609 47.8637C69.2508 47.5103 70.3764 46.5061 71.0886 44.8725C69.4332 45.0636 67.9603 44.94 66.6581 44.0209C65.3385 43.0901 64.7486 41.7074 64.3857 40.2398C63.5221 40.3846 62.7148 40.5198 61.8105 40.6704H61.8124ZM42.3965 34.7382C39.8232 34.7382 37.3276 34.6744 34.8378 34.7633C33.3726 34.8154 32.5381 36.2463 32.9592 37.685H42.3965V34.7401V34.7382Z" fill="white"/>
<path d="M55.8195 31.3652C55.8195 30.6236 55.8059 29.8821 55.8234 29.1406C55.8428 28.3044 56.1707 27.9684 57.0013 27.8892C58.8294 27.7154 59.955 26.5104 59.9608 24.6798C59.9724 21.2772 59.9744 17.8747 59.9608 14.4702C59.953 12.6318 58.7168 11.338 56.8752 11.3303C50.8612 11.3052 44.8453 11.3206 38.8313 11.3225C38.7129 11.3225 38.5945 11.3457 38.3752 11.3689C38.3752 11.6354 38.3752 11.8903 38.3752 12.1471C38.3752 14.3196 38.317 16.494 38.3869 18.6626C38.5441 23.4342 34.7618 26.132 31.3502 25.879C31.2803 25.8732 31.2066 25.8944 31.1348 25.9041C31.2823 26.9836 32.4719 27.8699 33.8633 27.8854C35.7787 27.9066 37.696 27.8912 39.6114 27.8931C39.8055 27.8931 39.9995 27.8873 40.1936 27.895C40.8922 27.9279 41.3289 28.3237 41.3463 28.9397C41.3657 29.5886 40.9233 30.0463 40.1955 30.0578C38.9341 30.0791 37.6727 30.0656 36.4113 30.0656C35.5866 30.0656 34.7618 30.0733 33.937 30.0617C31.5442 30.0289 29.6424 28.679 28.8817 26.4197C28.74 25.9968 28.5634 25.8655 28.1268 25.8674C23.4208 25.8829 18.7167 25.8693 14.0107 25.8925C13.7157 25.8925 13.3529 26.0566 13.1374 26.2633C11.6762 27.6749 10.2401 29.1155 8.80985 30.558C8.3868 30.9848 7.93075 31.2744 7.32722 31.0079C6.75668 30.755 6.66741 30.2394 6.67517 29.6716C6.6907 28.3971 6.67905 27.1207 6.67905 25.8481C6.16867 25.682 5.69516 25.5758 5.2624 25.3808C2.71048 24.2298 1.24531 22.2505 1.18321 19.4678C1.09006 15.2948 1.10558 11.1178 1.17545 6.94285C1.23755 3.40705 4.13102 0.572225 7.69012 0.554846C15.7418 0.516224 23.7934 0.512362 31.847 0.554846C35.4876 0.574157 38.2743 3.46884 38.3714 7.17071C38.3869 7.79445 38.3733 8.42012 38.3733 9.14814C38.7148 9.14814 38.9962 9.14814 39.2796 9.14814C45.051 9.14814 50.8243 9.14234 56.5957 9.15007C59.4349 9.15393 61.5288 10.7857 62.0547 13.3907C62.1343 13.7885 62.144 14.2056 62.144 14.615C62.1517 17.921 62.1537 21.227 62.1459 24.535C62.1401 27.1689 60.935 28.8973 58.4413 29.8126C58.0648 29.9516 57.991 30.1505 57.9949 30.502C58.0104 31.6355 57.9969 32.771 58.0027 33.9045C58.0046 34.4684 57.896 34.9802 57.3041 35.2138C56.718 35.4455 56.2891 35.1559 55.8874 34.7523C54.4708 33.3291 53.058 31.9001 51.6064 30.5155C51.3464 30.2683 50.9078 30.0965 50.5449 30.0868C48.8721 30.0424 47.1992 30.0714 45.5245 30.0656C44.6318 30.0617 44.1098 29.6369 44.1311 28.9475C44.1525 28.2851 44.6531 27.897 45.5128 27.895C47.4535 27.8912 49.3941 27.8622 51.3328 27.9182C51.7675 27.9298 52.2837 28.1461 52.6039 28.4396C53.6518 29.4013 54.626 30.4402 55.6293 31.4501C55.6933 31.4212 55.7554 31.3941 55.8195 31.3652ZM8.86225 27.1921C8.91659 27.2269 8.96899 27.2597 9.02332 27.2945C9.95482 26.3579 10.9154 25.4445 11.8101 24.4732C12.3495 23.888 12.9473 23.6891 13.7352 23.693C19.6541 23.7181 25.5729 23.7123 31.4918 23.7046C34.2766 23.7007 36.1746 21.845 36.1862 19.0913C36.2037 15.1808 36.2017 11.2704 36.1862 7.35996C36.1746 4.60625 34.2786 2.71572 31.5113 2.71186C23.677 2.70027 15.8407 2.70027 8.00644 2.71186C5.23911 2.71572 3.34506 4.61783 3.33924 7.36575C3.32954 11.2511 3.33148 15.1383 3.33924 19.0237C3.34312 21.6924 5.00429 23.4806 7.67071 23.7046C8.48383 23.7741 8.84673 24.1429 8.86031 24.954C8.8739 25.7013 8.86225 26.4467 8.86225 27.1941V27.1921Z" fill="white"/>
<path d="M14.6819 17.8527C16.279 17.8527 17.8762 17.8469 19.4733 17.8546C20.3602 17.8585 20.8181 18.2215 20.8337 18.9032C20.8492 19.61 20.366 20.0193 19.4558 20.0213C16.2868 20.029 13.1158 20.029 9.94677 20.0213C9.08514 20.0193 8.59416 19.6196 8.57475 18.9572C8.55535 18.2736 9.06573 17.8585 9.96424 17.8546C11.5361 17.8488 13.11 17.8546 14.6819 17.8546V17.8527Z" fill="white"/>
</svg>
