<svg width="64" height="64" viewBox="0 0 64 64" fill="none" xmlns="http://www.w3.org/2000/svg">
<path d="M43.0099 4.94373C42.341 4.92887 41.7761 4.32682 41.8058 3.65787C41.8355 2.99636 42.3856 2.4835 43.0545 2.49836C43.7458 2.51323 44.2809 3.07812 44.2512 3.76936C44.2214 4.42344 43.6566 4.9586 43.0099 4.94373Z" fill="white"/>
<path d="M33.6965 0.297852C34.8708 0.461372 36.0378 0.617459 37.2121 0.780979C37.4351 0.81071 37.6581 0.855307 37.8737 0.907336C38.6467 1.07829 39.0926 1.68034 38.9514 2.35672C38.8102 3.04796 38.1784 3.40474 37.4128 3.32298C35.4431 3.11486 33.466 2.72836 31.5038 2.79525C20.0054 3.16689 11.2496 8.3698 6.02437 18.5898C0.665365 29.0625 1.80257 39.3346 8.49204 48.9897C8.61096 49.1532 8.73732 49.3168 8.79678 49.3836C9.71844 49.2127 10.5658 48.9451 11.4205 48.9303C13.7247 48.8857 15.739 50.4763 16.3484 52.7061C16.9505 54.8987 16.0214 57.2401 14.074 58.4516C12.1192 59.6631 9.58465 59.4104 7.88255 57.8421C6.20275 56.2961 5.71963 53.8136 6.77508 51.777C7.02036 51.3013 6.96833 51.0189 6.66358 50.6101C2.96951 45.7119 0.888347 40.2042 0.412652 34.0945C0.397787 33.9161 0.345757 33.7377 0.308594 33.5594C0.308594 32.2884 0.308594 31.0248 0.308594 29.7538C0.509278 28.3639 0.657932 26.9591 0.918078 25.584C3.25939 13.0673 13.7024 2.84728 26.2563 0.780979C27.4232 0.587728 28.5976 0.453939 29.772 0.297852C31.0801 0.297852 32.3883 0.297852 33.6965 0.297852ZM11.3388 51.3608C9.85966 51.3682 8.65556 52.5797 8.66299 54.0663C8.66299 55.538 9.88196 56.7569 11.3536 56.7569C12.8551 56.7569 14.074 55.5305 14.0592 54.0142C14.0443 52.5351 12.8328 51.3459 11.3388 51.3608Z" fill="white"/>
<path d="M29.7718 63.1489C28.6049 62.9854 27.4305 62.8293 26.2635 62.6658C26.0629 62.6361 25.8622 62.5989 25.6615 62.5543C24.8662 62.3759 24.4648 61.8259 24.5986 61.1049C24.725 60.4063 25.3345 60.0644 26.1223 60.1461C28.1515 60.3468 30.188 60.6738 32.2172 60.6664C43.6413 60.6144 54.3742 53.3154 58.5291 42.6718C62.4387 32.645 61.1454 23.2054 54.9539 14.4125C54.8721 14.2936 54.783 14.1821 54.6938 14.0706C54.6715 14.0408 54.6343 14.0111 54.6863 14.0631C53.7721 14.2341 52.9248 14.5017 52.07 14.524C49.7733 14.576 47.7442 12.9705 47.1347 10.7481C46.5326 8.54805 47.4691 6.19188 49.4091 5.01007C51.4011 3.79853 53.891 4.03638 55.6006 5.61212C57.2804 7.1507 57.7561 9.6481 56.708 11.6772C56.4628 12.1529 56.5222 12.4354 56.827 12.8442C60.4987 17.7423 62.5799 23.25 63.063 29.3597C63.0779 29.5381 63.1299 29.7165 63.1671 29.8949V33.7004C63.1299 33.8565 63.0853 34.0126 63.063 34.1761C62.8475 35.633 62.7137 37.0972 62.4164 38.5392C59.8967 50.7214 49.4834 60.6887 37.2194 62.6807C36.0525 62.8665 34.8781 63.0077 33.7111 63.1638H29.7867L29.7718 63.1489ZM52.0849 12.0786C53.5714 12.086 54.783 10.8968 54.8053 9.41768C54.8276 7.91627 53.5937 6.675 52.0923 6.68244C50.6132 6.68244 49.4091 7.90141 49.4091 9.38052C49.4091 10.8671 50.5983 12.0712 52.0849 12.0786Z" fill="white"/>
<path d="M48.6579 41.5427C49.0518 41.9144 49.5795 42.3975 50.085 42.9029C50.7911 43.609 50.7911 44.2557 50.0775 44.9766C48.3903 46.6713 46.6956 48.366 45.001 50.0532C44.2726 50.7816 43.6333 50.7667 42.8826 50.0309C42.4144 49.5701 41.9535 49.1092 41.4853 48.6484C41.4556 48.6187 41.411 48.6113 41.5076 48.6558C39.9913 49.2505 38.5642 49.7931 37.152 50.3728C36.9885 50.4397 36.8101 50.6999 36.8027 50.8782C36.7581 51.51 36.8027 52.1492 36.7804 52.781C36.7581 53.5689 36.2972 54.052 35.5168 54.0595C33.0045 54.0743 30.4848 54.0743 27.9726 54.0595C27.155 54.0595 26.7016 53.5763 26.6867 52.7439C26.6718 52.1269 26.6718 51.5175 26.6867 50.9005C26.6941 50.5884 26.5975 50.4546 26.2853 50.3356C24.8731 49.8154 23.4758 49.243 21.9149 48.6335C21.5432 49.0275 21.0676 49.5552 20.5621 50.0532C19.8486 50.7667 19.2019 50.7667 18.4958 50.0606C16.7863 48.3585 15.0768 46.649 13.3747 44.9395C12.6909 44.2482 12.6909 43.6016 13.3747 42.9178C13.8801 42.4123 14.4078 41.9367 14.8166 41.5576C14.1997 39.9595 13.6497 38.5176 13.0699 37.0831C13.0105 36.9344 12.7578 36.7932 12.5794 36.7858C11.9699 36.7486 11.353 36.7858 10.736 36.7709C9.87385 36.756 9.40559 36.2952 9.39815 35.4404C9.39072 32.9653 9.39072 30.4902 9.39815 28.0151C9.39815 27.1455 9.85898 26.6847 10.7212 26.6698C11.3381 26.6549 11.9476 26.6921 12.5645 26.6475C12.7503 26.6327 13.0105 26.4617 13.0774 26.2982C13.6571 24.886 14.1997 23.4589 14.8241 21.8608C14.4301 21.4892 13.895 21.0209 13.3895 20.5155C12.7057 19.8317 12.6983 19.1776 13.3821 18.4938C15.0842 16.7843 16.7937 15.0747 18.5033 13.3726C19.2168 12.6665 19.8486 12.674 20.5696 13.3726C20.9784 13.774 21.3649 14.2051 21.796 14.5693C21.9297 14.6808 22.2271 14.7254 22.398 14.6659C23.7062 14.1531 25.0069 13.6105 26.2928 13.053C26.4637 12.9787 26.6495 12.7334 26.6644 12.555C26.709 11.9233 26.6644 11.2915 26.6867 10.6523C26.709 9.86439 27.1624 9.38127 27.9503 9.38127C30.4625 9.3664 32.9822 9.3664 35.4945 9.38127C36.3121 9.38127 36.7655 9.86439 36.7804 10.6969C36.7952 11.3138 36.7581 11.9233 36.7952 12.5402C36.8027 12.7186 36.9439 12.9787 37.0925 13.0382C38.5271 13.6179 39.969 14.1679 41.5819 14.7849C41.9535 14.3909 42.4292 13.8558 42.9347 13.3503C43.6185 12.6665 44.2651 12.6665 44.9564 13.3578C46.6659 15.0599 48.3754 16.762 50.0775 18.4715C50.7762 19.1776 50.7688 19.8243 50.0552 20.5452C49.5647 21.0358 49.0444 21.4966 48.6579 21.8608C49.2748 23.4589 49.8248 24.9008 50.4046 26.3353C50.464 26.484 50.7167 26.6326 50.8877 26.6401C51.4972 26.6772 52.1141 26.6401 52.731 26.6549C53.6006 26.6698 54.0689 27.1232 54.0689 27.978C54.0763 30.4531 54.0763 32.9282 54.0689 35.4033C54.0689 36.2878 53.5932 36.7412 52.6939 36.756C52.0769 36.7635 51.4674 36.7337 50.8505 36.7783C50.687 36.7858 50.4566 36.9642 50.3897 37.1128C49.8099 38.525 49.2674 39.9521 48.6504 41.5279L48.6579 41.5427ZM51.5938 29.1152C50.9174 29.1152 50.3079 29.13 49.691 29.1152C48.8734 29.0929 48.4795 28.7881 48.2937 28.0151C47.8328 26.0901 47.097 24.2913 46.049 22.6115C45.6476 21.9723 45.7219 21.4372 46.2571 20.8946C46.7031 20.4486 47.1788 20.0324 47.6173 19.6236C46.3314 18.3377 45.1273 17.1262 43.8192 15.8106C43.4327 16.2417 43.0387 16.7099 42.6076 17.141C41.9907 17.7654 41.4927 17.8249 40.7494 17.3492C39.1217 16.3309 37.375 15.6173 35.5094 15.1714C34.6546 14.9633 34.3424 14.5842 34.335 13.7146C34.3276 13.1051 34.335 12.503 34.335 11.8712H29.2138C29.1841 11.9381 29.1544 11.9679 29.1544 12.005C29.1469 12.5773 29.1469 13.1497 29.1395 13.722C29.1246 14.5693 28.8273 14.9707 28.0172 15.1639C26.1144 15.6173 24.3305 16.3457 22.6656 17.3863C21.9818 17.81 21.4689 17.7505 20.904 17.1782C20.4655 16.7322 20.0567 16.2417 19.6851 15.8329C18.3695 17.1559 17.1654 18.3674 15.8869 19.6607C16.0728 19.8168 16.3106 20.0026 16.5336 20.2108C16.7566 20.4189 16.9721 20.6419 17.1877 20.8574C17.7674 21.4595 17.8343 21.9649 17.3883 22.6784C16.3701 24.3062 15.6565 26.0529 15.2031 27.9111C14.9801 28.8327 14.6085 29.1152 13.6422 29.1226C13.0551 29.1226 12.4753 29.1226 11.8807 29.1226V34.3255C12.5422 34.3255 13.174 34.3181 13.8058 34.3255C14.5788 34.3404 14.995 34.6451 15.166 35.3884C15.6194 37.3135 16.3552 39.1196 17.4032 40.7994C17.8269 41.4758 17.76 41.9961 17.1877 42.561C16.7417 43.007 16.2586 43.4158 15.8126 43.8246C17.1282 45.1253 18.3397 46.322 19.633 47.6004C20.0121 47.1916 20.4135 46.7308 20.852 46.2922C21.4764 45.6679 21.952 45.6159 22.7102 46.0841C24.3231 47.0727 26.0401 47.8085 27.8908 48.2322C28.8422 48.4477 29.1246 48.8417 29.1246 49.8451C29.1246 50.4248 29.1246 51.012 29.1246 51.5769H34.3276C34.3276 50.9451 34.3276 50.3505 34.3276 49.7633C34.335 48.8491 34.6249 48.47 35.5242 48.2545C37.3898 47.8085 39.1365 47.0875 40.7569 46.0767C41.5001 45.6159 41.9907 45.6753 42.6151 46.3071C43.0462 46.7382 43.4401 47.2065 43.8117 47.6078C45.1125 46.3071 46.324 45.0956 47.6024 43.8171C47.1713 43.4158 46.7031 42.9921 46.2571 42.5461C45.6996 41.9813 45.6402 41.4684 46.0639 40.7846C47.097 39.1196 47.8328 37.3358 48.2788 35.433C48.4646 34.6451 48.866 34.3404 49.6687 34.3255C50.2931 34.3181 50.9249 34.3255 51.5789 34.3255V29.1226L51.5938 29.1152Z" fill="white"/>
<path d="M21.6929 59.8038C21.6706 60.4802 21.1354 60.9781 20.4442 60.9633C19.7753 60.9484 19.2475 60.391 19.255 59.7294C19.2698 59.0456 19.8719 58.4882 20.5483 58.5328C21.2172 58.5774 21.7152 59.1274 21.6929 59.8038Z" fill="white"/>
<path d="M31.7267 21.5771C37.3013 21.5771 41.8724 26.1408 41.8799 31.7228C41.8799 37.2974 37.3087 41.8685 31.7342 41.876C26.1596 41.876 21.5885 37.3048 21.5811 31.7303C21.5811 26.1557 26.1448 21.5846 31.7267 21.5771ZM39.4271 31.708C39.4122 27.4862 35.9262 24.0225 31.7119 24.0374C27.4901 24.0523 24.019 27.5308 24.0339 31.7451C24.0487 35.9669 27.5347 39.438 31.7416 39.4232C35.9634 39.4083 39.4345 35.9223 39.4196 31.7154L39.4271 31.708Z" fill="white"/>
</svg>
