<svg width="67" height="68" viewBox="0 0 67 68" fill="none" xmlns="http://www.w3.org/2000/svg">
<path d="M62.9766 3.71549C64.034 4.02702 65.0724 4.36687 65.8937 5.15041C66.4884 5.71682 66.6017 6.33043 66.1863 6.84021C65.7426 7.36886 65.1101 7.35942 64.4399 6.80244C62.92 5.55634 61.0792 5.62242 59.6631 6.99125C59.1534 7.48214 58.6625 8.00135 58.1527 8.49224C57.6335 8.99257 57.0104 9.02089 56.5573 8.58665C56.0853 8.14296 56.0853 7.4727 56.6045 6.94405C57.2087 6.32099 57.7657 5.60354 58.4831 5.13153C59.361 4.54623 60.3806 4.17807 61.3341 3.70605H62.9861L62.9766 3.71549Z" fill="white"/>
<path d="M30.9996 25.1746C30.9996 24.7404 31.0751 24.3628 31.2544 24.0323C31.4055 23.7303 31.6132 23.4471 31.8775 23.2016C32.1229 22.975 32.4061 22.7674 32.7082 22.5502C32.9914 22.3709 33.2652 22.1537 33.5201 21.9461C33.7655 21.7384 33.9732 21.5118 34.1526 21.2475C34.3036 21.002 34.398 20.6905 34.398 20.3318C34.398 20.0863 34.3792 19.8787 34.3508 19.6993C34.3225 19.5199 34.247 19.3689 34.1526 19.2273C34.0299 19.1046 33.8694 19.0196 33.6523 18.9535C33.4257 18.8969 33.1236 18.8591 32.7649 18.8591C32.595 18.8591 32.4156 18.878 32.2173 18.878C32.0097 18.9063 31.7925 18.9252 31.5848 18.9346C31.3772 18.963 31.16 18.9913 30.9618 19.029C30.7541 19.0574 30.5653 19.0857 30.4143 19.1234C30.2349 19.1518 30.0933 19.1518 29.98 19.1046C29.8573 19.0762 29.7818 18.9346 29.7534 18.6703L29.5741 17.1504C29.5458 17.0277 29.5552 16.9427 29.593 16.8483C29.6213 16.7728 29.6496 16.7162 29.7157 16.6501C29.7629 16.6218 29.8195 16.5935 29.8856 16.5557C29.9423 16.5368 29.9895 16.5274 30.0367 16.5085C30.5842 16.3858 31.1412 16.3008 31.7076 16.2064C32.2834 16.1498 32.8404 16.112 33.3785 16.1309C33.9071 16.1592 34.4075 16.2347 34.8889 16.3575C35.3609 16.5085 35.7763 16.7162 36.1445 17.0183C36.4938 17.3204 36.777 17.7168 36.9941 18.1794C37.1923 18.6609 37.2962 19.265 37.2962 19.9636C37.2962 20.5678 37.2018 21.0681 37.0413 21.4835C36.8619 21.9177 36.6448 22.2953 36.4088 22.5974C36.135 22.9278 35.8613 23.2016 35.5592 23.4093L34.7284 24.0418C34.4547 24.24 34.247 24.4194 34.0771 24.5988C33.8977 24.7781 33.8222 24.9952 33.8222 25.2218V26.4396C33.8222 26.5906 33.7939 26.6945 33.7278 26.7417C33.6711 26.7983 33.5579 26.8172 33.4257 26.8172H31.3866C31.2356 26.8172 31.1412 26.7983 31.0845 26.7417C31.0279 26.6945 30.9901 26.5906 30.9901 26.4396V25.1557L30.9996 25.1746ZM31.396 30.4706C31.245 30.4706 31.1506 30.4422 31.094 30.395C31.0373 30.3384 30.9996 30.244 30.9996 30.093V28.1955C30.9996 28.0444 31.0279 27.9406 31.094 27.8934C31.1506 27.8368 31.245 27.8179 31.396 27.8179H33.4351C33.5673 27.8179 33.6806 27.8368 33.7372 27.8934C33.7939 27.9406 33.8316 28.0444 33.8316 28.1955V30.093C33.8316 30.244 33.8033 30.3384 33.7372 30.395C33.6806 30.4422 33.5673 30.4706 33.4351 30.4706H31.396Z" fill="white"/>
<path d="M5.44432 67.0983C5.27439 67.0417 5.11391 66.9756 4.94399 66.919C2.45177 66.1921 0.828053 64.0869 0.780852 61.472C0.761972 59.9804 0.780852 58.4888 0.780852 56.9973C0.780852 47.17 0.771412 37.3333 0.780852 27.5061C0.780852 27.1568 0.931896 26.7131 1.1679 26.4582C2.47065 25.0705 3.80172 23.7017 5.17999 22.38C5.4632 22.1063 6.01073 21.908 6.38834 21.9741C7.22852 22.1157 7.4362 23.1541 6.80371 23.8244C5.90689 24.7778 4.98175 25.703 4.06605 26.647C3.89612 26.8264 3.7262 27.0057 3.52795 27.2134C10.07 32.5566 16.5743 37.8714 23.2108 43.2901C23.5506 42.8936 23.8339 42.4971 24.1737 42.1573C25.8729 40.4392 27.5722 38.7305 29.2903 37.0407C31.7448 34.6145 35.1149 34.624 37.5694 37.0596C39.448 38.9193 41.3077 40.7979 43.1769 42.6576C43.3562 42.837 43.5356 42.9975 43.7527 43.2051C50.2853 37.862 56.7802 32.5471 63.3223 27.204C61.1793 25.0705 59.0836 22.9748 56.9879 20.8885C56.8746 20.7752 56.7613 20.6619 56.648 20.5486C56.0533 19.935 55.9778 19.2742 56.4687 18.8022C56.969 18.3113 57.5732 18.3679 58.2151 19.0004C60.6884 21.4643 63.1712 23.9188 65.6162 26.4016C65.8711 26.6659 66.0599 27.119 66.0599 27.4872C66.0788 38.6266 66.0411 49.7661 66.0883 60.9055C66.0977 63.6432 64.6061 66.3714 61.5003 67.0039C61.4625 67.0039 61.4342 67.0606 61.3965 67.0889H5.44432V67.0983ZM5.02895 64.4362C5.02895 64.5117 5.02895 64.5872 5.03839 64.6627C5.66144 64.7383 6.2845 64.8799 6.90755 64.8799C19.5102 64.8893 32.1224 64.8893 44.7251 64.8893C49.8416 64.8893 54.9677 64.8893 60.0843 64.8799C60.6601 64.8799 61.2454 64.7099 61.8213 64.625C61.8307 64.54 61.8496 64.4551 61.859 64.3701C61.6702 64.2096 61.4625 64.0586 61.2832 63.8792C52.9003 55.5057 44.5268 47.1228 36.1439 38.7494C34.3691 36.9746 32.4528 36.9746 30.6686 38.7494C22.2762 47.1417 13.8744 55.5341 5.48208 63.9358C5.3216 64.0963 5.17055 64.2663 5.01007 64.4267L5.02895 64.4362ZM21.4644 44.7061C15.3471 39.7123 9.22984 34.7184 3.02762 29.649C2.9993 29.885 2.98042 29.97 2.98042 30.0549C2.98042 40.5241 2.98042 51.0028 2.98986 61.472C2.98986 61.944 3.15035 62.416 3.24475 62.9163C9.35257 56.8085 15.3754 50.7856 21.4549 44.7061H21.4644ZM63.8604 29.6112C57.5826 34.7467 51.4559 39.75 45.4708 44.6495C51.5409 50.7195 57.5543 56.733 63.6432 62.8219C63.7093 62.2461 63.8509 61.6513 63.8509 61.0471C63.8604 50.8517 63.8509 40.6563 63.8604 30.4608C63.8604 30.2437 63.8604 30.0172 63.8604 29.6112Z" fill="white"/>
<path d="M45.8105 0.527019C48.2272 0.527019 50.1624 2.12241 50.6345 4.39751C52.3809 12.6766 54.1085 20.9556 55.8455 29.2442C56.0154 30.0749 55.6944 30.6602 55.0147 30.8018C54.3822 30.9339 53.8536 30.5091 53.6931 29.7162C51.9938 21.5881 50.2852 13.4696 48.5954 5.34153C48.3688 4.24646 47.9723 3.293 46.8489 2.90595C46.4147 2.75491 45.886 2.71715 45.4329 2.81155C35.7567 4.81288 26.0805 6.85196 16.4137 8.87217C14.9788 9.17425 13.5439 9.4669 12.0995 9.75955C10.3342 10.1183 9.51288 11.2983 9.86217 13.0542C10.9289 18.3596 12.024 23.665 13.1002 28.9609C13.1474 29.1875 13.204 29.4141 13.2229 29.6406C13.2984 30.2637 12.968 30.7451 12.3921 30.8773C11.7974 31.0189 11.2404 30.7074 11.0894 30.056C10.7684 28.6494 10.4947 27.2334 10.202 25.8174C9.34296 21.6165 8.45558 17.4156 7.65316 13.2052C7.14339 10.5525 8.73879 8.22079 11.3726 7.66382C18.5755 6.13451 25.7784 4.64295 32.9813 3.13252C37.0217 2.2829 41.0621 1.45216 45.1025 0.611981C45.3951 0.555339 45.6878 0.527018 45.8011 0.517578L45.8105 0.527019Z" fill="white"/>
<path d="M44.1404 8.09765C34.3793 10.1273 24.7314 12.1286 14.9985 14.1488C15.2817 15.5649 15.5555 16.9243 15.8387 18.2836C16.9337 23.6079 18.0288 28.9322 19.1239 34.2565C19.2844 35.04 18.9728 35.6064 18.312 35.7575C17.6795 35.9085 17.1509 35.512 16.9809 34.7002C15.7065 28.5452 14.4321 22.3901 13.1577 16.2351C12.9877 15.4233 12.8178 14.6208 12.6573 13.809C12.4591 12.8272 12.7423 12.3552 13.6957 12.1569C21.7577 10.4766 29.8196 8.81511 37.8816 7.13475C39.9962 6.7005 42.1014 6.25681 44.216 5.81312C45.5281 5.53936 45.9152 5.77536 46.189 7.08755C47.9732 15.6687 49.7574 24.2404 51.5416 32.8216C51.702 33.5768 51.4 34.1432 50.7863 34.2942C50.0878 34.4642 49.5591 34.0866 49.3892 33.2558C47.9637 26.4494 46.5477 19.6525 45.1317 12.8461C44.8013 11.279 44.4708 9.71193 44.131 8.08821L44.1404 8.09765Z" fill="white"/>
</svg>
