<svg width="68" height="72" viewBox="0 0 68 72" fill="none" xmlns="http://www.w3.org/2000/svg">
<path d="M11.5478 63.5C11.4743 63.7369 11.4089 63.933 11.3517 64.1209C10.5103 66.7841 8.04307 68.3282 5.2491 67.936C2.68388 67.5766 0.706863 65.3299 0.690524 62.6177C0.657846 56.5559 0.657846 50.5023 0.690524 44.4406C0.706863 41.7446 2.67571 39.5389 5.27361 39.1386C7.96137 38.7301 10.5103 40.2986 11.3109 42.9292C11.4906 43.5174 11.7602 43.6236 12.2994 43.6154C16.2371 43.5991 20.1666 43.64 24.1043 43.5909C26.0568 43.5664 27.8459 44.0157 29.5125 44.9716C30.6889 45.6496 31.8653 46.3522 32.9764 47.1447C34.2671 48.0678 35.705 48.4763 37.2408 48.5416C38.8339 48.6152 40.4351 48.5825 42.0363 48.5825C45.5655 48.5825 46.9544 49.5138 48.2288 52.8225C50.5326 52.0545 52.82 51.2539 55.1402 50.5187C56.5862 50.0612 58.0322 49.571 59.519 49.3341C61.8637 48.9583 64.0449 49.62 65.9974 50.9435C68.5708 52.6917 68.3748 55.6654 65.5971 57.0706C57.5338 61.139 49.3889 65.0685 41.4318 69.3412C37.829 71.2773 34.2671 71.4326 30.5745 70.4522C27.5763 69.6598 24.6843 68.4507 21.7678 67.3723C18.598 66.1959 15.461 64.9623 12.3075 63.7532C12.0706 63.6634 11.8255 63.5817 11.5396 63.4836L11.5478 63.5ZM11.6376 46.1398C11.6131 46.3931 11.5886 46.5401 11.5886 46.6953C11.5886 51.2049 11.5968 55.7226 11.5723 60.2322C11.5723 60.755 11.8255 60.8776 12.2177 61.0328C15.7632 62.3808 19.3088 63.7614 22.8544 65.1094C25.3215 66.0489 27.756 67.1599 30.2968 67.8298C33.5972 68.6958 36.8242 68.9817 40.1737 67.1844C48.1553 62.8954 56.3248 58.9577 64.4207 54.873C65.5726 54.293 65.6135 53.7293 64.5351 53.0185C62.6234 51.7686 60.5484 51.4173 58.3753 52.1199C55.034 53.1983 51.7172 54.3338 48.3922 55.4612C48.1471 55.5429 47.8693 55.7308 47.7468 55.9514C46.6603 57.9937 44.961 58.8924 42.6654 58.8761C37.3879 58.8434 32.1186 58.8679 26.8411 58.8679C26.5551 58.8679 26.261 58.8761 25.9751 58.8352C25.346 58.729 25.0029 58.3124 24.9621 57.7078C24.9212 57.0951 25.2235 56.6294 25.828 56.4579C26.1712 56.3598 26.5551 56.3599 26.9146 56.3599C32.1594 56.3599 37.4124 56.3598 42.6572 56.3517C43.0984 56.3517 43.564 56.3272 43.9725 56.1883C45.1407 55.8043 45.8596 54.5626 45.6636 53.3943C45.443 52.0709 44.43 51.1722 43.0248 51.1559C41.1132 51.1232 39.1933 51.1314 37.2817 51.1395C35.8847 51.1477 34.5612 50.8618 33.344 50.2001C31.9388 49.4403 30.5582 48.6315 29.2266 47.7574C27.5028 46.63 25.6728 46.0908 23.5896 46.1398C19.9215 46.2215 16.2452 46.1643 12.569 46.1643C12.2667 46.1643 11.9563 46.1643 11.6213 46.1643L11.6376 46.1398ZM3.19856 53.5332C3.19856 56.5478 3.18222 59.5623 3.19856 62.585C3.2149 64.2597 4.54652 65.5424 6.16408 65.5097C7.75713 65.4852 9.04791 64.2189 9.05608 62.5768C9.07242 56.5723 9.06425 50.5677 9.05608 44.5549C9.05608 44.1465 8.95805 43.7135 8.80283 43.3377C8.26364 42.0551 6.883 41.377 5.50235 41.6548C4.22791 41.9162 3.22307 43.0517 3.2149 44.3997C3.18222 47.4388 3.20673 50.486 3.20673 53.525L3.19856 53.5332Z" fill="white"/>
<path d="M30.9095 35.25C30.3049 35.7156 29.635 36.2548 28.9406 36.7777C27.6907 37.7172 26.2855 37.6355 25.1582 36.5571C24.6435 36.0669 24.1451 35.5686 23.655 35.0539C22.6093 33.9592 22.5194 32.5459 23.418 31.3368C23.8265 30.7894 24.235 30.2421 24.6843 29.7274C24.9621 29.4088 24.9948 29.1555 24.8069 28.7471C24.3739 27.8239 24.0389 26.8599 23.6059 25.9367C23.4916 25.6835 23.1893 25.4221 22.9279 25.3567C22.3233 25.2097 21.6861 25.177 21.0571 25.1116C19.366 24.9319 18.3693 23.8372 18.353 22.1216C18.353 21.4435 18.3366 20.7573 18.353 20.0792C18.402 18.6496 19.3006 17.6039 20.7139 17.3588C21.5881 17.2036 22.6828 17.3833 23.2955 16.9095C23.9001 16.4438 23.8837 15.2592 24.3739 14.5485C25.1255 13.4538 24.8395 12.6858 24.0226 11.8362C23.2302 11.0111 22.5766 10.0798 22.8625 8.82166C22.8952 8.66644 22.9115 8.50305 22.9932 8.37234C23.7693 7.03254 24.8069 5.92149 26.1712 5.20258C27.0698 4.72875 28.0175 4.96566 28.8344 5.56204C29.4063 5.97868 29.97 6.40349 30.5092 6.86915C30.8359 7.15509 31.0892 7.17142 31.4813 6.98353C32.4045 6.55054 33.3685 6.20742 34.2916 5.77444C34.5367 5.66007 34.7981 5.36597 34.8553 5.10454C35.0106 4.3938 35.0596 3.65037 35.1658 2.92329C35.37 1.56715 36.4239 0.594984 37.7882 0.545967C38.597 0.513289 39.4139 0.521459 40.2309 0.545967C41.6278 0.586815 42.7062 1.58349 42.8941 2.97231C42.9921 3.69939 43.0493 4.43465 43.1964 5.15356C43.2454 5.39048 43.4987 5.66007 43.7274 5.76627C44.6751 6.20742 45.6391 6.6159 46.6194 6.96719C46.8727 7.05705 47.2648 7.00803 47.4935 6.86098C48.0817 6.47702 48.6046 5.98685 49.1765 5.5702C50.3529 4.70424 51.7008 4.76959 52.771 5.7581C53.3511 6.28912 53.9066 6.85281 54.4458 7.42468C55.4098 8.45403 55.4996 9.87553 54.6582 11.0274C54.2415 11.5993 53.8086 12.1548 53.3429 12.694C53.0733 13.0126 53.0325 13.2577 53.2285 13.6662C53.6697 14.5812 54.0455 15.537 54.3968 16.4928C54.5438 16.9013 54.7399 17.0647 55.1729 17.0974C55.8754 17.1464 56.578 17.2362 57.2806 17.3588C58.6857 17.6039 59.568 18.5597 59.6579 19.9812C59.7069 20.79 59.7069 21.6069 59.6579 22.4157C59.568 23.9189 58.5714 25.0626 57.0764 25.079C55.3036 25.0953 54.3804 25.7162 53.7432 27.5053C53.2367 28.9268 53.2367 29.7846 54.2252 30.9038C55.7284 32.5949 55.5732 33.8693 53.9556 35.4869C53.588 35.8545 53.2204 36.2385 52.8364 36.5979C51.7253 37.6355 50.3365 37.7172 49.1193 36.8103C48.5556 36.3855 48.0246 35.9117 47.4364 35.5196C47.2321 35.3807 46.8645 35.3398 46.6276 35.4297C45.6227 35.7973 44.6342 36.214 43.662 36.6551C43.4496 36.7532 43.2291 37.0146 43.18 37.227C43.033 37.9459 42.9758 38.6812 42.8778 39.4082C42.6899 40.8216 41.6687 41.7856 40.239 41.8509C39.3976 41.8836 38.5561 41.8918 37.7228 41.8509C36.3749 41.7856 35.3537 40.8461 35.1494 39.5226C35.0432 38.82 34.9289 38.1256 34.8798 37.4149C34.8472 36.9574 34.6838 36.7532 34.2426 36.5979C33.1316 36.214 32.0532 35.7401 30.885 35.2663L30.9095 35.25ZM51.0146 7.35115C49.9035 8.21712 48.9886 8.9197 48.0899 9.63861C47.5344 10.0879 46.9952 10.0716 46.3498 9.76932C44.9038 9.10759 43.4333 8.51122 41.9465 7.94753C41.3256 7.71061 40.9008 7.40017 40.8272 6.69759C40.77 6.12573 40.6884 5.55387 40.6067 4.982C40.3126 3.02132 40.3126 3.04583 38.3355 3.054C37.8209 3.054 37.6411 3.2419 37.5921 3.70756C37.4941 4.67156 37.347 5.63556 37.2572 6.59956C37.1836 7.35932 36.7588 7.71061 36.0644 7.96387C34.6184 8.48671 33.1888 9.06675 31.8081 9.72848C31.1055 10.0634 30.55 10.1043 29.9373 9.60593C29.0468 8.87885 28.1237 8.19261 27.0535 7.35932C26.5796 7.89851 26.163 8.4377 25.681 8.90336C25.3379 9.23831 25.3542 9.47522 25.6402 9.82651C26.261 10.5699 26.8329 11.3542 27.4456 12.1058C27.9439 12.7185 27.8868 13.2822 27.5518 13.9848C26.8983 15.3491 26.3019 16.7461 25.8117 18.1676C25.5421 18.9437 25.1582 19.3685 24.3494 19.442C23.4099 19.5319 22.4704 19.6299 21.5391 19.7851C21.3022 19.826 20.91 20.1282 20.9264 20.2753C21.008 21.0432 20.5587 21.8847 21.1959 22.5627C21.2613 22.6363 21.4492 22.5954 21.5799 22.6118C22.5439 22.7343 23.4997 22.8568 24.4637 22.9712C25.2072 23.0611 25.583 23.4696 25.7954 24.1966C26.0976 25.2505 26.3591 26.3616 26.9228 27.2765C28.4586 29.7682 27.9031 29.6294 26.4898 31.492C25.2317 33.1504 25.2153 33.1177 26.7675 34.5801C27.0943 34.8823 27.3067 34.8823 27.6253 34.6127C28.3933 33.9837 29.1939 33.3873 29.97 32.7583C30.5255 32.3171 31.0484 32.3008 31.7101 32.6112C33.1479 33.2811 34.6184 33.8857 36.1053 34.4412C36.8078 34.7026 37.1918 35.0784 37.2653 35.8382C37.3552 36.8022 37.4696 37.7662 37.6248 38.722C37.6575 38.9344 37.9107 39.2694 38.0823 39.2857C38.8257 39.3511 39.5855 39.3102 40.3779 39.3102C40.5168 38.1665 40.6312 37.1289 40.7782 36.0996C40.9579 34.8252 41.1132 34.7271 42.3304 34.3677C43.3026 34.0817 44.381 33.853 45.1652 33.273C46.7828 32.0802 47.9755 32.456 49.348 33.6978C50.9002 35.1111 50.9737 35.0049 52.4116 33.4935C52.7465 33.1422 52.7138 32.9053 52.4361 32.5704C51.807 31.8024 51.2107 31.0018 50.5898 30.2176C50.1895 29.7111 50.165 29.2127 50.4264 28.6163C51.0963 27.0886 51.7335 25.5528 52.3462 24.0006C52.5586 23.4614 52.8609 23.1019 53.4409 23.0121C54.0373 22.9304 54.6337 22.8405 55.2301 22.767C57.2888 22.5137 57.2724 22.5137 57.1989 20.4468C57.1826 19.9812 57.0192 19.7933 56.5617 19.7524C55.5977 19.6626 54.6337 19.5237 53.6697 19.4257C52.9344 19.344 52.5505 18.9682 52.289 18.2493C51.758 16.7787 51.1453 15.3409 50.4917 13.9194C50.1731 13.2414 50.1405 12.694 50.6225 12.1058C51.2515 11.3379 51.8724 10.5536 52.4524 9.74481C52.575 9.57326 52.6076 9.17295 52.4933 9.0259C52.0521 8.44587 51.5374 7.92302 51.0146 7.33481V7.35115Z" fill="white"/>
<path d="M48.9479 21.3544C48.9071 26.7463 44.4139 31.1496 38.973 31.117C33.5811 31.0924 29.0879 26.6319 29.0879 21.3217C29.0879 15.6521 33.4096 11.3141 39.0383 11.3223C44.6998 11.3386 48.9806 15.6766 48.9398 21.3462L48.9479 21.3544ZM46.4235 21.1093C46.399 17.0899 43.0495 13.7813 39.0138 13.7895C34.9863 13.7895 31.5959 17.1635 31.6123 21.142C31.6286 25.3738 34.831 28.5762 39.0383 28.5681C43.2538 28.5681 46.4399 25.3411 46.4235 21.1175V21.1093Z" fill="white"/>
</svg>
