<svg width="70" height="70" viewBox="0 0 70 70" fill="none" xmlns="http://www.w3.org/2000/svg">
<path d="M47.3338 11.7289C47.3338 13.1443 47.3423 14.4233 47.3338 15.7023C47.3082 18.1494 45.5773 19.9059 43.1387 19.9144C37.7329 19.9314 32.3357 19.9314 26.9298 19.9144C24.5424 19.9144 22.786 18.1494 22.7774 15.7534C22.7604 12.1723 22.7604 8.59117 22.7774 5.01003C22.7774 2.56292 24.5339 0.823515 26.981 0.814989C32.3527 0.806462 37.7244 0.806462 43.1046 0.814989C45.5944 0.814989 47.3082 2.57145 47.3338 5.07825C47.3423 6.3487 47.3338 7.62767 47.3338 9.00044C48.0415 9.00044 48.681 8.99191 49.329 9.00044C51.9978 9.04307 54.6922 8.87254 57.3354 9.1795C63.807 9.9213 68.778 15.3356 69.1531 21.7817C69.5368 28.4238 65.2906 34.2133 58.8275 35.7822C57.5656 36.0892 56.2611 36.2085 54.7007 36.4558C55.1185 36.7969 55.4937 37.0441 55.7921 37.3596C56.3548 37.965 56.3548 38.7409 55.8347 39.2781C55.3061 39.8323 54.5643 39.8835 53.9418 39.2951C52.7567 38.1867 51.6056 37.0527 50.4716 35.8931C49.8917 35.2962 49.9003 34.597 50.4801 33.9831C51.5971 32.8065 52.7396 31.6554 53.9077 30.5384C54.4961 29.9757 55.2976 30.0353 55.8177 30.5725C56.3378 31.1097 56.3463 31.8771 55.7836 32.491C55.5022 32.7979 55.1441 33.0452 54.8201 33.3181C54.8627 33.4033 54.8968 33.4886 54.9394 33.5824C55.6216 33.5227 56.3037 33.4801 56.9773 33.3863C62.6986 32.6274 66.7657 27.6906 66.4247 21.9266C66.0921 16.3162 61.3429 11.7971 55.6727 11.7375C52.9187 11.7119 50.1731 11.7375 47.3338 11.7375V11.7289ZM35.03 17.1859C37.6136 17.1859 40.2056 17.1859 42.7892 17.1859C44.1364 17.1859 44.5968 16.734 44.5968 15.4124C44.5968 12.0615 44.5968 8.70201 44.5968 5.35109C44.5968 4.0039 44.1449 3.54347 42.8233 3.54347C37.6477 3.54347 32.4721 3.54347 27.305 3.54347C25.9578 3.54347 25.4974 3.98685 25.4974 5.31699C25.4974 8.66791 25.4974 12.0274 25.4974 15.3783C25.4974 16.751 25.9408 17.1859 27.3562 17.1859C29.9141 17.1859 32.4721 17.1859 35.03 17.1859Z" fill="white"/>
<path d="M15.2919 57.9078C14.9594 57.6179 14.5927 57.3536 14.2943 57.0296C13.7486 56.4242 13.7657 55.6483 14.2943 55.1111C14.823 54.5825 15.6159 54.5398 16.2128 55.1111C17.3809 56.2366 18.5235 57.3792 19.6404 58.5558C20.2117 59.1612 20.2032 59.8604 19.6149 60.4658C18.5149 61.6083 17.3809 62.7338 16.2298 63.8252C15.5818 64.4391 14.7888 64.388 14.2602 63.8252C13.7316 63.2625 13.7657 62.4866 14.3881 61.8471C14.6609 61.5657 14.9935 61.3525 15.4198 61.0029C13.9277 60.7727 12.6572 60.6619 11.4379 60.372C4.94925 58.8202 0.771256 53.3461 0.93326 46.6869C1.09526 40.4285 5.77632 34.9971 12.0774 33.8034C12.9642 33.6328 13.885 33.5902 14.7888 33.5817C17.398 33.5561 20.0156 33.5731 22.7611 33.5731C22.7611 32.1919 22.7441 30.8447 22.7611 29.4975C22.7867 27.4596 24.1424 25.8396 26.1206 25.4559C26.4531 25.3962 26.8027 25.3877 27.1352 25.3877C32.3961 25.3877 37.6484 25.3877 42.9093 25.3877C45.6207 25.3877 47.309 27.0845 47.3175 29.813C47.3175 33.2491 47.3175 36.6939 47.3175 40.13C47.3175 42.7818 45.5951 44.4871 42.9263 44.4871C37.6655 44.4871 32.4131 44.4871 27.1523 44.4871C24.4409 44.4871 22.7611 42.7818 22.7526 40.0533C22.7526 38.834 22.7526 37.6232 22.7526 36.3016C22.0534 36.3016 21.4054 36.2931 20.7659 36.3016C18.1568 36.3443 15.5136 36.1737 12.9386 36.4807C7.78005 37.1031 3.83227 41.5966 3.66174 46.704C3.48269 52.1268 6.95298 56.6459 12.2309 57.7799C13.1859 57.9846 14.1579 58.0613 15.1299 58.1977C15.1811 58.1039 15.2322 58.0101 15.2834 57.9163L15.2919 57.9078ZM35.1331 28.0991C32.4899 28.0991 29.8467 28.0991 27.2034 28.0991C25.9756 28.0991 25.4981 28.5766 25.4981 29.8044C25.4981 33.215 25.4981 36.6256 25.4981 40.0362C25.4981 41.2641 25.9756 41.7415 27.2034 41.7415C32.4302 41.7415 37.6655 41.7415 42.8922 41.7415C44.1115 41.7415 44.5975 41.2641 44.5975 40.0362C44.5975 36.6256 44.5975 33.215 44.5975 29.8044C44.5975 28.5766 44.12 28.0991 42.8922 28.0991C40.3087 28.0991 37.7166 28.0991 35.1331 28.0991Z" fill="white"/>
<path d="M35.0051 69.0437C32.3874 69.0437 29.7783 69.0437 27.1607 69.0437C24.4919 69.0437 22.7695 67.3384 22.7695 64.6952C22.7695 61.2249 22.7695 57.7631 22.7695 54.2929C22.7695 51.6411 24.4919 49.9443 27.1607 49.9443C32.4215 49.9443 37.6739 49.9443 42.9347 49.9443C45.6121 49.9443 47.3259 51.6411 47.3259 54.2929C47.3259 57.7631 47.3344 61.2249 47.3259 64.6952C47.3259 67.3469 45.6035 69.0437 42.9347 69.0437C40.2915 69.0437 37.6483 69.0437 35.0051 69.0437ZM35.0477 52.6643C32.4301 52.6643 29.821 52.6643 27.2033 52.6643C25.9755 52.6643 25.5065 53.1418 25.498 54.3696C25.498 57.7802 25.498 61.1908 25.498 64.6014C25.498 65.8292 25.9755 66.3067 27.2033 66.3067C32.4301 66.3067 37.6653 66.3067 42.8921 66.3067C44.1114 66.3067 44.5974 65.8207 44.5974 64.6014C44.5974 61.1908 44.5974 57.7802 44.5974 54.3696C44.5974 53.1503 44.1199 52.6728 42.8921 52.6643C40.2745 52.6643 37.6653 52.6643 35.0477 52.6643Z" fill="white"/>
<path d="M15.2572 8.77854C14.9417 8.49716 14.5921 8.24137 14.3022 7.92589C13.748 7.31198 13.7565 6.54459 14.2766 6.00742C14.7967 5.47025 15.5982 5.41056 16.1866 5.97331C17.3547 7.09029 18.5058 8.24137 19.6142 9.41803C20.2196 10.0575 20.194 10.7482 19.5716 11.3962C18.5058 12.4961 17.4229 13.5875 16.3059 14.6448C15.6067 15.3098 14.8308 15.3098 14.2681 14.73C13.7139 14.1588 13.765 13.3658 14.4216 12.6922C14.6774 12.4279 14.9673 12.1977 15.1804 11.7458H14.3107C10.5591 11.7458 6.80739 11.7458 3.05572 11.7458C2.8255 11.7458 2.60381 11.7458 2.3736 11.7458C1.50389 11.6776 0.932617 11.1319 0.932617 10.3645C0.932617 9.58856 1.50389 9.01728 2.3736 9.00875C4.59049 8.9917 6.80739 9.00875 9.02428 9.00875C11.0621 9.00875 13.1 9.00875 15.1378 9.00875C15.1804 8.93201 15.2145 8.85528 15.2572 8.78706V8.77854Z" fill="white"/>
<path d="M35.0218 14.457C33.3165 14.457 31.6112 14.457 29.9059 14.457C28.8401 14.457 28.2177 13.9198 28.2347 13.0672C28.2518 12.2401 28.8572 11.737 29.8718 11.7285C33.308 11.7285 36.7527 11.7285 40.1889 11.7285C41.2462 11.7285 41.8771 12.2657 41.8601 13.1183C41.843 13.9369 41.2291 14.4485 40.223 14.457C38.4921 14.4655 36.7527 14.457 35.0218 14.457Z" fill="white"/>
<path d="M37.8183 6.27125C38.671 6.27125 39.5236 6.2542 40.3763 6.27125C41.2886 6.2883 41.894 6.86811 41.8684 7.6696C41.8428 8.43699 41.263 8.97416 40.3848 8.99121C38.6539 9.00826 36.9145 9.00826 35.1836 8.99121C34.2713 8.98268 33.6744 8.39435 33.7 7.59286C33.7256 6.82547 34.2969 6.29683 35.1836 6.27978C36.0619 6.26272 36.9486 6.27978 37.8268 6.27978L37.8183 6.27125Z" fill="white"/>
<path d="M30.9465 7.6177C30.9465 8.3595 30.3411 8.98194 29.5993 8.99047C28.8575 8.99047 28.2351 8.38508 28.2266 7.64328C28.2266 6.90147 28.8319 6.27903 29.5738 6.27051C30.3156 6.27051 30.938 6.87589 30.9465 7.6177Z" fill="white"/>
<path d="M35.0564 36.2939C36.7617 36.2939 38.467 36.2939 40.1723 36.2939C41.2466 36.2939 41.8691 36.8141 41.8605 37.6667C41.8605 38.5108 41.2296 39.0224 40.1467 39.0224C36.7361 39.0224 33.3255 39.0224 29.9149 39.0224C28.8406 39.0224 28.2181 38.5023 28.2266 37.6497C28.2266 36.797 28.8576 36.3025 29.932 36.2939C31.6373 36.2939 33.3426 36.2939 35.0479 36.2939H35.0564Z" fill="white"/>
<path d="M37.7756 33.5643C36.8974 33.5643 36.0106 33.5814 35.1324 33.5643C34.2627 33.5388 33.6914 32.976 33.6914 32.2001C33.6914 31.4242 34.2627 30.8614 35.1409 30.8444C36.9059 30.8188 38.6624 30.8188 40.4274 30.8444C41.2971 30.8529 41.8683 31.4327 41.8683 32.2001C41.8683 32.976 41.2971 33.5302 40.4188 33.5558C39.5406 33.5814 38.6538 33.5558 37.7756 33.5558V33.5643Z" fill="white"/>
<path d="M30.9465 32.1831C30.9465 32.9249 30.3411 33.5474 29.5993 33.5559C28.8575 33.5559 28.2351 32.9505 28.2266 32.2087C28.2266 31.4669 28.8319 30.8445 29.5738 30.8359C30.3156 30.8359 30.938 31.4413 30.9465 32.1831Z" fill="white"/>
<path d="M33.6757 60.4658C35.2275 58.9567 36.7708 57.456 38.3141 55.9553C38.5187 55.7592 38.7063 55.546 38.928 55.3585C39.4993 54.881 40.2837 54.898 40.7783 55.384C41.2984 55.8871 41.3581 56.6374 40.855 57.2258C40.3946 57.7629 39.8745 58.249 39.3714 58.752C37.8366 60.2697 36.3189 61.8045 34.7671 63.2966C33.9315 64.0981 33.3943 64.0896 32.5672 63.2966C31.5014 62.2735 30.4612 61.2247 29.4295 60.1674C28.7644 59.4853 28.7474 58.7094 29.3186 58.1296C29.8984 57.5498 30.717 57.618 31.4162 58.2916C32.1665 59.0163 32.9253 59.7411 33.6757 60.4488V60.4658Z" fill="white"/>
</svg>
