<svg width="65" height="63" viewBox="0 0 65 63" fill="none" xmlns="http://www.w3.org/2000/svg">
<path d="M0.823242 46.168V4.56874C1.33496 2.08954 3.25832 0.889648 5.50812 0.889648C23.6477 0.916117 41.7873 0.898471 59.9268 0.907294C60.4033 0.907294 60.8885 0.924939 61.3473 1.04846C63.4207 1.58665 64.6029 3.20121 64.6029 5.47748C64.6029 18.6763 64.6029 31.8751 64.6029 45.074C64.6029 48.0472 62.8648 49.7853 59.8827 49.7853C53.2392 49.7853 46.6045 49.7853 39.961 49.7853C39.7139 49.7853 39.4757 49.7853 39.1846 49.7853C39.1846 50.0059 39.1669 50.1735 39.1846 50.3323C39.2551 50.8617 39.3081 51.4087 39.4316 51.9293C40.0845 54.682 41.6461 56.1995 44.5223 56.1465C45.1487 56.1377 45.7663 56.1465 46.3927 56.1642C47.9014 56.2083 49.0925 57.02 49.5248 58.2905C50.2748 60.4609 48.7484 62.5077 46.331 62.5342C43.9224 62.5695 41.5138 62.5342 39.1052 62.5342C32.5234 62.5342 25.9504 62.5342 19.3687 62.5342C18.5217 62.5342 17.71 62.4283 17.013 61.9078C15.919 61.0873 15.469 59.7197 15.866 58.414C16.2807 57.0641 17.41 56.2171 18.954 56.1554C19.7833 56.1201 20.6127 56.1554 21.442 56.1201C23.1801 56.0583 24.53 55.2995 25.3152 53.7379C25.6858 52.988 25.8799 52.141 26.0916 51.3293C26.2151 50.8441 26.2151 50.3323 26.2769 49.7853H25.4211C18.7599 49.7853 12.0987 49.803 5.43754 49.7677C4.67878 49.7677 3.86709 49.5824 3.16127 49.2824C1.81139 48.7178 1.1938 47.5179 0.823242 46.168ZM7.22856 39.0657H58.1888V7.33026H7.22856V39.0745V39.0657ZM62.4678 41.3508H2.9407C2.9407 42.5948 2.9407 43.7947 2.9407 44.9946C2.9407 46.9091 3.69946 47.659 5.614 47.659C23.6653 47.659 41.7255 47.659 59.7769 47.659C59.9886 47.659 60.1915 47.659 60.4033 47.659C61.5326 47.5973 62.4149 46.7679 62.4501 45.6298C62.4943 44.2182 62.459 42.8154 62.459 41.3508H62.4678ZM5.06698 39.101C5.06698 38.8275 5.06698 38.5804 5.06698 38.3422C5.06698 27.8343 5.06698 17.3353 5.06698 6.82736C5.06698 6.59797 5.04934 6.36858 5.08463 6.14801C5.18168 5.57453 5.4993 5.2128 6.11689 5.16868C6.31982 5.15986 6.53156 5.15986 6.74331 5.15986C24.0535 5.15986 41.3726 5.15986 58.6828 5.15986C58.8946 5.15986 59.0975 5.15986 59.3093 5.16868C59.918 5.20397 60.2445 5.56571 60.3415 6.14801C60.3768 6.36858 60.3592 6.60679 60.3592 6.82736C60.3592 17.3353 60.3592 27.8343 60.3592 38.3422C60.3592 38.5893 60.3592 38.8275 60.3592 39.0922H62.4766V38.4304C62.4766 27.4726 62.4766 16.5059 62.4766 5.54806C62.4766 3.83645 61.6826 3.03358 59.9621 3.03358C41.7961 3.03358 23.6301 3.03358 5.47283 3.03358C3.7524 3.03358 2.95835 3.83645 2.95835 5.54806C2.95835 16.5059 2.95835 27.4726 2.95835 38.4304V39.1098H5.07581L5.06698 39.101ZM28.5355 49.803C28.2973 50.9676 28.1649 52.0881 27.8209 53.138C27.4768 54.1702 26.9121 55.1319 26.4622 56.0848H39.1581C37.6229 54.2232 37.173 52.0528 36.9789 49.803H28.5355ZM32.6469 60.4079C37.0847 60.4079 41.5314 60.4079 45.9693 60.4079C46.2163 60.4079 46.4721 60.4079 46.7104 60.3638C47.2221 60.2756 47.5132 59.9403 47.5485 59.4286C47.5838 58.8904 47.328 58.5022 46.7986 58.361C46.5427 58.2905 46.2692 58.2816 45.9957 58.2816C43.6753 58.2905 41.3461 58.3257 39.0257 58.3169C32.7969 58.3169 26.5768 58.2905 20.348 58.2816C19.7657 58.2816 19.1834 58.2816 18.6187 58.3699C18.0805 58.4581 17.8335 58.8816 17.8688 59.4286C17.9041 59.9491 18.1952 60.2756 18.707 60.3638C18.954 60.4079 19.201 60.4079 19.4481 60.4079C23.8506 60.4079 28.2532 60.4079 32.6469 60.4079Z" fill="white"/>
<path d="M48.9866 29.6172C49.8424 30.473 50.61 31.223 51.3687 31.9905C52.101 32.7228 52.0922 33.2169 51.3687 33.958C50.5394 34.7962 49.7012 35.6343 48.8631 36.4637C48.1043 37.2136 47.6014 37.2136 46.8603 36.4813C46.1015 35.7226 45.3428 34.955 44.5399 34.1433C44.0458 34.6462 43.6135 35.1138 43.1459 35.5549C42.4048 36.2696 41.5402 36.0578 41.2226 35.0785C40.9491 34.2315 40.6579 33.3845 40.4638 32.5199C40.3315 31.9023 40.0756 31.717 39.4315 31.717C31.7116 31.7435 23.9917 31.7347 16.2718 31.7347C14.9484 31.7347 14.6484 31.4435 14.6484 30.1378C14.6484 23.7236 14.6484 17.3095 14.6484 10.9042C14.6484 9.70427 14.9484 9.4043 16.1571 9.4043C25.7827 9.4043 35.4172 9.4043 45.0428 9.4043C46.2339 9.4043 46.5427 9.72192 46.5427 10.913C46.5427 15.5361 46.5427 20.1681 46.525 24.7912C46.525 25.2764 46.675 25.4793 47.1338 25.6029C48.0161 25.8323 48.8807 26.1058 49.7542 26.3704C50.9011 26.7234 51.1305 27.5703 50.2924 28.4085C49.8953 28.8055 49.4807 29.1761 49.0042 29.6172H48.9866ZM39.5462 29.5907C39.0786 28.0027 38.6199 26.4587 38.1611 24.9235C38.0111 24.4294 37.9229 23.953 38.3375 23.5383C38.7522 23.1237 39.2286 23.2031 39.7227 23.3531C41.2579 23.8207 42.8018 24.2706 44.3546 24.7294V16.8948H16.81V29.5996H39.5374L39.5462 29.5907ZM16.7835 14.6715H44.3635V11.5923H16.7835V14.6715ZM42.7842 32.8905C42.9695 32.714 43.0577 32.6346 43.1459 32.5464C44.2576 31.4524 44.8487 31.4523 45.9516 32.5728C46.5692 33.1993 47.1691 33.8521 47.6985 34.3991C48.2896 33.8698 48.7925 33.411 49.3395 32.9169C48.5543 32.1405 47.7779 31.3906 47.0279 30.623C46.375 29.9525 46.3927 29.3437 47.0279 28.6644C47.2309 28.4526 47.4338 28.2409 47.6985 27.9674C45.3428 27.2704 43.1018 26.6087 40.7285 25.9117C41.4343 28.2938 42.096 30.5436 42.793 32.8816L42.7842 32.8905Z" fill="white"/>
<path d="M32.744 43.4248C33.7409 43.4248 34.7291 43.4248 35.7261 43.4248C36.476 43.4248 36.9348 43.8395 36.9436 44.4659C36.9524 45.0835 36.4848 45.5334 35.7525 45.5423C33.7233 45.5599 31.6941 45.5599 29.6648 45.5423C28.9325 45.5423 28.4649 45.0835 28.4738 44.4659C28.4826 43.8395 28.9502 43.4425 29.7001 43.4336C30.7147 43.4248 31.7294 43.4336 32.744 43.4336V43.4248Z" fill="white"/>
<path d="M24.2389 21.1026C25.5624 21.1026 26.8946 21.1026 28.218 21.1026C29.1356 21.1026 29.4973 21.4731 29.5061 22.3907C29.5238 23.6523 29.5238 24.9228 29.5061 26.1845C29.4973 27.0844 29.1091 27.4726 28.2092 27.4726C25.5359 27.4814 22.8626 27.4814 20.1893 27.4726C19.2982 27.4726 18.8924 27.0667 18.8924 26.1756C18.8835 24.914 18.8835 23.6435 18.8924 22.3819C18.8924 21.4908 19.2894 21.1114 20.1981 21.1026C21.548 21.0937 22.8891 21.1026 24.2389 21.1026ZM21.0275 25.3198H27.3357V23.2818H21.0275V25.3198Z" fill="white"/>
</svg>
