<svg width="401" height="401" viewBox="0 0 401 401" fill="none" xmlns="http://www.w3.org/2000/svg">
<rect width="401" height="401" fill="#A0A0A0"/>
<rect x="2" y="2" width="397" height="397" fill="white"/>
<path d="M200.034 283.069C268.537 283.069 324.069 227.537 324.069 159.034C324.069 90.5321 268.537 35 200.034 35C131.532 35 76 90.5321 76 159.034C76 227.537 131.532 283.069 200.034 283.069Z" fill="white"/>
<path d="M198.583 80.1626C187.534 80.2432 169.55 83.7111 169.389 83.7917L166.324 84.3563L169.147 98.6307C156.243 101.292 141.566 107.582 140.921 107.824L139.066 108.631L138.985 150.89C138.985 150.809 138.985 152.503 138.985 152.503C138.985 157.18 139.55 169.519 145.114 183.713C151.405 199.842 165.598 221.375 197.454 231.859L197.696 231.939L198.18 232.02H199.147L199.551 231.859C231.487 221.455 245.761 200.084 252.052 183.955C257.616 169.761 258.261 157.422 258.261 152.745V150.97L258.342 108.873L256.487 108.066C255.842 107.824 241.084 101.453 228.261 98.7113L231.164 84.5175L228.1 83.953C227.938 83.8723 209.954 80.3239 198.906 80.2433L198.583 80.1626ZM198.583 83.6304H198.906C209.067 83.711 225.358 86.8563 227.132 87.2595C226.567 89.8402 224.229 101.453 224.229 101.453L225.922 101.776C238.422 104.115 253.503 110.566 254.874 111.212L254.794 151.132V152.825C254.794 157.261 254.148 169.196 248.826 182.826C242.777 198.229 229.067 218.794 198.502 228.714H198.341C167.776 218.633 154.227 198.068 148.179 182.584C142.856 168.954 142.292 157.099 142.292 152.664L142.372 151.132L142.453 110.97C143.582 110.486 158.985 104.034 171.486 101.695L173.179 101.373L170.357 87.1789C172.131 86.7756 188.341 83.6304 198.583 83.6304Z" fill="#10479B"/>
<path d="M198.664 86.1294C191.164 86.1294 180.116 87.9036 174.309 88.952L173.422 89.1133L176.245 103.388L172.051 104.194C162.132 106.049 150.277 110.646 145.599 112.501L145.034 112.662L144.954 151.131V152.663C144.954 157.018 145.518 168.389 150.68 181.615C156.406 196.293 169.309 215.97 198.261 225.89L198.503 225.971L198.745 225.89C227.778 216.051 240.762 196.535 246.488 181.776C251.73 168.55 252.294 157.098 252.294 152.743V151.131L252.375 112.823L251.811 112.581C247.214 110.727 235.439 106.13 225.439 104.194C225.439 104.194 222.375 103.63 221.246 103.388C221.568 101.855 224.149 89.1939 224.149 89.1939L223.262 89.0327C217.374 87.9843 206.407 86.21 198.906 86.1294H198.664ZM198.584 87.823H198.826C205.923 87.9036 216.084 89.5165 222.052 90.5649C221.729 92.0972 219.149 104.759 219.149 104.759L225.036 105.888C234.552 107.743 245.681 112.017 250.52 113.952L250.44 151.131V152.743C250.44 156.937 249.875 168.228 244.794 181.131C239.149 195.486 226.488 214.438 198.342 224.116C170.196 214.357 157.615 195.325 152.051 180.97C146.97 167.986 146.486 156.856 146.486 152.663V151.131C146.486 151.131 146.567 118.388 146.567 113.791C151.486 111.856 162.696 107.581 172.132 105.807L178.1 104.759L175.277 90.5649C181.406 89.4359 191.568 87.9036 198.584 87.823Z" fill="#10479B"/>
<path d="M237.455 168.551H229.067L229.148 145.324L205.922 145.244L205.841 168.47H197.454L197.535 116.856H205.922L205.841 138.147L229.067 138.228L229.148 116.937H237.535L237.455 168.551Z" fill="#10479B"/>
<path d="M192.696 153.953V162.421C185.76 166.454 182.293 172.179 182.293 179.599C182.293 184.922 184.147 189.519 188.018 193.309C191.809 197.099 196.325 198.954 201.567 198.954C206.89 198.954 211.487 197.099 215.358 193.39C219.229 189.68 221.084 185.083 221.084 179.68C221.164 175.97 220.035 172.341 218.019 169.276C216.245 166.454 213.664 164.115 210.68 162.502V154.034C215.922 156.05 220.519 159.518 223.745 164.115C227.051 168.631 228.826 174.115 228.745 179.68C228.745 187.18 226.084 193.551 220.761 198.793C215.438 204.035 208.987 206.696 201.486 206.696C194.067 206.696 187.696 204.035 182.373 198.712C177.05 193.39 174.389 187.018 174.47 179.599C174.47 174.034 176.163 168.631 179.47 164.196C182.857 159.599 187.212 156.211 192.696 153.953Z" fill="#10479B"/>
<path d="M178.582 149.357H194.227V141.534H178.582V149.357ZM178.098 160.648C176.001 160.486 173.904 160.002 171.969 159.196C169.63 158.228 167.453 156.777 165.598 155.083C163.824 153.389 162.453 151.293 161.565 149.034C160.678 146.696 160.275 144.196 160.275 141.696C160.275 139.196 160.759 136.857 161.727 134.599C162.775 132.179 164.227 130.163 166.162 128.47C167.856 126.776 169.872 125.486 172.13 124.599C174.388 123.792 176.808 123.389 179.308 123.389C182.372 123.389 185.034 123.953 187.453 125.002C189.953 126.05 192.13 127.744 193.905 129.841H194.147V118.792C190.034 116.534 185.356 115.324 180.033 115.324C176.001 115.324 172.291 115.889 169.066 117.098C165.678 118.389 162.614 120.324 160.033 122.744C157.372 125.163 155.194 128.147 153.662 131.454C152.21 134.679 151.485 138.228 151.485 141.696C151.485 145.083 152.049 148.47 153.259 151.615C154.469 154.68 156.243 157.502 158.501 159.922C161.162 162.744 164.307 165.003 167.856 166.535C169.63 167.341 171.485 167.906 173.42 168.309C174.63 165.486 176.162 162.906 178.098 160.648Z" fill="#10479B"/>
<path d="M162.776 249.44C162.615 248.714 162.293 248.23 161.728 247.988C161.164 247.746 160.599 247.908 160.034 248.311C159.389 248.795 158.905 249.44 158.583 250.166C158.26 250.891 158.18 251.698 158.341 252.424C158.502 253.15 158.825 253.634 159.389 253.875C159.954 254.117 160.518 253.956 161.083 253.553C161.647 253.15 162.131 252.504 162.454 251.698C162.857 250.972 162.938 250.246 162.776 249.44Z" fill="#10479B"/>
<path d="M234.228 66.3708C235.922 67.0966 237.374 66.9353 238.664 66.0482C239.954 65.1611 240.841 63.9514 241.487 62.4191C242.132 60.8868 242.293 59.3545 242.132 57.8223C241.89 56.29 240.922 55.1609 239.228 54.4351C237.535 53.7093 236.083 53.8706 234.793 54.7577C233.502 55.7255 232.535 56.9351 231.97 58.3868C231.325 59.8384 231.164 61.4514 231.325 62.9836C231.567 64.5159 232.535 65.645 234.228 66.3708Z" fill="#10479B"/>
<path d="M229.793 258.069C230.357 257.827 230.68 257.343 230.841 256.617C231.002 255.811 230.841 255.004 230.519 254.278C230.196 253.553 229.712 252.908 229.067 252.504C228.422 252.101 227.857 252.02 227.293 252.262C226.728 252.504 226.406 252.988 226.244 253.714C226.083 254.52 226.164 255.327 226.486 256.053C226.809 256.778 227.293 257.424 228.018 257.827C228.664 258.23 229.228 258.311 229.793 258.069Z" fill="#10479B"/>
<path d="M133.742 249.681L136.726 245.891L130.355 240.891L127.371 244.762L133.742 249.681Z" fill="#10479B"/>
<path d="M158.26 64.4363L152.937 58.791H152.856L153.502 66.5331L158.26 64.4363Z" fill="#10479B"/>
<path d="M303.665 120.162L299.471 121.533L302.213 129.678L299.875 130.485L297.133 122.34L292.455 123.953L295.439 132.904L293.02 133.711L289.068 121.936L305.197 116.533L309.068 128.146L306.649 128.953L303.665 120.162ZM298.584 197.906C296.407 197.906 294.633 196.131 294.633 193.954C294.633 191.776 296.407 190.002 298.584 190.002C300.762 190.002 302.536 191.776 302.536 193.954C302.536 196.131 300.762 197.906 298.584 197.906ZM199.712 245.003C151.404 244.922 112.291 205.648 112.452 157.34C112.533 109.033 151.807 69.9194 200.115 70.0807C248.422 70.1613 287.536 109.436 287.455 157.743C287.213 205.97 248.019 245.084 199.712 245.003ZM260.116 255.084L258.825 253.39L261.729 251.213L256.083 243.874L258.906 241.697L264.551 249.116L266.003 247.987L260.358 240.567L263.18 238.39L268.826 245.81L274.874 241.132L276.164 242.826L260.116 255.084ZM249.632 238.713L262.616 228.712L267.939 235.648C268.906 236.858 269.632 237.987 270.116 239.116C270.6 240.164 270.922 241.132 271.003 241.938L268.422 243.955C268.342 243.068 267.939 242.1 267.374 241.132C266.568 239.922 265.761 238.793 264.874 237.664L261.003 232.664L250.922 240.406L249.632 238.713ZM242.293 265.326L239.874 259.842L228.18 264.923L227.373 262.987L242.535 256.455L245.761 263.955L242.293 265.326ZM241.89 255.003L238.422 256.536L233.099 244.277L236.567 242.745L238.422 247.1L241.89 245.568L242.777 247.503L239.309 249.035L241.89 255.003ZM223.26 257.423C222.938 256.777 222.857 256.052 222.857 255.326C222.938 254.6 223.099 253.874 223.422 253.229L220.922 254.358L220.115 252.503L224.47 250.648L223.341 248.148L226.809 246.616L227.938 249.116L232.293 247.261L233.099 249.116L230.599 250.245C231.325 250.406 231.97 250.729 232.535 251.213C234.228 252.665 234.712 255.003 233.744 256.939C233.099 258.31 231.97 259.439 230.599 259.923C229.228 260.568 227.696 260.649 226.244 260.165C224.793 259.6 223.825 258.713 223.26 257.423ZM207.534 273.955H203.986L204.066 259.278H201.889L201.808 273.955H198.26L198.341 264.923C197.937 265.165 197.534 265.326 197.131 265.487C196.566 265.649 196.002 265.729 195.357 265.729H190.598C189.873 265.729 189.227 265.487 188.744 265.084C188.26 264.6 188.018 263.955 188.098 263.31L188.179 251.858L196.566 251.939V254.116H191.889L191.808 263.713H195.599C196.163 263.713 196.728 263.713 197.292 263.552C197.776 263.471 198.179 263.31 198.421 263.229L198.502 251.052H202.05L201.97 257.342H204.228L204.308 251.052H207.857L207.534 273.955ZM169.308 269.52L166.001 268.229L171.485 254.6L170.034 254.035L164.55 267.665L161.243 266.374L169.792 245.003L173.098 246.293L170.759 252.1L172.211 252.664L174.55 246.858L177.856 248.148L169.308 269.52ZM158.662 255.81C157.291 255.326 156.243 254.277 155.678 252.906C154.63 250.729 155.275 248.229 157.211 246.777C157.937 246.213 158.824 245.971 159.711 245.81L157.13 244.761L157.937 242.826L161.324 244.197L162.372 241.616L165.84 242.987L164.792 245.568L168.179 246.939L167.372 248.874L164.872 247.826C165.437 248.552 165.84 249.277 166.001 250.245C166.405 252.584 165.114 254.842 162.856 255.729C161.485 256.374 159.953 256.374 158.662 255.81ZM142.049 245.164L139.065 242.826L146.646 233.148L149.63 235.487L142.049 245.164ZM133.501 226.293L134.791 224.599L143.662 231.535L142.533 232.987C140.598 235.487 138.098 236.696 135.194 236.696C132.291 236.696 129.791 235.89 127.855 234.438L127.13 232.019C129.226 233.39 131.404 234.116 133.581 233.955C135.759 233.874 137.614 232.825 139.065 230.89L139.227 230.648L133.501 226.293ZM135.356 253.713L125.113 245.729C124.549 245.326 124.146 244.681 124.065 244.035C123.984 243.39 124.146 242.664 124.63 242.18L128.743 236.938L141.001 246.616L135.356 253.713ZM111.081 121.453L109.065 121.049C109.549 122.178 109.791 123.146 109.71 124.033C109.71 125.001 109.468 125.888 108.984 126.775C107.936 129.033 106.242 130.485 104.065 131.05C101.887 131.614 99.4678 131.372 97.4517 130.324C95.3549 129.356 93.6613 127.743 92.6935 125.646C91.7258 123.549 91.8064 121.453 92.8548 119.114C93.6613 117.42 94.7903 116.211 96.242 115.323C97.6936 114.517 99.3872 114.356 101.242 115.001L100.032 117.662C99.0646 117.259 98.0162 117.42 97.1291 117.904C96.242 118.469 95.5162 119.194 95.1129 120.162C94.3065 121.856 94.3871 123.307 95.2742 124.598C96.1613 125.888 97.2904 126.937 98.8227 127.582C100.274 128.308 101.807 128.549 103.339 128.388C104.871 128.227 106.081 127.34 106.887 125.646C107.532 124.275 107.694 123.065 107.291 121.936C106.887 120.807 106 120.001 104.71 119.356L102.774 123.469L100.758 122.501L103.823 115.969L111.968 119.759L111.081 121.453ZM102.371 197.906C100.194 197.986 98.3388 196.212 98.2581 194.034C98.1775 191.857 99.9517 190.002 102.129 189.921C102.21 189.921 102.29 189.921 102.371 189.921C104.549 190.002 106.242 191.857 106.161 194.034C106.161 196.131 104.468 197.825 102.371 197.906ZM101.968 101.855L116.726 110.243L115.275 112.823L100.516 104.436L101.968 101.855ZM109.629 89.5165L122.694 94.8392L115.758 82.5809L118.5 79.4357L131.243 90.7262L129.388 92.823L119.549 84.1132L126.243 96.3715L124.63 98.2264L111.645 93.065L121.484 101.775L119.629 103.872L106.887 92.5811L109.629 89.5165ZM127.694 71.1291L131.726 76.5324L137.936 71.8549L133.904 66.4516L136.323 64.6774L146.485 78.3066L144.065 80.0809L139.469 73.9517L133.259 78.6292L137.856 84.7583L135.436 86.5326L125.275 72.9033L127.694 71.1291ZM153.178 55.4837L166.163 68.3065L163.259 69.5968L159.953 66.129L153.743 68.9516L154.146 73.7098L151.324 75.0001L150.275 56.774L153.178 55.4837ZM179.872 47.0157L180.437 49.5158L171.405 51.6933L172.453 56.0482L180.84 54.032L181.405 56.3708L173.018 58.3869L174.147 63.2257L183.34 61.0483L183.905 63.5483L171.808 66.3709L167.856 49.8384L179.872 47.0157ZM209.308 53.8707C209.712 51.4514 210.76 49.5158 212.454 48.0642C214.147 46.5319 216.325 46.048 218.825 46.4512C220.76 46.7738 222.293 47.5803 223.422 48.79C224.551 49.9997 225.115 51.532 224.954 53.3868L222.051 52.903C221.97 51.9352 221.647 51.0481 221.083 50.2416C220.518 49.5158 219.631 49.0319 218.422 48.79C216.647 48.4674 215.196 48.9513 214.228 50.0804C213.18 51.29 212.534 52.7417 212.292 54.2739C211.97 55.8062 212.131 57.4192 212.776 58.8708C213.341 60.3224 214.55 61.2096 216.325 61.5321C217.615 61.7741 218.663 61.5322 219.551 60.7257C220.438 59.9999 221.002 59.0321 221.325 57.8224L224.228 58.3063C223.744 60.3224 222.776 61.7741 221.244 62.8225C219.712 63.8709 217.938 64.1935 215.921 63.8709C213.421 63.4677 211.567 62.258 210.438 60.2418C209.308 58.4676 208.905 56.2901 209.308 53.8707ZM229.228 57.2579C230.196 54.9998 231.648 53.3868 233.664 52.3384C235.68 51.29 237.857 51.2094 240.196 52.2578C242.535 53.2255 244.067 54.8385 244.712 57.016C245.357 59.1934 245.196 61.3709 244.228 63.629C243.422 65.7258 241.809 67.5 239.793 68.5484C237.777 69.5968 235.599 69.6774 233.261 68.629C230.922 67.6613 229.389 66.0484 228.744 63.8709C228.099 61.6934 228.26 59.516 229.228 57.2579ZM255.116 59.5966L247.696 72.0162L255.116 76.4517L253.825 78.6292L243.825 72.6614L252.535 58.0643L255.116 59.5966ZM268.584 68.3065L270.842 70.242L261.567 81.2905L268.18 86.8552L266.487 88.7907L257.616 81.2905L268.584 68.3065ZM290.681 90.7262L288.665 92.3391L282.777 85.1616L279.31 87.9842L284.713 94.5972L282.858 96.1295L277.374 89.5165L273.503 92.6617L279.471 100.001L277.455 101.613L269.551 92.0165L282.697 81.2099L290.681 90.7262ZM294.068 98.8715C296.326 99.3554 298.02 100.726 299.149 102.984C300.036 104.597 300.358 106.291 300.116 107.985C299.875 109.678 298.987 111.049 297.375 112.098L296.004 109.517C296.971 108.872 297.455 108.065 297.536 107.017C297.616 105.968 297.455 105.001 296.971 104.033C296.165 102.42 294.955 101.533 293.342 101.452C291.81 101.372 290.197 101.694 288.826 102.42C287.455 103.146 286.245 104.194 285.439 105.565C284.632 106.936 284.632 108.388 285.439 110.001C286.165 111.372 287.052 112.178 288.181 112.581C289.31 112.904 290.52 112.743 291.81 112.098L289.713 108.065L291.729 107.017L295.036 113.469L287.052 117.581L286.165 115.888L287.697 114.598C286.729 114.356 285.761 113.952 284.955 113.388C284.229 112.823 283.665 112.017 283.261 111.21C282.052 108.952 281.971 106.775 282.858 104.678C283.745 102.581 285.358 100.888 287.455 99.8393C289.713 98.7102 291.891 98.3876 294.068 98.8715ZM200.518 37.4995C133.743 37.3382 79.5481 91.3714 79.3868 158.147C79.2255 224.922 133.259 279.117 200.034 279.278C266.809 279.439 321.004 225.406 321.165 158.631C321.246 91.7746 267.293 37.5802 200.518 37.4995Z" fill="#10479B"/>
<path d="M106.044 299.969C105.853 305.651 103.671 310.109 99.5239 313.298C95.2568 316.63 90.726 318.332 85.9315 318.404L82 315.719C86.7705 315.287 90.726 313.753 93.8184 311.116C96.9109 308.431 98.4691 304.764 98.4691 300.161V299.609H84.7808V295.63H101.202C102.592 295.63 103.743 296.086 104.678 297.02C105.493 297.692 105.949 298.675 106.044 299.969ZM90.2465 333.411V321.233H118.582V338.061H95.089C93.5787 338.061 92.3801 337.63 91.5171 336.791C90.678 335.952 90.2465 334.825 90.2465 333.411ZM97.3184 334.058H111.414V325.212H97.3184V334.058ZM111.918 317.9C111.918 316.558 111.942 315.335 111.966 314.257C111.966 313.154 111.966 311.907 111.966 310.517C111.966 309.127 111.966 307.712 111.966 306.226C111.966 304.788 111.966 303.349 111.966 301.959C111.966 300.568 111.966 299.298 111.966 298.195C111.942 297.116 111.918 295.918 111.918 294.551H119.038V317.877H111.918V317.9Z" fill="#10479B"/>
<path d="M150.657 311.835C150.657 313.154 150.369 314.4 149.818 315.575C149.267 316.75 148.5 317.805 147.517 318.716C146.582 319.626 145.455 320.346 144.209 320.897C142.938 321.424 141.596 321.712 140.181 321.712C138.767 321.712 137.424 321.448 136.178 320.897C134.931 320.346 133.852 319.65 132.941 318.763C132.006 317.852 131.239 316.798 130.688 315.599C130.137 314.4 129.849 313.154 129.849 311.835C129.849 310.085 130.304 308.503 131.215 307.065C132.126 305.627 133.325 304.476 134.859 303.613H129.801V299.705H136.681V294.455H143.705C143.681 294.623 143.657 294.767 143.657 294.911V295.822V298.411C143.657 298.842 143.681 299.298 143.705 299.729H150.729V303.613H145.431C146.989 304.524 148.26 305.698 149.219 307.113C150.154 308.551 150.657 310.109 150.657 311.835ZM144.089 311.835C144.089 311.068 143.993 310.325 143.801 309.606C143.609 308.887 143.345 308.24 142.962 307.64C142.626 307.137 142.219 306.705 141.715 306.37C141.236 306.034 140.685 305.866 140.133 305.866C139.558 305.866 139.054 306.034 138.599 306.37C138.143 306.705 137.736 307.137 137.352 307.64C136.993 308.24 136.705 308.911 136.537 309.606C136.369 310.301 136.274 311.044 136.274 311.835C136.274 312.65 136.346 313.394 136.537 314.089C136.705 314.784 136.969 315.407 137.352 315.983C137.712 316.558 138.143 317.013 138.599 317.325C139.054 317.637 139.558 317.805 140.133 317.805C140.852 317.805 141.452 317.613 141.955 317.205C142.459 316.798 142.89 316.27 143.226 315.647C143.561 315.072 143.801 314.424 143.897 313.729C144.017 312.986 144.089 312.387 144.089 311.835ZM168.469 294.767C168.469 297.236 168.469 299.49 168.469 301.527C168.445 303.589 168.421 305.914 168.421 308.503C168.421 311.092 168.421 313.753 168.421 316.486C168.421 319.171 168.421 321.832 168.421 324.445C168.421 327.058 168.445 329.383 168.469 331.445C168.469 333.459 168.469 335.736 168.469 338.253H161.852V310.517H158.88V338.253H152.263C152.263 335.736 152.287 333.459 152.311 331.445C152.311 329.383 152.311 327.058 152.311 324.445C152.311 321.832 152.311 319.195 152.311 316.486C152.311 313.753 152.311 311.092 152.311 308.503C152.311 305.914 152.311 303.589 152.311 301.527C152.287 299.466 152.263 297.212 152.263 294.767H158.88V306.537H161.852V294.767H168.469Z" fill="#10479B"/>
<path d="M200.448 338.061C200.448 337.079 200.448 336.192 200.448 335.376C200.448 334.609 200.448 333.698 200.448 332.644C200.448 331.589 200.448 330.558 200.448 329.503C200.448 326.986 200.448 324.133 200.448 320.969C199.777 321.377 199.01 321.736 198.123 322.072C197.644 322.216 197.14 322.287 196.613 322.359C196.061 322.407 195.462 322.431 194.743 322.431H185.897C184.411 322.431 183.212 322.072 182.301 321.329C181.438 320.394 181.007 319.243 181.007 317.9V307.089V296.277H196.804V300.257H192.37H187.983V318.452H195.102C195.702 318.452 196.253 318.428 196.781 318.356C197.284 318.284 197.763 318.212 198.243 318.164C198.65 318.068 199.034 317.972 199.394 317.853C199.753 317.757 200.113 317.637 200.448 317.493C200.448 313.226 200.448 309.39 200.448 306.034C200.448 304.62 200.448 303.229 200.448 301.839C200.448 300.449 200.448 299.226 200.448 298.147C200.448 297.068 200.448 295.87 200.448 294.551H207.113V306.418H211.308V294.551H218.02C218.02 297.044 218.02 299.298 218.02 301.312C218.02 303.373 218.02 305.698 218.02 308.311C218.02 310.924 218.02 313.585 218.02 316.318C218.02 318.979 218.02 321.616 218.02 324.253C218.02 326.89 218.02 329.192 218.02 331.229C218.02 333.291 218.02 335.544 218.02 338.037H211.308V310.421H207.113V338.061H200.448Z" fill="#10479B"/>
<path d="M245.397 294C245.373 294.168 245.349 294.312 245.349 294.408V295.366V297.884C245.349 298.363 245.373 298.818 245.397 299.25H254.434V303.086H248.969C250.143 303.997 251.054 304.955 251.725 305.938C252.373 306.921 252.708 308.144 252.708 309.558C252.708 310.877 252.421 312.075 251.845 313.154C251.27 314.233 250.503 315.144 249.52 315.887C248.513 316.702 247.338 317.301 246.044 317.733C244.725 318.164 243.359 318.356 241.897 318.356C240.386 318.356 238.972 318.14 237.654 317.733C236.335 317.301 235.184 316.702 234.178 315.887C233.171 315.144 232.38 314.233 231.804 313.13C231.229 312.027 230.941 310.853 230.941 309.558C230.941 308.144 231.277 306.945 231.948 305.938C232.619 304.955 233.53 303.997 234.681 303.086H229.287V299.25H238.373V294H245.397ZM265.15 326.291V338.157H258.078V325.62H234.393V321.64H260.308C261.722 321.64 262.873 322.048 263.784 322.887C264.695 323.702 265.15 324.829 265.15 326.291ZM241.921 304.308C240.77 304.308 239.787 304.788 238.972 305.771C238.157 306.753 237.725 308.024 237.725 309.606C237.725 311.188 238.157 312.435 238.996 313.37C239.835 314.305 240.818 314.76 241.921 314.76C242.999 314.76 243.958 314.281 244.773 313.346C245.588 312.411 246.02 311.164 246.02 309.606C246.02 308.959 245.924 308.336 245.756 307.736C245.588 307.137 245.349 306.562 245.037 306.01C244.677 305.531 244.222 305.147 243.719 304.788C243.215 304.428 242.616 304.308 241.921 304.308ZM265.15 302.654C265.749 302.678 266.373 302.702 267.02 302.702C267.523 302.726 268.075 302.75 268.698 302.75C269.297 302.75 269.897 302.75 270.472 302.75C270.664 302.75 270.903 302.75 271.119 302.75C271.359 302.75 271.551 302.726 271.718 302.702C271.886 302.702 272.078 302.678 272.27 302.654V306.753H265.15V318.26H258.078V294.719H265.15C265.126 294.887 265.102 295.079 265.102 295.271V296.781V300.616C265.102 301.336 265.102 302.007 265.15 302.654Z" fill="#10479B"/>
<path d="M303.242 329C304.513 329.024 305.784 329.048 307.03 329.048H314.102H316.835C317.242 329.048 317.602 329.024 317.938 329V332.979H279.198V329C279.366 329.024 279.558 329.048 279.749 329.048H281.068H284.352C284.927 329.048 285.527 329.024 286.174 329V311.524H292.886C292.862 311.931 292.838 312.363 292.838 312.842V316.079V324.517C292.838 326.003 292.862 327.49 292.886 329H296.482V311.524H303.242V329ZM306.67 299.753H282.314V295.774H308.852C310.338 295.774 311.537 296.181 312.4 297.02C313.287 297.86 313.718 299.01 313.718 300.473V312.099C313.718 315 313.479 317.517 312.999 319.651C312.52 321.784 311.896 323.558 311.081 324.972H304.753C305.208 324.205 305.568 323.366 305.831 322.503C306.095 321.64 306.287 320.657 306.431 319.579C306.503 318.5 306.551 317.301 306.575 315.983C306.599 314.664 306.623 313.202 306.623 311.596V299.753H306.67Z" fill="#10479B"/>
<path d="M92.1883 356.665H99.9553V363.952C99.5478 364.336 99.0444 364.695 98.4691 365.031C97.8697 365.367 97.2225 365.678 96.5273 365.942C95.8081 366.206 95.065 366.421 94.2739 366.565C93.4828 366.709 92.6917 366.781 91.9006 366.781C90.4143 366.781 89.0718 366.541 87.8972 366.062C86.7225 365.582 85.7396 364.911 84.9246 364.024C84.1095 363.161 83.4862 362.106 83.0547 360.908C82.6232 359.709 82.4075 358.367 82.4075 356.904C82.4075 355.466 82.6232 354.147 83.0308 352.973C83.4623 351.774 84.0616 350.767 84.8766 349.904C85.6677 349.065 86.6266 348.418 87.8013 347.939C88.952 347.483 90.2705 347.243 91.7088 347.243C92.4999 347.243 93.291 347.339 94.0821 347.531C94.8732 347.723 95.6403 348.011 96.3595 348.418C97.0547 348.826 97.7019 349.353 98.2533 350C98.8047 350.648 99.2601 351.415 99.6197 352.302L96.4314 352.829C96.0478 351.99 95.4485 351.343 94.6574 350.863C93.8663 350.384 92.8835 350.144 91.7088 350.144C90.654 350.144 89.767 350.336 89.0239 350.695C88.2807 351.055 87.6814 351.534 87.226 352.134C86.7465 352.757 86.4109 353.452 86.1951 354.243C85.9794 355.034 85.8835 355.874 85.8835 356.737C85.8835 357.624 85.9794 358.487 86.1951 359.326C86.4109 360.165 86.7465 360.932 87.226 361.603C87.6814 362.274 88.2807 362.826 89.0239 363.233C89.767 363.641 90.654 363.856 91.7328 363.856C92.2122 363.856 92.6917 363.832 93.1951 363.76C93.6985 363.689 94.178 363.593 94.6335 363.449C95.0889 363.305 95.4965 363.137 95.88 362.945C96.2636 362.754 96.5512 362.538 96.743 362.298V359.23H92.1883V356.665Z" fill="#10479B"/>
<path d="M106.716 347.268V366.254H103.623V347.268H106.716Z" fill="#10479B"/>
<path d="M126.205 347.411H131V366.445H127.764L127.716 353.428L122.729 366.445H119.637L114.627 353.212C114.627 354.267 114.627 355.346 114.627 356.449C114.627 357.551 114.627 358.678 114.651 359.805C114.651 360.955 114.651 362.082 114.651 363.185C114.651 364.312 114.651 365.39 114.651 366.445H111.39V347.411H116.137L121.171 362.274L126.205 347.411Z" fill="#10479B"/>
<path d="M151.089 366.278H147.685V357.72H139.438L139.414 366.278H135.986V347.292H139.438V354.747H147.685L147.709 347.292H151.161L151.137 366.278H151.089Z" fill="#10479B"/>
<path d="M169.02 366.23L167.222 361.723H159.024L157.298 366.23H153.75L161.133 347.268H164.897L172.544 366.23H169.02ZM162.931 350.816L159.767 359.062H166.024L162.931 350.816Z" fill="#10479B"/>
<path d="M187.455 363.329V366.278H175.756V347.292H187.335V350.216H179.065V354.939H186.688V357.863L179.065 357.887V363.353H187.455V363.329Z" fill="#10479B"/>
<path d="M208.263 366.517C206.873 366.517 205.578 366.301 204.404 365.846C203.229 365.39 202.246 364.743 201.407 363.88C200.568 363.041 199.921 362.01 199.465 360.788C199.01 359.565 198.794 358.175 198.794 356.616C198.794 355.322 199.034 354.099 199.513 352.925C199.993 351.75 200.664 350.743 201.527 349.856C202.366 348.993 203.373 348.298 204.524 347.771C205.698 347.267 206.945 347.003 208.287 347.003C209.294 347.003 210.229 347.123 211.068 347.363C211.907 347.603 212.674 347.962 213.346 348.442C214.041 348.921 214.64 349.497 215.191 350.168C215.743 350.839 216.246 351.606 216.702 352.469H213.25C213.01 352.134 212.746 351.822 212.459 351.534C212.171 351.247 211.835 350.983 211.452 350.767C211.068 350.551 210.613 350.384 210.085 350.264C209.558 350.144 208.935 350.072 208.215 350.072C207.328 350.072 206.489 350.24 205.746 350.599C205.003 350.959 204.356 351.414 203.804 352.014C203.253 352.637 202.822 353.332 202.51 354.123C202.198 354.914 202.054 355.753 202.054 356.64C202.054 357.719 202.198 358.678 202.51 359.517C202.822 360.356 203.253 361.099 203.78 361.675C204.332 362.274 204.979 362.729 205.746 363.041C206.513 363.353 207.328 363.52 208.239 363.52C209.222 363.52 210.133 363.329 210.948 362.921C211.787 362.538 212.506 361.938 213.106 361.171H216.75C215.887 362.825 214.712 364.12 213.25 365.079C211.835 366.038 210.157 366.517 208.263 366.517Z" fill="#10479B"/>
<path d="M218.955 356.784C218.955 355.442 219.171 354.195 219.578 352.997C219.986 351.798 220.609 350.767 221.4 349.88C222.191 348.993 223.15 348.298 224.253 347.795C225.379 347.267 226.626 347.028 228.04 347.028C229.431 347.028 230.701 347.291 231.804 347.795C232.907 348.322 233.866 349.017 234.657 349.88C235.424 350.767 236.023 351.822 236.431 352.997C236.838 354.195 237.054 355.442 237.054 356.784C237.054 358.103 236.838 359.373 236.431 360.572C236.023 361.771 235.424 362.802 234.657 363.688C233.866 364.575 232.907 365.295 231.804 365.822C230.701 366.349 229.431 366.613 228.04 366.613C226.578 366.613 225.308 366.373 224.181 365.87C223.054 365.367 222.119 364.671 221.352 363.784C220.561 362.897 219.962 361.867 219.554 360.692C219.147 359.469 218.955 358.175 218.955 356.784ZM222.359 356.784C222.359 357.719 222.479 358.582 222.719 359.421C222.958 360.26 223.318 360.98 223.797 361.627C224.277 362.25 224.852 362.754 225.571 363.137C226.29 363.497 227.105 363.688 228.04 363.688C228.975 363.688 229.814 363.497 230.534 363.089C231.253 362.682 231.828 362.154 232.308 361.507C232.763 360.86 233.099 360.117 233.338 359.302C233.578 358.486 233.698 357.647 233.698 356.808C233.698 355.969 233.578 355.13 233.338 354.315C233.099 353.5 232.763 352.757 232.308 352.11C231.828 351.486 231.253 350.959 230.534 350.576C229.814 350.192 228.999 349.976 228.04 349.976C227.082 349.976 226.266 350.168 225.547 350.552C224.828 350.935 224.253 351.439 223.773 352.086C223.294 352.709 222.934 353.428 222.719 354.243C222.479 355.058 222.359 355.897 222.359 356.784Z" fill="#10479B"/>
<path d="M251.006 366.278L239.619 366.254V347.292H242.976V363.281H250.982V366.278H251.006Z" fill="#10479B"/>
<path d="M265.414 366.278L254.027 366.254V347.292H257.383V363.281H265.39V366.278H265.414Z" fill="#10479B"/>
<path d="M280.9 363.329V366.278H269.201V347.292H280.78V350.216H272.509V354.939H280.132V357.863L272.509 357.887V363.353H280.9V363.329Z" fill="#10479B"/>
<path d="M294.66 356.665H302.427V363.952C302.019 364.336 301.516 364.695 300.941 365.031C300.341 365.367 299.694 365.678 298.999 365.942C298.28 366.206 297.537 366.421 296.746 366.565C295.954 366.709 295.163 366.781 294.372 366.781C292.886 366.781 291.544 366.541 290.369 366.062C289.194 365.582 288.211 364.911 287.396 364.024C286.581 363.161 285.958 362.106 285.526 360.908C285.095 359.709 284.879 358.367 284.879 356.904C284.879 355.466 285.095 354.147 285.502 352.973C285.934 351.774 286.533 350.767 287.348 349.904C288.139 349.065 289.098 348.418 290.273 347.939C291.424 347.483 292.742 347.243 294.18 347.243C294.972 347.243 295.763 347.339 296.554 347.531C297.345 347.723 298.112 348.011 298.831 348.418C299.526 348.826 300.174 349.353 300.725 350C301.276 350.648 301.732 351.415 302.091 352.302L298.903 352.829C298.519 351.99 297.92 351.343 297.129 350.863C296.338 350.384 295.355 350.144 294.18 350.144C293.126 350.144 292.239 350.336 291.496 350.695C290.752 351.055 290.153 351.534 289.698 352.134C289.218 352.757 288.883 353.452 288.667 354.243C288.451 355.034 288.355 355.874 288.355 356.737C288.355 357.624 288.451 358.487 288.667 359.326C288.883 360.165 289.218 360.932 289.698 361.603C290.153 362.274 290.752 362.826 291.496 363.233C292.239 363.641 293.126 363.856 294.204 363.856C294.684 363.856 295.163 363.832 295.667 363.76C296.17 363.689 296.65 363.593 297.105 363.449C297.561 363.305 297.968 363.137 298.352 362.945C298.735 362.754 299.023 362.538 299.215 362.298V359.23H294.66V356.665Z" fill="#10479B"/>
<path d="M318.129 363.329V366.278H306.43V347.292H318.009V350.216H309.739V354.939H317.362V357.863L309.739 357.887V363.353H318.129V363.329Z" fill="#10479B"/>
</svg>
