<svg width="138" height="137" viewBox="0 0 138 137" fill="none" xmlns="http://www.w3.org/2000/svg">
<path d="M35.4186 48.0784C35.4186 48.0784 26.282 36.1123 32.6539 19.84C39.0258 3.56763 56.7408 0.853491 69.6768 1.3721C82.6128 1.89071 110.723 6.11345 136.925 0.949394L128.877 13.0234L84.4448 27.8977L49.5194 28.1173L38.6824 35.4313L35.382 42.2637L35.4186 48.0784Z" fill="url(#paint0_linear_11504_729)"/>
<path d="M35.4168 48.0772C35.4168 48.0772 37.7244 32.4396 59.5333 34.2961C81.3422 36.1525 131.44 40.8588 136.923 0.945054C136.923 0.945054 122.471 23.6799 73.4689 17.3762C73.4689 17.3762 25.0229 11.066 35.4168 48.0772Z" fill="url(#paint1_linear_11504_729)"/>
<path d="M118.275 52.6473C132.77 52.5562 135.274 72.6223 131.049 86.4877L127.475 98.5586C124.022 109.911 116.877 119.786 107.174 126.616C97.4706 133.446 85.7647 136.841 73.9128 136.262C62.0106 135.678 50.0583 134.069 41.7274 130.481C18.4893 120.469 -3.05517 98.5355 0.890984 59.2313C3.96672 28.5909 22.4458 14.2016 30.4362 9.36444C30.6256 9.24899 30.8488 9.20201 31.0686 9.23135C31.2884 9.26069 31.4915 9.36459 31.644 9.52566C31.7964 9.68674 31.8889 9.89524 31.9061 10.1163C31.9233 10.3374 31.8641 10.5577 31.7384 10.7404C26.0785 18.9844 13.0199 41.2042 22.5449 63.2822C22.5449 63.2822 33.1253 106.113 77.488 98.0917C83.6739 96.9717 89.0328 93.0197 91.5874 87.3544C91.6585 87.1964 91.6888 87.0231 91.6756 86.8504C91.6625 86.6777 91.6063 86.511 91.5121 86.3655C91.418 86.2201 91.289 86.1006 91.1368 86.0178C90.9846 85.9351 90.8141 85.8917 90.6409 85.8918L88.7912 85.9034C84.3993 85.931 80.1763 84.2128 77.0512 81.1268C73.9261 78.0408 72.155 73.8397 72.1274 69.4478C72.1137 67.2716 72.5291 65.114 73.3498 63.0984C74.1706 61.0828 75.3805 59.2488 76.9106 57.7011C78.4406 56.1535 80.2607 54.9226 82.2667 54.0789C84.2728 53.2351 86.4255 52.7951 88.6017 52.7839L118.275 52.6473Z" fill="url(#paint2_linear_11504_729)"/>
<path d="M90.052 86.0361C90.052 86.0361 133.804 87.2452 112.515 122.309C112.515 122.309 134.317 105.835 133.397 71.2488C133.397 71.2488 133.38 53.0991 119.802 52.3565L86.7514 52.5642C86.7514 52.5642 71.8036 53.0988 71.8968 67.94C71.98 81.1722 80.0412 86.099 90.052 86.0361Z" fill="url(#paint3_linear_11504_729)"/>
<defs>
<linearGradient id="paint0_linear_11504_729" x1="142.576" y1="24.1172" x2="19.078" y2="24.8934" gradientUnits="userSpaceOnUse">
<stop stop-color="#3F8CFC"/>
<stop offset="0.47" stop-color="#0F61D6"/>
<stop offset="0.57" stop-color="#0A51C1"/>
<stop offset="0.72" stop-color="#0441AC"/>
<stop offset="0.87" stop-color="#01379F"/>
<stop offset="1" stop-color="#00349B"/>
</linearGradient>
<linearGradient id="paint1_linear_11504_729" x1="33.8709" y1="24.8398" x2="137.069" y2="24.1912" gradientUnits="userSpaceOnUse">
<stop stop-color="#3F8CFC"/>
<stop offset="0.47" stop-color="#0F61D6"/>
<stop offset="0.57" stop-color="#0A51C1"/>
<stop offset="0.72" stop-color="#0441AC"/>
<stop offset="0.87" stop-color="#01379F"/>
<stop offset="1" stop-color="#00349B"/>
</linearGradient>
<linearGradient id="paint2_linear_11504_729" x1="0.446965" y1="73.0979" x2="132.89" y2="72.2654" gradientUnits="userSpaceOnUse">
<stop stop-color="#3F8CFC"/>
<stop offset="0.47" stop-color="#0F61D6"/>
<stop offset="0.57" stop-color="#0A51C1"/>
<stop offset="0.72" stop-color="#0441AC"/>
<stop offset="0.87" stop-color="#01379F"/>
<stop offset="1" stop-color="#00349B"/>
</linearGradient>
<linearGradient id="paint3_linear_11504_729" x1="132.08" y1="100.804" x2="82.1107" y2="51.456" gradientUnits="userSpaceOnUse">
<stop stop-color="#3F8CFC"/>
<stop offset="0.47" stop-color="#0F61D6"/>
<stop offset="0.57" stop-color="#0A51C1"/>
<stop offset="0.72" stop-color="#0441AC"/>
<stop offset="0.87" stop-color="#01379F"/>
<stop offset="1" stop-color="#00349B"/>
</linearGradient>
</defs>
</svg>
