<svg width="1261" height="474" viewBox="0 0 1261 474" fill="none" xmlns="http://www.w3.org/2000/svg">
<path d="M646.2 233.776C645.883 233.776 645.609 233.517 645.609 233.186V226.146C645.609 225.814 645.869 225.555 646.2 225.555C646.531 225.555 646.79 225.814 646.79 226.146V233.186C646.79 233.517 646.531 233.776 646.2 233.776ZM646.2 219.681C645.883 219.681 645.609 219.422 645.609 219.091V212.051C645.609 211.72 645.869 211.461 646.2 211.461C646.531 211.461 646.79 211.72 646.79 212.051V219.091C646.79 219.422 646.531 219.681 646.2 219.681ZM646.2 205.587C645.883 205.587 645.609 205.328 645.609 204.997V197.957C645.609 197.626 645.869 197.366 646.2 197.366C646.531 197.366 646.79 197.626 646.79 197.957V204.997C646.79 205.328 646.531 205.587 646.2 205.587ZM646.2 191.492C645.883 191.492 645.609 191.233 645.609 190.902V183.862C645.609 183.531 645.869 183.272 646.2 183.272C646.531 183.272 646.79 183.531 646.79 183.862V190.902C646.79 191.233 646.531 191.492 646.2 191.492ZM646.2 177.398C645.883 177.398 645.609 177.139 645.609 176.808V169.768C645.609 169.437 645.869 169.177 646.2 169.177C646.531 169.177 646.79 169.437 646.79 169.768V176.808C646.79 177.139 646.531 177.398 646.2 177.398ZM646.2 163.304C645.883 163.304 645.609 163.044 645.609 162.713V155.673C645.609 155.342 645.869 155.083 646.2 155.083C646.531 155.083 646.79 155.342 646.79 155.673V162.713C646.79 163.044 646.531 163.304 646.2 163.304ZM646.2 149.209C645.883 149.209 645.609 148.95 645.609 148.619V141.579C645.609 141.248 645.869 140.989 646.2 140.989C646.531 140.989 646.79 141.248 646.79 141.579V148.619C646.79 148.95 646.531 149.209 646.2 149.209ZM646.2 135.115C645.883 135.115 645.609 134.856 645.609 134.524V127.484C645.609 127.153 645.869 126.894 646.2 126.894C646.531 126.894 646.79 127.153 646.79 127.484V134.524C646.79 134.856 646.531 135.115 646.2 135.115ZM646.2 121.02C645.883 121.02 645.609 120.761 645.609 120.43V113.39C645.609 113.059 645.869 112.8 646.2 112.8C646.531 112.8 646.79 113.059 646.79 113.39V120.43C646.79 120.761 646.531 121.02 646.2 121.02ZM646.2 106.926C645.883 106.926 645.609 106.667 645.609 106.336V99.2955C645.609 98.9644 645.869 98.7052 646.2 98.7052C646.531 98.7052 646.79 98.9644 646.79 99.2955V106.336C646.79 106.667 646.531 106.926 646.2 106.926ZM646.2 92.8313C645.883 92.8313 645.609 92.5722 645.609 92.2411V85.201C645.609 84.8699 645.869 84.6108 646.2 84.6108C646.531 84.6108 646.79 84.8699 646.79 85.201V92.2411C646.79 92.5722 646.531 92.8313 646.2 92.8313ZM646.2 78.7369C645.883 78.7369 645.609 78.4777 645.609 78.1466V71.1066C645.609 70.7755 645.869 70.5163 646.2 70.5163C646.531 70.5163 646.79 70.7755 646.79 71.1066V78.1466C646.79 78.4777 646.531 78.7369 646.2 78.7369ZM646.2 64.6424C645.883 64.6424 645.609 64.3833 645.609 64.0522V57.0121C645.609 56.681 645.869 56.4219 646.2 56.4219C646.531 56.4219 646.79 56.681 646.79 57.0121V64.0522C646.79 64.3833 646.531 64.6424 646.2 64.6424Z" fill="#828282"/>
<path d="M1172 265.823C1171.68 265.823 1171.41 265.564 1171.41 265.233V260.612C1171.41 260.281 1171.67 260.021 1172 260.021C1172.33 260.021 1172.59 260.281 1172.59 260.612V265.233C1172.59 265.564 1172.33 265.823 1172 265.823ZM89.0009 265.823C88.6842 265.823 88.4106 265.564 88.4106 265.233V258.193C88.4106 257.862 88.6698 257.603 89.0009 257.603C89.332 257.603 89.5912 257.862 89.5912 258.193V265.233C89.5912 265.564 89.332 265.823 89.0009 265.823ZM1172 254.162C1171.68 254.162 1171.41 253.903 1171.41 253.572V246.532C1171.41 246.2 1171.67 245.941 1172 245.941C1172.33 245.941 1172.59 246.2 1172.59 246.532V253.572C1172.59 253.903 1172.33 254.162 1172 254.162ZM89.0009 251.729C88.6842 251.729 88.4106 251.47 88.4106 251.139V244.099C88.4106 243.767 88.6698 243.508 89.0009 243.508C89.332 243.508 89.5912 243.767 89.5912 244.099V251.139C89.5912 251.47 89.332 251.729 89.0009 251.729ZM1172 240.067C1171.68 240.067 1171.41 239.808 1171.41 239.477V234.28H1170.75C1170.43 234.28 1170.16 234.021 1170.16 233.69C1170.16 233.359 1170.42 233.099 1170.75 233.099H1172C1172.32 233.099 1172.59 233.359 1172.59 233.69V239.477C1172.59 239.808 1172.33 240.067 1172 240.067ZM89.0009 237.634C88.6842 237.634 88.4106 237.375 88.4106 237.044V233.675C88.4106 233.344 88.6698 233.085 89.0009 233.085H92.6865C93.0032 233.085 93.2768 233.344 93.2768 233.675C93.2768 234.006 93.0176 234.266 92.6865 234.266H89.5912V237.044C89.5912 237.375 89.332 237.634 89.0009 237.634ZM1163.69 234.266H1156.65C1156.34 234.266 1156.06 234.006 1156.06 233.675C1156.06 233.344 1156.32 233.085 1156.65 233.085H1163.69C1164.01 233.085 1164.28 233.344 1164.28 233.675C1164.28 234.006 1164.02 234.266 1163.69 234.266ZM1149.6 234.266H1142.56C1142.24 234.266 1141.97 234.006 1141.97 233.675C1141.97 233.344 1142.23 233.085 1142.56 233.085H1149.6C1149.91 233.085 1150.19 233.344 1150.19 233.675C1150.19 234.006 1149.93 234.266 1149.6 234.266ZM1135.5 234.266H1128.46C1128.15 234.266 1127.87 234.006 1127.87 233.675C1127.87 233.344 1128.13 233.085 1128.46 233.085H1135.5C1135.82 233.085 1136.09 233.344 1136.09 233.675C1136.09 234.006 1135.83 234.266 1135.5 234.266ZM1121.41 234.266H1114.37C1114.05 234.266 1113.78 234.006 1113.78 233.675C1113.78 233.344 1114.04 233.085 1114.37 233.085H1121.41C1121.73 233.085 1122 233.344 1122 233.675C1122 234.006 1121.74 234.266 1121.41 234.266ZM1107.31 234.266H1100.27C1099.96 234.266 1099.68 234.006 1099.68 233.675C1099.68 233.344 1099.94 233.085 1100.27 233.085H1107.31C1107.63 233.085 1107.9 233.344 1107.9 233.675C1107.9 234.006 1107.65 234.266 1107.31 234.266ZM1093.22 234.266H1086.18C1085.86 234.266 1085.59 234.006 1085.59 233.675C1085.59 233.344 1085.85 233.085 1086.18 233.085H1093.22C1093.54 233.085 1093.81 233.344 1093.81 233.675C1093.81 234.006 1093.55 234.266 1093.22 234.266ZM1079.13 234.266H1072.09C1071.77 234.266 1071.5 234.006 1071.5 233.675C1071.5 233.344 1071.75 233.085 1072.09 233.085H1079.13C1079.44 233.085 1079.72 233.344 1079.72 233.675C1079.72 234.006 1079.46 234.266 1079.13 234.266ZM1065.03 234.266H1057.99C1057.67 234.266 1057.4 234.006 1057.4 233.675C1057.4 233.344 1057.66 233.085 1057.99 233.085H1065.03C1065.35 233.085 1065.62 233.344 1065.62 233.675C1065.62 234.006 1065.36 234.266 1065.03 234.266ZM1050.94 234.266H1043.9C1043.58 234.266 1043.31 234.006 1043.31 233.675C1043.31 233.344 1043.57 233.085 1043.9 233.085H1050.94C1051.25 233.085 1051.53 233.344 1051.53 233.675C1051.53 234.006 1051.27 234.266 1050.94 234.266ZM1036.84 234.266H1029.8C1029.49 234.266 1029.21 234.006 1029.21 233.675C1029.21 233.344 1029.47 233.085 1029.8 233.085H1036.84C1037.16 233.085 1037.43 233.344 1037.43 233.675C1037.43 234.006 1037.17 234.266 1036.84 234.266ZM1022.75 234.266H1015.71C1015.39 234.266 1015.12 234.006 1015.12 233.675C1015.12 233.344 1015.38 233.085 1015.71 233.085H1022.75C1023.06 233.085 1023.34 233.344 1023.34 233.675C1023.34 234.006 1023.08 234.266 1022.75 234.266ZM1008.65 234.266H1001.61C1001.3 234.266 1001.02 234.006 1001.02 233.675C1001.02 233.344 1001.28 233.085 1001.61 233.085H1008.65C1008.97 233.085 1009.24 233.344 1009.24 233.675C1009.24 234.006 1008.98 234.266 1008.65 234.266ZM994.559 234.266H987.519C987.202 234.266 986.928 234.006 986.928 233.675C986.928 233.344 987.188 233.085 987.519 233.085H994.559C994.875 233.085 995.149 233.344 995.149 233.675C995.149 234.006 994.89 234.266 994.559 234.266ZM980.464 234.266H973.424C973.108 234.266 972.834 234.006 972.834 233.675C972.834 233.344 973.093 233.085 973.424 233.085H980.464C980.781 233.085 981.055 233.344 981.055 233.675C981.055 234.006 980.795 234.266 980.464 234.266ZM966.37 234.266H959.33C959.013 234.266 958.74 234.006 958.74 233.675C958.74 233.344 958.999 233.085 959.33 233.085H966.37C966.687 233.085 966.96 233.344 966.96 233.675C966.96 234.006 966.701 234.266 966.37 234.266ZM952.275 234.266H945.235C944.919 234.266 944.645 234.006 944.645 233.675C944.645 233.344 944.904 233.085 945.235 233.085H952.275C952.592 233.085 952.866 233.344 952.866 233.675C952.866 234.006 952.607 234.266 952.275 234.266ZM938.181 234.266H931.141C930.824 234.266 930.551 234.006 930.551 233.675C930.551 233.344 930.81 233.085 931.141 233.085H938.181C938.498 233.085 938.771 233.344 938.771 233.675C938.771 234.006 938.512 234.266 938.181 234.266ZM924.086 234.266H917.046C916.73 234.266 916.456 234.006 916.456 233.675C916.456 233.344 916.715 233.085 917.046 233.085H924.086C924.403 233.085 924.677 233.344 924.677 233.675C924.677 234.006 924.418 234.266 924.086 234.266ZM909.992 234.266H902.952C902.635 234.266 902.362 234.006 902.362 233.675C902.362 233.344 902.621 233.085 902.952 233.085H909.992C910.309 233.085 910.582 233.344 910.582 233.675C910.582 234.006 910.323 234.266 909.992 234.266ZM895.898 234.266H888.858C888.541 234.266 888.267 234.006 888.267 233.675C888.267 233.344 888.526 233.085 888.858 233.085H895.898C896.214 233.085 896.488 233.344 896.488 233.675C896.488 234.006 896.229 234.266 895.898 234.266ZM881.803 234.266H874.763C874.446 234.266 874.173 234.006 874.173 233.675C874.173 233.344 874.432 233.085 874.763 233.085H881.803C882.12 233.085 882.393 233.344 882.393 233.675C882.393 234.006 882.134 234.266 881.803 234.266ZM867.709 234.266H860.669C860.352 234.266 860.078 234.006 860.078 233.675C860.078 233.344 860.338 233.085 860.669 233.085H867.709C868.025 233.085 868.299 233.344 868.299 233.675C868.299 234.006 868.04 234.266 867.709 234.266ZM853.614 234.266H846.574C846.258 234.266 845.984 234.006 845.984 233.675C845.984 233.344 846.243 233.085 846.574 233.085H853.614C853.931 233.085 854.205 233.344 854.205 233.675C854.205 234.006 853.945 234.266 853.614 234.266ZM839.52 234.266H832.48C832.163 234.266 831.89 234.006 831.89 233.675C831.89 233.344 832.149 233.085 832.48 233.085H839.52C839.836 233.085 840.11 233.344 840.11 233.675C840.11 234.006 839.851 234.266 839.52 234.266ZM825.425 234.266H818.385C818.069 234.266 817.795 234.006 817.795 233.675C817.795 233.344 818.054 233.085 818.385 233.085H825.425C825.742 233.085 826.016 233.344 826.016 233.675C826.016 234.006 825.756 234.266 825.425 234.266ZM811.331 234.266H804.291C803.974 234.266 803.701 234.006 803.701 233.675C803.701 233.344 803.96 233.085 804.291 233.085H811.331C811.648 233.085 811.921 233.344 811.921 233.675C811.921 234.006 811.662 234.266 811.331 234.266ZM797.236 234.266H790.196C789.88 234.266 789.606 234.006 789.606 233.675C789.606 233.344 789.865 233.085 790.196 233.085H797.236C797.553 233.085 797.827 233.344 797.827 233.675C797.827 234.006 797.568 234.266 797.236 234.266ZM783.142 234.266H776.102C775.785 234.266 775.512 234.006 775.512 233.675C775.512 233.344 775.771 233.085 776.102 233.085H783.142C783.459 233.085 783.732 233.344 783.732 233.675C783.732 234.006 783.473 234.266 783.142 234.266ZM769.047 234.266H762.007C761.691 234.266 761.417 234.006 761.417 233.675C761.417 233.344 761.676 233.085 762.007 233.085H769.047C769.364 233.085 769.638 233.344 769.638 233.675C769.638 234.006 769.379 234.266 769.047 234.266ZM754.953 234.266H747.913C747.596 234.266 747.323 234.006 747.323 233.675C747.323 233.344 747.582 233.085 747.913 233.085H754.953C755.27 233.085 755.543 233.344 755.543 233.675C755.543 234.006 755.284 234.266 754.953 234.266ZM740.859 234.266H733.819C733.502 234.266 733.228 234.006 733.228 233.675C733.228 233.344 733.487 233.085 733.819 233.085H740.859C741.175 233.085 741.449 233.344 741.449 233.675C741.449 234.006 741.19 234.266 740.859 234.266ZM726.764 234.266H719.724C719.407 234.266 719.134 234.006 719.134 233.675C719.134 233.344 719.393 233.085 719.724 233.085H726.764C727.081 233.085 727.354 233.344 727.354 233.675C727.354 234.006 727.095 234.266 726.764 234.266ZM712.67 234.266H705.63C705.313 234.266 705.039 234.006 705.039 233.675C705.039 233.344 705.299 233.085 705.63 233.085H712.67C712.986 233.085 713.26 233.344 713.26 233.675C713.26 234.006 713.001 234.266 712.67 234.266ZM698.575 234.266H691.535C691.218 234.266 690.945 234.006 690.945 233.675C690.945 233.344 691.204 233.085 691.535 233.085H698.575C698.892 233.085 699.165 233.344 699.165 233.675C699.165 234.006 698.906 234.266 698.575 234.266ZM684.481 234.266H677.441C677.124 234.266 676.85 234.006 676.85 233.675C676.85 233.344 677.11 233.085 677.441 233.085H684.481C684.797 233.085 685.071 233.344 685.071 233.675C685.071 234.006 684.812 234.266 684.481 234.266ZM670.386 234.266H663.346C663.03 234.266 662.756 234.006 662.756 233.675C662.756 233.344 663.015 233.085 663.346 233.085H670.386C670.703 233.085 670.977 233.344 670.977 233.675C670.977 234.006 670.717 234.266 670.386 234.266ZM656.292 234.266H649.252C648.935 234.266 648.662 234.006 648.662 233.675C648.662 233.344 648.921 233.085 649.252 233.085H656.292C656.609 233.085 656.882 233.344 656.882 233.675C656.882 234.006 656.623 234.266 656.292 234.266ZM642.197 234.266H635.157C634.841 234.266 634.567 234.006 634.567 233.675C634.567 233.344 634.826 233.085 635.157 233.085H642.197C642.514 233.085 642.788 233.344 642.788 233.675C642.788 234.006 642.529 234.266 642.197 234.266ZM628.103 234.266H621.063C620.746 234.266 620.473 234.006 620.473 233.675C620.473 233.344 620.732 233.085 621.063 233.085H628.103C628.42 233.085 628.693 233.344 628.693 233.675C628.693 234.006 628.434 234.266 628.103 234.266ZM614.008 234.266H606.968C606.652 234.266 606.378 234.006 606.378 233.675C606.378 233.344 606.637 233.085 606.968 233.085H614.008C614.325 233.085 614.599 233.344 614.599 233.675C614.599 234.006 614.34 234.266 614.008 234.266ZM599.914 234.266H592.874C592.557 234.266 592.284 234.006 592.284 233.675C592.284 233.344 592.543 233.085 592.874 233.085H599.914C600.231 233.085 600.504 233.344 600.504 233.675C600.504 234.006 600.245 234.266 599.914 234.266ZM585.82 234.266H578.78C578.463 234.266 578.189 234.006 578.189 233.675C578.189 233.344 578.448 233.085 578.78 233.085H585.82C586.136 233.085 586.41 233.344 586.41 233.675C586.41 234.006 586.151 234.266 585.82 234.266ZM571.725 234.266H564.685C564.368 234.266 564.095 234.006 564.095 233.675C564.095 233.344 564.354 233.085 564.685 233.085H571.725C572.042 233.085 572.315 233.344 572.315 233.675C572.315 234.006 572.056 234.266 571.725 234.266ZM557.631 234.266H550.591C550.274 234.266 550 234.006 550 233.675C550 233.344 550.26 233.085 550.591 233.085H557.631C557.947 233.085 558.221 233.344 558.221 233.675C558.221 234.006 557.962 234.266 557.631 234.266ZM543.536 234.266H536.496C536.179 234.266 535.906 234.006 535.906 233.675C535.906 233.344 536.165 233.085 536.496 233.085H543.536C543.853 233.085 544.126 233.344 544.126 233.675C544.126 234.006 543.867 234.266 543.536 234.266ZM529.442 234.266H522.402C522.085 234.266 521.811 234.006 521.811 233.675C521.811 233.344 522.071 233.085 522.402 233.085H529.442C529.758 233.085 530.032 233.344 530.032 233.675C530.032 234.006 529.773 234.266 529.442 234.266ZM515.347 234.266H508.307C507.991 234.266 507.717 234.006 507.717 233.675C507.717 233.344 507.976 233.085 508.307 233.085H515.347C515.664 233.085 515.938 233.344 515.938 233.675C515.938 234.006 515.678 234.266 515.347 234.266ZM501.253 234.266H494.213C493.896 234.266 493.623 234.006 493.623 233.675C493.623 233.344 493.882 233.085 494.213 233.085H501.253C501.57 233.085 501.843 233.344 501.843 233.675C501.843 234.006 501.584 234.266 501.253 234.266ZM487.158 234.266H480.118C479.802 234.266 479.528 234.006 479.528 233.675C479.528 233.344 479.787 233.085 480.118 233.085H487.158C487.475 233.085 487.749 233.344 487.749 233.675C487.749 234.006 487.49 234.266 487.158 234.266ZM473.064 234.266H466.024C465.707 234.266 465.434 234.006 465.434 233.675C465.434 233.344 465.693 233.085 466.024 233.085H473.064C473.381 233.085 473.654 233.344 473.654 233.675C473.654 234.006 473.395 234.266 473.064 234.266ZM458.969 234.266H451.929C451.613 234.266 451.339 234.006 451.339 233.675C451.339 233.344 451.598 233.085 451.929 233.085H458.969C459.286 233.085 459.56 233.344 459.56 233.675C459.56 234.006 459.301 234.266 458.969 234.266ZM444.875 234.266H437.835C437.518 234.266 437.245 234.006 437.245 233.675C437.245 233.344 437.504 233.085 437.835 233.085H444.875C445.192 233.085 445.465 233.344 445.465 233.675C445.465 234.006 445.206 234.266 444.875 234.266ZM430.781 234.266H423.741C423.424 234.266 423.15 234.006 423.15 233.675C423.15 233.344 423.409 233.085 423.741 233.085H430.781C431.097 233.085 431.371 233.344 431.371 233.675C431.371 234.006 431.112 234.266 430.781 234.266ZM416.686 234.266H409.646C409.329 234.266 409.056 234.006 409.056 233.675C409.056 233.344 409.315 233.085 409.646 233.085H416.686C417.003 233.085 417.276 233.344 417.276 233.675C417.276 234.006 417.017 234.266 416.686 234.266ZM402.592 234.266H395.552C395.235 234.266 394.961 234.006 394.961 233.675C394.961 233.344 395.221 233.085 395.552 233.085H402.592C402.908 233.085 403.182 233.344 403.182 233.675C403.182 234.006 402.923 234.266 402.592 234.266ZM388.497 234.266H381.457C381.14 234.266 380.867 234.006 380.867 233.675C380.867 233.344 381.126 233.085 381.457 233.085H388.497C388.814 233.085 389.088 233.344 389.088 233.675C389.088 234.006 388.828 234.266 388.497 234.266ZM374.403 234.266H367.363C367.046 234.266 366.772 234.006 366.772 233.675C366.772 233.344 367.032 233.085 367.363 233.085H374.403C374.72 233.085 374.993 233.344 374.993 233.675C374.993 234.006 374.734 234.266 374.403 234.266ZM360.308 234.266H353.268C352.952 234.266 352.678 234.006 352.678 233.675C352.678 233.344 352.937 233.085 353.268 233.085H360.308C360.625 233.085 360.899 233.344 360.899 233.675C360.899 234.006 360.639 234.266 360.308 234.266ZM346.214 234.266H339.174C338.857 234.266 338.584 234.006 338.584 233.675C338.584 233.344 338.843 233.085 339.174 233.085H346.214C346.531 233.085 346.804 233.344 346.804 233.675C346.804 234.006 346.545 234.266 346.214 234.266ZM332.119 234.266H325.079C324.763 234.266 324.489 234.006 324.489 233.675C324.489 233.344 324.748 233.085 325.079 233.085H332.119C332.436 233.085 332.71 233.344 332.71 233.675C332.71 234.006 332.451 234.266 332.119 234.266ZM318.025 234.266H310.985C310.668 234.266 310.395 234.006 310.395 233.675C310.395 233.344 310.654 233.085 310.985 233.085H318.025C318.342 233.085 318.615 233.344 318.615 233.675C318.615 234.006 318.356 234.266 318.025 234.266ZM303.931 234.266H296.89C296.574 234.266 296.3 234.006 296.3 233.675C296.3 233.344 296.559 233.085 296.89 233.085H303.931C304.247 233.085 304.521 233.344 304.521 233.675C304.521 234.006 304.262 234.266 303.931 234.266ZM289.836 234.266H282.796C282.479 234.266 282.206 234.006 282.206 233.675C282.206 233.344 282.465 233.085 282.796 233.085H289.836C290.153 233.085 290.426 233.344 290.426 233.675C290.426 234.006 290.167 234.266 289.836 234.266ZM275.742 234.266H268.702C268.385 234.266 268.111 234.006 268.111 233.675C268.111 233.344 268.37 233.085 268.702 233.085H275.742C276.058 233.085 276.332 233.344 276.332 233.675C276.332 234.006 276.073 234.266 275.742 234.266ZM261.647 234.266H254.607C254.29 234.266 254.017 234.006 254.017 233.675C254.017 233.344 254.276 233.085 254.607 233.085H261.647C261.964 233.085 262.237 233.344 262.237 233.675C262.237 234.006 261.978 234.266 261.647 234.266ZM247.553 234.266H240.513C240.196 234.266 239.922 234.006 239.922 233.675C239.922 233.344 240.182 233.085 240.513 233.085H247.553C247.869 233.085 248.143 233.344 248.143 233.675C248.143 234.006 247.884 234.266 247.553 234.266ZM233.458 234.266H226.418C226.102 234.266 225.828 234.006 225.828 233.675C225.828 233.344 226.087 233.085 226.418 233.085H233.458C233.775 233.085 234.049 233.344 234.049 233.675C234.049 234.006 233.789 234.266 233.458 234.266ZM219.364 234.266H212.324C212.007 234.266 211.734 234.006 211.734 233.675C211.734 233.344 211.993 233.085 212.324 233.085H219.364C219.681 233.085 219.954 233.344 219.954 233.675C219.954 234.006 219.695 234.266 219.364 234.266ZM205.269 234.266H198.229C197.913 234.266 197.639 234.006 197.639 233.675C197.639 233.344 197.898 233.085 198.229 233.085H205.269C205.586 233.085 205.86 233.344 205.86 233.675C205.86 234.006 205.6 234.266 205.269 234.266ZM191.175 234.266H184.135C183.818 234.266 183.545 234.006 183.545 233.675C183.545 233.344 183.804 233.085 184.135 233.085H191.175C191.492 233.085 191.765 233.344 191.765 233.675C191.765 234.006 191.506 234.266 191.175 234.266ZM177.08 234.266H170.04C169.724 234.266 169.45 234.006 169.45 233.675C169.45 233.344 169.709 233.085 170.04 233.085H177.08C177.397 233.085 177.671 233.344 177.671 233.675C177.671 234.006 177.412 234.266 177.08 234.266ZM162.986 234.266H155.946C155.629 234.266 155.356 234.006 155.356 233.675C155.356 233.344 155.615 233.085 155.946 233.085H162.986C163.303 233.085 163.576 233.344 163.576 233.675C163.576 234.006 163.317 234.266 162.986 234.266ZM148.892 234.266H141.852C141.535 234.266 141.261 234.006 141.261 233.675C141.261 233.344 141.52 233.085 141.852 233.085H148.892C149.208 233.085 149.482 233.344 149.482 233.675C149.482 234.006 149.223 234.266 148.892 234.266ZM134.797 234.266H127.757C127.44 234.266 127.167 234.006 127.167 233.675C127.167 233.344 127.426 233.085 127.757 233.085H134.797C135.114 233.085 135.387 233.344 135.387 233.675C135.387 234.006 135.128 234.266 134.797 234.266ZM120.703 234.266H113.663C113.346 234.266 113.072 234.006 113.072 233.675C113.072 233.344 113.331 233.085 113.663 233.085H120.703C121.019 233.085 121.293 233.344 121.293 233.675C121.293 234.006 121.034 234.266 120.703 234.266ZM106.608 234.266H99.5682C99.2514 234.266 98.9779 234.006 98.9779 233.675C98.9779 233.344 99.237 233.085 99.5682 233.085H106.608C106.925 233.085 107.198 233.344 107.198 233.675C107.198 234.006 106.939 234.266 106.608 234.266Z" fill="#828282"/>
<path d="M450 265.823C449.683 265.823 449.41 265.564 449.41 265.233V258.193C449.41 257.862 449.669 257.603 450 257.603C450.331 257.603 450.59 257.862 450.59 258.193V265.233C450.59 265.564 450.331 265.823 450 265.823ZM450 251.729C449.683 251.729 449.41 251.47 449.41 251.139V244.099C449.41 243.767 449.669 243.508 450 243.508C450.331 243.508 450.59 243.767 450.59 244.099V251.139C450.59 251.47 450.331 251.729 450 251.729ZM450 237.634C449.683 237.634 449.41 237.375 449.41 237.044V233.675C449.41 233.344 449.669 233.085 450 233.085C450.331 233.085 450.59 233.344 450.59 233.675V237.044C450.59 237.375 450.331 237.634 450 237.634Z" fill="#828282"/>
<path d="M834.841 265.823C834.524 265.823 834.25 265.563 834.25 265.232V261.863C834.25 261.532 834.51 261.273 834.841 261.273C835.172 261.273 835.431 261.532 835.431 261.863V265.232C835.431 265.563 835.172 265.823 834.841 265.823ZM834.841 255.414C834.524 255.414 834.25 255.155 834.25 254.823V247.783C834.25 247.452 834.51 247.193 834.841 247.193C835.172 247.193 835.431 247.452 835.431 247.783V254.823C835.431 255.155 835.172 255.414 834.841 255.414ZM834.841 241.319C834.524 241.319 834.25 241.06 834.25 240.729V233.689C834.25 233.358 834.51 233.099 834.841 233.099C835.172 233.099 835.431 233.358 835.431 233.689V240.729C835.431 241.06 835.172 241.319 834.841 241.319Z" fill="#828282"/>
<path d="M356.378 362.785C356.061 362.785 355.788 362.526 355.788 362.195V355.486C355.788 355.155 356.047 354.896 356.378 354.896C356.709 354.896 356.968 355.155 356.968 355.486V362.195C356.968 362.526 356.709 362.785 356.378 362.785ZM356.378 349.022C356.061 349.022 355.788 348.763 355.788 348.432V341.392C355.788 341.061 356.047 340.802 356.378 340.802C356.709 340.802 356.968 341.061 356.968 341.392V348.432C356.968 348.763 356.709 349.022 356.378 349.022ZM450 340.125H446.127C445.811 340.125 445.537 339.866 445.537 339.535C445.537 339.203 445.796 338.944 446.127 338.944H449.41V336.353C449.41 336.022 449.669 335.763 450 335.763C450.331 335.763 450.59 336.022 450.59 336.353V339.52C450.59 339.851 450.331 340.111 450 340.111V340.125ZM439.073 340.125H432.033C431.716 340.125 431.443 339.866 431.443 339.535C431.443 339.203 431.702 338.944 432.033 338.944H439.073C439.39 338.944 439.663 339.203 439.663 339.535C439.663 339.866 439.404 340.125 439.073 340.125ZM424.979 340.125H417.938C417.622 340.125 417.348 339.866 417.348 339.535C417.348 339.203 417.607 338.944 417.938 338.944H424.979C425.295 338.944 425.569 339.203 425.569 339.535C425.569 339.866 425.31 340.125 424.979 340.125ZM410.884 340.125H403.844C403.527 340.125 403.254 339.866 403.254 339.535C403.254 339.203 403.513 338.944 403.844 338.944H410.884C411.201 338.944 411.474 339.203 411.474 339.535C411.474 339.866 411.215 340.125 410.884 340.125ZM396.79 340.125H389.75C389.433 340.125 389.159 339.866 389.159 339.535C389.159 339.203 389.418 338.944 389.75 338.944H396.79C397.106 338.944 397.38 339.203 397.38 339.535C397.38 339.866 397.121 340.125 396.79 340.125ZM382.695 340.125H375.655C375.338 340.125 375.065 339.866 375.065 339.535C375.065 339.203 375.324 338.944 375.655 338.944H382.695C383.012 338.944 383.285 339.203 383.285 339.535C383.285 339.866 383.026 340.125 382.695 340.125ZM368.601 340.125H361.561C361.244 340.125 360.97 339.866 360.97 339.535C360.97 339.203 361.23 338.944 361.561 338.944H368.601C368.917 338.944 369.191 339.203 369.191 339.535C369.191 339.866 368.932 340.125 368.601 340.125ZM449.986 329.903C449.669 329.903 449.395 329.644 449.395 329.313V322.273C449.395 321.942 449.655 321.683 449.986 321.683C450.317 321.683 450.576 321.942 450.576 322.273V329.313C450.576 329.644 450.317 329.903 449.986 329.903Z" fill="#828282"/>
<path d="M543.622 362.786C543.306 362.786 543.032 362.527 543.032 362.195V358.654C543.032 358.323 543.291 358.064 543.622 358.064C543.954 358.064 544.213 358.323 544.213 358.654V362.195C544.213 362.527 543.954 362.786 543.622 362.786ZM543.622 352.204C543.306 352.204 543.032 351.945 543.032 351.614V344.574C543.032 344.243 543.291 343.983 543.622 343.983C543.954 343.983 544.213 344.243 544.213 344.574V351.614C544.213 351.945 543.954 352.204 543.622 352.204ZM541.593 340.14H534.552C534.236 340.14 533.962 339.88 533.962 339.549C533.962 339.218 534.221 338.959 534.552 338.959H541.593C541.909 338.959 542.183 339.218 542.183 339.549C542.183 339.88 541.924 340.14 541.593 340.14ZM527.498 340.14H520.458C520.141 340.14 519.868 339.88 519.868 339.549C519.868 339.218 520.127 338.959 520.458 338.959H527.498C527.815 338.959 528.088 339.218 528.088 339.549C528.088 339.88 527.829 340.14 527.498 340.14ZM513.404 340.14H506.364C506.047 340.14 505.773 339.88 505.773 339.549C505.773 339.218 506.032 338.959 506.364 338.959H513.404C513.72 338.959 513.994 339.218 513.994 339.549C513.994 339.88 513.735 340.14 513.404 340.14ZM499.309 340.14H492.269C491.952 340.14 491.679 339.88 491.679 339.549C491.679 339.218 491.938 338.959 492.269 338.959H499.309C499.626 338.959 499.899 339.218 499.899 339.549C499.899 339.88 499.64 340.14 499.309 340.14ZM485.215 340.14H478.175C477.858 340.14 477.584 339.88 477.584 339.549C477.584 339.218 477.844 338.959 478.175 338.959H485.215C485.531 338.959 485.805 339.218 485.805 339.549C485.805 339.88 485.546 340.14 485.215 340.14ZM471.12 340.14H464.08C463.764 340.14 463.49 339.88 463.49 339.549C463.49 339.218 463.749 338.959 464.08 338.959H471.12C471.437 338.959 471.711 339.218 471.711 339.549C471.711 339.88 471.451 340.14 471.12 340.14ZM457.026 340.14H449.986C449.669 340.14 449.396 339.88 449.396 339.549C449.396 339.218 449.655 338.959 449.986 338.959H457.026C457.343 338.959 457.616 339.218 457.616 339.549C457.616 339.88 457.357 340.14 457.026 340.14Z" fill="#828282"/>
<path d="M741.204 362.785C740.887 362.785 740.614 362.526 740.614 362.195V355.486C740.614 355.155 740.873 354.896 741.204 354.896C741.535 354.896 741.794 355.155 741.794 355.486V362.195C741.794 362.526 741.535 362.785 741.204 362.785ZM741.204 349.022C740.887 349.022 740.614 348.763 740.614 348.432V341.392C740.614 341.061 740.873 340.802 741.204 340.802C741.535 340.802 741.794 341.061 741.794 341.392V348.432C741.794 348.763 741.535 349.022 741.204 349.022ZM834.826 340.125H830.954C830.637 340.125 830.363 339.866 830.363 339.535C830.363 339.203 830.622 338.944 830.954 338.944H834.236V336.353C834.236 336.022 834.495 335.763 834.826 335.763C835.157 335.763 835.417 336.022 835.417 336.353V339.52C835.417 339.851 835.157 340.111 834.826 340.111V340.125ZM823.899 340.125H816.859C816.542 340.125 816.269 339.866 816.269 339.535C816.269 339.203 816.528 338.944 816.859 338.944H823.899C824.216 338.944 824.489 339.203 824.489 339.535C824.489 339.866 824.23 340.125 823.899 340.125ZM809.805 340.125H802.765C802.448 340.125 802.174 339.866 802.174 339.535C802.174 339.203 802.434 338.944 802.765 338.944H809.805C810.121 338.944 810.395 339.203 810.395 339.535C810.395 339.866 810.136 340.125 809.805 340.125ZM795.71 340.125H788.67C788.354 340.125 788.08 339.866 788.08 339.535C788.08 339.203 788.339 338.944 788.67 338.944H795.71C796.027 338.944 796.301 339.203 796.301 339.535C796.301 339.866 796.041 340.125 795.71 340.125ZM781.616 340.125H774.576C774.259 340.125 773.986 339.866 773.986 339.535C773.986 339.203 774.245 338.944 774.576 338.944H781.616C781.933 338.944 782.206 339.203 782.206 339.535C782.206 339.866 781.947 340.125 781.616 340.125ZM767.521 340.125H760.481C760.165 340.125 759.891 339.866 759.891 339.535C759.891 339.203 760.15 338.944 760.481 338.944H767.521C767.838 338.944 768.112 339.203 768.112 339.535C768.112 339.866 767.852 340.125 767.521 340.125ZM753.427 340.125H746.387C746.07 340.125 745.797 339.866 745.797 339.535C745.797 339.203 746.056 338.944 746.387 338.944H753.427C753.744 338.944 754.017 339.203 754.017 339.535C754.017 339.866 753.758 340.125 753.427 340.125ZM834.812 329.903C834.495 329.903 834.222 329.644 834.222 329.313V322.273C834.222 321.942 834.481 321.683 834.812 321.683C835.143 321.683 835.402 321.942 835.402 322.273V329.313C835.402 329.644 835.143 329.903 834.812 329.903Z" fill="#5D5E5E"/>
<path d="M1172 358.092C1171.68 358.092 1171.41 357.833 1171.41 357.502V350.462C1171.41 350.131 1171.67 349.872 1172 349.872C1172.33 349.872 1172.59 350.131 1172.59 350.462V357.502C1172.59 357.833 1172.33 358.092 1172 358.092ZM1172 343.998C1171.68 343.998 1171.41 343.738 1171.41 343.407V336.367C1171.41 336.036 1171.67 335.777 1172 335.777C1172.33 335.777 1172.59 336.036 1172.59 336.367V343.407C1172.59 343.738 1172.33 343.998 1172 343.998ZM1172 329.903C1171.68 329.903 1171.41 329.644 1171.41 329.313V322.273C1171.41 321.942 1171.67 321.683 1172 321.683C1172.33 321.683 1172.59 321.942 1172.59 322.273V329.313C1172.59 329.644 1172.33 329.903 1172 329.903Z" fill="#828282"/>
<path d="M928.463 362.786C928.146 362.786 927.873 362.527 927.873 362.195V358.654C927.873 358.323 928.132 358.064 928.463 358.064C928.794 358.064 929.053 358.323 929.053 358.654V362.195C929.053 362.527 928.794 362.786 928.463 362.786ZM928.463 352.204C928.146 352.204 927.873 351.945 927.873 351.614V344.574C927.873 344.243 928.132 343.983 928.463 343.983C928.794 343.983 929.053 344.243 929.053 344.574V351.614C929.053 351.945 928.794 352.204 928.463 352.204ZM926.433 340.14H919.393C919.076 340.14 918.803 339.88 918.803 339.549C918.803 339.218 919.062 338.959 919.393 338.959H926.433C926.75 338.959 927.023 339.218 927.023 339.549C927.023 339.88 926.764 340.14 926.433 340.14ZM912.339 340.14H905.299C904.982 340.14 904.708 339.88 904.708 339.549C904.708 339.218 904.967 338.959 905.299 338.959H912.339C912.655 338.959 912.929 339.218 912.929 339.549C912.929 339.88 912.67 340.14 912.339 340.14ZM898.244 340.14H891.204C890.887 340.14 890.614 339.88 890.614 339.549C890.614 339.218 890.873 338.959 891.204 338.959H898.244C898.561 338.959 898.834 339.218 898.834 339.549C898.834 339.88 898.575 340.14 898.244 340.14ZM884.15 340.14H877.11C876.793 340.14 876.519 339.88 876.519 339.549C876.519 339.218 876.779 338.959 877.11 338.959H884.15C884.466 338.959 884.74 339.218 884.74 339.549C884.74 339.88 884.481 340.14 884.15 340.14ZM870.055 340.14H863.015C862.699 340.14 862.425 339.88 862.425 339.549C862.425 339.218 862.684 338.959 863.015 338.959H870.055C870.372 338.959 870.646 339.218 870.646 339.549C870.646 339.88 870.386 340.14 870.055 340.14ZM855.961 340.14H848.921C848.604 340.14 848.331 339.88 848.331 339.549C848.331 339.218 848.59 338.959 848.921 338.959H855.961C856.278 338.959 856.551 339.218 856.551 339.549C856.551 339.88 856.292 340.14 855.961 340.14ZM841.866 340.14H834.826C834.51 340.14 834.236 339.88 834.236 339.549C834.236 339.218 834.495 338.959 834.826 338.959H841.866C842.183 338.959 842.457 339.218 842.457 339.549C842.457 339.88 842.197 340.14 841.866 340.14Z" fill="#828282"/>
<path d="M706.076 0H586.294C570.543 0 557.774 12.7689 557.774 28.52C557.774 44.2712 570.543 57.0401 586.294 57.0401H706.076C721.827 57.0401 734.596 44.2712 734.596 28.52C734.596 12.7689 721.827 0 706.076 0Z" fill="#315EAB"/>
<path d="M618.759 23.2659H614.613V30.6371C616.427 30.6227 617.91 30.5219 619.58 30.2196L619.724 31.8896C617.723 32.2927 615.981 32.3503 613.663 32.3647H612.54V21.6103H618.745V23.2659H618.759ZM626.318 36.2374H624.374V27.7721H622.503V35.388H620.631V19.9547H622.503V26.1453H624.374V19.6523H626.318V36.2374Z" fill="white"/>
<path d="M643.435 34.3227H628.275V32.667H632.206V29.255H629.586V27.5994H631.918V22.6757H629.528V21.0488H642.111V22.6757H639.692V27.5994H642.053V29.255H639.433V32.667H643.435V34.3227ZM637.676 27.6138V22.6901H633.948V27.6138H637.676ZM637.403 32.6814V29.2694H634.25V32.6814H637.403Z" fill="white"/>
<path d="M658.163 26.7068C658.149 30.3204 656.335 32.5807 653.83 32.5807C651.325 32.5807 649.497 30.3204 649.497 26.7068C649.497 23.0932 651.311 20.8473 653.83 20.8473C656.349 20.8473 658.149 23.122 658.163 26.7068ZM651.469 26.7068C651.469 29.255 652.419 30.7379 653.83 30.7379C655.241 30.7379 656.177 29.255 656.177 26.7068C656.177 24.1585 655.226 22.6901 653.83 22.6901C652.433 22.6901 651.469 24.1729 651.469 26.7068ZM662.77 36.2518H660.712V19.6523H662.77V36.2518Z" fill="white"/>
<path d="M675.18 30.8242L673.928 32.4511C672.128 31.5441 670.833 29.7877 670.127 27.6857C669.407 29.946 668.04 31.8176 666.139 32.7678L664.887 31.141C667.55 29.8741 669.076 26.7068 669.091 23.6403V20.9912H671.121V23.6403C671.106 26.5916 672.589 29.6005 675.152 30.8386L675.18 30.8242ZM678.204 26.1453H680.752V27.8873H678.204V36.2374H676.174V19.6523H678.204V26.1453Z" fill="white"/>
<path d="M706.09 80.4355H586.309C570.558 80.4355 557.789 93.2044 557.789 108.956C557.789 124.707 570.558 137.476 586.309 137.476H706.09C721.842 137.476 734.61 124.707 734.61 108.956C734.61 93.2044 721.842 80.4355 706.09 80.4355Z" fill="#8EADDB"/>
<path d="M626.375 102.489H633.53V100.689H635.546V107.427H630.953V108.953H637.504V110.609H622.387V108.953H628.895V107.427H624.345V100.689H626.361V102.489H626.375ZM635.805 116.324H624.259V111.66H626.289V114.669H635.791V116.324H635.805ZM633.53 105.786V104.058H626.375V105.786H633.53Z" fill="white"/>
<path d="M653.758 111.344H647.15V116.671H645.134V111.344H638.598V109.732H653.758V111.344ZM642.456 102.778H649.871V100.748H651.93V108.018H640.441V100.748H642.456V102.778ZM649.871 106.363V104.405H642.456V106.363H649.871Z" fill="white"/>
<path d="M664.714 107.802L663.735 109.4C661.878 108.825 660.553 107.644 659.833 106.132C659.099 107.874 657.703 109.256 655.701 109.933L654.679 108.321C657.357 107.442 658.754 105.297 658.754 103.095V102.893H655.255V101.237H664.267V102.893H660.812V103.08C660.812 105.11 662.137 107.025 664.714 107.817V107.802ZM668.111 113.475C668.097 115.476 665.981 116.642 662.554 116.642C659.128 116.642 656.94 115.461 656.94 113.475C656.94 111.488 659.085 110.336 662.554 110.336C666.024 110.336 668.097 111.488 668.111 113.475ZM658.969 113.475C658.969 114.497 660.265 115.058 662.554 115.058C664.843 115.058 666.096 114.511 666.096 113.475C666.096 112.438 664.829 111.934 662.554 111.934C660.28 111.934 658.969 112.467 658.969 113.475ZM667.939 104.059H670.257V105.729H667.939V109.962H665.909V100.071H667.939V104.059Z" fill="white"/>
<path d="M706.076 160.87H586.294C570.543 160.87 557.774 173.639 557.774 189.39C557.774 205.141 570.543 217.91 586.294 217.91H706.076C721.827 217.91 734.596 205.141 734.596 189.39C734.596 173.639 721.827 160.87 706.076 160.87Z" fill="#C4D5EE"/>
<path d="M635.589 191.866C637.274 191.808 639.016 191.679 640.599 191.477L640.715 193.003C637.288 193.55 633.487 193.622 630.565 193.608L630.363 191.981C631.342 191.981 632.436 191.967 633.574 191.923V186.971H635.589V191.866ZM639.779 183.401C639.779 184.883 639.779 186.957 639.318 189.822L637.303 189.663C637.691 187.144 637.749 185.301 637.763 183.861H631.256V182.234H639.793V183.415L639.779 183.401ZM643.522 187.259H645.926V188.987H643.522V197.092H641.463V180.507H643.522V187.259Z" fill="white"/>
<path d="M656.594 188.238L655.615 189.836C653.758 189.26 652.433 188.08 651.714 186.568C650.979 188.31 649.583 189.692 647.582 190.369L646.56 188.756C649.237 187.878 650.634 185.733 650.634 183.53V183.329H647.135V181.673H656.148V183.329H652.693V183.516C652.693 185.546 654.017 187.46 656.594 188.252V188.238ZM659.992 193.91C659.977 195.911 657.861 197.078 654.435 197.078C651.008 197.078 648.82 195.897 648.82 193.91C648.82 191.923 650.965 190.772 654.435 190.772C657.904 190.772 659.977 191.923 659.992 193.91ZM650.85 193.91C650.85 194.932 652.146 195.494 654.435 195.494C656.724 195.494 657.976 194.947 657.976 193.91C657.976 192.874 656.709 192.37 654.435 192.37C652.16 192.37 650.85 192.902 650.85 193.91ZM659.819 184.495H662.137V186.165H659.819V190.397H657.789V180.507H659.819V184.495Z" fill="white"/>
<path d="M148.892 322.862H29.1103C13.0579 322.862 0 309.804 0 293.752C0 277.699 13.0579 264.642 29.1103 264.642H148.906C164.958 264.642 178.016 277.699 178.016 293.752C178.016 309.804 164.958 322.862 148.906 322.862H148.892ZM29.0959 265.822C13.6913 265.822 1.16614 278.347 1.16614 293.752C1.16614 309.156 13.6913 321.682 29.0959 321.682H148.892C164.296 321.682 176.821 309.156 176.821 293.752C176.821 278.347 164.296 265.822 148.892 265.822H29.1103H29.0959Z" fill="#315EAB"/>
<path d="M81.3708 294.545H75.6697V297.338H74.1292V294.545H68.1978V293.307H81.3564V294.545H81.3708ZM79.8735 289.362C79.8735 291.162 77.8724 292.27 74.7627 292.27C71.653 292.27 69.6374 291.162 69.6374 289.362C69.6374 287.562 71.6818 286.439 74.7627 286.439C77.8436 286.439 79.8735 287.562 79.8735 289.362ZM79.9023 300.188H69.8534V295.97H71.3794V298.936H79.9023V300.188ZM71.2787 289.362C71.2643 290.399 72.6608 291.032 74.7627 291.032C76.8646 291.032 78.2611 290.413 78.2611 289.362C78.2611 288.311 76.879 287.663 74.7627 287.663C72.6464 287.663 71.2643 288.311 71.2787 289.362Z" fill="#2F3030"/>
<path d="M89.3034 288.124H92.9026V286.094H94.4287V294.588H92.9026V292.644H89.289C88.6268 293.379 87.6046 293.825 86.4097 293.81C84.2357 293.825 82.6377 292.385 82.6377 290.37C82.6377 288.354 84.2501 286.9 86.4097 286.914C87.6046 286.914 88.6268 287.361 89.3034 288.109V288.124ZM84.1062 290.384C84.1062 291.637 85.0707 292.529 86.424 292.515C87.7342 292.529 88.6987 291.637 88.6987 290.384C88.6987 289.131 87.7342 288.239 86.424 288.253C85.0707 288.239 84.1062 289.103 84.1062 290.384ZM94.4719 297.683C94.4719 299.44 92.6003 300.462 89.6057 300.447C86.5968 300.462 84.7252 299.44 84.7396 297.683C84.7252 295.912 86.5968 294.905 89.6057 294.905C92.6147 294.905 94.4719 295.912 94.4719 297.683ZM86.2369 297.683C86.2225 298.677 87.5038 299.238 89.6057 299.238C91.7077 299.238 92.9746 298.677 92.9746 297.683C92.9746 296.69 91.7221 296.071 89.6057 296.071C87.4894 296.071 86.2225 296.647 86.2369 297.683ZM90.1528 290.384C90.1528 290.744 90.0952 291.075 90.0088 291.392H92.9026V289.333H89.9944C90.0952 289.65 90.1528 290.01 90.1528 290.37V290.384Z" fill="#2F3030"/>
<path d="M104.377 288.196H98.9926V289.765H103.974V290.96H98.9926V292.63C101.872 292.63 103.556 292.587 105.5 292.241L105.658 293.465C103.571 293.825 101.786 293.868 98.6471 293.854H97.4521V286.943H104.377V288.196ZM108.566 300.304H99.1078V295.337H108.566V300.304ZM100.619 299.066H107.069V296.532H100.619V299.066ZM108.566 294.66H107.04V286.108H108.566V294.66Z" fill="#2F3030"/>
<path d="M509.891 322.862H390.096C374.043 322.862 360.985 309.804 360.985 293.752C360.985 277.699 374.043 264.642 390.096 264.642H509.891C525.944 264.642 539.002 277.699 539.002 293.752C539.002 309.804 525.944 322.862 509.891 322.862ZM390.096 265.822C374.691 265.822 362.166 278.347 362.166 293.752C362.166 309.156 374.691 321.682 390.096 321.682H509.891C525.296 321.682 537.821 309.156 537.821 293.752C537.821 278.347 525.296 265.822 509.891 265.822H390.096Z" fill="#315EAB"/>
<path d="M397.726 297.869L396.919 296.63C400.749 294.802 402.606 292.211 402.908 288.856H397.61V287.633H404.449C404.449 291.836 402.649 295.493 397.726 297.854V297.869ZM408.739 300.489H407.199V286.106H408.739V300.489Z" fill="#2F3030"/>
<path d="M418.644 289.446H421.451V286.092H422.977V293.808H421.451V290.699H418.658C418.342 292.354 416.873 293.463 414.959 293.463C412.756 293.463 411.187 292.081 411.187 290.094C411.187 288.107 412.756 286.74 414.959 286.754C416.859 286.74 418.313 287.834 418.63 289.446H418.644ZM412.655 290.094C412.655 291.332 413.605 292.182 414.973 292.182C416.341 292.182 417.248 291.332 417.248 290.094C417.248 288.856 416.297 288.021 414.973 288.021C413.648 288.021 412.655 288.856 412.655 290.094ZM415.117 296.184H421.466V294.514H422.992V300.316H413.62V294.514H415.131V296.184H415.117ZM421.466 299.063V297.393H415.117V299.063H421.466Z" fill="#2F3030"/>
<path d="M442.37 295.767H436.496V300.489H434.999V295.767H429.197V294.558H442.355V295.767H442.37ZM432.35 288.554H439.188V286.683H440.714V292.931H430.838V286.683H432.35V288.554ZM439.188 291.707V289.778H432.35V291.707H439.188Z" fill="#2F3030"/>
<path d="M451.973 292.038L451.167 293.233C449.583 292.686 448.388 291.606 447.769 290.224C447.135 291.765 445.897 292.974 444.199 293.564L443.378 292.341C445.624 291.621 446.963 289.836 446.977 287.82V286.568H448.489V287.82C448.489 289.649 449.799 291.347 451.973 292.038ZM455.428 297.754H447.539V299.093H455.918V300.317H446.041V296.602H453.902V295.378H445.998V294.169H455.414V297.754H455.428ZM455.428 293.492H453.902V289.792H450.864V288.554H453.902V286.078H455.428V293.478V293.492Z" fill="#2F3030"/>
<path d="M473.64 296.702H472.114V292.959H468.543C467.867 293.765 466.816 294.255 465.621 294.255C463.447 294.255 461.849 292.743 461.849 290.627C461.849 288.51 463.461 286.984 465.621 286.97C466.816 286.97 467.838 287.474 468.529 288.266H472.114V286.092H473.64V296.688V296.702ZM463.317 290.627C463.317 291.994 464.282 292.901 465.635 292.901C466.988 292.901 467.91 291.98 467.91 290.627C467.91 289.273 466.931 288.338 465.635 288.338C464.339 288.338 463.317 289.273 463.317 290.627ZM474.028 300.157H464.296V295.579H465.822V298.919H474.028V300.157ZM469.378 290.627C469.378 291.015 469.321 291.375 469.22 291.721H472.128V289.504H469.22C469.321 289.849 469.378 290.224 469.378 290.627Z" fill="#2F3030"/>
<path d="M487.302 288.266C487.302 289.634 487.302 291.102 486.899 293.161H488.972V294.413H483.142V300.503H481.601V294.413H475.857V293.161H485.359C485.791 291.117 485.791 289.605 485.791 288.266L477.455 288.252V286.999H487.302V288.266Z" fill="#2F3030"/>
<path d="M503.225 298.646H490.066V297.394H495.825V293.967H497.337V297.394H503.225V298.646ZM502.649 292.974L501.987 294.226C499.655 293.765 497.51 292.326 496.559 290.339C495.609 292.311 493.493 293.78 491.175 294.226L490.498 292.974C493.263 292.513 495.753 290.368 495.753 288.093V286.999H497.366V288.093C497.366 290.368 499.871 292.513 502.649 292.974Z" fill="#2F3030"/>
<path d="M894.732 322.863H774.936C758.884 322.863 745.826 309.805 745.826 293.753C745.826 277.7 758.884 264.643 774.936 264.643H894.732C910.784 264.643 923.842 277.7 923.842 293.753C923.842 309.805 910.784 322.863 894.732 322.863ZM774.936 265.823C759.531 265.823 747.006 278.348 747.006 293.753C747.006 309.157 759.531 321.683 774.936 321.683H894.732C910.136 321.683 922.661 309.157 922.661 293.753C922.661 278.348 910.136 265.823 894.732 265.823H774.936Z" fill="#315EAB"/>
<path d="M803.093 302.233H790.006V301.009H795.189V298.979H796.729V301.009H803.093V302.233ZM801.523 295.366C801.523 296.733 801.523 298.173 801.12 300.131L799.608 300.001C799.767 299.224 799.868 298.533 799.925 297.885L791.374 298.288L791.172 297.007L799.997 296.762C800.012 296.273 800.012 295.812 800.012 295.366V295.337H791.532V294.099H801.523V295.366ZM801.826 307.617H791.633V303.341H793.159V306.379H801.826V307.617Z" fill="#2F3030"/>
<path d="M810.32 295.855H806.303V297.655H809.758V298.85H806.303V300.721C808.203 300.721 809.456 300.664 810.924 300.361L811.068 301.585C809.413 301.902 808.045 301.974 805.77 301.974H804.834V294.617H810.305V295.855H810.32ZM816.885 307.545H806.994V303.054H808.534V306.307H816.885V307.545ZM813.645 303.889H812.206V298.735H810.42V297.496H812.206V293.753H813.645V303.889ZM816.467 304.249H815.027V293.494H816.467V304.249Z" fill="#2F3030"/>
<path d="M831.584 306.047H818.425V304.794H831.584V306.047ZM830.36 296.905H825.753C825.811 299.064 827.927 300.85 830.879 301.325L830.274 302.548C827.884 302.131 825.912 300.907 824.99 299.151C824.054 300.907 822.082 302.131 819.707 302.548L819.116 301.325C822.024 300.85 824.141 299.064 824.227 296.905H819.62V295.667H824.242V293.752H825.753V295.667H830.375V296.905H830.36Z" fill="#2F3030"/>
<path d="M845.246 303.312L844.296 304.536C842.727 303.729 841.518 302.117 840.899 300.188C840.251 302.247 838.984 303.96 837.357 304.809L836.407 303.571C838.624 302.506 840.121 299.756 840.121 297.121V294.66H841.647V297.121C841.633 299.67 843.101 302.275 845.261 303.312H845.246ZM847.852 299.18H850.17V300.476H847.852V307.833H846.326V293.45H847.852V299.18Z" fill="#2F3030"/>
<path d="M858.506 296.805H861.313V293.45H862.839V301.167H861.313V298.057H858.52C858.203 299.713 856.735 300.821 854.82 300.821C852.617 300.821 851.048 299.439 851.048 297.452C851.048 295.466 852.617 294.098 854.82 294.112C856.72 294.098 858.174 295.192 858.491 296.805H858.506ZM852.517 297.452C852.517 298.691 853.467 299.54 854.834 299.54C856.202 299.54 857.109 298.691 857.109 297.452C857.109 296.214 856.159 295.379 854.834 295.379C853.51 295.379 852.517 296.214 852.517 297.452ZM854.978 303.542H861.327V301.872H862.853V307.674H853.481V301.872H854.993V303.542H854.978ZM861.327 306.422V304.752H854.978V306.422H861.327Z" fill="#2F3030"/>
<path d="M878.2 303.125H872.327V307.848H870.829V303.125H865.027V301.916H878.186V303.125H878.2ZM868.18 295.913H875.019V294.041H876.545V300.289H866.669V294.041H868.18V295.913ZM875.019 299.066V297.136H868.18V299.066H875.019Z" fill="#2F3030"/>
<path d="M336.424 393.796L335.546 392.73C338.742 390.931 340.095 388.469 340.326 385.532H336.151V384.28H341.808C341.794 388.066 340.542 391.464 336.424 393.781V393.796ZM347.898 396.848H346.444V389.376H344.659V396.157H343.234V382.84H344.659V388.138H346.444V382.451H347.898V396.834V396.848Z" fill="#2F3030"/>
<path d="M351.858 385.027H355.63V383.069H357.141V389.347H350.36V383.069H351.858V385.027ZM361.1 394.112H353.326V395.48H361.59V396.703H351.829V392.989H359.589V391.693H351.8V390.484H361.1V394.112ZM355.63 388.123V386.194H351.858V388.123H355.63ZM361.1 385.474H363.188V386.712H361.1V389.865H359.574V382.465H361.1V385.488V385.474Z" fill="#2F3030"/>
<path d="M371.754 384.567H366.37V386.136H371.351V387.331H366.37V389.001C369.249 389.001 370.933 388.958 372.877 388.612L373.035 389.836C370.948 390.196 369.163 390.239 366.024 390.225H364.829V383.314H371.754V384.567ZM375.943 396.675H366.485V391.708H375.943V396.675ZM367.996 395.437H374.446V392.903H367.996V395.437ZM375.943 391.031H374.417V382.479H375.943V391.031Z" fill="#2F3030"/>
<path d="M523.539 385.056H518.198V392.039C520.934 392.039 522.676 391.952 524.706 391.592L524.864 392.859C522.719 393.248 520.833 393.334 517.853 393.334H516.658V383.775H523.539V385.042V385.056ZM527.642 396.876H526.116V382.465H527.642V396.876Z" fill="#2F3030"/>
<path d="M538.627 392.543L537.763 393.738C536.151 392.96 534.869 391.333 534.236 389.447C533.574 391.506 532.22 393.291 530.579 394.097L529.687 392.888C531.875 391.852 533.458 389.131 533.458 386.698V385.171H530.219V383.905H538.109V385.171H534.985V386.698C534.985 388.972 536.482 391.52 538.656 392.543H538.627ZM541.146 388.166H543.464V389.447H541.146V396.847H539.62V382.465H541.146V388.166Z" fill="#2F3030"/>
<path d="M552.102 387C552.102 389.116 550.447 390.585 548.287 390.585C546.128 390.585 544.443 389.131 544.443 387C544.443 384.869 546.113 383.429 548.287 383.429C550.461 383.429 552.102 384.912 552.102 387ZM545.941 387C545.941 388.353 546.934 389.246 548.287 389.246C549.641 389.246 550.62 388.353 550.62 387C550.62 385.647 549.612 384.768 548.287 384.768C546.963 384.768 545.941 385.69 545.941 387ZM556.522 396.53H546.675V391.852H548.215V395.292H556.522V396.53ZM556.09 392.917H554.564V382.465H556.09V392.917Z" fill="#2F3030"/>
<path d="M566.096 384.567H560.712V386.136H565.693V387.331H560.712V389.001C563.591 389.001 565.276 388.958 567.219 388.612L567.378 389.836C565.29 390.196 563.505 390.239 560.366 390.225H559.171V383.314H566.096V384.567ZM570.286 396.675H560.827V391.708H570.286V396.675ZM562.339 395.437H568.788V392.903H562.339V395.437ZM570.286 391.031H568.76V382.479H570.286V391.031Z" fill="#2F3030"/>
<path d="M885.359 385.057H877.268V383.833H880.637V382.321H882.149V383.833H885.359V385.057ZM884.697 388.267C884.683 389.836 883.315 390.873 881.371 390.873C879.428 390.873 878.06 389.851 878.06 388.267C878.06 386.684 879.413 385.661 881.371 385.661C883.329 385.661 884.683 386.698 884.697 388.267ZM879.5 388.267C879.5 389.145 880.234 389.721 881.371 389.721C882.509 389.721 883.272 389.145 883.286 388.267C883.272 387.389 882.494 386.842 881.371 386.842C880.248 386.842 879.5 387.389 879.5 388.267ZM881.285 392.917H887.735V391.55H889.246V396.66H879.773V391.55H881.285V392.917ZM887.735 395.451V394.083H881.285V395.451H887.735ZM889.246 390.974H887.72V389.764H885.388V388.526H887.72V386.957H885.403V385.705H887.72V382.451H889.246V390.974Z" fill="#2F3030"/>
<path d="M898.317 387.518H893.566V389.505C896.071 389.505 897.438 389.462 899.051 389.145L899.195 390.383C897.438 390.685 895.97 390.743 893.091 390.743H892.054V386.366H896.79V384.552H892.04V383.329H898.317V387.518ZM903.456 396.862H901.93V393.277H893.695V392.039H903.456V396.862ZM903.456 391.319H901.93V388.785H899.238V387.561H901.93V385.776H899.238V384.552H901.93V382.465H903.456V391.304V391.319Z" fill="#2F3030"/>
<path d="M922.805 394.919H909.69V393.667H922.805V394.919ZM921.265 385.604C921.265 387.706 921.265 389.679 920.646 392.673L919.134 392.529C919.437 391.219 919.595 390.053 919.681 388.988L911.043 389.448L910.856 388.196L919.768 387.865C919.796 387.087 919.797 386.353 919.797 385.619V385.115H911.259V383.862H921.279V385.619L921.265 385.604Z" fill="#2F3030"/>
<path d="M931.443 389.015H926.275V392.168C928.607 392.168 930.637 392.053 933.056 391.65L933.2 392.903C930.651 393.334 928.478 393.435 925.944 393.435H924.72V387.806H929.888V385.013H924.706V383.775H931.443V389.03V389.015ZM935.849 396.876H934.323V382.465H935.849V396.876Z" fill="#2F3030"/>
<path d="M947.554 396.142H946.099V389.203H944.473C944.343 392.01 943.134 393.766 941.363 393.752C939.491 393.766 938.268 391.794 938.268 388.684C938.268 385.575 939.491 383.617 941.363 383.631C943.119 383.617 944.3 385.272 944.473 387.979H946.099V382.738H947.554V396.142ZM939.664 388.67C939.664 390.959 940.312 392.298 941.349 392.298C942.385 392.298 943.062 390.959 943.062 388.67C943.062 386.381 942.399 385.042 941.349 385.042C940.298 385.042 939.664 386.381 939.664 388.67ZM950.476 396.847H949.022V382.465H950.476V396.847Z" fill="#2F3030"/>
<path d="M960.237 388.585C960.237 391.68 958.668 393.638 956.523 393.638C954.377 393.638 952.794 391.68 952.794 388.585C952.794 385.489 954.349 383.546 956.523 383.546C958.696 383.546 960.237 385.504 960.237 388.585ZM954.277 388.585C954.277 390.859 955.198 392.285 956.523 392.285C957.847 392.285 958.754 390.874 958.754 388.585C958.754 386.296 957.833 384.913 956.523 384.913C955.212 384.913 954.277 386.324 954.277 388.585ZM964.21 396.892H962.684V382.48H964.21V396.892Z" fill="#2F3030"/>
<path d="M973.9 384.984H968.717V387.777H973.295V389.001H968.717V392.211C971.121 392.211 972.791 392.154 974.706 391.808L974.864 393.046C972.777 393.378 970.963 393.464 968.299 393.478H967.176V383.746H973.9V384.984ZM978.507 396.876H976.995V389.03H974.13V387.777H976.995V382.465H978.507V396.876Z" fill="#2F3030"/>
<path d="M721.97 389.492L721.178 390.715C719.522 390.096 718.284 388.873 717.651 387.318C717.017 388.988 715.779 390.327 714.08 390.975L713.26 389.765C715.52 388.93 716.859 386.857 716.859 384.698V383.272H718.414V384.698C718.399 386.799 719.753 388.729 721.955 389.492H721.97ZM725.555 396.546H715.707V392.026H717.248V395.322H725.555V396.561V396.546ZM725.123 393.019H723.597V382.48H725.123V393.019Z" fill="#2F3030"/>
<path d="M740.556 394.949H727.397V393.682H740.556V394.949ZM739.966 389.55L739.26 390.817C736.971 390.313 734.841 388.816 733.919 386.786C732.969 388.787 730.867 390.298 728.564 390.817L727.887 389.55C730.622 389.031 733.099 386.843 733.099 384.497V383.402H734.711V384.497C734.711 386.843 737.216 389.06 739.98 389.55H739.966Z" fill="#2F3030"/>
<path d="M749.353 384.353H743.968V385.691H748.949V386.858H743.968V388.268C746.833 388.268 748.518 388.225 750.504 387.894L750.634 389.103C748.518 389.463 746.718 389.492 743.623 389.492H742.428V383.129H749.353V384.353ZM753.542 394.128H745.609V395.51H754.017V396.705H744.127V393.063H752.03V391.824H744.083V390.63H753.542V394.128ZM753.542 389.996H752.016V382.452H753.542V389.996Z" fill="#2F3030"/>
<path d="M762.799 388.902H757.875V392.184C760.165 392.184 761.935 392.098 763.951 391.738L764.08 392.991C761.935 393.379 760.035 393.451 757.501 393.466H756.364V387.664H761.345V385H756.335V383.762H762.828V388.902H762.799ZM767.795 396.878H766.283V389.132H763.649V387.865H766.283V382.452H767.795V396.863V396.878Z" fill="#2F3030"/>
<path d="M1231.89 322.862H1112.09C1096.04 322.862 1082.98 309.804 1082.98 293.752C1082.98 277.699 1096.04 264.642 1112.09 264.642H1231.89C1247.94 264.642 1261 277.699 1261 293.752C1261 309.804 1247.94 322.862 1231.89 322.862ZM1112.09 265.822C1096.69 265.822 1084.16 278.347 1084.16 293.752C1084.16 309.156 1096.69 321.682 1112.09 321.682H1231.89C1247.29 321.682 1259.82 309.156 1259.82 293.752C1259.82 278.347 1247.29 265.822 1231.89 265.822H1112.09Z" fill="#315EAB"/>
<path d="M1159.32 288.698H1151.22V287.475H1154.59V285.963H1156.11V287.475H1159.32V288.698ZM1158.65 291.909C1158.64 293.478 1157.27 294.515 1155.33 294.515C1153.38 294.515 1152.02 293.492 1152.02 291.909C1152.02 290.325 1153.37 289.303 1155.33 289.303C1157.29 289.303 1158.64 290.339 1158.65 291.909ZM1153.46 291.909C1153.46 292.787 1154.19 293.363 1155.33 293.363C1156.47 293.363 1157.23 292.787 1157.24 291.909C1157.23 291.031 1156.45 290.483 1155.33 290.483C1154.2 290.483 1153.46 291.031 1153.46 291.909ZM1155.24 296.559H1161.69V295.191H1163.2V300.302H1153.73V295.191H1155.24V296.559ZM1161.69 299.093V297.725H1155.24V299.093H1161.69ZM1163.2 294.615H1161.68V293.406H1159.34V292.168H1161.68V290.599H1159.36V289.346H1161.68V286.092H1163.2V294.615Z" fill="#2F3030"/>
<path d="M1172.27 291.16H1167.52V293.146C1170.03 293.146 1171.39 293.103 1173.01 292.787L1173.15 294.025C1171.39 294.327 1169.93 294.385 1167.05 294.385H1166.01V290.008H1170.75V288.194H1166V286.97H1172.27V291.16ZM1177.41 300.503H1175.89V296.918H1167.65V295.68H1177.41V300.503ZM1177.41 294.96H1175.89V292.427H1173.19V291.203H1175.89V289.418H1173.19V288.194H1175.89V286.106H1177.41V294.946V294.96Z" fill="#2F3030"/>
<path d="M1188.24 295.954L1187.29 297.177C1185.72 296.371 1184.51 294.759 1183.89 292.829C1183.24 294.888 1181.98 296.601 1180.35 297.451L1179.4 296.213C1181.62 295.147 1183.11 292.398 1183.11 289.763V287.301H1184.64V289.763C1184.63 292.311 1186.09 294.917 1188.25 295.954H1188.24ZM1190.84 291.822H1193.16V293.117H1190.84V300.474H1189.32V286.092H1190.84V291.822Z" fill="#2F3030"/>
<path d="M425.986 419.824H286.769C279.672 419.824 273.913 414.051 273.913 406.968V374.474C273.913 367.377 279.686 361.618 286.769 361.618H425.986C433.084 361.618 438.843 367.391 438.843 374.474V406.968C438.843 414.066 433.07 419.824 425.986 419.824ZM286.769 362.784C280.32 362.784 275.079 368.025 275.079 374.474V406.968C275.079 413.418 280.32 418.658 286.769 418.658H425.986C432.436 418.658 437.677 413.418 437.677 406.968V374.474C437.677 368.025 432.436 362.784 425.986 362.784H286.769Z" fill="#2F3030"/>
<path d="M613.231 419.824H474.014C466.916 419.824 461.158 414.051 461.158 406.968V374.474C461.158 367.377 466.931 361.618 474.014 361.618H613.231C620.329 361.618 626.087 367.391 626.087 374.474V406.968C626.087 414.066 620.314 419.824 613.231 419.824ZM474.014 362.784C467.564 362.784 462.324 368.025 462.324 374.474V406.968C462.324 413.418 467.564 418.658 474.014 418.658H613.231C619.681 418.658 624.921 413.418 624.921 406.968V374.474C624.921 368.025 619.681 362.784 613.231 362.784H474.014Z" fill="#2F3030"/>
<path d="M810.683 419.824H671.466C664.369 419.824 658.61 414.051 658.61 406.968V374.474C658.61 367.377 664.383 361.618 671.466 361.618H810.683C817.781 361.618 823.539 367.391 823.539 374.474V406.968C823.539 414.066 817.766 419.824 810.683 419.824ZM671.466 362.784C665.016 362.784 659.776 368.025 659.776 374.474V406.968C659.776 413.418 665.016 418.658 671.466 418.658H810.683C817.133 418.658 822.373 413.418 822.373 406.968V374.474C822.373 368.025 817.133 362.784 810.683 362.784H671.466Z" fill="#2F3030"/>
<path d="M997.927 419.824H858.711C851.613 419.824 845.854 414.051 845.854 406.968V374.474C845.854 367.377 851.627 361.618 858.711 361.618H997.927C1005.02 361.618 1010.78 367.391 1010.78 374.474V406.968C1010.78 414.066 1005.01 419.824 997.927 419.824ZM858.711 362.784C852.261 362.784 847.02 368.025 847.02 374.474V406.968C847.02 413.418 852.261 418.658 858.711 418.658H997.927C1004.38 418.658 1009.62 413.418 1009.62 406.968V374.474C1009.62 368.025 1004.38 362.784 997.927 362.784H858.711Z" fill="#2F3030"/>
<path d="M1137.2 387.332H1132.15V394.343C1134.55 394.343 1136.22 394.242 1138.11 393.882L1138.28 395.135C1136.21 395.523 1134.47 395.61 1131.75 395.61H1130.61V386.05H1137.2V387.317V387.332ZM1141.91 399.151H1140.38V391.147H1136.38V389.88H1140.38V384.74H1141.91V399.151Z" fill="#2F3030"/>
<path d="M1157.23 397.193H1144.11V395.94H1157.23V397.193ZM1155.69 387.878C1155.69 389.98 1155.69 391.952 1155.07 394.947L1153.56 394.803C1153.86 393.493 1154.02 392.326 1154.1 391.261L1145.47 391.722L1145.28 390.469L1154.19 390.138C1154.22 389.361 1154.22 388.626 1154.22 387.892V387.388H1145.68V386.136H1155.7V387.892L1155.69 387.878Z" fill="#2F3030"/>
<path d="M1165.87 391.291H1160.7V394.444C1163.03 394.444 1165.06 394.328 1167.48 393.925L1167.62 395.178C1165.07 395.61 1162.9 395.711 1160.37 395.711H1159.14V390.081H1164.31V387.288H1159.13V386.05H1165.87V391.305V391.291ZM1170.27 399.151H1168.75V384.74H1170.27V399.151Z" fill="#2F3030"/>
<path d="M1181.98 398.417H1180.52V391.478H1178.9C1178.77 394.285 1177.56 396.042 1175.79 396.027C1173.91 396.042 1172.69 394.069 1172.69 390.96C1172.69 387.85 1173.91 385.892 1175.79 385.906C1177.54 385.892 1178.72 387.548 1178.9 390.254H1180.52V385.014H1181.98V398.417ZM1174.09 390.945C1174.09 393.234 1174.73 394.573 1175.77 394.573C1176.81 394.573 1177.48 393.234 1177.48 390.945C1177.48 388.656 1176.82 387.317 1175.77 387.317C1174.72 387.317 1174.09 388.656 1174.09 390.945ZM1184.9 399.123H1183.44V384.74H1184.9V399.123Z" fill="#2F3030"/>
<path d="M1194.67 390.858C1194.67 393.953 1193.11 395.911 1190.96 395.911C1188.81 395.911 1187.23 393.953 1187.23 390.858C1187.23 387.763 1188.79 385.819 1190.96 385.819C1193.13 385.819 1194.67 387.777 1194.67 390.858ZM1188.71 390.858C1188.71 393.133 1189.64 394.558 1190.96 394.558C1192.28 394.558 1193.19 393.147 1193.19 390.858C1193.19 388.569 1192.27 387.187 1190.96 387.187C1189.65 387.187 1188.71 388.598 1188.71 390.858ZM1198.65 399.165H1197.12V384.754H1198.65V399.165Z" fill="#2F3030"/>
<path d="M1208.34 387.26H1203.15V390.053H1207.73V391.276H1203.15V394.487C1205.56 394.487 1207.23 394.429 1209.14 394.084L1209.3 395.322C1207.21 395.653 1205.4 395.739 1202.74 395.754H1201.61V386.022H1208.34V387.26ZM1212.94 399.151H1211.43V391.305H1208.57V390.053H1211.43V384.74H1212.94V399.151Z" fill="#2F3030"/>
<path d="M1105.13 411.388H1106.9V416.427H1112.67V411.388H1114.44V423.006H1112.67V417.938H1106.9V423.006H1105.13V411.388Z" fill="#2F3030"/>
<path d="M1117.93 411.388L1120.95 416.657H1121.08L1124.12 411.388H1126.12L1121.9 418.457V423.02H1120.13V418.457L1115.92 411.388H1117.93Z" fill="#2F3030"/>
<path d="M1134.45 420.832H1127.71V411.374H1134.45V420.832ZM1129.21 419.594H1132.97V412.583H1129.21V419.594ZM1138.81 424.417H1137.29V410.006H1138.81V424.417Z" fill="#2F3030"/>
<path d="M1148.92 412.597H1143.58V419.58C1146.32 419.58 1148.06 419.493 1150.09 419.133L1150.25 420.4C1148.1 420.789 1146.22 420.875 1143.23 420.875H1142.04V411.316H1148.92V412.583V412.597ZM1153.02 424.417H1151.5V410.006H1153.02V424.417Z" fill="#2F3030"/>
<path d="M1162.84 415.391H1165.81V409.992H1167.32V424.403H1165.81V416.615H1162.86C1162.68 419.422 1161.23 421.164 1159.23 421.164C1157.08 421.164 1155.57 419.206 1155.59 416.111C1155.57 413.03 1157.08 411.072 1159.23 411.072C1161.17 411.072 1162.61 412.728 1162.84 415.391ZM1157.03 416.111C1157.03 418.386 1157.92 419.811 1159.23 419.811C1160.54 419.811 1161.43 418.4 1161.43 416.111C1161.43 413.822 1160.54 412.44 1159.23 412.44C1157.92 412.44 1157.03 413.851 1157.03 416.111Z" fill="#2F3030"/>
<path d="M1182.67 417.896H1169.54V416.643H1182.67V417.896ZM1181.04 421.682C1181.04 423.366 1179.18 424.317 1176.07 424.317C1172.96 424.317 1171.08 423.366 1171.08 421.682C1171.08 419.998 1172.95 419.062 1176.07 419.062C1179.2 419.062 1181.04 420.012 1181.04 421.682ZM1181.16 415.117H1171.28V410.251H1172.79V413.879H1181.16V415.117ZM1172.63 421.682C1172.63 422.603 1173.89 423.136 1176.09 423.136C1178.29 423.136 1179.53 422.589 1179.53 421.682C1179.53 420.775 1178.26 420.271 1176.09 420.257C1173.89 420.271 1172.63 420.761 1172.63 421.682Z" fill="#2F3030"/>
<path d="M1190.6 415.059H1185.85V417.046C1188.35 417.046 1189.72 417.003 1191.33 416.686L1191.48 417.924C1189.72 418.226 1188.25 418.284 1185.37 418.284H1184.34V413.907H1189.07V412.093H1184.32V410.87H1190.6V415.059ZM1195.74 424.403H1194.21V420.818H1185.98V419.58H1195.74V424.403ZM1195.74 418.86H1194.21V416.326H1191.52V415.102H1194.21V413.317H1191.52V412.093H1194.21V410.006H1195.74V418.845V418.86Z" fill="#2F3030"/>
<path d="M1198.79 421.337L1197.91 420.272C1201.11 418.458 1202.46 416.01 1202.69 413.073H1198.52V411.821H1204.18C1204.16 415.607 1202.91 419.005 1198.79 421.322V421.337ZM1210.27 424.389H1208.81V416.917H1207.03V423.698H1205.6V410.381H1207.03V415.679H1208.81V409.992H1210.27V424.375V424.389Z" fill="#2F3030"/>
<path d="M1214.23 412.568H1218V410.61H1219.51V416.888H1212.73V410.61H1214.23V412.568ZM1223.47 421.653H1215.69V423.021H1223.96V424.244H1214.2V420.53H1221.96V419.234H1214.17V418.025H1223.47V421.653ZM1218 415.664V413.735H1214.23V415.664H1218ZM1223.47 413.015H1225.56V414.253H1223.47V417.406H1221.94V410.006H1223.47V413.029V413.015Z" fill="#2F3030"/>
<path d="M1235.62 416.14L1235.72 417.234C1234.5 417.435 1233.2 417.565 1231.93 417.651V420.459H1230.41V417.723C1229.01 417.781 1227.67 417.795 1226.51 417.781L1226.32 416.557C1228.98 416.543 1232.57 416.514 1235.63 416.125L1235.62 416.14ZM1234.58 413.087C1234.58 414.614 1233.13 415.593 1231.01 415.593C1228.9 415.593 1227.43 414.614 1227.43 413.087C1227.43 411.561 1228.87 410.554 1231.01 410.554C1233.16 410.554 1234.58 411.561 1234.58 413.087ZM1238.69 424.072H1228.29V419.854H1229.8V422.834H1238.69V424.072ZM1228.88 413.087C1228.87 413.937 1229.73 414.47 1231.01 414.47C1232.29 414.47 1233.11 413.937 1233.13 413.087C1233.11 412.224 1232.25 411.677 1231.01 411.691C1229.73 411.677 1228.87 412.224 1228.88 413.087ZM1238.34 420.905H1236.81V419.523H1233.92V418.443H1236.81V409.992H1238.34V420.891V420.905Z" fill="#2F3030"/>
<path d="M1142.85 440.858H1144.89V435.618H1146.33V448.935H1144.89V442.096H1142.39C1141.58 443.853 1140.2 445.422 1137.92 446.689L1137.06 445.624C1139.15 444.457 1140.41 443.061 1141.12 441.448L1137.26 441.852L1137.06 440.541L1141.55 440.268C1141.72 439.606 1141.84 438.9 1141.88 438.18H1137.75V436.928H1143.35C1143.35 438.296 1143.22 439.62 1142.83 440.858H1142.85ZM1149.37 449.64H1147.93V435.258H1149.37V449.64Z" fill="#2F3030"/>
<path d="M1158.75 446.099H1152.02V436.64H1158.75V446.099ZM1153.51 444.861H1157.27V437.849H1153.51V444.861ZM1163.12 449.684H1161.59V435.272H1163.12V449.684Z" fill="#2F3030"/>
<path d="M1166.37 446.732L1165.48 445.638C1167.61 444.472 1168.88 443.046 1169.61 441.434L1165.72 441.852L1165.54 440.513L1170.03 440.239C1170.2 439.591 1170.3 438.9 1170.34 438.195H1166.26V436.957H1171.84C1171.84 440.815 1170.75 444.299 1166.38 446.718L1166.37 446.732ZM1177.79 449.64H1176.3V442.226H1174.53V448.949H1173.11V435.589H1174.53V440.973H1176.3V435.258H1177.79V449.64Z" fill="#2F3030"/>
<path d="M1192.8 447.754H1179.64V446.487H1192.8V447.754ZM1192.21 442.355L1191.51 443.622C1189.22 443.118 1187.09 441.621 1186.17 439.591C1185.22 441.592 1183.11 443.104 1180.81 443.622L1180.13 442.355C1182.87 441.837 1185.35 439.649 1185.35 437.302V436.208H1186.96V437.302C1186.96 439.649 1189.46 441.866 1192.23 442.355H1192.21Z" fill="#2F3030"/>
<path d="M1207 447.827H1193.84V446.575H1207V447.827ZM1205.5 444.127H1195.48V436.439H1205.36V437.678H1197.02V439.621H1205.05V440.83H1197.02V442.918H1205.5V444.142V444.127Z" fill="#2F3030"/>
<path d="M1243.31 473.713H1100.69C1094.54 473.713 1089.53 468.703 1089.53 462.555V372.791C1089.53 366.629 1094.54 361.634 1100.69 361.634H1243.31C1249.47 361.634 1254.46 366.644 1254.46 372.791V462.555C1254.46 468.717 1249.45 473.713 1243.31 473.713ZM1100.69 362.786C1095.18 362.786 1090.7 367.263 1090.7 372.777V462.541C1090.7 468.055 1095.18 472.532 1100.69 472.532H1243.31C1248.82 472.532 1253.3 468.055 1253.3 462.541V372.777C1253.3 367.263 1248.82 362.786 1243.31 362.786H1100.69Z" fill="#2F3030"/>
<path d="M796.147 278.462H803.467V279.837H800.645V287.629H798.998V279.837H796.147V278.462Z" fill="#21893B"/>
<path d="M812.304 287.643H810.829L806.475 281.37H806.403V287.643H804.756V278.462H806.246L810.571 284.736H810.657V278.462H812.29V287.643H812.304Z" fill="#21893B"/>
<path d="M813.608 278.462H820.927V279.837H818.106V287.629H816.458V279.837H813.622V278.462H813.608Z" fill="#21893B"/>
<path d="M828.576 279.738C827.53 279.738 826.9 280.239 826.9 280.927C826.9 281.7 827.717 282.015 828.476 282.187L829.335 282.417C830.71 282.732 832.028 283.462 832.028 285.052C832.028 286.642 830.768 287.759 828.562 287.759C826.356 287.759 825.081 286.728 824.995 284.923H826.614C826.685 285.883 827.502 286.356 828.547 286.356C829.636 286.356 830.381 285.826 830.381 285.038C830.381 284.322 829.708 284.006 828.719 283.763L827.674 283.491C826.17 283.104 825.224 282.331 825.224 281.013C825.224 279.394 826.671 278.306 828.59 278.306C830.51 278.306 831.856 279.409 831.885 280.956H830.295C830.223 280.168 829.55 279.709 828.562 279.709L828.576 279.738Z" fill="#21893B"/>
<path d="M832.987 278.462H840.307V279.837H837.485V287.629H835.838V279.837H833.002V278.462H832.987Z" fill="#21893B"/>
<path d="M849.059 278.462V284.463C849.059 286.426 847.569 287.787 845.334 287.787C843.1 287.787 841.61 286.426 841.61 284.463V278.462H843.258V284.32C843.258 285.48 844.074 286.311 845.334 286.311C846.595 286.311 847.397 285.48 847.397 284.32V278.462H849.059Z" fill="#21893B"/>
<path d="M850.764 287.643V278.462H853.929C856.665 278.462 858.326 280.181 858.326 283.045C858.326 285.91 856.665 287.643 853.872 287.643H850.749H850.764ZM853.8 286.211C855.72 286.211 856.694 285.165 856.694 283.045C856.694 280.926 855.72 279.909 853.857 279.909H852.425V286.225H853.8V286.211Z" fill="#21893B"/>
<path d="M861.448 287.643H859.801V278.462H861.448V287.643Z" fill="#21893B"/>
<path d="M867.149 287.758C864.743 287.758 862.938 285.996 862.938 283.045C862.938 280.095 864.743 278.333 867.149 278.333C869.555 278.333 871.36 280.08 871.36 283.045C871.36 286.01 869.555 287.758 867.149 287.758ZM867.149 279.808C865.659 279.808 864.6 280.954 864.6 283.045C864.6 285.137 865.645 286.283 867.149 286.283C868.653 286.283 869.699 285.137 869.699 283.045C869.699 280.954 868.653 279.808 867.149 279.808Z" fill="#21893B"/>
</svg>
