<svg width="311" height="625" viewBox="0 0 311 625" fill="none" xmlns="http://www.w3.org/2000/svg">
<path d="M204.43 0H106.02C93.0798 0 82.5898 10.49 82.5898 23.43C82.5898 36.37 93.0798 46.86 106.02 46.86H204.43C217.37 46.86 227.86 36.37 227.86 23.43C227.86 10.49 217.37 0 204.43 0Z" fill="#315EAB"/>
<path d="M132.68 19.11H129.27V25.17C130.75 25.15 131.98 25.08 133.36 24.82L133.48 26.19C131.84 26.52 130.4 26.57 128.51 26.58H127.59V17.75H132.69V19.11H132.68ZM138.89 29.77H137.29V22.82H135.75V29.08H134.21V16.4H135.75V21.48H137.29V16.14H138.89V29.77Z" fill="white"/>
<path d="M152.96 28.2H140.51V26.84H143.74V24.04H141.58V22.68H143.49V18.64H141.53V17.3H151.87V18.64H149.88V22.68H151.82V24.04H149.66V26.84H152.95V28.2H152.96ZM148.23 22.68V18.64H145.17V22.68H148.23ZM148 26.84V24.04H145.41V26.84H148Z" fill="white"/>
<path d="M165.059 21.94C165.039 24.91 163.549 26.76 161.499 26.76C159.449 26.76 157.939 24.91 157.939 21.94C157.939 18.97 159.429 17.13 161.499 17.13C163.569 17.13 165.039 19 165.059 21.94ZM159.559 21.94C159.559 24.04 160.339 25.26 161.499 25.26C162.659 25.26 163.429 24.04 163.429 21.94C163.429 19.84 162.649 18.64 161.499 18.64C160.349 18.64 159.559 19.86 159.559 21.94ZM168.849 29.78H167.159V16.14H168.849V29.78Z" fill="white"/>
<path d="M179.03 25.32L178 26.66C176.52 25.91 175.46 24.47 174.88 22.74C174.28 24.59 173.17 26.13 171.61 26.92L170.58 25.58C172.77 24.54 174.02 21.93 174.03 19.41V17.24H175.7V19.41C175.68 21.84 176.91 24.31 179.02 25.32H179.03ZM181.52 21.48H183.62V22.91H181.52V29.77H179.85V16.14H181.52V21.48Z" fill="white"/>
<path d="M204.42 66.0801H106.02C93.0798 66.0801 82.5898 76.57 82.5898 89.5101C82.5898 102.45 93.0798 112.94 106.02 112.94H204.42C217.36 112.94 227.85 102.45 227.85 89.5101C227.85 76.57 217.36 66.0801 204.42 66.0801Z" fill="#8EADDB"/>
<path d="M138.94 84.2001H144.82V82.7201H146.48V88.2501H142.71V89.5001H148.09V90.8601H135.67V89.5001H141.02V88.2501H137.28V82.7201H138.94V84.2001ZM146.69 95.5701H137.21V91.7401H138.88V94.2101H146.69V95.5701ZM144.82 86.9201V85.5001H138.94V86.9201H144.82Z" fill="white"/>
<path d="M161.44 91.4701H156.01V95.8401H154.35V91.4701H148.98V90.1401H161.43V91.4701H161.44ZM152.15 84.4301H158.24V82.7601H159.93V88.7301H150.49V82.7601H152.15V84.4301ZM158.24 87.3701V85.7601H152.15V87.3701H158.24Z" fill="white"/>
<path d="M170.439 88.5601L169.639 89.8701C168.109 89.4001 167.019 88.4201 166.429 87.1901C165.829 88.6201 164.669 89.7601 163.039 90.3101L162.199 88.9801C164.399 88.2601 165.549 86.4901 165.549 84.6801V84.5101H162.669V83.1501H170.069V84.5101H167.239V84.6601C167.239 86.3301 168.329 87.9001 170.449 88.5501L170.439 88.5601ZM173.229 93.2201C173.209 94.8601 171.479 95.8301 168.659 95.8301C165.839 95.8301 164.049 94.8701 164.049 93.2201C164.049 91.5701 165.809 90.6401 168.659 90.6401C171.509 90.6401 173.209 91.5901 173.229 93.2201ZM165.719 93.2201C165.719 94.0601 166.789 94.5201 168.659 94.5201C170.529 94.5201 171.569 94.0701 171.569 93.2201C171.569 92.3701 170.529 91.9501 168.659 91.9501C166.789 91.9501 165.719 92.3901 165.719 93.2201ZM173.089 85.4901H174.989V86.8601H173.089V90.3401H171.419V82.2201H173.089V85.4901Z" fill="white"/>
<path d="M204.43 132.15H106.02C93.0798 132.15 82.5898 142.64 82.5898 155.58C82.5898 168.52 93.0798 179.01 106.02 179.01H204.43C217.37 179.01 227.86 168.52 227.86 155.58C227.86 142.64 217.37 132.15 204.43 132.15Z" fill="#C4D5EE"/>
<path d="M146.509 157.62C147.899 157.57 149.319 157.47 150.629 157.3L150.719 158.55C147.899 159 144.779 159.06 142.379 159.05L142.209 157.71C143.019 157.71 143.909 157.69 144.849 157.66V153.59H146.509V157.61V157.62ZM149.949 150.67C149.949 151.89 149.949 153.59 149.569 155.95L147.909 155.81C148.229 153.74 148.269 152.22 148.289 151.05H142.939V149.71H149.949V150.67ZM153.029 153.84H154.999V155.26H153.029V161.92H151.339V148.29H153.029V153.84Z" fill="white"/>
<path d="M163.769 154.63L162.969 155.94C161.439 155.47 160.349 154.49 159.759 153.26C159.159 154.69 157.999 155.83 156.369 156.38L155.529 155.05C157.729 154.33 158.879 152.56 158.879 150.75V150.58H155.999V149.22H163.399V150.58H160.569V150.73C160.569 152.4 161.659 153.97 163.779 154.62L163.769 154.63ZM166.559 159.29C166.539 160.93 164.809 161.9 161.989 161.9C159.169 161.9 157.379 160.94 157.379 159.29C157.379 157.64 159.139 156.71 161.989 156.71C164.839 156.71 166.539 157.66 166.559 159.29ZM159.049 159.29C159.049 160.13 160.119 160.59 161.989 160.59C163.859 160.59 164.899 160.14 164.899 159.29C164.899 158.44 163.859 158.02 161.989 158.02C160.119 158.02 159.049 158.46 159.049 159.29ZM166.419 151.56H168.319V152.93H166.419V156.41H164.749V148.29H166.419V151.56Z" fill="white"/>
<path d="M61.9802 244.71H57.3002V247.01H56.0302V244.71H51.1602V243.69H61.9802V244.71ZM60.7502 240.45C60.7502 241.93 59.1002 242.84 56.5602 242.84C54.0202 242.84 52.3502 241.93 52.3502 240.45C52.3502 238.97 54.0302 238.05 56.5602 238.05C59.0902 238.05 60.7502 238.97 60.7502 240.45ZM60.7802 249.34H52.5202V245.87H53.7702V248.31H60.7702V249.34H60.7802ZM53.7002 240.45C53.6902 241.31 54.8302 241.82 56.5602 241.82C58.2902 241.82 59.4402 241.31 59.4402 240.45C59.4402 239.59 58.3102 239.05 56.5602 239.05C54.8102 239.05 53.6802 239.58 53.7002 240.45Z" fill="#2F3030"/>
<path d="M68.4995 239.44H71.4495V237.78H72.6995V244.76H71.4495V243.16H68.4795C67.9295 243.77 67.0995 244.13 66.1195 244.12C64.3395 244.13 63.0195 242.95 63.0195 241.3C63.0195 239.65 64.3395 238.45 66.1195 238.46C67.0995 238.46 67.9395 238.82 68.4895 239.44H68.4995ZM64.2295 241.3C64.2295 242.33 65.0195 243.07 66.1295 243.05C67.2095 243.06 67.9995 242.32 67.9995 241.3C67.9995 240.28 67.2095 239.53 66.1295 239.55C65.0195 239.54 64.2295 240.25 64.2295 241.3ZM72.7495 247.3C72.7495 248.74 71.2095 249.58 68.7495 249.57C66.2795 249.58 64.7395 248.74 64.7495 247.3C64.7395 245.85 66.2795 245.02 68.7495 245.02C71.2195 245.02 72.7495 245.85 72.7495 247.3ZM65.9795 247.3C65.9695 248.12 67.0195 248.58 68.7495 248.58C70.4795 248.58 71.5195 248.12 71.5195 247.3C71.5195 246.48 70.4895 245.98 68.7495 245.98C67.0095 245.98 65.9695 246.45 65.9795 247.3ZM69.1995 241.3C69.1995 241.59 69.1495 241.87 69.0795 242.13H71.4495V240.44H69.0595C69.1495 240.7 69.1895 240.99 69.1895 241.3H69.1995Z" fill="#2F3030"/>
<path d="M80.8794 239.5H76.4594V240.79H80.5495V241.77H76.4594V243.14C78.8294 243.14 80.2095 243.1 81.7995 242.82L81.9295 243.82C80.2195 244.11 78.7494 244.15 76.1694 244.14H75.1895V238.47H80.8695V239.5H80.8794ZM84.3195 249.45H76.5495V245.37H84.3195V249.45ZM77.7895 248.43H83.0894V246.35H77.7895V248.43ZM84.3195 244.82H83.0695V237.79H84.3195V244.82Z" fill="#2F3030"/>
<path d="M113.34 267.58H22.16C9.94 267.58 0 256.85 0 243.67C0 230.49 9.94 219.76 22.16 219.76H113.34C125.56 219.76 135.5 230.49 135.5 243.67C135.5 256.85 125.56 267.58 113.34 267.58ZM22.16 220.72C10.44 220.72 0.9 231.01 0.9 243.67C0.9 256.33 10.44 266.62 22.16 266.62H113.34C125.06 266.62 134.6 256.33 134.6 243.67C134.6 231.01 125.06 220.72 113.34 220.72H22.16Z" fill="#315EAB"/>
<path d="M122.32 379.06H23.91C10.73 379.06 0 368.33 0 355.15C0 341.97 10.73 331.24 23.91 331.24H122.32C135.5 331.24 146.23 341.97 146.23 355.15C146.23 368.33 135.5 379.06 122.32 379.06ZM23.91 332.2C11.26 332.2 0.96 342.49 0.96 355.15C0.96 367.81 11.25 378.1 23.91 378.1H122.32C134.97 378.1 145.27 367.81 145.27 355.15C145.27 342.49 134.98 332.2 122.32 332.2H23.91Z" fill="#315EAB"/>
<path d="M30.1795 358.52L29.5195 357.5C32.6595 356 34.1895 353.87 34.4395 351.12H30.0895V350.12H35.7095C35.7095 353.58 34.2295 356.58 30.1795 358.52ZM39.2295 360.67H37.9595V348.85H39.2295V360.67Z" fill="#2F3030"/>
<path d="M47.3602 351.61H49.6702V348.85H50.9202V355.19H49.6702V352.63H47.3702C47.1102 353.99 45.9102 354.9 44.3402 354.9C42.5302 354.9 41.2402 353.77 41.2402 352.13C41.2402 350.49 42.5302 349.37 44.3402 349.39C45.9002 349.38 47.1002 350.28 47.3602 351.61ZM42.4402 352.14C42.4402 353.16 43.2202 353.85 44.3402 353.85C45.4602 353.85 46.2102 353.15 46.2102 352.14C46.2102 351.13 45.4302 350.44 44.3402 350.44C43.2502 350.44 42.4402 351.13 42.4402 352.14ZM44.4602 357.14H49.6702V355.77H50.9202V360.53H43.2202V355.77H44.4602V357.14ZM49.6702 359.5V358.13H44.4602V359.5H49.6702Z" fill="#2F3030"/>
<path d="M66.8395 356.79H62.0095V360.67H60.7795V356.79H56.0195V355.8H66.8395V356.79ZM58.6095 350.87H64.2295V349.33H65.4795V354.46H57.3695V349.33H58.6095V350.87ZM64.2295 353.46V351.88H58.6095V353.46H64.2295Z" fill="#2F3030"/>
<path d="M74.7299 353.73L74.0699 354.71C72.7699 354.26 71.7899 353.37 71.2699 352.24C70.7499 353.51 69.7299 354.5 68.3399 354.98L67.6699 353.98C69.5199 353.39 70.6099 351.92 70.6199 350.26V349.23H71.8599V350.26C71.8599 351.76 72.9399 353.16 74.7199 353.73H74.7299ZM77.5699 358.43H71.0899V359.52H77.9799V360.52H69.8699V357.47H76.3299V356.47H69.8399V355.48H77.5699V358.42V358.43ZM77.5699 354.93H76.3199V351.9H73.8299V350.88H76.3199V348.85H77.5699V354.93Z" fill="#2F3030"/>
<path d="M92.5394 357.57H91.2894V354.5H88.3594C87.7994 355.17 86.9394 355.57 85.9594 355.57C84.1794 355.57 82.8594 354.33 82.8594 352.59C82.8594 350.85 84.1794 349.6 85.9594 349.58C86.9394 349.58 87.7894 349.99 88.3494 350.65H91.2894V348.87H92.5394V357.58V357.57ZM84.0594 352.58C84.0594 353.7 84.8494 354.45 85.9594 354.45C87.0694 354.45 87.8294 353.7 87.8294 352.58C87.8294 351.46 87.0294 350.69 85.9594 350.69C84.8894 350.69 84.0594 351.46 84.0594 352.58ZM92.8594 360.41H84.8694V356.65H86.1194V359.39H92.8594V360.41ZM89.0294 352.58C89.0294 352.9 88.9794 353.2 88.8994 353.48H91.2894V351.66H88.8994C88.9794 351.94 89.0294 352.25 89.0294 352.58Z" fill="#2F3030"/>
<path d="M103.76 350.63C103.76 351.75 103.76 352.96 103.43 354.65H105.13V355.68H100.34V360.68H99.0696V355.68H94.3496V354.65H102.16C102.52 352.97 102.52 351.73 102.52 350.63L95.6696 350.62V349.59H103.76V350.63Z" fill="#2F3030"/>
<path d="M116.849 359.17H106.029V358.14H110.769V355.33H112.009V358.14H116.849V359.17ZM116.379 354.51L115.839 355.54C113.929 355.16 112.169 353.98 111.379 352.35C110.599 353.97 108.859 355.17 106.959 355.54L106.409 354.51C108.679 354.13 110.719 352.37 110.719 350.5V349.6H112.039V350.5C112.039 352.37 114.099 354.13 116.379 354.51Z" fill="#2F3030"/>
<path d="M226.308 330.34L225.578 329.47C228.198 327.99 229.308 325.97 229.508 323.56H226.078V322.53H230.718C230.708 325.64 229.678 328.43 226.298 330.34H226.308ZM235.738 332.85H234.538V326.72H233.078V332.29H231.908V321.36H233.078V325.71H234.538V321.04H235.738V332.86V332.85Z" fill="#2F3030"/>
<path d="M238.988 323.14H242.088V321.53H243.328V326.69H237.758V321.53H238.988V323.14ZM246.588 330.61H240.208V331.73H246.998V332.73H238.978V329.68H245.348V328.61H238.948V327.62H246.588V330.6V330.61ZM242.088 325.69V324.11H238.988V325.69H242.088ZM246.588 323.51H248.298V324.53H246.588V327.12H245.338V321.04H246.588V323.52V323.51Z" fill="#2F3030"/>
<path d="M255.329 322.76H250.909V324.05H254.999V325.03H250.909V326.4C253.279 326.4 254.659 326.36 256.249 326.08L256.379 327.08C254.669 327.37 253.199 327.41 250.619 327.4H249.639V321.73H255.319V322.76H255.329ZM258.769 332.71H250.999V328.63H258.769V332.71ZM252.239 331.69H257.539V329.61H252.239V331.69ZM258.769 328.08H257.519V321.05H258.769V328.08Z" fill="#2F3030"/>
<path d="M299.889 351.72H185.529C179.699 351.72 174.959 346.98 174.959 341.15V314.46C174.959 308.63 179.699 303.89 185.529 303.89H299.889C305.719 303.89 310.459 308.63 310.459 314.46V341.15C310.459 346.98 305.719 351.72 299.889 351.72ZM185.529 304.86C180.239 304.86 175.929 309.17 175.929 314.46V341.15C175.929 346.44 180.239 350.75 185.529 350.75H299.889C305.179 350.75 309.489 346.44 309.489 341.15V314.46C309.489 309.17 305.179 304.86 299.889 304.86H185.529Z" fill="#2F3030"/>
<path d="M226.199 377.83H221.809V383.57C224.049 383.57 225.479 383.5 227.149 383.2L227.279 384.24C225.509 384.56 223.969 384.64 221.519 384.64H220.539V376.79H226.199V377.83ZM229.579 387.54H228.329V375.7H229.579V387.54Z" fill="#2F3030"/>
<path d="M238.598 383.98L237.888 384.96C236.568 384.32 235.518 382.99 234.988 381.44C234.438 383.14 233.338 384.59 231.978 385.27L231.238 384.28C233.028 383.42 234.338 381.19 234.338 379.19V377.94H231.678V376.9H238.158V377.94H235.588V379.19C235.588 381.06 236.818 383.15 238.608 383.99L238.598 383.98ZM240.668 380.38H242.568V381.44H240.668V387.52H239.418V375.7H240.668V380.38Z" fill="#2F3030"/>
<path d="M249.669 379.43C249.669 381.17 248.309 382.37 246.529 382.37C244.749 382.37 243.379 381.17 243.379 379.43C243.379 377.69 244.749 376.5 246.529 376.5C248.309 376.5 249.669 377.71 249.669 379.43ZM244.609 379.43C244.609 380.54 245.429 381.28 246.539 381.28C247.649 381.28 248.449 380.54 248.449 379.43C248.449 378.32 247.619 377.6 246.539 377.6C245.459 377.6 244.609 378.35 244.609 379.43ZM253.299 387.26H245.209V383.42H246.479V386.24H253.299V387.26ZM252.939 384.29H251.689V375.7H252.939V384.29Z" fill="#2F3030"/>
<path d="M261.169 377.42H256.749V378.71H260.839V379.69H256.749V381.06C259.119 381.06 260.499 381.02 262.089 380.74L262.219 381.74C260.509 382.03 259.039 382.07 256.459 382.06H255.479V376.39H261.159V377.42H261.169ZM264.609 387.37H256.839V383.29H264.609V387.37ZM258.079 386.35H263.379V384.27H258.079V386.35ZM264.609 382.74H263.359V375.71H264.609V382.74Z" fill="#2F3030"/>
<path d="M299.879 406.39H185.519C179.689 406.39 174.949 401.65 174.949 395.82V369.13C174.949 363.3 179.689 358.56 185.519 358.56H299.879C305.709 358.56 310.449 363.3 310.449 369.13V395.82C310.449 401.65 305.709 406.39 299.879 406.39ZM185.519 359.53C180.229 359.53 175.919 363.84 175.919 369.13V395.82C175.919 401.11 180.229 405.42 185.519 405.42H299.879C305.169 405.42 309.479 401.11 309.479 395.82V369.13C309.479 363.84 305.169 359.53 299.879 359.53H185.519Z" fill="#2F3030"/>
<path d="M113.34 602.15H22.16C9.94 602.15 0 591.42 0 578.24C0 565.06 9.94 554.33 22.16 554.33H113.34C125.56 554.33 135.5 565.06 135.5 578.24C135.5 591.42 125.56 602.15 113.34 602.15ZM22.16 555.29C10.44 555.29 0.9 565.58 0.9 578.24C0.9 590.9 10.44 601.19 22.16 601.19H113.34C125.06 601.19 134.6 590.9 134.6 578.24C134.6 565.58 125.06 555.29 113.34 555.29H22.16Z" fill="#315EAB"/>
<path d="M57.3297 574.08H50.6797V573.08H53.4497V571.84H54.6897V573.08H57.3297V574.08ZM56.7897 576.72C56.7797 578.01 55.6597 578.86 54.0597 578.86C52.4597 578.86 51.3397 578.02 51.3397 576.72C51.3397 575.42 52.4497 574.58 54.0597 574.58C55.6697 574.58 56.7797 575.44 56.7897 576.72ZM52.5197 576.72C52.5197 577.45 53.1297 577.92 54.0597 577.92C54.9897 577.92 55.6197 577.45 55.6297 576.72C55.6197 575.99 54.9797 575.55 54.0597 575.55C53.1397 575.55 52.5197 576 52.5197 576.72ZM53.9797 580.55H59.2797V579.43H60.5197V583.62H52.7397V579.43H53.9797V580.55ZM59.2797 582.63V581.51H53.9797V582.63H59.2797ZM60.5197 578.95H59.2697V577.96H57.3597V576.94H59.2697V575.65H57.3697V574.62H59.2697V571.94H60.5197V578.94V578.95Z" fill="#2F3030"/>
<path d="M67.9801 576.1H64.0801V577.74C66.1401 577.74 67.2601 577.7 68.5901 577.45L68.7101 578.47C67.2701 578.72 66.0601 578.76 63.7001 578.76H62.8401V575.16H66.7301V573.67H62.8301V572.67H67.9901V576.11L67.9801 576.1ZM72.2001 583.78H70.9501V580.84H64.1801V579.82H72.2001V583.78ZM72.2001 579.23H70.9501V577.15H68.7301V576.15H70.9501V574.69H68.7301V573.69H70.9501V571.98H72.2001V579.25V579.23Z" fill="#2F3030"/>
<path d="M81.0903 580.04L80.3103 581.04C79.0203 580.37 78.0303 579.05 77.5103 577.47C76.9703 579.16 75.9403 580.57 74.6003 581.27L73.8203 580.25C75.6403 579.38 76.8703 577.11 76.8703 574.95V572.93H78.1203V574.95C78.1103 577.05 79.3203 579.18 81.0903 580.04ZM83.2303 576.65H85.1303V577.72H83.2303V583.76H81.9803V571.94H83.2303V576.65Z" fill="#2F3030"/>
<path d="M214.119 553.33H209.969V559.09C211.949 559.09 213.309 559.01 214.859 558.71L215.009 559.74C213.309 560.06 211.869 560.14 209.639 560.14H208.699V552.29H214.119V553.33ZM217.979 563.04H216.729V556.46H213.449V555.42H216.729V551.2H217.979V563.04Z" fill="#2F3030"/>
<path d="M230.569 561.42H219.789V560.39H230.569V561.42ZM229.299 553.77C229.299 555.5 229.299 557.12 228.789 559.57L227.549 559.45C227.799 558.37 227.929 557.42 227.999 556.54L220.899 556.92L220.739 555.89L228.059 555.61C228.079 554.98 228.079 554.37 228.089 553.76V553.35H221.069V552.32H229.299V553.76V553.77Z" fill="#2F3030"/>
<path d="M237.669 556.57H233.419V559.16C235.329 559.16 237.009 559.07 238.989 558.74L239.109 559.77C237.009 560.13 235.229 560.21 233.149 560.21H232.149V555.58H236.399V553.28H232.139V552.26H237.679V556.57H237.669ZM241.279 563.03H240.029V551.19H241.279V563.03Z" fill="#2F3030"/>
<path d="M250.91 562.43H249.71V556.73H248.38C248.27 559.04 247.29 560.48 245.82 560.46C244.28 560.47 243.27 558.85 243.27 556.29C243.27 553.73 244.27 552.12 245.82 552.14C247.26 552.13 248.23 553.49 248.38 555.71H249.71V551.41H250.91V562.42V562.43ZM244.43 556.3C244.43 558.19 244.96 559.28 245.81 559.28C246.66 559.28 247.22 558.19 247.22 556.3C247.22 554.41 246.68 553.32 245.81 553.32C244.94 553.32 244.43 554.41 244.43 556.3ZM253.31 563.01H252.11V551.19H253.31V563.01Z" fill="#2F3030"/>
<path d="M261.329 556.21C261.329 558.76 260.039 560.36 258.279 560.36C256.519 560.36 255.219 558.75 255.219 556.21C255.219 553.67 256.499 552.07 258.279 552.07C260.059 552.07 261.329 553.68 261.329 556.21ZM256.439 556.21C256.439 558.08 257.189 559.24 258.289 559.24C259.389 559.24 260.119 558.08 260.119 556.21C260.119 554.34 259.369 553.19 258.289 553.19C257.209 553.19 256.439 554.35 256.439 556.21ZM264.599 563.03H263.349V551.19H264.599V563.03Z" fill="#2F3030"/>
<path d="M272.549 553.26H268.289V555.56H272.049V556.56H268.289V559.2C270.269 559.2 271.639 559.15 273.209 558.87L273.339 559.89C271.629 560.17 270.129 560.23 267.949 560.25H267.029V552.26H272.559V553.28L272.549 553.26ZM276.339 563.03H275.099V556.58H272.749V555.55H275.099V551.18H276.339V563.02V563.03Z" fill="#2F3030"/>
<path d="M187.77 573.09H189.22V577.23H193.97V573.09H195.42V582.64H193.97V578.47H189.22V582.64H187.77V573.09Z" fill="#2F3030"/>
<path d="M198.279 573.09L200.759 577.42H200.869L203.359 573.09H205.009L201.539 578.89V582.64H200.089V578.89L196.629 573.09H198.279Z" fill="#2F3030"/>
<path d="M211.87 580.84H206.33V573.07H211.87V580.84ZM207.57 579.82H210.66V574.06H207.57V579.82ZM215.46 583.78H214.21V571.94H215.46V583.78Z" fill="#2F3030"/>
<path d="M223.75 574.08H219.36V579.82C221.6 579.82 223.03 579.75 224.7 579.45L224.83 580.49C223.06 580.81 221.52 580.89 219.07 580.89H218.09V573.04H223.75V574.08ZM227.13 583.79H225.88V571.95H227.13V583.79Z" fill="#2F3030"/>
<path d="M235.189 576.37H237.629V571.94H238.869V583.78H237.629V577.38H235.199C235.059 579.68 233.859 581.11 232.219 581.11C230.449 581.11 229.209 579.5 229.229 576.96C229.219 574.43 230.459 572.82 232.219 572.82C233.819 572.82 234.999 574.18 235.189 576.37ZM230.419 576.96C230.419 578.83 231.159 579.99 232.229 579.99C233.299 579.99 234.039 578.83 234.039 576.96C234.039 575.09 233.299 573.94 232.229 573.94C231.159 573.94 230.419 575.1 230.419 576.96Z" fill="#2F3030"/>
<path d="M251.47 578.43H240.68V577.4H251.47V578.43ZM250.14 581.54C250.14 582.92 248.61 583.7 246.06 583.7C243.51 583.7 241.96 582.92 241.96 581.54C241.96 580.16 243.5 579.39 246.06 579.39C248.62 579.39 250.14 580.17 250.14 581.54ZM250.23 576.15H242.12V572.15H243.36V575.13H250.23V576.15ZM243.23 581.54C243.23 582.29 244.26 582.74 246.07 582.74C247.88 582.74 248.89 582.29 248.89 581.54C248.89 580.79 247.85 580.38 246.07 580.37C244.26 580.38 243.23 580.78 243.23 581.54Z" fill="#2F3030"/>
<path d="M257.99 576.1H254.09V577.74C256.15 577.74 257.27 577.7 258.6 577.45L258.72 578.47C257.28 578.72 256.07 578.76 253.71 578.76H252.85V575.16H256.74V573.67H252.84V572.67H258V576.11L257.99 576.1ZM262.21 583.78H260.96V580.84H254.19V579.82H262.21V583.78ZM262.21 579.23H260.96V577.15H258.74V576.15H260.96V574.69H258.74V573.69H260.96V571.98H262.21V579.25V579.23Z" fill="#2F3030"/>
<path d="M264.72 581.25L263.99 580.38C266.61 578.9 267.72 576.88 267.92 574.47H264.49V573.44H269.13C269.12 576.55 268.09 579.34 264.71 581.25H264.72ZM274.15 583.76H272.95V577.63H271.49V583.2H270.32V572.27H271.49V576.62H272.95V571.95H274.15V583.77V583.76Z" fill="#2F3030"/>
<path d="M277.39 574.05H280.49V572.44H281.73V577.6H276.16V572.44H277.39V574.05ZM284.99 581.52H278.61V582.64H285.4V583.64H277.38V580.59H283.75V579.52H277.35V578.53H284.99V581.51V581.52ZM280.49 576.6V575.02H277.39V576.6H280.49ZM284.99 574.42H286.7V575.44H284.99V578.03H283.74V571.95H284.99V574.43V574.42Z" fill="#2F3030"/>
<path d="M294.97 576.99L295.05 577.89C294.04 578.05 292.98 578.17 291.94 578.23V580.54H290.69V578.3C289.54 578.35 288.44 578.36 287.48 578.35L287.32 577.35C289.51 577.34 292.45 577.31 294.97 576.99ZM294.11 574.48C294.11 575.73 292.91 576.54 291.18 576.54C289.45 576.54 288.24 575.74 288.24 574.48C288.24 573.22 289.43 572.4 291.18 572.4C292.93 572.4 294.11 573.23 294.11 574.48ZM297.49 583.5H288.96V580.03H290.2V582.48H297.49V583.5ZM289.43 574.48C289.42 575.18 290.13 575.61 291.18 575.61C292.23 575.61 292.91 575.17 292.92 574.48C292.91 573.77 292.19 573.32 291.18 573.33C290.12 573.32 289.41 573.77 289.43 574.48ZM297.2 580.9H295.95V579.77H293.58V578.89H295.95V571.95H297.2V580.91V580.9Z" fill="#2F3030"/>
<path d="M218.76 597.3H220.44V593H221.63V603.93H220.44V598.31H218.38C217.72 599.75 216.58 601.04 214.71 602.08L214 601.21C215.71 600.25 216.75 599.1 217.34 597.78L214.17 598.11L214 597.03L217.69 596.81C217.84 596.26 217.92 595.69 217.97 595.1H214.58V594.07H219.18C219.18 595.19 219.07 596.28 218.76 597.3ZM224.12 604.51H222.93V592.69H224.12V604.51Z" fill="#2F3030"/>
<path d="M231.829 601.6H226.289V593.83H231.829V601.6ZM227.529 600.58H230.619V594.82H227.529V600.58ZM235.419 604.54H234.169V592.7H235.419V604.54Z" fill="#2F3030"/>
<path d="M238.08 602.12L237.34 601.22C239.09 600.26 240.14 599.1 240.73 597.76L237.54 598.1L237.38 597.01L241.07 596.79C241.21 596.26 241.29 595.7 241.33 595.11H237.97V594.09H242.56C242.56 597.26 241.66 600.12 238.08 602.11V602.12ZM247.46 604.51H246.25V598.42H244.8V603.95H243.63V592.98H244.8V597.4H246.25V592.7H247.46V604.52V604.51Z" fill="#2F3030"/>
<path d="M259.789 602.96H248.969V601.92H259.789V602.96ZM259.299 598.53L258.719 599.57C256.829 599.16 255.089 597.92 254.329 596.26C253.549 597.91 251.819 599.15 249.919 599.57L249.369 598.53C251.609 598.11 253.659 596.3 253.659 594.38V593.48H254.979V594.38C254.979 596.31 257.039 598.13 259.309 598.53H259.299Z" fill="#2F3030"/>
<path d="M271.459 603.02H260.639V601.99H271.459V603.02ZM270.229 599.99H261.999V593.67H270.109V594.69H263.259V596.29H269.849V597.28H263.259V598.99H270.219V599.99H270.229Z" fill="#2F3030"/>
<path d="M301.279 624.28H184.119C179.059 624.28 174.949 620.17 174.949 615.11V541.36C174.949 536.3 179.059 532.19 184.119 532.19H301.279C306.339 532.19 310.449 536.3 310.449 541.36V615.11C310.449 620.17 306.339 624.28 301.279 624.28ZM184.119 533.16C179.599 533.16 175.919 536.84 175.919 541.37V615.12C175.919 619.64 179.599 623.32 184.119 623.32H301.279C305.799 623.32 309.489 619.64 309.489 615.12V541.37C309.489 536.84 305.809 533.16 301.279 533.16H184.119Z" fill="#2F3030"/>
<path d="M227.009 438.53L226.359 439.53C224.999 439.02 223.989 438.02 223.459 436.73C222.939 438.1 221.919 439.2 220.529 439.74L219.859 438.75C221.719 438.06 222.809 436.36 222.809 434.58V433.41H224.089V434.58C224.079 436.31 225.179 437.89 226.999 438.52L227.009 438.53ZM229.949 444.32H221.859V440.6H223.129V443.3H229.949V444.32ZM229.589 441.42H228.339V432.77H229.589V441.42Z" fill="#2F3030"/>
<path d="M242.279 443.02H231.459V441.98H242.279V443.02ZM241.789 438.59L241.209 439.63C239.319 439.22 237.579 437.98 236.819 436.32C236.039 437.97 234.309 439.21 232.409 439.63L231.859 438.59C234.099 438.17 236.149 436.36 236.149 434.44V433.54H237.469V434.44C237.469 436.37 239.529 438.19 241.799 438.59H241.789Z" fill="#2F3030"/>
<path d="M249.489 434.31H245.069V435.4H249.159V436.36H245.069V437.52C247.429 437.52 248.799 437.48 250.439 437.22L250.549 438.21C248.809 438.5 247.329 438.53 244.789 438.53H243.809V433.31H249.489V434.31ZM252.929 442.34H246.409V443.47H253.319V444.45H245.199V441.46H251.689V440.44H245.159V439.46H252.929V442.34ZM252.929 438.95H251.679V432.75H252.929V438.95Z" fill="#2F3030"/>
<path d="M260.549 438.05H256.499V440.74C258.389 440.74 259.839 440.67 261.489 440.37L261.599 441.4C259.829 441.72 258.279 441.78 256.189 441.8H255.249V437.04H259.339V434.85H255.219V433.83H260.549V438.05ZM264.649 444.61H263.409V438.25H261.249V437.21H263.409V432.77H264.649V444.61Z" fill="#2F3030"/>
<path d="M299.889 463.45H185.529C179.699 463.45 174.959 458.71 174.959 452.88V426.19C174.959 420.36 179.699 415.62 185.529 415.62H299.889C305.719 415.62 310.459 420.36 310.459 426.19V452.88C310.459 458.71 305.719 463.45 299.889 463.45ZM185.529 416.59C180.239 416.59 175.929 420.9 175.929 426.19V452.88C175.929 458.17 180.239 462.48 185.529 462.48H299.889C305.179 462.48 309.489 458.17 309.489 452.88V426.19C309.489 420.9 305.179 416.59 299.889 416.59H185.529Z" fill="#2F3030"/>
<path d="M207.4 489.06H200.75V488.06H203.52V486.82H204.76V488.06H207.4V489.06ZM206.86 491.7C206.85 492.99 205.73 493.84 204.13 493.84C202.53 493.84 201.41 493 201.41 491.7C201.41 490.4 202.52 489.56 204.13 489.56C205.74 489.56 206.85 490.42 206.86 491.7ZM202.59 491.7C202.59 492.43 203.2 492.9 204.13 492.9C205.06 492.9 205.69 492.43 205.7 491.7C205.69 490.97 205.05 490.53 204.13 490.53C203.21 490.53 202.59 490.98 202.59 491.7ZM204.05 495.53H209.35V494.41H210.59V498.6H202.81V494.41H204.05V495.53ZM209.35 497.61V496.49H204.05V497.61H209.35ZM210.59 493.93H209.34V492.94H207.43V491.92H209.34V490.63H207.44V489.6H209.34V486.92H210.59V493.92V493.93Z" fill="#2F3030"/>
<path d="M218.05 491.08H214.15V492.72C216.21 492.72 217.33 492.68 218.66 492.43L218.78 493.45C217.34 493.7 216.13 493.74 213.77 493.74H212.91V490.14H216.8V488.65H212.9V487.65H218.06V491.09L218.05 491.08ZM222.27 498.76H221.02V495.82H214.25V494.8H222.27V498.76ZM222.27 494.21H221.02V492.13H218.8V491.13H221.02V489.67H218.8V488.67H221.02V486.96H222.27V494.23V494.21Z" fill="#2F3030"/>
<path d="M238.161 497.16H227.381V496.13H238.161V497.16ZM236.891 489.51C236.891 491.24 236.891 492.86 236.381 495.31L235.141 495.19C235.391 494.11 235.521 493.16 235.591 492.28L228.491 492.66L228.331 491.63L235.651 491.35C235.671 490.72 235.671 490.11 235.681 489.5V489.09H228.661V488.06H236.891V489.5V489.51Z" fill="#2F3030"/>
<path d="M245.26 492.31H241.01V494.9C242.92 494.9 244.6 494.81 246.58 494.48L246.7 495.51C244.6 495.87 242.82 495.95 240.74 495.95H239.74V491.32H243.99V489.02H239.73V488H245.27V492.31H245.26ZM248.87 498.77H247.62V486.93H248.87V498.77Z" fill="#2F3030"/>
<path d="M258.499 498.16H257.299V492.46H255.969C255.859 494.77 254.879 496.21 253.409 496.19C251.869 496.2 250.859 494.58 250.859 492.02C250.859 489.46 251.859 487.85 253.409 487.87C254.849 487.86 255.819 489.22 255.969 491.44H257.299V487.14H258.499V498.15V498.16ZM252.019 492.03C252.019 493.92 252.549 495.01 253.399 495.01C254.249 495.01 254.809 493.92 254.809 492.03C254.809 490.14 254.269 489.05 253.399 489.05C252.529 489.05 252.019 490.14 252.019 492.03ZM260.899 498.74H259.699V486.92H260.899V498.74Z" fill="#2F3030"/>
<path d="M268.921 491.95C268.921 494.5 267.631 496.1 265.871 496.1C264.111 496.1 262.811 494.49 262.811 491.95C262.811 489.41 264.091 487.81 265.871 487.81C267.651 487.81 268.921 489.42 268.921 491.95ZM264.031 491.95C264.031 493.82 264.781 494.98 265.881 494.98C266.981 494.98 267.711 493.82 267.711 491.95C267.711 490.08 266.961 488.93 265.881 488.93C264.801 488.93 264.031 490.09 264.031 491.95ZM272.191 498.77H270.941V486.93H272.191V498.77Z" fill="#2F3030"/>
<path d="M280.139 489H275.879V491.3H279.639V492.3H275.879V494.94C277.859 494.94 279.229 494.89 280.799 494.61L280.929 495.63C279.219 495.91 277.719 495.97 275.539 495.99H274.619V488H280.149V489.02L280.139 489ZM283.929 498.77H282.689V492.32H280.339V491.29H282.689V486.92H283.929V498.76V498.77Z" fill="#2F3030"/>
<path d="M299.879 517.62H185.519C179.689 517.62 174.949 512.88 174.949 507.05V480.36C174.949 474.53 179.689 469.79 185.519 469.79H299.879C305.709 469.79 310.449 474.53 310.449 480.36V507.05C310.449 512.88 305.709 517.62 299.879 517.62ZM185.519 470.76C180.229 470.76 175.919 475.07 175.919 480.36V507.05C175.919 512.34 180.229 516.65 185.519 516.65H299.879C305.169 516.65 309.479 512.34 309.479 507.05V480.36C309.479 475.07 305.169 470.76 299.879 470.76H185.519Z" fill="#2F3030"/>
<path d="M122.32 490.53H23.91C10.73 490.53 0 479.8 0 466.62C0 453.44 10.73 442.71 23.91 442.71H122.32C135.5 442.71 146.23 453.44 146.23 466.62C146.23 479.8 135.5 490.53 122.32 490.53ZM23.91 443.67C11.26 443.67 0.96 453.96 0.96 466.62C0.96 479.28 11.25 489.57 23.91 489.57H122.32C134.97 489.57 145.27 479.28 145.27 466.62C145.27 453.96 134.98 443.67 122.32 443.67H23.91Z" fill="#315EAB"/>
<path d="M47.6504 474.54H36.9004V473.54H41.1604V471.88H42.4304V473.54H47.6504V474.54ZM46.3604 468.89C46.3604 470.01 46.3604 471.2 46.0304 472.81L44.7904 472.7C44.9204 472.06 45.0104 471.49 45.0504 470.96L38.0204 471.29L37.8504 470.23L45.1004 470.03C45.1104 469.63 45.1104 469.25 45.1104 468.88V468.85H38.1504V467.83H46.3504V468.87L46.3604 468.89ZM46.6104 478.95H38.2304V475.44H39.4804V477.93H46.6004V478.95H46.6104Z" fill="#2F3030"/>
<path d="M53.5801 469.29H50.2801V470.77H53.1201V471.75H50.2801V473.29C51.8401 473.29 52.8701 473.24 54.0801 473L54.2001 474C52.8401 474.26 51.7201 474.32 49.8501 474.32H49.0801V468.28H53.5801V469.3V469.29ZM58.9701 478.89H50.8501V475.2H52.1201V477.88H58.9801V478.9L58.9701 478.89ZM56.3101 475.88H55.1201V471.65H53.6601V470.63H55.1201V467.56H56.3101V475.88ZM58.6301 476.17H57.4401V467.33H58.6301V476.17Z" fill="#2F3030"/>
<path d="M71.0407 477.66H60.2207V476.63H71.0407V477.66ZM70.0407 470.16H66.2507C66.3007 471.93 68.0407 473.4 70.4607 473.79L69.9607 474.79C68.0007 474.44 66.3807 473.44 65.6207 471.99C64.8507 473.44 63.2307 474.44 61.2807 474.79L60.7907 473.79C63.1807 473.4 64.9207 471.94 64.9807 470.16H61.1907V469.14H64.9907V467.57H66.2307V469.14H70.0307V470.16H70.0407Z" fill="#2F3030"/>
<path d="M82.27 475.42L81.49 476.42C80.2 475.75 79.21 474.43 78.69 472.85C78.15 474.54 77.12 475.95 75.78 476.65L75 475.63C76.82 474.76 78.05 472.49 78.05 470.33V468.31H79.3V470.33C79.29 472.43 80.5 474.56 82.27 475.42ZM84.41 472.03H86.31V473.1H84.41V479.14H83.16V467.32H84.41V472.03Z" fill="#2F3030"/>
<path d="M93.161 470.08H95.471V467.32H96.721V473.66H95.471V471.1H93.171C92.911 472.46 91.711 473.37 90.141 473.37C88.331 473.37 87.041 472.24 87.041 470.6C87.041 468.96 88.331 467.84 90.141 467.86C91.701 467.85 92.901 468.75 93.161 470.08ZM88.241 470.61C88.241 471.63 89.021 472.32 90.141 472.32C91.261 472.32 92.011 471.62 92.011 470.61C92.011 469.6 91.231 468.91 90.141 468.91C89.051 468.91 88.241 469.6 88.241 470.61ZM90.261 475.61H95.471V474.24H96.721V479H89.021V474.24H90.261V475.61ZM95.471 477.97V476.6H90.261V477.97H95.471Z" fill="#2F3030"/>
<path d="M109.351 475.26H104.521V479.14H103.291V475.26H98.5312V474.27H109.351V475.26ZM101.121 469.34H106.741V467.8H107.991V472.93H99.8812V467.8H101.121V469.34ZM106.741 471.93V470.35H101.121V471.93H106.741Z" fill="#2F3030"/>
<path d="M39.9199 455.3H45.9599V456.44H43.6299V462.88H42.2699V456.44H39.9299V455.3H39.9199Z" fill="#21893B"/>
<path d="M53.2591 462.88H52.0491L48.4591 457.7H48.3991V462.88H47.0391V455.3H48.2791L51.8491 460.48H51.9191V455.3H53.2691V462.88H53.2591Z" fill="#21893B"/>
<path d="M54.3301 455.3H60.3701V456.44H58.0401V462.88H56.6801V456.44H54.3401V455.3H54.3301Z" fill="#21893B"/>
<path d="M66.6905 456.36C65.8305 456.36 65.3105 456.78 65.3105 457.34C65.3105 457.98 65.9805 458.24 66.6105 458.39L67.3205 458.58C68.4505 458.84 69.5405 459.44 69.5405 460.76C69.5405 462.08 68.4905 463 66.6705 463C64.8505 463 63.7905 462.15 63.7305 460.66H65.0705C65.1305 461.46 65.8005 461.84 66.6605 461.84C67.5605 461.84 68.1805 461.4 68.1805 460.75C68.1805 460.15 67.6305 459.9 66.8105 459.69L65.9505 459.47C64.7005 459.15 63.9305 458.52 63.9305 457.43C63.9305 456.09 65.1205 455.2 66.7105 455.2C68.3005 455.2 69.4105 456.11 69.4305 457.39H68.1205C68.0605 456.74 67.5005 456.36 66.6905 456.36Z" fill="#21893B"/>
<path d="M70.3398 455.3H76.3798V456.44H74.0499V462.88H72.6898V456.44H70.3498V455.3H70.3398Z" fill="#21893B"/>
<path d="M83.6092 455.3V460.25C83.6092 461.87 82.3692 462.99 80.5292 462.99C78.6892 462.99 77.4492 461.87 77.4492 460.25V455.3H78.8092V460.14C78.8092 461.09 79.4792 461.78 80.5292 461.78C81.5792 461.78 82.2392 461.09 82.2392 460.14V455.3H83.6092Z" fill="#21893B"/>
<path d="M85.0195 462.88V455.3H87.6395C89.8995 455.3 91.2695 456.72 91.2695 459.08C91.2695 461.44 89.8995 462.88 87.5995 462.88H85.0195ZM87.5195 461.7C89.0995 461.7 89.9095 460.83 89.9095 459.08C89.9095 457.33 89.0995 456.48 87.5695 456.48H86.3895V461.69H87.5295L87.5195 461.7Z" fill="#21893B"/>
<path d="M93.8405 462.88H92.4805V455.3H93.8405V462.88Z" fill="#21893B"/>
<path d="M98.5406 462.98C96.5506 462.98 95.0605 461.53 95.0605 459.09C95.0605 456.65 96.5506 455.2 98.5406 455.2C100.531 455.2 102.011 456.64 102.011 459.09C102.011 461.54 100.521 462.98 98.5406 462.98ZM98.5406 456.42C97.3006 456.42 96.4406 457.36 96.4406 459.09C96.4406 460.82 97.3106 461.76 98.5406 461.76C99.7706 461.76 100.641 460.82 100.641 459.09C100.641 457.36 99.7706 456.42 98.5406 456.42Z" fill="#21893B"/>
<path d="M68.75 220.26C68.47 220.26 68.25 220.04 68.25 219.76V216.76C68.25 216.48 68.47 216.26 68.75 216.26C69.03 216.26 69.25 216.48 69.25 216.76V219.76C69.25 220.04 69.03 220.26 68.75 220.26ZM68.75 214.26C68.47 214.26 68.25 214.04 68.25 213.76V210.76C68.25 210.48 68.47 210.26 68.75 210.26C69.03 210.26 69.25 210.48 69.25 210.76V213.76C69.25 214.04 69.03 214.26 68.75 214.26ZM68.75 208.26C68.47 208.26 68.25 208.04 68.25 207.76V204.76C68.25 204.48 68.47 204.26 68.75 204.26C69.03 204.26 69.25 204.48 69.25 204.76V207.76C69.25 208.04 69.03 208.26 68.75 208.26ZM68.75 202.26C68.47 202.26 68.25 202.04 68.25 201.76V199.51C68.25 199.23 68.47 199.01 68.75 199.01H69.5C69.78 199.01 70 199.23 70 199.51C70 199.79 69.78 200.01 69.5 200.01H69.25V201.76C69.25 202.04 69.03 202.26 68.75 202.26ZM153.5 200.01H150.5C150.22 200.01 150 199.79 150 199.51C150 199.23 150.22 199.01 150.5 199.01H153.5C153.78 199.01 154 199.23 154 199.51C154 199.79 153.78 200.01 153.5 200.01ZM147.5 200.01H144.5C144.22 200.01 144 199.79 144 199.51C144 199.23 144.22 199.01 144.5 199.01H147.5C147.78 199.01 148 199.23 148 199.51C148 199.79 147.78 200.01 147.5 200.01ZM141.5 200.01H138.5C138.22 200.01 138 199.79 138 199.51C138 199.23 138.22 199.01 138.5 199.01H141.5C141.78 199.01 142 199.23 142 199.51C142 199.79 141.78 200.01 141.5 200.01ZM135.5 200.01H132.5C132.22 200.01 132 199.79 132 199.51C132 199.23 132.22 199.01 132.5 199.01H135.5C135.78 199.01 136 199.23 136 199.51C136 199.79 135.78 200.01 135.5 200.01ZM129.5 200.01H126.5C126.22 200.01 126 199.79 126 199.51C126 199.23 126.22 199.01 126.5 199.01H129.5C129.78 199.01 130 199.23 130 199.51C130 199.79 129.78 200.01 129.5 200.01ZM123.5 200.01H120.5C120.22 200.01 120 199.79 120 199.51C120 199.23 120.22 199.01 120.5 199.01H123.5C123.78 199.01 124 199.23 124 199.51C124 199.79 123.78 200.01 123.5 200.01ZM117.5 200.01H114.5C114.22 200.01 114 199.79 114 199.51C114 199.23 114.22 199.01 114.5 199.01H117.5C117.78 199.01 118 199.23 118 199.51C118 199.79 117.78 200.01 117.5 200.01ZM111.5 200.01H108.5C108.22 200.01 108 199.79 108 199.51C108 199.23 108.22 199.01 108.5 199.01H111.5C111.78 199.01 112 199.23 112 199.51C112 199.79 111.78 200.01 111.5 200.01ZM105.5 200.01H102.5C102.22 200.01 102 199.79 102 199.51C102 199.23 102.22 199.01 102.5 199.01H105.5C105.78 199.01 106 199.23 106 199.51C106 199.79 105.78 200.01 105.5 200.01ZM99.5 200.01H96.5C96.22 200.01 96 199.79 96 199.51C96 199.23 96.22 199.01 96.5 199.01H99.5C99.78 199.01 100 199.23 100 199.51C100 199.79 99.78 200.01 99.5 200.01ZM93.5 200.01H90.5C90.22 200.01 90 199.79 90 199.51C90 199.23 90.22 199.01 90.5 199.01H93.5C93.78 199.01 94 199.23 94 199.51C94 199.79 93.78 200.01 93.5 200.01ZM87.5 200.01H84.5C84.22 200.01 84 199.79 84 199.51C84 199.23 84.22 199.01 84.5 199.01H87.5C87.78 199.01 88 199.23 88 199.51C88 199.79 87.78 200.01 87.5 200.01ZM81.5 200.01H78.5C78.22 200.01 78 199.79 78 199.51C78 199.23 78.22 199.01 78.5 199.01H81.5C81.78 199.01 82 199.23 82 199.51C82 199.79 81.78 200.01 81.5 200.01ZM75.5 200.01H72.5C72.22 200.01 72 199.79 72 199.51C72 199.23 72.22 199.01 72.5 199.01H75.5C75.78 199.01 76 199.23 76 199.51C76 199.79 75.78 200.01 75.5 200.01ZM155 198.51C154.72 198.51 154.5 198.29 154.5 198.01V195.01C154.5 194.73 154.72 194.51 155 194.51C155.28 194.51 155.5 194.73 155.5 195.01V198.01C155.5 198.29 155.28 198.51 155 198.51ZM155 192.51C154.72 192.51 154.5 192.29 154.5 192.01V189.01C154.5 188.73 154.72 188.51 155 188.51C155.28 188.51 155.5 188.73 155.5 189.01V192.01C155.5 192.29 155.28 192.51 155 192.51ZM155 186.51C154.72 186.51 154.5 186.29 154.5 186.01V183.01C154.5 182.73 154.72 182.51 155 182.51C155.28 182.51 155.5 182.73 155.5 183.01V186.01C155.5 186.29 155.28 186.51 155 186.51ZM155 180.51C154.72 180.51 154.5 180.29 154.5 180.01V179.01C154.5 178.73 154.72 178.51 155 178.51C155.28 178.51 155.5 178.73 155.5 179.01V180.01C155.5 180.29 155.28 180.51 155 180.51Z" fill="#5D5E5E"/>
<path d="M69.0703 330.57C68.7903 330.57 68.5703 330.35 68.5703 330.07V327.07C68.5703 326.79 68.7903 326.57 69.0703 326.57C69.3503 326.57 69.5703 326.79 69.5703 327.07V330.07C69.5703 330.35 69.3503 330.57 69.0703 330.57ZM69.0703 324.57C68.7903 324.57 68.5703 324.35 68.5703 324.07V321.07C68.5703 320.79 68.7903 320.57 69.0703 320.57C69.3503 320.57 69.5703 320.79 69.5703 321.07V324.07C69.5703 324.35 69.3503 324.57 69.0703 324.57ZM69.0703 318.57C68.7903 318.57 68.5703 318.35 68.5703 318.07V315.07C68.5703 314.79 68.7903 314.57 69.0703 314.57C69.3503 314.57 69.5703 314.79 69.5703 315.07V318.07C69.5703 318.35 69.3503 318.57 69.0703 318.57ZM69.0703 312.57C68.7903 312.57 68.5703 312.35 68.5703 312.07V309.07C68.5703 308.79 68.7903 308.57 69.0703 308.57C69.3503 308.57 69.5703 308.79 69.5703 309.07V312.07C69.5703 312.35 69.3503 312.57 69.0703 312.57ZM69.0703 306.57C68.7903 306.57 68.5703 306.35 68.5703 306.07V303.07C68.5703 302.79 68.7903 302.57 69.0703 302.57C69.3503 302.57 69.5703 302.79 69.5703 303.07V306.07C69.5703 306.35 69.3503 306.57 69.0703 306.57ZM69.0703 300.57C68.7903 300.57 68.5703 300.35 68.5703 300.07V297.07C68.5703 296.79 68.7903 296.57 69.0703 296.57C69.3503 296.57 69.5703 296.79 69.5703 297.07V300.07C69.5703 300.35 69.3503 300.57 69.0703 300.57ZM69.0703 294.57C68.7903 294.57 68.5703 294.35 68.5703 294.07V291.07C68.5703 290.79 68.7903 290.57 69.0703 290.57C69.3503 290.57 69.5703 290.79 69.5703 291.07V294.07C69.5703 294.35 69.3503 294.57 69.0703 294.57ZM69.0703 288.57C68.7903 288.57 68.5703 288.35 68.5703 288.07V285.07C68.5703 284.79 68.7903 284.57 69.0703 284.57C69.3503 284.57 69.5703 284.79 69.5703 285.07V288.07C69.5703 288.35 69.3503 288.57 69.0703 288.57ZM69.0703 282.57C68.7903 282.57 68.5703 282.35 68.5703 282.07V279.07C68.5703 278.79 68.7903 278.57 69.0703 278.57C69.3503 278.57 69.5703 278.79 69.5703 279.07V282.07C69.5703 282.35 69.3503 282.57 69.0703 282.57ZM69.0703 276.57C68.7903 276.57 68.5703 276.35 68.5703 276.07V273.07C68.5703 272.79 68.7903 272.57 69.0703 272.57C69.3503 272.57 69.5703 272.79 69.5703 273.07V276.07C69.5703 276.35 69.3503 276.57 69.0703 276.57ZM69.0703 270.57C68.7903 270.57 68.5703 270.35 68.5703 270.07V267.07C68.5703 266.79 68.7903 266.57 69.0703 266.57C69.3503 266.57 69.5703 266.79 69.5703 267.07V270.07C69.5703 270.35 69.3503 270.57 69.0703 270.57Z" fill="#5D5E5E"/>
<path d="M71.0391 442.73C70.7591 442.73 70.5391 442.51 70.5391 442.23V439.23C70.5391 438.95 70.7591 438.73 71.0391 438.73C71.3191 438.73 71.5391 438.95 71.5391 439.23V442.23C71.5391 442.51 71.3191 442.73 71.0391 442.73ZM71.0391 436.73C70.7591 436.73 70.5391 436.51 70.5391 436.23V433.23C70.5391 432.95 70.7591 432.73 71.0391 432.73C71.3191 432.73 71.5391 432.95 71.5391 433.23V436.23C71.5391 436.51 71.3191 436.73 71.0391 436.73ZM71.0391 430.73C70.7591 430.73 70.5391 430.51 70.5391 430.23V427.23C70.5391 426.95 70.7591 426.73 71.0391 426.73C71.3191 426.73 71.5391 426.95 71.5391 427.23V430.23C71.5391 430.51 71.3191 430.73 71.0391 430.73ZM71.0391 424.73C70.7591 424.73 70.5391 424.51 70.5391 424.23V421.23C70.5391 420.95 70.7591 420.73 71.0391 420.73C71.3191 420.73 71.5391 420.95 71.5391 421.23V424.23C71.5391 424.51 71.3191 424.73 71.0391 424.73ZM71.0391 418.73C70.7591 418.73 70.5391 418.51 70.5391 418.23V415.23C70.5391 414.95 70.7591 414.73 71.0391 414.73C71.3191 414.73 71.5391 414.95 71.5391 415.23V418.23C71.5391 418.51 71.3191 418.73 71.0391 418.73ZM71.0391 412.73C70.7591 412.73 70.5391 412.51 70.5391 412.23V409.23C70.5391 408.95 70.7591 408.73 71.0391 408.73C71.3191 408.73 71.5391 408.95 71.5391 409.23V412.23C71.5391 412.51 71.3191 412.73 71.0391 412.73ZM71.0391 406.73C70.7591 406.73 70.5391 406.51 70.5391 406.23V403.23C70.5391 402.95 70.7591 402.73 71.0391 402.73C71.3191 402.73 71.5391 402.95 71.5391 403.23V406.23C71.5391 406.51 71.3191 406.73 71.0391 406.73ZM71.0391 400.73C70.7591 400.73 70.5391 400.51 70.5391 400.23V397.23C70.5391 396.95 70.7591 396.73 71.0391 396.73C71.3191 396.73 71.5391 396.95 71.5391 397.23V400.23C71.5391 400.51 71.3191 400.73 71.0391 400.73ZM71.0391 394.73C70.7591 394.73 70.5391 394.51 70.5391 394.23V391.23C70.5391 390.95 70.7591 390.73 71.0391 390.73C71.3191 390.73 71.5391 390.95 71.5391 391.23V394.23C71.5391 394.51 71.3191 394.73 71.0391 394.73ZM71.0391 388.73C70.7591 388.73 70.5391 388.51 70.5391 388.23V385.23C70.5391 384.95 70.7591 384.73 71.0391 384.73C71.3191 384.73 71.5391 384.95 71.5391 385.23V388.23C71.5391 388.51 71.3191 388.73 71.0391 388.73ZM71.0391 382.73C70.7591 382.73 70.5391 382.51 70.5391 382.23V379.23C70.5391 378.95 70.7591 378.73 71.0391 378.73C71.3191 378.73 71.5391 378.95 71.5391 379.23V382.23C71.5391 382.51 71.3191 382.73 71.0391 382.73Z" fill="#5D5E5E"/>
<path d="M71.0391 554.18C70.7591 554.18 70.5391 553.96 70.5391 553.68V550.68C70.5391 550.4 70.7591 550.18 71.0391 550.18C71.3191 550.18 71.5391 550.4 71.5391 550.68V553.68C71.5391 553.96 71.3191 554.18 71.0391 554.18ZM71.0391 548.18C70.7591 548.18 70.5391 547.96 70.5391 547.68V544.68C70.5391 544.4 70.7591 544.18 71.0391 544.18C71.3191 544.18 71.5391 544.4 71.5391 544.68V547.68C71.5391 547.96 71.3191 548.18 71.0391 548.18ZM71.0391 542.18C70.7591 542.18 70.5391 541.96 70.5391 541.68V538.68C70.5391 538.4 70.7591 538.18 71.0391 538.18C71.3191 538.18 71.5391 538.4 71.5391 538.68V541.68C71.5391 541.96 71.3191 542.18 71.0391 542.18ZM71.0391 536.18C70.7591 536.18 70.5391 535.96 70.5391 535.68V532.68C70.5391 532.4 70.7591 532.18 71.0391 532.18C71.3191 532.18 71.5391 532.4 71.5391 532.68V535.68C71.5391 535.96 71.3191 536.18 71.0391 536.18ZM71.0391 530.18C70.7591 530.18 70.5391 529.96 70.5391 529.68V526.68C70.5391 526.4 70.7591 526.18 71.0391 526.18C71.3191 526.18 71.5391 526.4 71.5391 526.68V529.68C71.5391 529.96 71.3191 530.18 71.0391 530.18ZM71.0391 524.18C70.7591 524.18 70.5391 523.96 70.5391 523.68V520.68C70.5391 520.4 70.7591 520.18 71.0391 520.18C71.3191 520.18 71.5391 520.4 71.5391 520.68V523.68C71.5391 523.96 71.3191 524.18 71.0391 524.18ZM71.0391 518.18C70.7591 518.18 70.5391 517.96 70.5391 517.68V514.68C70.5391 514.4 70.7591 514.18 71.0391 514.18C71.3191 514.18 71.5391 514.4 71.5391 514.68V517.68C71.5391 517.96 71.3191 518.18 71.0391 518.18ZM71.0391 512.18C70.7591 512.18 70.5391 511.96 70.5391 511.68V508.68C70.5391 508.4 70.7591 508.18 71.0391 508.18C71.3191 508.18 71.5391 508.4 71.5391 508.68V511.68C71.5391 511.96 71.3191 512.18 71.0391 512.18ZM71.0391 506.18C70.7591 506.18 70.5391 505.96 70.5391 505.68V502.68C70.5391 502.4 70.7591 502.18 71.0391 502.18C71.3191 502.18 71.5391 502.4 71.5391 502.68V505.68C71.5391 505.96 71.3191 506.18 71.0391 506.18ZM71.0391 500.18C70.7591 500.18 70.5391 499.96 70.5391 499.68V496.68C70.5391 496.4 70.7591 496.18 71.0391 496.18C71.3191 496.18 71.5391 496.4 71.5391 496.68V499.68C71.5391 499.96 71.3191 500.18 71.0391 500.18ZM71.0391 494.18C70.7591 494.18 70.5391 493.96 70.5391 493.68V490.68C70.5391 490.4 70.7591 490.18 71.0391 490.18C71.3191 490.18 71.5391 490.4 71.5391 490.68V493.68C71.5391 493.96 71.3191 494.18 71.0391 494.18Z" fill="#5D5E5E"/>
<path d="M159.89 355.64H158.23C157.95 355.64 157.73 355.42 157.73 355.14C157.73 354.86 157.95 354.64 158.23 354.64H159.39V353.8C159.39 353.52 159.61 353.3 159.89 353.3C160.17 353.3 160.39 353.52 160.39 353.8V355.14C160.39 355.42 160.17 355.64 159.89 355.64ZM155.23 355.64H152.23C151.95 355.64 151.73 355.42 151.73 355.14C151.73 354.86 151.95 354.64 152.23 354.64H155.23C155.51 354.64 155.73 354.86 155.73 355.14C155.73 355.42 155.51 355.64 155.23 355.64ZM149.23 355.64H146.23C145.95 355.64 145.73 355.42 145.73 355.14C145.73 354.86 145.95 354.64 146.23 354.64H149.23C149.51 354.64 149.73 354.86 149.73 355.14C149.73 355.42 149.51 355.64 149.23 355.64ZM159.89 351.3C159.61 351.3 159.39 351.08 159.39 350.8V347.8C159.39 347.52 159.61 347.3 159.89 347.3C160.17 347.3 160.39 347.52 160.39 347.8V350.8C160.39 351.08 160.17 351.3 159.89 351.3ZM159.89 345.3C159.61 345.3 159.39 345.08 159.39 344.8V341.8C159.39 341.52 159.61 341.3 159.89 341.3C160.17 341.3 160.39 341.52 160.39 341.8V344.8C160.39 345.08 160.17 345.3 159.89 345.3ZM159.89 339.3C159.61 339.3 159.39 339.08 159.39 338.8V335.8C159.39 335.52 159.61 335.3 159.89 335.3C160.17 335.3 160.39 335.52 160.39 335.8V338.8C160.39 339.08 160.17 339.3 159.89 339.3ZM159.89 333.3C159.61 333.3 159.39 333.08 159.39 332.8V329.8C159.39 329.52 159.61 329.3 159.89 329.3C160.17 329.3 160.39 329.52 160.39 329.8V332.8C160.39 333.08 160.17 333.3 159.89 333.3ZM174.96 328.57H173.17C172.89 328.57 172.67 328.35 172.67 328.07C172.67 327.79 172.89 327.57 173.17 327.57H174.96C175.24 327.57 175.46 327.79 175.46 328.07C175.46 328.35 175.24 328.57 174.96 328.57ZM170.17 328.57H167.17C166.89 328.57 166.67 328.35 166.67 328.07C166.67 327.79 166.89 327.57 167.17 327.57H170.17C170.45 327.57 170.67 327.79 170.67 328.07C170.67 328.35 170.45 328.57 170.17 328.57ZM164.17 328.57H161.17C160.89 328.57 160.67 328.35 160.67 328.07C160.67 327.79 160.89 327.57 161.17 327.57H164.17C164.45 327.57 164.67 327.79 164.67 328.07C164.67 328.35 164.45 328.57 164.17 328.57Z" fill="#5D5E5E"/>
<path d="M174.921 383.92H171.921C171.641 383.92 171.421 383.7 171.421 383.42C171.421 383.14 171.641 382.92 171.921 382.92H174.921C175.201 382.92 175.421 383.14 175.421 383.42C175.421 383.7 175.201 383.92 174.921 383.92ZM168.921 383.92H165.921C165.641 383.92 165.421 383.7 165.421 383.42C165.421 383.14 165.641 382.92 165.921 382.92H168.921C169.201 382.92 169.421 383.14 169.421 383.42C169.421 383.7 169.201 383.92 168.921 383.92ZM162.921 383.92H159.921C159.641 383.92 159.421 383.7 159.421 383.42C159.421 383.14 159.641 382.92 159.921 382.92H162.921C163.201 382.92 163.421 383.14 163.421 383.42C163.421 383.7 163.201 383.92 162.921 383.92ZM159.891 380.95C159.611 380.95 159.391 380.73 159.391 380.45V377.45C159.391 377.17 159.611 376.95 159.891 376.95C160.171 376.95 160.391 377.17 160.391 377.45V380.45C160.391 380.73 160.171 380.95 159.891 380.95ZM159.891 374.95C159.611 374.95 159.391 374.73 159.391 374.45V371.45C159.391 371.17 159.611 370.95 159.891 370.95C160.171 370.95 160.391 371.17 160.391 371.45V374.45C160.391 374.73 160.171 374.95 159.891 374.95ZM159.891 368.95C159.611 368.95 159.391 368.73 159.391 368.45V365.45C159.391 365.17 159.611 364.95 159.891 364.95C160.171 364.95 160.391 365.17 160.391 365.45V368.45C160.391 368.73 160.171 368.95 159.891 368.95ZM159.891 362.95C159.611 362.95 159.391 362.73 159.391 362.45V359.45C159.391 359.17 159.611 358.95 159.891 358.95C160.171 358.95 160.391 359.17 160.391 359.45V362.45C160.391 362.73 160.171 362.95 159.891 362.95ZM159.891 356.95C159.611 356.95 159.391 356.73 159.391 356.45V353.45C159.391 353.17 159.611 352.95 159.891 352.95C160.171 352.95 160.391 353.17 160.391 353.45V356.45C160.391 356.73 160.171 356.95 159.891 356.95Z" fill="#5D5E5E"/>
<path d="M159.89 466.52H158.23C157.95 466.52 157.73 466.3 157.73 466.02C157.73 465.74 157.95 465.52 158.23 465.52H159.39V464.68C159.39 464.4 159.61 464.18 159.89 464.18C160.17 464.18 160.39 464.4 160.39 464.68V466.02C160.39 466.3 160.17 466.52 159.89 466.52ZM155.23 466.52H152.23C151.95 466.52 151.73 466.3 151.73 466.02C151.73 465.74 151.95 465.52 152.23 465.52H155.23C155.51 465.52 155.73 465.74 155.73 466.02C155.73 466.3 155.51 466.52 155.23 466.52ZM149.23 466.52H146.23C145.95 466.52 145.73 466.3 145.73 466.02C145.73 465.74 145.95 465.52 146.23 465.52H149.23C149.51 465.52 149.73 465.74 149.73 466.02C149.73 466.3 149.51 466.52 149.23 466.52ZM159.89 462.18C159.61 462.18 159.39 461.96 159.39 461.68V458.68C159.39 458.4 159.61 458.18 159.89 458.18C160.17 458.18 160.39 458.4 160.39 458.68V461.68C160.39 461.96 160.17 462.18 159.89 462.18ZM159.89 456.18C159.61 456.18 159.39 455.96 159.39 455.68V452.68C159.39 452.4 159.61 452.18 159.89 452.18C160.17 452.18 160.39 452.4 160.39 452.68V455.68C160.39 455.96 160.17 456.18 159.89 456.18ZM159.89 450.18C159.61 450.18 159.39 449.96 159.39 449.68V446.68C159.39 446.4 159.61 446.18 159.89 446.18C160.17 446.18 160.39 446.4 160.39 446.68V449.68C160.39 449.96 160.17 450.18 159.89 450.18ZM159.89 444.18C159.61 444.18 159.39 443.96 159.39 443.68V440.68C159.39 440.4 159.61 440.18 159.89 440.18C160.17 440.18 160.39 440.4 160.39 440.68V443.68C160.39 443.96 160.17 444.18 159.89 444.18ZM174.96 439.45H173.17C172.89 439.45 172.67 439.23 172.67 438.95C172.67 438.67 172.89 438.45 173.17 438.45H174.96C175.24 438.45 175.46 438.67 175.46 438.95C175.46 439.23 175.24 439.45 174.96 439.45ZM170.17 439.45H167.17C166.89 439.45 166.67 439.23 166.67 438.95C166.67 438.67 166.89 438.45 167.17 438.45H170.17C170.45 438.45 170.67 438.67 170.67 438.95C170.67 439.23 170.45 439.45 170.17 439.45ZM164.17 439.45H161.17C160.89 439.45 160.67 439.23 160.67 438.95C160.67 438.67 160.89 438.45 161.17 438.45H164.17C164.45 438.45 164.67 438.67 164.67 438.95C164.67 439.23 164.45 439.45 164.17 439.45Z" fill="#5D5E5E"/>
<path d="M174.921 494.8H171.921C171.641 494.8 171.421 494.58 171.421 494.3C171.421 494.02 171.641 493.8 171.921 493.8H174.921C175.201 493.8 175.421 494.02 175.421 494.3C175.421 494.58 175.201 494.8 174.921 494.8ZM168.921 494.8H165.921C165.641 494.8 165.421 494.58 165.421 494.3C165.421 494.02 165.641 493.8 165.921 493.8H168.921C169.201 493.8 169.421 494.02 169.421 494.3C169.421 494.58 169.201 494.8 168.921 494.8ZM162.921 494.8H159.921C159.641 494.8 159.421 494.58 159.421 494.3C159.421 494.02 159.641 493.8 159.921 493.8H162.921C163.201 493.8 163.421 494.02 163.421 494.3C163.421 494.58 163.201 494.8 162.921 494.8ZM159.891 491.83C159.611 491.83 159.391 491.61 159.391 491.33V488.33C159.391 488.05 159.611 487.83 159.891 487.83C160.171 487.83 160.391 488.05 160.391 488.33V491.33C160.391 491.61 160.171 491.83 159.891 491.83ZM159.891 485.83C159.611 485.83 159.391 485.61 159.391 485.33V482.33C159.391 482.05 159.611 481.83 159.891 481.83C160.171 481.83 160.391 482.05 160.391 482.33V485.33C160.391 485.61 160.171 485.83 159.891 485.83ZM159.891 479.83C159.611 479.83 159.391 479.61 159.391 479.33V476.33C159.391 476.05 159.611 475.83 159.891 475.83C160.171 475.83 160.391 476.05 160.391 476.33V479.33C160.391 479.61 160.171 479.83 159.891 479.83ZM159.891 473.83C159.611 473.83 159.391 473.61 159.391 473.33V470.33C159.391 470.05 159.611 469.83 159.891 469.83C160.171 469.83 160.391 470.05 160.391 470.33V473.33C160.391 473.61 160.171 473.83 159.891 473.83ZM159.891 467.83C159.611 467.83 159.391 467.61 159.391 467.33V464.33C159.391 464.05 159.611 463.83 159.891 463.83C160.171 463.83 160.391 464.05 160.391 464.33V467.33C160.391 467.61 160.171 467.83 159.891 467.83Z" fill="#5D5E5E"/>
<path d="M174.49 578.74H171.49C171.21 578.74 170.99 578.52 170.99 578.24C170.99 577.96 171.21 577.74 171.49 577.74H174.49C174.77 577.74 174.99 577.96 174.99 578.24C174.99 578.52 174.77 578.74 174.49 578.74ZM168.49 578.74H165.49C165.21 578.74 164.99 578.52 164.99 578.24C164.99 577.96 165.21 577.74 165.49 577.74H168.49C168.77 577.74 168.99 577.96 168.99 578.24C168.99 578.52 168.77 578.74 168.49 578.74ZM162.49 578.74H159.49C159.21 578.74 158.99 578.52 158.99 578.24C158.99 577.96 159.21 577.74 159.49 577.74H162.49C162.77 577.74 162.99 577.96 162.99 578.24C162.99 578.52 162.77 578.74 162.49 578.74ZM156.49 578.74H153.49C153.21 578.74 152.99 578.52 152.99 578.24C152.99 577.96 153.21 577.74 153.49 577.74H156.49C156.77 577.74 156.99 577.96 156.99 578.24C156.99 578.52 156.77 578.74 156.49 578.74ZM150.49 578.74H147.49C147.21 578.74 146.99 578.52 146.99 578.24C146.99 577.96 147.21 577.74 147.49 577.74H150.49C150.77 577.74 150.99 577.96 150.99 578.24C150.99 578.52 150.77 578.74 150.49 578.74ZM144.49 578.74H141.49C141.21 578.74 140.99 578.52 140.99 578.24C140.99 577.96 141.21 577.74 141.49 577.74H144.49C144.77 577.74 144.99 577.96 144.99 578.24C144.99 578.52 144.77 578.74 144.49 578.74ZM138.49 578.74H135.49C135.21 578.74 134.99 578.52 134.99 578.24C134.99 577.96 135.21 577.74 135.49 577.74H138.49C138.77 577.74 138.99 577.96 138.99 578.24C138.99 578.52 138.77 578.74 138.49 578.74Z" fill="#5D5E5E"/>
<path d="M155 132.65C154.72 132.65 154.5 132.43 154.5 132.15V129.15C154.5 128.87 154.72 128.65 155 128.65C155.28 128.65 155.5 128.87 155.5 129.15V132.15C155.5 132.43 155.28 132.65 155 132.65ZM155 126.65C154.72 126.65 154.5 126.43 154.5 126.15V123.15C154.5 122.87 154.72 122.65 155 122.65C155.28 122.65 155.5 122.87 155.5 123.15V126.15C155.5 126.43 155.28 126.65 155 126.65ZM155 120.65C154.72 120.65 154.5 120.43 154.5 120.15V117.15C154.5 116.87 154.72 116.65 155 116.65C155.28 116.65 155.5 116.87 155.5 117.15V120.15C155.5 120.43 155.28 120.65 155 120.65ZM155 114.65C154.72 114.65 154.5 114.43 154.5 114.15V112.93C154.5 112.65 154.72 112.43 155 112.43C155.28 112.43 155.5 112.65 155.5 112.93V114.15C155.5 114.43 155.28 114.65 155 114.65Z" fill="#5D5E5E"/>
<path d="M155 66.5799C154.72 66.5799 154.5 66.3599 154.5 66.0799V63.0799C154.5 62.7999 154.72 62.5799 155 62.5799C155.28 62.5799 155.5 62.7999 155.5 63.0799V66.0799C155.5 66.3599 155.28 66.5799 155 66.5799ZM155 60.5799C154.72 60.5799 154.5 60.3599 154.5 60.0799V57.0799C154.5 56.7999 154.72 56.5799 155 56.5799C155.28 56.5799 155.5 56.7999 155.5 57.0799V60.0799C155.5 60.3599 155.28 60.5799 155 60.5799ZM155 54.5799C154.72 54.5799 154.5 54.3599 154.5 54.0799V51.0799C154.5 50.7999 154.72 50.5799 155 50.5799C155.28 50.5799 155.5 50.7999 155.5 51.0799V54.0799C155.5 54.3599 155.28 54.5799 155 54.5799ZM155 48.5799C154.72 48.5799 154.5 48.3599 154.5 48.0799V46.8599C154.5 46.5799 154.72 46.3599 155 46.3599C155.28 46.3599 155.5 46.5799 155.5 46.8599V48.0799C155.5 48.3599 155.28 48.5799 155 48.5799Z" fill="#5D5E5E"/>
</svg>
