<svg width="1036" height="157" viewBox="0 0 1036 157" fill="none" xmlns="http://www.w3.org/2000/svg">
<rect x="2.5" y="20.5" width="1031" height="134" rx="67" fill="white" stroke="#0174F5" stroke-width="5"/>
<path d="M220.73 74.123H217.625V100.607H220.73V74.123ZM197.674 92.6973L199.52 95.0117C203.255 92.8438 205.745 90.1924 207.283 87.1602H212.029V99.3477H215.105V74.7676H212.029V84.5527H208.353C209.07 82.3115 209.393 79.9092 209.393 77.3457H199.021V79.9824H206.17C205.672 85.3145 203.152 89.46 197.674 92.6973ZM245.867 74.1523H242.586V89.1523H245.867V74.1523ZM224.275 81.7402C224.275 85.3877 227.322 88.0098 231.424 88.0098C235.511 88.0098 238.558 85.3877 238.543 81.7402C238.558 78.0049 235.511 75.4268 231.424 75.4121C227.322 75.4268 224.275 78.0049 224.275 81.7402ZM227.469 81.7402C227.454 79.543 229.109 78.166 231.424 78.166C233.694 78.166 235.35 79.543 235.35 81.7402C235.35 83.8789 233.694 85.2705 231.424 85.2559C229.109 85.2705 227.454 83.8789 227.469 81.7402ZM228.289 100.285H245.867V90.4414H228.289V100.285ZM231.512 97.6484V93.0195H242.674V97.6484H231.512ZM271.795 74.1523H268.514V93.2832H271.795V74.1523ZM250.203 82.502C250.203 86.4131 253.323 89.1523 257.352 89.1523C261.38 89.1523 264.485 86.4131 264.471 82.502C264.485 78.6494 261.38 75.8955 257.352 75.8809C253.323 75.8955 250.203 78.6494 250.203 82.502ZM253.396 82.502C253.382 80.2168 255.081 78.7227 257.352 78.7227C259.563 78.7227 261.277 80.2168 261.277 82.502C261.277 84.8457 259.563 86.3105 257.352 86.3105C255.081 86.3105 253.382 84.8457 253.396 82.502ZM254.275 100.08H272.527V97.4434H257.557V91.3496H254.275V100.08ZM289.344 77.7559V75.793H285.887V77.7559C285.872 81.8281 281.858 85.9297 276.395 86.9258L277.83 89.6504C282.254 88.7129 285.887 86.0029 287.63 82.4727C289.358 86.0322 292.991 88.7275 297.43 89.6504L298.895 86.9258C293.343 85.959 289.344 81.8428 289.344 77.7559ZM275.662 97.2383H299.861V94.543H275.662V97.2383ZM309.5 75.7637C305.34 75.7637 302.293 78.3857 302.322 82.1504C302.293 85.417 304.593 87.8193 307.918 88.4053V92.3896C305.545 92.4482 303.26 92.4629 301.268 92.4629L301.736 95.1289C306.277 95.1875 312.327 95.1582 317.879 94.1621L317.645 91.7305C315.579 92.0088 313.382 92.1699 311.17 92.2871V88.376C314.393 87.7754 316.678 85.3877 316.707 82.1504C316.678 78.3857 313.572 75.7637 309.5 75.7637ZM305.486 82.1504C305.472 79.9238 307.186 78.5469 309.5 78.5176C311.771 78.5469 313.47 79.9238 313.484 82.1504C313.47 84.3623 311.771 85.7832 309.5 85.7539C307.186 85.7832 305.472 84.3623 305.486 82.1504ZM319.168 100.607H322.42V87.4531H326.258V84.6992H322.42V74.123H319.168V100.607ZM355.525 74.123H352.273V90.0898H355.525V83.5566H359.217V80.832H355.525V74.123ZM334.666 79.2793H350.369V76.6719H344.158V73.9473H340.906V76.6719H334.666V79.2793ZM336.014 84.9922C336.014 87.8486 338.65 89.7383 342.518 89.7383C346.341 89.7383 348.978 87.8486 348.992 84.9922C348.978 82.165 346.355 80.2461 342.518 80.2461C338.65 80.2461 336.014 82.165 336.014 84.9922ZM338.416 100.285H355.525V91.3496H338.416V100.285ZM339.178 84.9922C339.163 83.5566 340.511 82.707 342.518 82.707C344.524 82.707 345.887 83.5566 345.887 84.9922C345.887 86.4717 344.524 87.3066 342.518 87.3066C340.511 87.3066 339.163 86.4717 339.178 84.9922ZM341.639 97.6484V93.9277H352.303V97.6484H341.639ZM367.098 77.2285H361.062V79.8652H364.271C364.08 84.9189 363.216 89.2256 360.301 93.3418L362.85 94.7188C366.38 89.5039 367.068 83.4834 367.098 77.2285ZM366.277 94.7773L368.768 96.1836C370.716 93.2979 371.785 90.1045 372.356 86.8379H375.389V99.3477H378.465V74.7676H375.389V84.2012H372.708C372.957 81.8574 373.001 79.499 373.016 77.2285H367.889V79.8652H370.203C370.086 85.1094 369.456 90.2217 366.277 94.7773ZM380.457 100.607H383.592V74.123H380.457V100.607ZM407.381 74.0645H404.129V88.5078H407.381V82.6777H411.102V80.041H407.381V74.0645ZM386.521 78.752H402.225V76.2617H396.014V73.918H392.762V76.2617H386.521V78.752ZM387.869 83.9082C387.869 86.6182 390.462 88.2441 394.373 88.2441C398.299 88.2441 400.833 86.6182 400.848 83.9082C400.833 81.2715 398.299 79.5869 394.373 79.5723C390.462 79.5869 387.869 81.2715 387.869 83.9082ZM390.066 92.0527H404.129V93.8105H390.096V100.373H408.201V97.9414H393.318V96.0664H407.381V89.6797H390.066V92.0527ZM391.033 83.9082C391.019 82.6484 392.322 81.9014 394.373 81.916C396.424 81.9014 397.742 82.6484 397.742 83.9082C397.742 85.2119 396.424 85.8857 394.373 85.9004C392.322 85.8857 391.019 85.2119 391.033 83.9082ZM440.955 81.0078H425.926V74.5918H422.674V83.6445H440.955V81.0078ZM419.539 88.8301H443.709V86.1934H419.539V88.8301ZM422.352 95.627C422.352 98.7324 425.823 100.49 431.58 100.49C437.293 100.49 440.735 98.7324 440.75 95.627C440.735 92.5068 437.293 90.749 431.58 90.7344C425.823 90.749 422.352 92.5068 422.352 95.627ZM425.662 95.627C425.647 94.0596 427.728 93.2979 431.58 93.2832C435.374 93.2979 437.469 94.0596 437.498 95.627C437.469 97.1504 435.374 97.9854 431.58 98C427.728 97.9854 425.647 97.1504 425.662 95.627ZM458.123 75.7051H446.492V78.2832H454.871V81.2422H446.551V89.5332H448.484C453.685 89.5332 456.424 89.46 459.588 88.918L459.266 86.2812C456.453 86.8086 454.036 86.9258 449.773 86.9258V83.6738H458.123V75.7051ZM449.539 94.3086H464.393V100.607H467.645V91.7012H449.539V94.3086ZM459.705 86.0762H464.393V90.4414H467.645V74.1523H464.393V77.9023H459.705V80.5098H464.393V83.4688H459.705V86.0762ZM480.799 91.3496V90.2656H477.635V91.3496C477.62 93.9277 475.965 96.623 472.537 97.8242L474.148 100.197C476.595 99.3184 478.279 97.6631 479.231 95.627C480.066 97.7217 481.648 99.5088 484.168 100.432C486.57 99.4648 488.123 97.6191 488.987 95.5244C489.91 97.6484 491.609 99.333 494.188 100.197L495.77 97.8242C492.298 96.7256 490.657 94.1182 490.672 91.3496V90.2656H487.479V91.3496C487.464 93.3564 486.395 95.7588 484.08 97.3262C481.81 95.8613 480.799 93.5615 480.799 91.3496ZM471.863 81.8574C471.863 85.5342 474.91 88.1416 479.012 88.127C483.099 88.1416 486.146 85.5342 486.131 81.8574C486.146 78.1367 483.099 75.5586 479.012 75.5586C474.91 75.5586 471.863 78.1367 471.863 81.8574ZM475.057 81.8574C475.042 79.6895 476.697 78.2979 479.012 78.3125C481.282 78.2979 482.938 79.6895 482.938 81.8574C482.938 84.0254 481.282 85.417 479.012 85.4316C476.697 85.417 475.042 84.0254 475.057 81.8574ZM490.174 89.1523H493.455V74.1523H490.174V89.1523ZM518.768 81.623H503.65V75.0898H500.428V84.2012H518.768V81.623ZM497.293 89.8555H521.492V87.2773H497.293V89.8555ZM500.193 99.9922H518.943V97.3555H503.445V92.1992H500.193V99.9922ZM552.43 74.1523H549.148V93.2832H552.43V74.1523ZM530.838 82.502C530.838 86.4131 533.958 89.1523 537.986 89.1523C542.015 89.1523 545.12 86.4131 545.105 82.502C545.12 78.6494 542.015 75.8955 537.986 75.8809C533.958 75.8955 530.838 78.6494 530.838 82.502ZM534.031 82.502C534.017 80.2168 535.716 78.7227 537.986 78.7227C540.198 78.7227 541.912 80.2168 541.912 82.502C541.912 84.8457 540.198 86.3105 537.986 86.3105C535.716 86.3105 534.017 84.8457 534.031 82.502ZM534.91 100.08H553.162V97.4434H538.191V91.3496H534.91V100.08ZM579.266 74.123H576.16V84.4941H573.436V74.5918H570.359V99.3184H573.436V87.1895H576.16V100.607H579.266V74.123ZM555.857 92.9023L557.85 95.3926C560.472 93.8398 562.127 91.1885 563.021 87.8926C563.958 90.7637 565.613 93.0928 568.133 94.4551L570.037 91.9648C566.111 89.9434 564.529 85.5928 564.529 80.8906V79.6309H568.865V77.0234H556.648V79.6309H561.365V80.8906C561.365 86.0615 559.783 90.6758 555.857 92.9023ZM606.395 86.1348H582.195V88.5957H606.395V86.1348ZM585.008 92.4629H600.242V94.1035H585.037V100.314H604.256V98.0586H588.289V96.2129H603.465V90.1777H585.008V92.4629ZM585.184 76.9648H600.154V78.5762H585.271V84.6406H603.875V82.4141H588.494V80.6855H603.406V74.709H585.184V76.9648ZM637.391 74.123H634.109V100.607H637.391V74.123ZM615.447 93.3125L617.146 95.9199C626.419 91.5107 629.48 84.8164 629.48 76.9355H616.795V79.5137H626.17C625.584 85.5342 622.391 90.0166 615.447 93.3125ZM661.941 74.123H658.689V100.637H661.941V86.8379H666.014V84.1719H661.941V74.123ZM642.283 94.1621H644.48C649.256 94.1621 652.815 94.0449 656.932 93.3418L656.551 90.5879C652.918 91.2178 649.651 91.4229 645.535 91.4375V79.2793H654.676V76.6426H642.283V94.1621ZM689.188 74.123H685.965V100.637H689.188V74.123ZM668.562 79.0742H677.732V83.791H668.592V94.3672H670.906C675.667 94.3818 679.622 94.2061 684.119 93.4297L683.826 90.7637C679.695 91.4521 676.106 91.6719 671.932 91.7012V86.3691H681.043V76.4375H668.562V79.0742ZM714.676 76.5547H695.574V79.1621H711.395C711.38 82.3408 711.38 86.1055 710.34 91.2617L713.621 91.6133C714.646 86.0762 714.646 82.3994 714.676 79.1035V76.5547ZM693.055 97.1797H717.195V94.5137H705.184V85.3145H701.961V94.5137H693.055V97.1797ZM735.506 91.3496V90.2656H732.342V91.3496C732.327 93.9277 730.672 96.623 727.244 97.8242L728.855 100.197C731.302 99.3184 732.986 97.6631 733.938 95.627C734.773 97.7217 736.355 99.5088 738.875 100.432C741.277 99.4648 742.83 97.6191 743.694 95.5244C744.617 97.6484 746.316 99.333 748.895 100.197L750.477 97.8242C747.005 96.7256 745.364 94.1182 745.379 91.3496V90.2656H742.186V91.3496C742.171 93.3564 741.102 95.7588 738.787 97.3262C736.517 95.8613 735.506 93.5615 735.506 91.3496ZM726.57 81.8574C726.57 85.5342 729.617 88.1416 733.719 88.127C737.806 88.1416 740.853 85.5342 740.838 81.8574C740.853 78.1367 737.806 75.5586 733.719 75.5586C729.617 75.5586 726.57 78.1367 726.57 81.8574ZM729.764 81.8574C729.749 79.6895 731.404 78.2979 733.719 78.3125C735.989 78.2979 737.645 79.6895 737.645 81.8574C737.645 84.0254 735.989 85.417 733.719 85.4316C731.404 85.417 729.749 84.0254 729.764 81.8574ZM744.881 89.1523H748.162V74.1523H744.881V89.1523ZM758.152 90.002H754.93V100.285H773.064V90.002H769.812V92.5215H758.152V90.002ZM752.029 88.5078H776.17V85.8418H752.029V88.5078ZM753.26 81.8867L754.461 84.4648C758.87 83.8643 762.386 81.9014 764.1 79.2061C765.799 81.8867 769.3 83.8643 773.738 84.4648L774.881 81.8867C769.402 81.2422 765.77 78.2686 765.77 75.4121V74.416H762.43V75.4121C762.415 78.3564 758.797 81.1982 753.26 81.8867ZM758.152 97.707V95.0117H769.812V97.707H758.152ZM800.047 74.123H796.824V100.607H800.047V74.123ZM779.48 93.957H781.766C785.882 93.9717 790.203 93.6641 794.861 92.6973L794.451 89.9727C790.364 90.793 786.409 91.1152 782.703 91.1738V76.7012H779.48V93.957ZM824.627 74.123H821.375V100.637H824.627V86.8379H828.699V84.1719H824.627V74.123ZM804.969 94.1621H807.166C811.941 94.1621 815.501 94.0449 819.617 93.3418L819.236 90.5879C815.604 91.2178 812.337 91.4229 808.221 91.4375V79.2793H817.361V76.6426H804.969V94.1621ZM833.035 98.2344C834.251 98.2344 835.291 97.209 835.291 95.9492C835.291 94.7188 834.251 93.708 833.035 93.6934C831.775 93.708 830.735 94.7188 830.75 95.9492C830.735 97.209 831.775 98.2344 833.035 98.2344Z" fill="#242424"/>
<g filter="url(#filter0_d_7143_6231)">
<path d="M521 31V16C521 8.4 525.9 2.9 536 2.5V9C531 9.3 528.5 11.6 528.5 16H536V31H521ZM500 31V16C500 8.4 505 2.9 515.1 2.5V9C510.1 9.3 507.5 11.6 507.5 16H515.1V31H500Z" fill="white"/>
</g>
<g filter="url(#filter1_d_7143_6231)">
<path fill-rule="evenodd" clip-rule="evenodd" d="M520 31.9999V15.9999C520 11.9781 521.302 8.42309 524.022 5.82659C526.733 3.23847 530.741 1.70735 535.96 1.50064L537 1.45947V9.94166L536.06 9.99806C533.684 10.1406 532.071 10.7505 531.056 11.6946C530.238 12.4554 529.711 13.5242 529.551 14.9999H537V31.9999H520ZM528.5 15.9999C528.5 15.6535 528.515 15.3202 528.546 14.9999C528.909 11.2502 531.394 9.27625 536 8.99986V2.49986C535.661 2.51329 535.327 2.53248 535 2.5573C525.576 3.27165 521 8.6551 521 15.9999V30.9999H536V15.9999H528.5ZM499 31.9999V15.9999C499 11.9723 500.331 8.41732 503.076 5.82315C505.81 3.23815 509.841 1.70734 515.06 1.50064L516.1 1.45947V9.94166L515.16 9.99806C512.784 10.1406 511.141 10.751 510.099 11.7013C509.261 12.4648 508.719 13.5328 508.554 14.9999H516.1V31.9999H499ZM507.5 15.9999C507.5 15.6535 507.516 15.3202 507.548 14.9999C507.924 11.2502 510.494 9.27625 515.1 8.99986V2.49986C514.761 2.51329 514.428 2.53247 514.1 2.55728C504.67 3.27152 500 8.65501 500 15.9999V30.9999H515.1V15.9999H507.5Z" fill="#0174F5"/>
</g>
<defs>
<filter id="filter0_d_7143_6231" x="495" y="1.5" width="46" height="38.5" filterUnits="userSpaceOnUse" color-interpolation-filters="sRGB">
<feFlood flood-opacity="0" result="BackgroundImageFix"/>
<feColorMatrix in="SourceAlpha" type="matrix" values="0 0 0 0 0 0 0 0 0 0 0 0 0 0 0 0 0 0 127 0" result="hardAlpha"/>
<feOffset dy="4"/>
<feGaussianBlur stdDeviation="2.5"/>
<feComposite in2="hardAlpha" operator="out"/>
<feColorMatrix type="matrix" values="0 0 0 0 0 0 0 0 0 0 0 0 0 0 0 0 0 0 0.15 0"/>
<feBlend mode="normal" in2="BackgroundImageFix" result="effect1_dropShadow_7143_6231"/>
<feBlend mode="normal" in="SourceGraphic" in2="effect1_dropShadow_7143_6231" result="shape"/>
</filter>
<filter id="filter1_d_7143_6231" x="494" y="0.459473" width="48" height="40.5405" filterUnits="userSpaceOnUse" color-interpolation-filters="sRGB">
<feFlood flood-opacity="0" result="BackgroundImageFix"/>
<feColorMatrix in="SourceAlpha" type="matrix" values="0 0 0 0 0 0 0 0 0 0 0 0 0 0 0 0 0 0 127 0" result="hardAlpha"/>
<feOffset dy="4"/>
<feGaussianBlur stdDeviation="2.5"/>
<feComposite in2="hardAlpha" operator="out"/>
<feColorMatrix type="matrix" values="0 0 0 0 0 0 0 0 0 0 0 0 0 0 0 0 0 0 0.15 0"/>
<feBlend mode="normal" in2="BackgroundImageFix" result="effect1_dropShadow_7143_6231"/>
<feBlend mode="normal" in="SourceGraphic" in2="effect1_dropShadow_7143_6231" result="shape"/>
</filter>
</defs>
</svg>
