<svg width="60" height="55" viewBox="0 0 60 55" fill="none" xmlns="http://www.w3.org/2000/svg">
<path d="M42.9339 38.6718C46.5637 37.4227 50.0995 36.2185 53.6289 34.9822C55.2815 34.4015 56.8466 34.4762 58.2537 35.5587C60.9846 37.6618 60.4252 41.8553 57.1861 43.3243C52.5208 45.4403 47.8213 47.4815 43.1325 49.5526C40.4507 50.7355 37.7817 51.9504 35.0786 53.0841C30.4688 55.0186 25.9529 54.7432 21.6036 52.2899C19.6008 51.1604 17.6493 49.9412 15.6849 48.7412C15.0129 48.3441 14.2962 48.0281 13.5498 47.7996C12.4459 47.443 11.4722 47.142 10.71 48.5192C10.2829 49.2857 9.34989 49.6017 8.39547 49.5867C6.04821 49.5739 3.69953 49.5739 1.34943 49.5867C0.392872 49.5867 0 49.1127 0 48.2117C0 41.3151 0 34.4185 0 27.522C0 26.5376 0.506033 26.1021 1.45405 26.1021C3.69383 26.1021 5.9379 26.085 8.17342 26.1021C9.45451 26.1192 10.5221 26.6679 11.1626 27.8102C11.4552 28.3291 11.769 28.4678 12.3284 28.4614C14.6771 28.4315 17.0258 28.4614 19.3745 28.4443C21.0463 28.4186 22.6937 28.8482 24.1402 29.687C25.9145 30.714 27.7187 31.6941 29.493 32.7232C29.9788 33.0142 30.5368 33.1623 31.1029 33.1503C33.1634 33.1268 35.2259 33.1503 37.2949 33.1503C40.9973 33.1631 42.81 34.8883 42.9339 38.6718ZM11.7605 37.8732C11.7605 39.9721 11.7712 42.0688 11.7605 44.1677C11.7605 44.7378 11.7455 45.0623 12.5377 45.167C14.2211 45.4033 15.8325 46.0053 17.2585 46.9306C19.1375 48.1284 21.0442 49.2899 22.9957 50.3682C26.5316 52.3219 30.2553 52.5866 33.9555 51.0088C41.3603 47.8338 48.7052 44.52 56.0694 41.2511C57.4487 40.6383 57.959 39.4853 57.4466 38.2618C56.9833 37.143 55.8943 36.7437 54.5043 37.2156C51.2589 38.3152 47.9771 39.3209 44.7893 40.5678C41.0806 42.0176 37.3419 42.9165 33.315 42.6005C31.0175 42.419 28.6945 42.5578 26.3842 42.5706C25.8205 42.5706 25.402 42.3742 25.2163 41.8404C25.1253 41.6249 25.1052 41.3861 25.1589 41.1585C25.2127 40.9308 25.3374 40.7262 25.5152 40.5742C25.9209 40.207 26.4163 40.2134 26.9202 40.2155C30.6211 40.2155 34.3221 40.2155 38.023 40.2155C39.4877 40.2155 40.5446 39.244 40.5638 37.9288C40.5831 36.6135 39.5283 35.5993 38.0935 35.531C37.5614 35.484 37.0263 35.484 36.4942 35.531C31.7798 36.1203 27.5265 34.9993 23.7067 32.1809C22.8313 31.5403 21.8278 31.0236 20.7026 30.9297C17.8628 30.6927 15.0166 30.8848 12.1747 30.8272C11.5491 30.8144 11.769 31.2948 11.7669 31.5894C11.7434 33.6776 11.7519 35.7765 11.7519 37.8732H11.7605ZM2.36577 37.7665C2.36577 40.6767 2.38285 43.5891 2.35082 46.4993C2.35082 47.0993 2.50882 47.2786 3.11307 47.2615C4.67388 47.2188 6.23682 47.2615 7.81043 47.2466C9.09153 47.2466 9.41393 46.9071 9.41607 45.5876C9.41607 40.4418 9.41607 35.2954 9.41607 30.1482C9.41607 28.8799 9.02321 28.4806 7.78481 28.4721C6.25817 28.4593 4.72939 28.5169 3.20488 28.4486C2.44904 28.4145 2.35082 28.7134 2.36577 29.3539C2.37858 32.1574 2.36149 34.9737 2.36149 37.7665H2.36577Z" fill="white"/>
<path d="M34.7305 4.8315C35.1234 4.28063 35.4308 3.80875 35.7789 3.36677C37.8799 0.706355 40.6556 -0.438087 43.9587 0.183246C47.5885 0.866498 49.824 3.25147 50.7592 6.74674C51.8929 10.9829 50.3812 14.5508 47.582 17.6745C43.9864 21.6843 39.7204 24.9661 35.6935 28.5083C35.1639 28.9738 34.6067 28.9567 34.0729 28.4848C30.0758 24.964 25.782 21.7783 22.1458 17.8539C21.7077 17.3853 21.3038 16.8858 20.9373 16.3593C20.5573 15.8062 20.6982 15.2639 21.1957 14.8497C21.6932 14.4355 22.2441 14.4718 22.7287 14.9202C22.901 15.1001 23.0628 15.2897 23.2134 15.4881C26.5592 19.4019 30.7271 22.4124 34.5575 25.7967C34.833 26.0422 35.0059 25.9952 35.2579 25.7732C38.9453 22.4957 42.9124 19.5193 46.1301 15.7379C47.913 13.6412 48.9955 11.3224 48.7094 8.45273C48.4425 5.79018 46.649 3.40094 44.1167 2.64082C41.5844 1.8807 39.2272 2.72409 37.4763 5.01512C36.8082 5.89103 36.2927 6.8735 35.9518 7.92108C35.7554 8.52106 35.4266 8.96731 34.7881 8.98866C34.0793 9.01428 33.7419 8.51253 33.5369 7.88692C32.8622 5.83289 31.7285 4.11621 29.7855 3.06144C26.7471 1.41096 22.9529 2.82445 21.4327 6.15317C21.3003 6.43928 21.2192 6.75102 21.1146 7.0478C20.8391 7.7823 20.3203 8.16662 19.5452 7.93389C18.6911 7.67767 18.6484 6.95812 18.8684 6.277C19.4342 4.39097 20.6084 2.74529 22.2078 1.59672C26.1429 -1.19821 31.1947 -0.243781 34.0878 3.83225C34.2907 4.12477 34.4828 4.44077 34.7305 4.8315Z" fill="white"/>
<path d="M20.9361 11.8262C20.9361 12.2234 20.6201 12.6397 19.8792 12.6803C19.0785 12.7294 18.6536 12.2532 18.6259 11.5721C18.6145 11.412 18.6376 11.2513 18.6936 11.1008C18.7497 10.9504 18.8373 10.8137 18.9506 10.7C19.0639 10.5863 19.2003 10.4982 19.3505 10.4416C19.5008 10.3851 19.6614 10.3614 19.8216 10.3722C20.4408 10.3914 20.9404 10.7714 20.9361 11.8262Z" fill="white"/>
<path d="M5.79012 33.1672C5.13249 33.0946 4.72254 32.7102 4.72254 31.9992C4.70961 31.8461 4.72989 31.692 4.78199 31.5474C4.83409 31.4028 4.91679 31.2712 5.02444 31.1616C5.13208 31.0519 5.26213 30.9668 5.4057 30.912C5.54927 30.8572 5.70297 30.834 5.85631 30.8441C6.59294 30.8441 7.07122 31.3138 7.03279 32.0654C6.99649 32.7465 6.56518 33.1522 5.79012 33.1672Z" fill="white"/>
</svg>
