<svg width="60" height="38" viewBox="0 0 60 38" fill="none" xmlns="http://www.w3.org/2000/svg">
<path d="M52.2153 1.74959C50.8329 2.30083 49.4633 2.87344 48.0724 3.38409C47.5425 3.57852 47.3652 3.7238 47.613 4.33914C49.4861 8.99693 51.3257 13.6683 53.1319 18.3531C53.3647 18.9578 53.6083 18.9684 54.1147 18.7526C55.2535 18.2676 56.3987 17.789 57.5653 17.3809C58.1443 17.1673 58.2191 16.9387 57.9926 16.3981C57.3516 14.864 56.7876 13.3 56.1445 11.766C55.8752 11.125 55.9308 10.6272 56.591 10.3665C57.2512 10.1058 57.5845 10.5673 57.7939 11.0951C58.484 12.8364 59.1742 14.5756 59.8258 16.3319C60.2531 17.4536 59.8878 18.3146 58.8003 18.7697C57.2705 19.4107 55.7107 19.9876 54.1702 20.6072C53.7173 20.7888 53.1831 20.9085 52.8349 20.6435C52.0443 20.0431 51.4888 20.4598 50.8863 20.8892C50.6879 21.0408 50.4778 21.1765 50.2581 21.2952C49.2432 21.7994 48.6514 22.3336 48.8608 23.7437C49.1514 25.6902 47.3652 27.3482 45.3781 27.3183C44.7991 27.3183 44.5427 27.3695 44.3654 28.0148C43.9616 29.4933 42.6882 30.4185 41.1327 30.5039C40.6883 30.5274 40.4405 30.5039 40.2781 31.1043C39.7076 33.196 38.3551 34.0293 36.1181 33.7751C35.6502 33.7216 35.5412 33.9375 35.4771 34.2579C35.0306 36.4928 31.9368 37.732 29.8493 35.9672C28.984 35.2344 28.5482 35.3113 27.7832 36.1552C26.059 38.0547 23.1297 37.2449 22.4418 34.7515C22.3242 34.3242 22.1982 34.1874 21.7602 34.1511C20.2517 34.0186 19.2539 33.1704 18.8694 31.7325C18.7326 31.2261 18.5296 31.1919 18.1087 31.13C16.7477 30.9248 15.7435 30.1963 15.3717 28.8053C15.2393 28.3096 14.9829 28.2007 14.4979 28.1109C12.278 27.6986 11.2246 25.9038 11.934 23.7437C12.0921 23.2609 11.9981 23.0472 11.6071 22.8079C10.4597 22.1028 9.32731 21.37 8.1885 20.6542C8.04321 20.5623 7.81673 20.4021 7.727 20.4534C6.28479 21.2589 5.13958 20.2397 3.9089 19.838C3.03716 19.5517 2.19962 19.1757 1.34498 18.8189C0.11216 18.2975 -0.278838 17.4878 0.195487 16.2721C2.14406 11.2667 4.10831 6.26707 6.08823 1.27313C6.54973 0.110819 7.42574 -0.256679 8.58377 0.174913C10.1072 0.743249 11.6156 1.34791 13.124 1.9547C13.8783 2.25596 14.3633 2.79011 14.3547 3.64475C14.3322 3.80035 14.3676 3.95881 14.4543 4.09C14.5409 4.22118 14.6728 4.31594 14.8248 4.35624C15.8781 4.80065 16.9165 5.15747 18.1002 5.13396C20.553 5.08482 23.0144 5.13397 25.3838 5.87109C25.8582 6.01638 26.0526 5.74503 26.2727 5.49719C27.6166 3.98448 29.2639 3.42469 31.2488 3.83919C32.1141 4.0208 32.9901 4.15112 33.8619 4.28787C34.4772 4.38188 34.7293 4.7451 34.6396 5.33053C34.5499 5.91596 34.1268 6.06552 33.6119 5.99714C32.5201 5.85399 31.4304 5.68947 30.3429 5.52709C29.9033 5.45045 29.4516 5.48498 29.0288 5.62753C28.606 5.77008 28.2255 6.01613 27.9221 6.34327C25.5112 8.81457 22.8634 11.0431 20.0167 12.9966C19.2005 13.5479 19.2262 13.8299 20.0424 14.3961C21.1448 15.1589 22.3157 15.0756 23.4951 14.6397C24.8433 14.1419 25.9864 13.3086 27.0654 12.3749C28.4093 11.2105 29.202 11.2404 30.4839 12.439C32.8876 14.6931 35.6758 15.8575 39.0303 15.3854C39.3258 15.3389 39.6278 15.3558 39.9162 15.435C40.2046 15.5142 40.4729 15.6539 40.7033 15.8447C42.7694 17.4087 44.8739 18.9257 46.9336 20.4982C47.4079 20.8615 47.7305 20.8786 48.2155 20.5282C49.1898 19.8231 50.6897 19.3915 51.085 18.4663C51.4803 17.5412 50.4248 16.2806 49.9996 15.1717C48.9099 12.3343 47.7669 9.51612 46.6857 6.67658C46.4293 6.00355 46.2007 5.72579 45.4422 6.11252C43.0279 7.33465 40.5323 7.34748 37.9706 6.7065C37.3573 6.55053 36.9258 6.30909 37.0304 5.67879C37.1458 4.9844 37.7142 4.7921 38.3423 4.9673C40.6178 5.60828 42.8164 5.47582 44.9658 4.43529C45.3589 4.243 45.7093 4.17249 45.6773 3.58065C45.6324 2.77729 46.1537 2.26665 46.8631 1.98034C48.4036 1.35859 49.9441 0.738976 51.5016 0.162094C52.5934 -0.239586 53.4588 0.147135 53.9139 1.25389C54.6702 3.08069 55.3838 4.92671 56.0975 6.77273C56.3111 7.2962 56.388 7.8624 55.7342 8.13588C55.0484 8.42219 54.683 8.00982 54.4523 7.41157C53.7109 5.52282 52.9673 3.64689 52.2153 1.74959ZM24.3027 7.33466C22.3272 6.99525 20.3245 6.83933 18.3203 6.86888C16.94 6.89025 15.6345 6.70436 14.4124 6.07834C13.9124 5.82194 13.6603 5.82621 13.4253 6.43301C11.9105 10.3558 10.3572 14.2658 8.79957 18.1715C8.60087 18.6693 8.71838 18.93 9.17347 19.1906C10.0281 19.6821 10.8614 20.2376 11.6989 20.7696C13.2736 21.7695 13.2736 21.7717 14.5171 20.385C16.3824 18.3082 19.2732 18.9043 20.1235 21.5537C20.2581 21.981 20.4034 22.1605 20.8949 22.2075C22.4033 22.3464 23.3584 23.2203 23.7066 24.686C23.7985 25.0813 23.9203 25.1945 24.3134 25.2137C25.8475 25.2928 26.7769 26.1453 27.2384 27.5768C27.3239 27.8417 27.2769 28.1815 27.779 28.1943C30.4946 28.2605 31.8086 31.491 30.1848 33.414C30.0395 33.587 29.8023 33.79 30.1463 34.0144C30.6207 34.3242 31.0565 34.7387 31.5757 34.9246C32.4304 35.2322 33.2123 34.9481 33.6653 34.1212C34.0926 33.3392 33.9815 32.6256 33.223 32.0572C32.8256 31.7603 32.4368 31.4483 32.05 31.1364C31.5907 30.7667 31.1121 30.3715 31.5949 29.7262C32.0778 29.081 32.6312 29.3673 33.144 29.7583C34.0478 30.4462 34.9323 31.1663 35.8703 31.8051C36.2401 32.058 36.6923 32.1607 37.1351 32.0924C37.5779 32.0242 37.9782 31.7901 38.2547 31.4376C38.8594 30.6257 38.7184 29.7048 37.8594 29.0105C37.1672 28.4528 36.4578 27.9165 35.7549 27.3738C35.2913 27.0149 34.9686 26.5854 35.3938 26.0278C35.819 25.4701 36.3403 25.6004 36.8638 26.0149C37.8637 26.8098 38.8807 27.5896 39.9234 28.331C40.8037 28.9549 41.9147 28.7776 42.466 27.9892C43.0172 27.2007 42.7993 26.2222 41.9809 25.5791C41.199 24.9659 40.4148 24.3527 39.6307 23.7501C39.1179 23.3592 38.8188 22.8955 39.2995 22.3208C39.7439 21.7866 40.2268 21.9832 40.699 22.3507C41.8186 23.2267 42.946 24.0913 44.0812 24.9445C45.1282 25.7329 46.158 25.6944 46.8225 24.8633C47.487 24.0322 47.2968 22.9767 46.2584 22.1947C44.1603 20.6115 42.0365 19.0603 39.9255 17.4942C39.7954 17.3773 39.6423 17.2889 39.4759 17.2348C39.3096 17.1807 39.1338 17.1621 38.9598 17.1801C35.6032 17.5519 32.6611 16.5263 30.0715 14.4175C28.749 13.3492 28.7682 13.3342 27.4222 14.3748C25.5612 15.8127 23.5763 16.9387 21.0957 16.6609C19.6984 16.5071 18.0211 15.3789 17.769 14.3277C17.3887 12.7381 18.3608 11.9219 19.5253 11.1613C21.2271 10.0286 22.8258 8.74812 24.3027 7.33466ZM7.774 1.74745C5.85106 6.66162 3.9559 11.5032 2.03937 16.3233C1.82571 16.8831 1.78512 17.1651 2.4496 17.3916C3.6525 17.8019 4.83191 18.2826 5.99422 18.7975C6.4835 19.0112 6.66297 18.8766 6.8339 18.4407C8.67778 13.706 10.5195 8.96916 12.3997 4.24941C12.6134 3.73662 12.4937 3.60843 12.0408 3.42682C10.6285 2.89054 9.22262 2.31792 7.774 1.74745ZM22.0273 32.3948C22.2815 32.3457 22.6682 32.3136 22.9011 32.0337C23.7558 31.0445 24.6232 30.0681 25.3988 29.0211C25.8795 28.3802 25.5761 27.7114 25.0035 27.252C24.4309 26.7927 23.7216 26.7798 23.1917 27.3375C22.3318 28.2254 21.5297 29.1674 20.7902 30.1578C20.1171 31.0894 20.8073 32.3564 22.0273 32.3948ZM21.9909 25.344C22.0358 24.686 21.6662 24.2758 21.1128 24.03C20.8521 23.9066 20.5574 23.8746 20.2763 23.9394C19.9952 24.0041 19.7442 24.1618 19.5638 24.3869C18.786 25.2607 18.0019 26.1346 17.2968 27.064C17.1784 27.2 17.0886 27.3586 17.033 27.5301C16.9774 27.7017 16.9571 27.8828 16.9733 28.0624C16.9894 28.242 17.0418 28.4165 17.1271 28.5754C17.2124 28.7343 17.329 28.8743 17.4699 28.987C18.1109 29.5788 18.8608 29.5467 19.4569 28.9164C20.2581 28.0618 20.9846 27.1431 21.7409 26.2478C21.8436 26.1227 21.9189 25.9774 21.962 25.8214C22.005 25.6653 22.0149 25.502 21.9909 25.3419V25.344ZM29.1015 31.397C29.1078 31.111 29.0255 30.8301 28.866 30.5926C28.7066 30.3551 28.4776 30.1727 28.2106 30.0702C27.951 29.9445 27.6564 29.9109 27.3752 29.975C27.0941 30.039 26.8431 30.197 26.6637 30.4227C25.8966 31.2624 25.1531 32.132 24.4502 33.0166C23.8861 33.7345 23.9822 34.6083 24.6254 35.0976C25.3924 35.6788 26.0868 35.4908 26.6808 34.8199C27.3645 34.0486 28.0183 33.2537 28.6892 32.4696C28.9543 32.1744 29.1011 31.7917 29.1015 31.3949V31.397ZM14.8654 26.3162C15.1389 26.2777 15.4294 26.3312 15.6623 26.1025C16.6675 25.1527 17.5633 24.0935 18.3331 22.9446C18.739 22.3186 18.4784 21.6841 17.9442 21.2354C17.3524 20.7504 16.6623 20.729 16.1153 21.2973C15.2462 22.1871 14.4388 23.1351 13.6988 24.1347C13.0023 25.1069 13.6945 26.3055 14.8654 26.3162Z" fill="white"/>
</svg>
