<svg width="50" height="55" viewBox="0 0 50 55" fill="none" xmlns="http://www.w3.org/2000/svg">
<path d="M24.686 49.4897C26.1372 49.4897 27.5884 49.5032 29.0357 49.4897C30.274 49.4761 30.9435 48.8105 30.9706 47.5779C30.99 46.4518 30.9532 45.3218 30.9842 44.1957C30.9977 43.6965 30.8448 43.503 30.3302 43.5378C29.7207 43.5765 29.1054 43.5282 28.4939 43.5494C27.9599 43.5688 27.5787 43.3559 27.5632 42.82C27.5477 42.284 27.8786 41.9918 28.4184 41.9802C29.2563 41.9628 30.2334 42.2221 30.8874 41.8738C31.4814 41.5584 31.3886 40.4516 31.8355 39.7763C32.3177 39.053 32.9174 38.4154 33.6099 37.8898C38.8129 33.8903 41.0206 28.5886 39.7223 22.1917C38.424 15.7949 34.3258 11.7431 27.9521 10.1952C24.1132 9.26642 20.4349 9.91655 16.9947 11.865C16.8282 11.9598 16.6715 12.0701 16.507 12.1688C16.0136 12.4726 15.5222 12.5558 15.1797 11.9753C14.8372 11.3948 15.2048 11.0775 15.6479 10.7989C17.4362 9.66245 19.4268 8.88132 21.5108 8.49825C30.6359 6.84776 39.4727 12.6274 41.278 21.6732C42.6518 28.5596 40.5137 34.3876 34.9953 38.8011C33.3719 40.1014 32.4489 41.51 32.6192 43.6268C32.7159 44.8439 32.6521 46.0745 32.6327 47.3032C32.6037 48.9904 31.9652 50.2985 30.2682 50.8925C29.9045 51.0202 29.7439 51.3027 29.562 51.6161C27.3001 55.5247 21.9713 55.5131 19.6939 51.5949C19.5239 51.2563 19.2343 50.9929 18.8812 50.8557C17.3449 50.2752 16.6773 49.0504 16.6348 47.4715C16.5961 46.0242 16.5767 44.5691 16.6348 43.1238C16.7083 41.3823 15.9885 40.1053 14.6205 39.101C11.1899 36.5856 8.93568 33.2556 8.04174 29.1013C6.74341 23.0721 8.27587 17.7956 12.525 13.3143C12.9313 12.8867 13.3976 12.5403 13.9104 13.0918C14.3515 13.5716 14.0845 14.0263 13.6821 14.4288C6.90982 21.201 7.95274 32.441 15.7466 37.9594C16.9294 38.7645 17.76 39.991 18.0685 41.3881C18.1769 41.8815 18.3723 41.9879 18.8251 41.9821C20.791 41.9628 22.7569 41.9821 24.7208 41.9821C25.3013 41.9821 25.8818 42.0247 25.8914 42.789C25.9011 43.5997 25.28 43.563 24.7208 43.563C22.8517 43.563 20.9825 43.5959 19.1095 43.5475C18.4149 43.5282 18.233 43.7526 18.264 44.4143C18.3162 45.5076 18.264 46.6066 18.2872 47.7037C18.3104 48.8008 18.9992 49.4897 20.1234 49.5071C21.6578 49.5071 23.1709 49.4897 24.686 49.4897ZM21.3018 51.1324C22.2228 52.4249 23.3993 52.9803 24.8098 52.9532C26.1643 52.928 27.3446 52.1521 27.8051 51.1324H21.3018Z" fill="white"/>
<path d="M20.3852 34.7069C19.9015 34.8385 19.557 35.2448 19.1488 35.5428C18.0401 36.3496 18.0285 36.3574 17.0784 35.4035C16.5792 34.9023 16.1109 34.3625 15.575 33.9039C14.8784 33.3099 14.8745 32.7429 15.4802 32.1044C15.633 31.9438 15.722 31.7174 15.8884 31.5704C16.5947 30.9725 16.2386 30.3552 16.0084 29.6858C15.7781 29.0163 15.2344 29.0898 14.7623 29.0356C12.9996 28.8305 12.9551 28.7957 12.9551 27.0465C12.9551 26.4022 12.9551 25.7579 12.9551 25.1116C12.9551 24.4073 13.2859 24.0416 13.9883 23.9835C14.2766 23.9603 14.5688 23.9023 14.8455 23.8519C16.2541 23.6004 16.705 22.4646 15.8478 21.3191C15.6543 21.0618 15.4608 20.8083 15.2673 20.5452C14.9422 20.0963 14.9229 19.6783 15.3544 19.2623C16.0484 18.5902 16.7295 17.9053 17.3977 17.2074C17.8717 16.7063 18.3187 16.7101 18.8218 17.1494C19.0869 17.3816 19.4332 17.5364 19.6596 17.7956C20.2556 18.4748 20.8012 17.9891 21.401 17.8131C22.0318 17.6312 22.0183 17.1765 22.0473 16.6811C22.0724 16.2941 22.1769 15.9207 22.2234 15.5395C22.2872 15.0287 22.5949 14.81 23.0747 14.8081C24.1061 14.8081 25.1354 14.8081 26.1706 14.8081C26.6989 14.8081 27.0143 15.0442 27.0684 15.6014C27.1071 15.9884 27.2155 16.3599 27.2406 16.743C27.2697 17.2055 27.26 17.6389 27.8482 17.7976C28.4364 17.9562 28.8911 18.409 29.5896 17.8421C31.2324 16.5186 30.977 16.2651 32.73 18.0704C34.3902 19.7789 34.3921 19.777 33.0996 21.7467C32.6933 22.364 33.2931 23.701 34.0071 23.7939C36.3174 24.0958 36.3174 24.0957 36.3174 26.4273V26.6208C36.3174 28.7028 36.3174 28.7028 34.2567 29.0569C33.9975 29.0946 33.7528 29.2001 33.5474 29.3627C33.3421 29.5253 33.1833 29.7393 33.0871 29.9829C32.9909 30.2265 32.9607 30.4912 32.9996 30.7503C33.0385 31.0093 33.1451 31.2535 33.3086 31.4581C33.4663 31.7013 33.6388 31.9346 33.8252 32.1567C34.4173 32.7778 34.3534 33.3176 33.7207 33.8787C33.088 34.4399 32.4804 35.0958 31.8787 35.7247C31.4162 36.2084 30.9654 36.2471 30.4623 35.7885C30.2243 35.5718 29.9031 35.4383 29.6999 35.208C29.0749 34.4728 28.4906 34.9294 27.8231 35.1442C27.1555 35.359 27.2813 35.8466 27.2426 36.3051C27.0858 38.0466 27.0181 38.1201 25.2864 38.1201H23.9319C22.2717 38.1201 22.1905 38.0485 22.0415 36.3419C21.9622 35.5331 21.1592 34.7262 20.3852 34.7069ZM31.0273 34.2135C31.5246 33.9503 31.838 33.4879 32.2153 33.1048C32.5249 32.7913 32.1263 32.6017 31.9986 32.3869C31.8187 32.0851 31.571 31.8258 31.3717 31.5336C30.9286 30.8893 31.9251 27.925 32.6681 27.6792C32.7954 27.6527 32.925 27.6385 33.0551 27.6367C33.368 27.5676 33.6855 27.521 34.0051 27.4974C34.5856 27.4974 34.6746 27.2187 34.752 26.675C34.9126 25.5798 34.3147 25.3418 33.4692 25.3418C32.5578 25.3418 32.0044 24.9974 31.8825 24.0493C31.8482 23.7944 31.7504 23.5523 31.5981 23.345C30.8454 22.3659 31.0428 21.5029 31.8864 20.7212C32.5172 20.1408 32.1902 19.7693 31.7316 19.2546C31.1918 18.647 30.7815 18.7766 30.3288 19.2546C29.5548 20.0634 28.7286 20.2356 27.794 19.5293C27.6687 19.4296 27.5203 19.3631 27.3625 19.3358C26.0797 19.181 25.6598 18.3548 25.7062 17.1919C25.7391 16.3425 25.1819 16.4373 24.6207 16.418C23.9958 16.3889 23.5507 16.4489 23.5739 17.2442C23.6049 18.351 23.0922 18.9063 22.0009 19.39C20.6193 20.0053 19.6093 20.046 18.518 18.9585C17.9375 18.378 17.744 19.2449 17.4209 19.4751C17.1616 19.6551 16.6682 19.9337 17.1481 20.373C18.309 21.4333 18.3555 22.5826 17.4944 23.8423C17.3864 24.0387 17.3149 24.2531 17.2835 24.475C17.1539 25.0245 16.7901 25.2606 16.2483 25.3128C15.8342 25.3535 15.424 25.4405 15.0119 25.5063C14.8184 25.5334 14.652 25.5179 14.5611 25.7656C14.2612 26.5937 14.6714 27.3871 15.5131 27.5496C15.7065 27.5864 15.9 27.6212 16.0839 27.6425C17.2777 27.7721 18.5644 30.5932 17.8775 31.5878C17.6868 31.8857 17.4733 32.1684 17.239 32.4334C16.5811 33.1125 17.3609 33.3428 17.626 33.7085C17.8911 34.0742 18.2065 34.4225 18.6786 33.902C19.6035 32.8977 20.6271 32.6655 21.7745 33.5633C21.8269 33.6027 21.8892 33.6268 21.9544 33.633C23.2005 33.7665 23.5991 34.5811 23.5701 35.6956C23.5507 36.5064 23.9996 36.5625 24.6633 36.5896C25.4063 36.6205 25.7237 36.3961 25.712 35.6492C25.6927 34.5676 26.0603 33.7897 27.2774 33.6349C27.6307 33.5772 27.9636 33.4308 28.2449 33.2093C28.8544 32.7429 29.3536 32.8977 29.8741 33.3408C30.2282 33.6388 30.6268 33.9136 31.0234 34.2135H31.0273Z" fill="white"/>
<path d="M23.8172 3.12121C23.8172 2.384 23.7978 1.64292 23.8172 0.905717C23.8365 0.416181 24.0494 0.00984793 24.6105 0.000173296C25.1716 -0.00950134 25.4213 0.387152 25.429 0.876689C25.4522 2.38593 25.4522 3.89518 25.429 5.40442C25.429 5.90363 25.16 6.27127 24.595 6.25192C24.03 6.23257 23.8327 5.82623 23.8211 5.33669C23.7998 4.59948 23.8172 3.85455 23.8172 3.12121Z" fill="white"/>
<path d="M3.09588 25.5024H0.967463C0.398595 25.5024 0 25.2044 0 24.6588C0 24.148 0.404404 23.8577 0.911354 23.8519C2.38964 23.8326 3.86857 23.8326 5.34814 23.8519C5.85315 23.8519 6.26335 24.1228 6.26335 24.6491C6.26335 25.2083 5.87637 25.5044 5.31137 25.5063L3.09588 25.5024Z" fill="white"/>
<path d="M46.1504 25.5026C45.4441 25.5026 44.7359 25.5026 44.0219 25.5026C43.4589 25.5123 43.0409 25.2723 43.0042 24.7112C42.9674 24.1501 43.3912 23.8521 43.9446 23.8444C45.3893 23.8263 46.836 23.8263 48.2846 23.8444C48.8283 23.8444 49.2791 24.1152 49.2617 24.6841C49.2443 25.253 48.8341 25.5084 48.2652 25.5026C47.559 25.4987 46.8508 25.5026 46.1504 25.5026Z" fill="white"/>
<path d="M42.3036 7.7804C42.2538 8.05125 42.1181 8.29888 41.9166 8.48665C40.9182 9.48507 39.9211 10.4848 38.9252 11.4858C38.5382 11.8728 38.1184 12.0817 37.6695 11.6696C37.1702 11.213 37.387 10.7641 37.803 10.3519C38.8265 9.33609 39.8404 8.30671 40.866 7.29087C41.1252 7.03352 41.4232 6.84971 41.8102 7.06449C41.9426 7.13704 42.0562 7.23957 42.1419 7.36389C42.2275 7.4882 42.2829 7.63084 42.3036 7.7804Z" fill="white"/>
<path d="M7.76557 6.97363C8.10225 6.97363 8.31315 7.18648 8.51632 7.38965C9.48378 8.35711 10.4512 9.34586 11.4381 10.3172C11.8405 10.7158 12.1211 11.1569 11.6316 11.6349C11.142 12.1128 10.7105 11.8593 10.3061 11.4414C9.31738 10.4352 8.31315 9.44454 7.32247 8.44031C7.06706 8.18297 6.85035 7.90046 7.04191 7.5038C7.10288 7.35795 7.2025 7.23151 7.33001 7.13809C7.45753 7.04466 7.60813 6.9878 7.76557 6.97363Z" fill="white"/>
<path d="M18.4336 6.6001C18.4103 7.07416 18.3136 7.38568 17.9692 7.50565C17.6247 7.62561 17.1952 7.62174 17.0269 7.25991C16.7075 6.60495 16.439 5.92637 16.2239 5.23017C16.1975 5.14464 16.1893 5.05453 16.1997 4.96563C16.2102 4.87673 16.2391 4.79099 16.2847 4.71393C16.3302 4.63687 16.3914 4.57018 16.4642 4.51813C16.537 4.46609 16.6199 4.42983 16.7076 4.4117C17.0714 4.29948 17.4525 4.31689 17.6306 4.69033C17.9479 5.34821 18.2014 6.03704 18.4336 6.6001Z" fill="white"/>
<path d="M31.6886 7.5696C31.052 7.5309 30.7462 7.18261 30.8681 6.68146C31.0581 6.00606 31.3061 5.34833 31.6092 4.71558C31.7563 4.37697 32.091 4.32859 32.4316 4.37503C32.7721 4.42147 33.072 4.67301 33.0411 5.00582C32.9433 5.85865 32.6296 6.67244 32.1297 7.37029C32.0427 7.49993 31.7988 7.5309 31.6886 7.5696Z" fill="white"/>
<path d="M6.57464 18.4342C6.05414 18.2252 5.3924 18.0008 4.77128 17.6912C4.68375 17.6483 4.60607 17.5877 4.54317 17.5132C4.48026 17.4387 4.43352 17.352 4.40587 17.2585C4.37822 17.165 4.37028 17.0668 4.38256 16.9701C4.39483 16.8734 4.42705 16.7803 4.47718 16.6967C4.54867 16.5138 4.68898 16.3662 4.86803 16.2855C5.04708 16.2048 5.2506 16.1975 5.43496 16.2652C6.00383 16.4587 6.55529 16.7121 7.10868 16.954C7.53436 17.1475 7.61756 17.4958 7.52275 17.9079C7.42794 18.3201 7.09707 18.4187 6.57464 18.4342Z" fill="white"/>
<path d="M42.5646 18.4323C42.1234 18.411 41.8139 18.2949 41.7345 17.8692C41.661 17.4822 41.7345 17.1494 42.1099 16.9811C42.6849 16.7099 43.2739 16.4696 43.8745 16.2613C44.2964 16.12 44.6485 16.3542 44.8091 16.7334C44.8934 16.8925 44.9122 17.0781 44.8616 17.2509C44.811 17.4236 44.695 17.5698 44.5382 17.6583C43.9204 18.0087 43.2559 18.2693 42.5646 18.4323Z" fill="white"/>
<path d="M29.7781 26.5337C29.7626 29.3432 27.3749 31.7 24.5848 31.6574C23.2236 31.6254 21.9293 31.0604 20.9803 30.0841C20.0312 29.1078 19.5032 27.798 19.5098 26.4365C19.5164 25.0749 20.0571 23.7703 21.0155 22.8032C21.9739 21.8361 23.2736 21.2837 24.6351 21.2649C27.4775 21.2688 29.7955 23.641 29.7781 26.5337ZM24.6467 29.9934C25.1123 30.0022 25.575 29.9175 26.0074 29.7444C26.4398 29.5712 26.833 29.3131 27.1639 28.9853C27.4948 28.6575 27.7565 28.2667 27.9337 27.8359C28.1108 27.4052 28.1998 26.9433 28.1953 26.4776C28.1912 25.5366 27.8212 24.6341 27.1636 23.961C26.506 23.2879 25.6124 22.897 24.6718 22.8709C22.7234 22.8419 21.0613 24.5194 21.0767 26.5047C21.0758 26.97 21.1681 27.4307 21.3482 27.8597C21.5283 28.2887 21.7926 28.6773 22.1253 29.0025C22.4581 29.3277 22.8527 29.5829 23.2857 29.7531C23.7188 29.9233 24.1815 30.005 24.6467 29.9934Z" fill="white"/>
</svg>
