<svg width="150" height="36" viewBox="0 0 150 36" fill="none" xmlns="http://www.w3.org/2000/svg">
<path d="M111.626 27.2391H107.234V5.9506C107.234 5.37781 107.464 4.82848 107.872 4.42346C108.28 4.01843 108.834 3.79089 109.411 3.79089C109.992 3.7908 110.549 4.01711 110.964 4.42106C111.378 4.82501 111.616 5.3743 111.626 5.9506V27.2391Z" fill="white"/>
<path d="M118.24 11.3118V27.2395H113.926V6.52958C113.926 5.80337 114.217 5.1069 114.734 4.59339C115.251 4.07988 115.953 3.7914 116.685 3.7914C117.195 3.78766 117.696 3.92218 118.134 4.18046C118.573 4.43874 118.932 4.81096 119.172 5.25691L126.712 19.7192V5.91253C126.712 5.34997 126.937 4.81045 127.338 4.41266C127.739 4.01487 128.283 3.7914 128.85 3.7914C129.42 3.79131 129.968 4.01354 130.375 4.41026C130.782 4.80698 131.016 5.34645 131.026 5.91253V27.2395H126.557L118.24 11.3118Z" fill="white"/>
<path d="M138.209 19.2887C138.173 20.3616 138.547 21.4086 139.256 22.2216C139.965 23.0347 140.958 23.5543 142.036 23.6772C144.447 23.6772 145.863 22.3531 145.863 20.4237C145.863 18.4942 144.753 17.5863 142.572 17.1701L139.74 16.5648C138.069 16.458 136.503 15.718 135.37 14.4988C134.237 13.2797 133.622 11.6754 133.655 10.0199C133.655 6.23667 136.296 3.4371 141.309 3.4371C142.712 3.32582 144.118 3.59887 145.374 4.22624C146.63 4.85362 147.686 5.81103 148.427 6.9933C148.582 7.30911 148.654 7.65854 148.635 8.00906C148.617 8.35959 148.509 8.69984 148.322 8.99812C148.135 9.2964 147.875 9.54302 147.565 9.71506C147.256 9.88709 146.907 9.97893 146.552 9.98203C146.142 9.9946 145.737 9.88618 145.39 9.67058C145.042 9.45498 144.767 9.14196 144.6 8.77141C144.295 8.18602 143.816 7.70622 143.228 7.39547C142.641 7.08472 141.972 6.95768 141.309 7.03114C139.013 7.03114 137.827 8.24176 137.827 9.98203C137.827 11.7223 138.822 12.5168 141.08 13.0086L143.873 13.5761C145.572 13.711 147.153 14.4844 148.292 15.7371C149.431 16.9897 150.041 18.6264 149.996 20.3102C149.996 24.3582 146.973 27.2334 141.768 27.2334C140.691 27.2745 139.617 27.0988 138.61 26.7169C137.604 26.3351 136.686 25.7552 135.913 25.0123C135.14 24.2694 134.528 23.379 134.114 22.3951C133.699 21.4112 133.491 20.3544 133.502 19.2887H138.209Z" fill="white"/>
<path d="M43.3948 6.18913C43.6488 5.41528 44.192 4.76301 44.9163 4.36199C45.6225 3.98648 46.414 3.79015 47.2182 3.79102C47.9905 3.79102 48.7473 4.002 49.403 4.40006C50.1126 4.79049 50.6429 5.43036 50.8856 6.18913L58.6885 27.2392H52.1731L51.0026 23.4327H43.1997L42.1073 27.2392H35.6699L43.3948 6.18913ZM44.8383 18.7507H49.403L47.1401 11.5183L44.8383 18.7507Z" fill="white"/>
<path d="M73.2477 26.201C72.939 26.198 72.6313 26.1664 72.3286 26.1066C71.9963 26.0514 71.6705 25.9635 71.3561 25.8444C71.0626 25.7397 70.7856 25.5949 70.5332 25.4144C70.3191 25.2524 70.1622 25.0287 70.0844 24.7746L67.092 14.171L65.7241 27.2393H60.1348L62.6141 6.70334C62.6489 6.28286 62.7765 5.87487 62.9882 5.5077C63.1836 5.17064 63.4409 4.87196 63.747 4.62669C64.0333 4.38676 64.3584 4.19534 64.7088 4.06031C65.0327 3.92556 65.3746 3.83725 65.7241 3.79811C66.1061 3.77988 66.489 3.79743 66.8676 3.85053C67.2705 3.90894 67.6606 4.03301 68.0218 4.21763C68.3984 4.40588 68.7356 4.66206 69.0157 4.97278C69.3279 5.31807 69.5514 5.73162 69.6676 6.17893L73.2477 19.4885L76.8279 6.17893C76.9447 5.73399 77.164 5.32133 77.4691 4.97278C77.7386 4.65556 78.0738 4.39816 78.4523 4.21763C78.8222 4.03582 79.2189 3.91195 79.6279 3.85053C80.0065 3.79743 80.3894 3.77988 80.7714 3.79811C81.1209 3.83725 81.4628 3.92556 81.7866 4.06031C82.1359 4.1977 82.4606 4.3889 82.7485 4.62669C83.0508 4.87563 83.3075 5.17361 83.5072 5.5077C83.7202 5.87363 83.8445 6.28272 83.8706 6.70334L86.3286 27.2393H80.7714L79.4355 14.0766L76.4111 24.7746C76.3332 25.0314 76.1718 25.2561 75.9515 25.4144C75.7043 25.597 75.4305 25.7419 75.1393 25.8444C74.8249 25.9635 74.4991 26.0514 74.1668 26.1066C73.8641 26.166 73.5564 26.1975 73.2477 26.201Z" fill="white"/>
<path d="M93.9682 12.8434H102.13C102.504 12.8317 102.875 12.9113 103.21 13.0749C103.502 13.2248 103.76 13.4327 103.965 13.6852C104.162 13.9333 104.308 14.2153 104.397 14.5165C104.481 14.8041 104.525 15.1014 104.527 15.4003C104.527 15.6994 104.483 15.997 104.397 16.2842C104.309 16.5741 104.167 16.8454 103.976 17.0839C103.775 17.3284 103.521 17.5262 103.231 17.6626C102.892 17.8125 102.524 17.888 102.152 17.8836H93.9898V21.2928C93.9561 21.5339 94.0179 21.7784 94.1625 21.9767C94.368 22.1037 94.6115 22.1593 94.8535 22.1345H102.724C103.096 22.1287 103.465 22.2042 103.803 22.3555C104.098 22.4937 104.356 22.6951 104.559 22.9447C104.744 23.1887 104.883 23.4631 104.969 23.755C105.063 24.0444 105.11 24.346 105.11 24.6493C105.108 24.956 105.061 25.2609 104.969 25.5543C104.885 25.8604 104.738 26.1467 104.537 26.396C104.338 26.6506 104.084 26.859 103.793 27.0063C103.457 27.1675 103.087 27.2469 102.713 27.2378H92.5107C91.7546 27.2518 90.9999 27.1704 90.2652 26.9958C89.7217 26.8595 89.2257 26.5833 88.8293 26.1961C88.4548 25.7907 88.1944 25.2977 88.0736 24.7651C87.9119 24.075 87.8358 23.3684 87.8469 22.6607V8.38201C87.8352 7.67419 87.9113 6.96758 88.0736 6.27757C88.1891 5.74307 88.4501 5.24876 88.8293 4.84656C89.2227 4.45554 89.7198 4.17868 90.2652 4.04686C90.9983 3.86304 91.7539 3.77808 92.5107 3.79434H102.411C102.768 3.77508 103.125 3.84291 103.45 3.9917C103.774 4.14049 104.055 4.36556 104.268 4.64664C104.462 4.89965 104.609 5.18479 104.699 5.4884C104.784 5.78301 104.828 6.08739 104.829 6.39333C104.828 6.69234 104.784 6.98975 104.699 7.27719C104.612 7.57371 104.469 7.85195 104.278 8.09792C104.077 8.34247 103.823 8.54018 103.533 8.67663C103.194 8.82559 102.826 8.90098 102.454 8.89759H94.8966C94.6546 8.87281 94.4112 8.92845 94.2057 9.05544C94.061 9.25375 93.9993 9.49829 94.033 9.73938L93.9682 12.8434Z" fill="white"/>
<g clip-path="url(#clip0_7143_6574)">
<path d="M36.9839 32.5665V34.0616H35.6702V29.996C35.6675 29.8417 35.6836 29.6876 35.718 29.5371C35.7445 29.4223 35.8008 29.3162 35.8813 29.2293C35.9646 29.1433 36.0705 29.0817 36.1872 29.0515C36.3435 29.0129 36.5043 28.995 36.6654 28.9981H37.7742C38.0331 28.9957 38.2908 29.0307 38.5393 29.1022C38.7608 29.1648 38.9669 29.2717 39.1447 29.4161C39.3184 29.5606 39.4551 29.7434 39.5435 29.9498C39.6441 30.1952 39.6929 30.4581 39.687 30.7227V30.8294C39.6927 31.094 39.6439 31.3569 39.5435 31.6023C39.4551 31.8087 39.3184 31.9915 39.1447 32.136C38.9669 32.2805 38.7608 32.3873 38.5393 32.45C38.2908 32.5214 38.0331 32.5565 37.7742 32.554L36.9839 32.5665ZM36.9839 31.4725H37.7057C37.8031 31.4742 37.8999 31.4561 37.9899 31.4191C38.0701 31.3858 38.1419 31.3353 38.2001 31.2715C38.257 31.2091 38.3014 31.1367 38.3309 31.058C38.3607 30.9774 38.3756 30.8921 38.3751 30.8063V30.7627C38.3757 30.6769 38.3607 30.5917 38.3309 30.511C38.3012 30.4324 38.2568 30.36 38.2001 30.2976C38.1427 30.234 38.0718 30.1836 37.9926 30.1499C37.9026 30.113 37.8058 30.0948 37.7084 30.0965H37.167C37.1154 30.0909 37.0634 30.1032 37.02 30.1312C36.9887 30.1739 36.9751 30.2267 36.9821 30.2789L36.9839 31.4725Z" fill="white"/>
<path d="M40.2207 29.3806C40.2207 29.1627 40.2857 29.0026 40.4156 28.903C40.5472 28.8014 40.7104 28.7479 40.8775 28.7518C41.0446 28.7479 41.2079 28.8014 41.3395 28.903C41.4694 29.0026 41.5344 29.1627 41.5344 29.3806V34.0617H40.2207V29.3806Z" fill="white"/>
<path d="M44.5935 34.0616L44.543 33.7948C44.4157 33.9086 44.2687 33.999 44.109 34.0616C43.9389 34.1297 43.7567 34.1639 43.5731 34.1621H43.4332C43.289 34.1606 43.1455 34.1406 43.0065 34.1025C42.8528 34.063 42.7087 33.9938 42.5824 33.8989C42.4462 33.7944 42.3352 33.6613 42.2576 33.5093C42.1632 33.3176 42.118 33.1059 42.1259 32.8929C42.1189 32.6867 42.1629 32.4819 42.254 32.2961C42.3337 32.1425 42.4509 32.0107 42.5951 31.9128C42.7457 31.8127 42.9145 31.742 43.0922 31.7046C43.288 31.6623 43.4881 31.6414 43.6886 31.6424H44.3454C44.344 31.5629 44.3252 31.4846 44.2904 31.4129C44.2613 31.3548 44.2175 31.3052 44.1631 31.2688C44.1072 31.2318 44.0443 31.2061 43.9782 31.1932C43.9061 31.1781 43.8326 31.1706 43.7589 31.171C43.6881 31.1708 43.6175 31.177 43.5478 31.1897C43.4801 31.203 43.4071 31.219 43.3313 31.2404C43.2824 31.2563 43.2345 31.275 43.1878 31.2964C43.1427 31.3177 43.0913 31.3409 43.0317 31.3658C42.9735 31.395 42.9094 31.4111 42.8441 31.4129C42.7782 31.4149 42.7124 31.4065 42.6492 31.388C42.5856 31.3696 42.5262 31.3394 42.4742 31.2991C42.4202 31.2574 42.3775 31.2033 42.3496 31.1416C42.3204 31.0853 42.3031 31.0237 42.2987 30.9605C42.2944 30.8974 42.3031 30.834 42.3244 30.7743C42.3686 30.6528 42.4484 30.547 42.5535 30.4701C42.6416 30.4052 42.7381 30.3522 42.8405 30.3127C42.9482 30.2704 43.0589 30.2356 43.1716 30.2086C43.2859 30.1816 43.402 30.162 43.5189 30.1499C43.6322 30.137 43.746 30.1304 43.86 30.1303C44.0823 30.1293 44.3039 30.1538 44.5204 30.2033C44.7222 30.2472 44.9115 30.335 45.0744 30.4603C45.2436 30.5967 45.3752 30.7729 45.457 30.9726C45.5614 31.239 45.6102 31.5233 45.6004 31.8087V34.0581L44.5935 34.0616ZM44.3454 32.5718H43.7653C43.664 32.5661 43.5643 32.5978 43.4856 32.6608C43.4529 32.6907 43.4274 32.7273 43.4107 32.768C43.394 32.8088 43.3866 32.8526 43.389 32.8965C43.3856 32.94 43.3926 32.9838 43.4093 33.0242C43.4261 33.0647 43.4522 33.1007 43.4856 33.1295C43.5613 33.183 43.6533 33.2094 43.7463 33.2042H43.8365C43.8976 33.2044 43.9583 33.196 44.017 33.1793C44.075 33.1632 44.1299 33.1377 44.1794 33.1037C44.228 33.0706 44.2692 33.0279 44.3003 32.9783C44.3337 32.9249 44.3506 32.8631 44.349 32.8004L44.3454 32.5718Z" fill="white"/>
<path d="M46.6709 31.2972H46.4607C46.2613 31.2972 46.1178 31.2438 46.0303 31.1398C45.9458 31.04 45.8998 30.914 45.9004 30.784C45.9003 30.7201 45.9097 30.6566 45.9284 30.5954C45.9479 30.5329 45.9805 30.475 46.024 30.4256C46.0728 30.3724 46.1328 30.3305 46.1999 30.3028C46.2826 30.2695 46.3714 30.2535 46.4607 30.2557H46.6709V29.6019C46.669 29.5073 46.6875 29.4133 46.725 29.3262C46.7573 29.2501 46.8063 29.1821 46.8685 29.127C46.9279 29.0771 46.9961 29.0385 47.0697 29.0131C47.1447 28.9881 47.2233 28.9754 47.3025 28.9758C47.3816 28.9754 47.4603 28.9881 47.5353 29.0131C47.6082 29.0387 47.6758 29.0773 47.7346 29.127C47.7963 29.1808 47.8453 29.2473 47.8781 29.3218C47.9152 29.409 47.9337 29.5029 47.9322 29.5975V30.2512H48.3076C48.396 30.2487 48.484 30.2647 48.5656 30.2984C48.6314 30.3265 48.6902 30.3684 48.7379 30.4211C48.7822 30.4706 48.816 30.5284 48.8372 30.591C48.8578 30.6518 48.8685 30.7154 48.8688 30.7795C48.8694 30.9097 48.823 31.0358 48.7379 31.1353C48.6477 31.2394 48.5079 31.2927 48.3076 31.2927H47.9322V32.8501C47.9273 32.8841 47.9301 32.9187 47.9404 32.9515C47.9507 32.9842 47.9682 33.0143 47.9918 33.0396C48.0342 33.0687 48.0837 33.0859 48.1352 33.0894C48.1782 33.094 48.2216 33.0907 48.2634 33.0796C48.3134 33.0684 48.3646 33.0633 48.4158 33.0645C48.5179 33.0629 48.6174 33.0962 48.6973 33.1588C48.7774 33.2213 48.8316 33.3105 48.8498 33.4096C48.8808 33.5248 48.8706 33.647 48.8209 33.7556C48.7755 33.8524 48.7037 33.935 48.6134 33.994C48.5291 34.0458 48.438 34.0862 48.3428 34.114C48.2352 34.1466 48.1233 34.1634 48.0107 34.1638C47.8193 34.1667 47.6283 34.1437 47.4432 34.0954C47.2879 34.0543 47.1441 33.9788 47.0228 33.8748C46.9031 33.7667 46.813 33.6306 46.7611 33.479C46.6964 33.2845 46.6659 33.0805 46.6709 32.8759V31.2972Z" fill="white"/>
<path d="M49.681 34.0616V31.2972H49.4635C49.2641 31.2972 49.1207 31.2439 49.0332 31.1398C48.9484 31.0401 48.9021 30.9141 48.9023 30.784C48.9024 30.7181 48.9121 30.6524 48.9312 30.5892C48.951 30.5267 48.9835 30.4689 49.0269 30.4194C49.0754 30.3667 49.1356 30.326 49.2028 30.3002C49.2859 30.2686 49.3745 30.2535 49.4635 30.2557H49.681V30.1178C49.675 29.9018 49.7055 29.6863 49.7712 29.4801C49.8243 29.3195 49.9173 29.1745 50.0419 29.0585C50.1687 28.9475 50.3206 28.8679 50.4849 28.8264C50.6837 28.7756 50.8885 28.7514 51.0939 28.7543C51.2225 28.7548 51.3507 28.7685 51.4764 28.7952C51.6005 28.8195 51.7193 28.8649 51.8274 28.9296C51.9274 28.9848 52.0032 29.0744 52.0403 29.1813C52.0716 29.2903 52.0716 29.4058 52.0403 29.5148C52.0106 29.6109 51.9555 29.6974 51.8806 29.7656C51.8082 29.835 51.711 29.8737 51.61 29.8732C51.567 29.8737 51.5242 29.8705 51.4818 29.8635L51.3474 29.8412C51.3161 29.8343 51.2845 29.829 51.2527 29.8252C51.2265 29.8252 51.1994 29.8252 51.1688 29.8252C51.1423 29.8233 51.1156 29.8273 51.0909 29.837C51.0662 29.8467 51.0441 29.8618 51.0262 29.8812C50.988 29.9415 50.9712 30.0125 50.9784 30.0831V30.261H51.3393C51.4272 30.2586 51.5146 30.2738 51.5964 30.3055C51.6625 30.332 51.7217 30.3727 51.7697 30.4247C51.8132 30.4746 51.8466 30.5323 51.868 30.5946C51.8893 30.6573 51.9 30.7232 51.8996 30.7894C51.9002 30.9193 51.8541 31.0453 51.7697 31.1451C51.6794 31.2492 51.5387 31.3026 51.3393 31.3026H50.9784V34.0669L49.681 34.0616Z" fill="white"/>
<path d="M52.1477 31.8621C52.1376 31.5726 52.194 31.2847 52.3128 31.0198C52.4133 30.8112 52.5616 30.6285 52.7459 30.4861C52.923 30.3527 53.126 30.2564 53.3423 30.2033C53.5558 30.1496 53.7752 30.1221 53.9955 30.1215C54.214 30.1223 54.4316 30.1498 54.6433 30.2033C54.8596 30.2564 55.0626 30.3527 55.2397 30.4861C55.4245 30.6288 55.5736 30.8114 55.6755 31.0198C55.7972 31.2839 55.8553 31.5722 55.8451 31.8621V32.4402C55.8555 32.7301 55.7974 33.0185 55.6755 33.2825C55.5736 33.4909 55.4245 33.6735 55.2397 33.8162C55.0624 33.9493 54.8595 34.0455 54.6433 34.099C54.4316 34.1525 54.214 34.18 53.9955 34.1808C53.7773 34.1799 53.56 34.1524 53.3486 34.099C53.1327 34.0455 52.9301 33.9492 52.7531 33.8162C52.5676 33.6741 52.4181 33.4914 52.3164 33.2825C52.1948 33.0184 52.1371 32.7301 52.1477 32.4402V31.8621ZM54.563 31.806C54.5658 31.7082 54.5486 31.6108 54.5125 31.5196C54.4823 31.4479 54.4378 31.3829 54.3817 31.3284C54.3305 31.2791 54.2689 31.2414 54.2012 31.2181C54.1354 31.1955 54.0662 31.1838 53.9964 31.1834C53.9273 31.1837 53.8586 31.1954 53.7934 31.2181C53.7257 31.2413 53.6641 31.279 53.613 31.3284C53.5568 31.3829 53.5123 31.4479 53.4821 31.5196C53.4455 31.6107 53.4283 31.7082 53.4316 31.806V32.4971C53.4284 32.5947 53.4456 32.6919 53.4821 32.7826C53.5123 32.8547 53.5568 32.92 53.613 32.9748C53.6641 33.024 53.7258 33.0613 53.7934 33.0842C53.8586 33.1069 53.9273 33.1186 53.9964 33.1188C54.0662 33.1185 54.1354 33.1068 54.2012 33.0842C54.2688 33.0612 54.3304 33.0239 54.3817 32.9748C54.4379 32.92 54.4824 32.8547 54.5125 32.7826C54.5485 32.6918 54.5657 32.5947 54.563 32.4971V31.806Z" fill="white"/>
<path d="M56.4338 34.0616V30.7627C56.4315 30.6689 56.45 30.5757 56.4879 30.4896C56.521 30.4153 56.57 30.3489 56.6314 30.2949C56.6909 30.2423 56.7601 30.2015 56.8353 30.1748C56.9131 30.1471 56.9953 30.1333 57.078 30.1339C57.1993 30.1338 57.3186 30.1644 57.4244 30.2228C57.534 30.2827 57.6206 30.3764 57.6707 30.4896C57.7864 30.3823 57.9197 30.2951 58.065 30.2317C58.207 30.1695 58.3607 30.1374 58.5161 30.1374C58.5662 30.1378 58.6162 30.1411 58.6659 30.1472C58.7177 30.1529 58.7683 30.1667 58.8157 30.1881C58.9365 30.2355 59.0354 30.3251 59.0936 30.4398C59.156 30.5617 59.1772 30.7001 59.154 30.8347C59.139 30.9723 59.072 31.0993 58.9664 31.1905C58.8647 31.2777 58.7339 31.3249 58.5991 31.323C58.5522 31.323 58.5035 31.323 58.453 31.323C58.404 31.3194 58.3549 31.3194 58.3059 31.323C58.1525 31.3261 58.0049 31.3815 57.8882 31.4796C57.8372 31.5288 57.7967 31.5874 57.7688 31.6522C57.7409 31.7169 57.7263 31.7864 57.7258 31.8567V34.0687L56.4338 34.0616Z" fill="white"/>
<path d="M59.4846 34.0616V30.7627C59.4823 30.6689 59.5008 30.5757 59.5387 30.4896C59.5718 30.4153 59.6207 30.3489 59.6821 30.2949C59.7418 30.2425 59.811 30.2017 59.8861 30.1748C59.9639 30.1471 60.046 30.1333 60.1288 30.1339C60.2501 30.1338 60.3694 30.1644 60.4752 30.2228C60.5824 30.2797 60.6669 30.3706 60.7152 30.4807C60.8335 30.368 60.9732 30.2793 61.1263 30.22C61.2795 30.1606 61.443 30.1316 61.6075 30.1348C61.7992 30.1343 61.9894 30.1683 62.1687 30.2353C62.3528 30.3066 62.515 30.4236 62.6397 30.575C62.776 30.4379 62.9385 30.3288 63.1179 30.2539C63.3306 30.17 63.5583 30.1294 63.7873 30.1348C63.9842 30.1349 64.1799 30.1649 64.3675 30.2237C64.5487 30.2786 64.7139 30.3756 64.8493 30.5065C64.9992 30.6574 65.1124 30.8399 65.1804 31.0402C65.2701 31.3052 65.3123 31.5836 65.3049 31.8629V34.0687H63.9912V31.7873C63.9937 31.6964 63.9787 31.6059 63.947 31.5205C63.9208 31.4536 63.8805 31.393 63.8288 31.3426C63.784 31.2987 63.7297 31.2653 63.67 31.2448C63.6177 31.2271 63.5629 31.2178 63.5076 31.2172C63.4512 31.2178 63.3952 31.2271 63.3416 31.2448C63.2812 31.2642 63.2264 31.2977 63.1819 31.3426C63.1317 31.3942 63.0916 31.4545 63.0637 31.5205C63.0299 31.6054 63.0137 31.6961 63.0159 31.7873V34.0687H61.7528V31.7873C61.7549 31.6964 61.7396 31.6058 61.7077 31.5205C61.6815 31.4536 61.6412 31.393 61.5895 31.3426C61.5446 31.2987 61.4904 31.2653 61.4307 31.2448C61.3781 31.2271 61.323 31.2178 61.2674 31.2172C61.2121 31.2178 61.1573 31.2271 61.105 31.2448C61.0472 31.2633 60.994 31.2936 60.9489 31.3337C60.8985 31.3807 60.8582 31.4373 60.8307 31.5C60.7966 31.5807 60.7782 31.667 60.7766 31.7544V34.0669L59.4846 34.0616Z" fill="white"/>
<path d="M67.5176 31.5419C67.5179 31.478 67.5276 31.4145 67.5465 31.3533C67.5649 31.2914 67.5956 31.2337 67.6367 31.1834C67.6798 31.1311 67.7344 31.0891 67.7964 31.0607C67.8715 31.0278 67.9533 31.012 68.0355 31.0144H68.7239V30.3536C68.7239 30.149 68.7825 29.9978 68.8989 29.9018C69.0138 29.8061 69.1599 29.7546 69.3103 29.7568C69.4607 29.7548 69.6068 29.8062 69.7217 29.9018C69.8381 29.9978 69.8968 30.149 69.8968 30.3536V31.0144H70.5852C70.6674 31.012 70.7491 31.0278 70.8243 31.0607C70.8863 31.0891 70.9409 31.1311 70.984 31.1834C71.0244 31.2341 71.055 31.2917 71.0742 31.3533C71.0928 31.4145 71.1022 31.478 71.1022 31.5419C71.102 31.6066 71.0926 31.671 71.0742 31.7331C71.0562 31.7976 71.0256 31.8581 70.984 31.911C70.9406 31.9646 70.8861 32.0085 70.8243 32.04C70.7513 32.076 70.6704 32.0934 70.5888 32.0907H69.9004V32.7497C69.9004 32.9555 69.842 33.1064 69.7254 33.2024C69.6105 33.2981 69.4643 33.3493 69.3139 33.3465C69.1636 33.3494 69.0173 33.2982 68.9025 33.2024C68.7858 33.1064 68.7275 32.9555 68.7275 32.7497V32.0907H68.0364C67.9537 32.0931 67.8716 32.0757 67.7973 32.04C67.7348 32.0095 67.6802 31.9654 67.6376 31.911C67.5962 31.858 67.5655 31.7976 67.5474 31.7331C67.5284 31.671 67.5184 31.6067 67.5176 31.5419Z" fill="white"/>
<path d="M74.5937 32.1699C74.591 32.3025 74.6158 32.4341 74.6668 32.5568C74.7115 32.6621 74.7789 32.7565 74.8644 32.8334C74.9467 32.9069 75.043 32.9634 75.1477 32.9998C75.2541 33.0379 75.3665 33.0572 75.4797 33.0567C75.6089 33.0583 75.7379 33.0476 75.865 33.0247C75.9647 33.0061 76.0618 32.9763 76.1546 32.9357C76.2015 32.9144 76.2538 32.8895 76.3116 32.8601C76.3661 32.8313 76.4253 32.812 76.4866 32.8032C76.591 32.7816 76.6995 32.7906 76.7988 32.829C76.8992 32.8727 76.9822 32.9477 77.0352 33.0425C77.0736 33.0989 77.0989 33.163 77.1094 33.2301C77.1198 33.2973 77.1151 33.366 77.0956 33.4311C77.0558 33.5605 76.9768 33.6747 76.8692 33.7585C76.6794 33.9063 76.4598 34.0125 76.225 34.0698C75.9818 34.1336 75.7313 34.1662 75.4797 34.1667C75.2054 34.1673 74.9323 34.1314 74.6677 34.06C74.4124 33.9929 74.1732 33.8765 73.9639 33.7175C73.754 33.5563 73.584 33.3501 73.4668 33.1145C73.3337 32.8368 73.2691 32.5321 73.2782 32.2251V30.9176C73.2688 30.6106 73.3334 30.3058 73.4668 30.0282C73.5837 29.7922 73.7538 29.5856 73.9639 29.4242C74.1734 29.2656 74.4125 29.1492 74.6677 29.0818C74.9323 29.0104 75.2054 28.9745 75.4797 28.9751C75.7322 28.9715 75.9841 29.0014 76.2286 29.064C76.4092 29.1078 76.5808 29.1821 76.7356 29.2837C76.8596 29.3679 76.9542 29.4878 77.0063 29.627C77.0318 29.6929 77.0416 29.7636 77.0351 29.8337C77.0285 29.9039 77.0057 29.9716 76.9684 30.0317C76.9117 30.1345 76.8223 30.2161 76.714 30.2639C76.612 30.3095 76.4982 30.3229 76.3883 30.3021C76.3211 30.2914 76.2558 30.2713 76.1943 30.2425C76.1365 30.2149 76.0842 30.1909 76.0382 30.1705C75.9608 30.1408 75.8803 30.1197 75.7982 30.1073C75.6918 30.093 75.5844 30.0865 75.477 30.0878C75.3638 30.0877 75.2515 30.107 75.145 30.1447C75.0404 30.1817 74.9442 30.2385 74.8617 30.3119C74.776 30.3887 74.7085 30.4831 74.6641 30.5885C74.613 30.7109 74.5882 30.8423 74.591 30.9745L74.5937 32.1699Z" fill="white"/>
<path d="M77.552 31.8621C77.5417 31.5725 77.5984 31.2845 77.718 31.0198C77.8179 30.8109 77.9663 30.628 78.1511 30.4861C78.3278 30.3526 78.5305 30.2563 78.7466 30.2033C78.9604 30.1496 79.1801 30.1221 79.4007 30.1215C79.6189 30.1224 79.8362 30.1499 80.0476 30.2033C80.264 30.2562 80.467 30.3525 80.644 30.4861C80.8292 30.6284 80.9784 30.811 81.0798 31.0198C81.2015 31.2839 81.2596 31.5722 81.2494 31.8621V32.4402C81.2598 32.7301 81.2017 33.0185 81.0798 33.2825C80.9785 33.4913 80.8293 33.674 80.644 33.8162C80.4668 33.9494 80.2638 34.0457 80.0476 34.099C79.8362 34.1524 79.6189 34.1799 79.4007 34.1808C79.1825 34.18 78.9652 34.1525 78.7538 34.099C78.5376 34.0457 78.3346 33.9494 78.1574 33.8162C77.9721 33.6738 77.8226 33.4912 77.7207 33.2825C77.5991 33.0184 77.5414 32.7301 77.552 32.4402V31.8621ZM79.9682 31.806C79.9713 31.7081 79.9538 31.6106 79.9168 31.5196C79.887 31.4477 79.8424 31.3826 79.786 31.3284C79.7348 31.2791 79.6732 31.2414 79.6055 31.2181C79.54 31.1954 79.4711 31.1837 79.4016 31.1834C79.3322 31.1836 79.2632 31.1954 79.1977 31.2181C79.13 31.2413 79.0684 31.279 79.0173 31.3284C78.9611 31.3829 78.9166 31.4479 78.8864 31.5196C78.8503 31.6108 78.8331 31.7082 78.8359 31.806V32.4971C78.8332 32.5947 78.8504 32.6918 78.8864 32.7826C78.9166 32.8547 78.9611 32.92 79.0173 32.9748C79.0684 33.024 79.1301 33.0613 79.1977 33.0842C79.2632 33.1069 79.3322 33.1187 79.4016 33.1188C79.4711 33.1186 79.54 33.1069 79.6055 33.0842C79.6731 33.0612 79.7347 33.0239 79.786 32.9748C79.8425 32.9202 79.887 32.8548 79.9168 32.7826C79.9536 32.692 79.9711 32.5948 79.9682 32.4971V31.806Z" fill="white"/>
<path d="M81.8342 34.0616V30.7627C81.8319 30.6689 81.8504 30.5758 81.8883 30.4897C81.9221 30.4157 81.9709 30.3494 82.0318 30.2949C82.0917 30.2425 82.1612 30.2018 82.2366 30.1748C82.3141 30.1472 82.3959 30.1334 82.4784 30.1339C82.6 30.1337 82.7196 30.1643 82.8257 30.2228C82.9335 30.2806 83.0196 30.371 83.0711 30.4808C83.1956 30.3672 83.3419 30.2795 83.5015 30.2228C83.6618 30.1644 83.8313 30.1342 84.0022 30.1339C84.1954 30.1325 84.3877 30.1601 84.5725 30.2157C84.747 30.2691 84.905 30.3652 85.0317 30.495C85.1736 30.6482 85.2793 30.8304 85.3412 31.0287C85.4245 31.2974 85.4632 31.5776 85.4558 31.8585V34.0643H84.1421V31.7829C84.1448 31.6917 84.1285 31.6009 84.0943 31.5161C84.0666 31.4493 84.0255 31.3888 83.9734 31.3382C83.9277 31.2936 83.8721 31.2601 83.811 31.2404C83.7553 31.2225 83.6972 31.2132 83.6386 31.2128C83.5801 31.2132 83.522 31.2225 83.4663 31.2404C83.4045 31.2608 83.3478 31.2941 83.3003 31.3382C83.2469 31.3883 83.2048 31.4489 83.1767 31.5161C83.1425 31.6009 83.1262 31.6917 83.1289 31.7829V34.0643L81.8342 34.0616Z" fill="white"/>
<path d="M86.5312 31.2972H86.3201C86.1207 31.2972 85.9772 31.2438 85.8906 31.1398C85.8055 31.0403 85.7591 30.9141 85.7598 30.784C85.7597 30.7201 85.7691 30.6566 85.7877 30.5954C85.8073 30.5327 85.8402 30.4747 85.8843 30.4256C85.9327 30.3724 85.9925 30.3305 86.0593 30.3028C86.142 30.2695 86.2308 30.2535 86.3201 30.2557H86.5312V29.6019C86.5289 29.5073 86.5473 29.4132 86.5853 29.3262C86.6156 29.2502 86.6631 29.182 86.7243 29.127C86.7832 29.0769 86.8511 29.0383 86.9246 29.0131C86.9996 28.9882 87.0782 28.9756 87.1573 28.9758C87.2365 28.9754 87.3152 28.9881 87.3901 29.0131C87.4638 29.0383 87.5321 29.0769 87.5913 29.127C87.6532 29.1806 87.7022 29.2471 87.7348 29.3218C87.7719 29.409 87.7903 29.5029 87.7889 29.5975V30.2512H88.1651C88.2533 30.2487 88.3409 30.2648 88.4223 30.2984C88.4882 30.3267 88.5472 30.3686 88.5955 30.4211C88.6407 30.4709 88.6751 30.5294 88.6966 30.5928C88.7176 30.6535 88.7283 30.7172 88.7281 30.7813C88.7287 30.9113 88.6827 31.0373 88.5982 31.1371C88.508 31.2412 88.3672 31.2945 88.1678 31.2945H87.7889V32.8519C87.7889 32.9489 87.8088 33.012 87.8494 33.0414C87.8916 33.0707 87.9412 33.088 87.9928 33.0912C88.0355 33.0958 88.0786 33.0925 88.12 33.0814C88.1703 33.0702 88.2218 33.0651 88.2734 33.0663C88.3752 33.0648 88.4743 33.0981 88.554 33.1606C88.6341 33.2231 88.6883 33.3123 88.7065 33.4114C88.7379 33.5265 88.7277 33.6488 88.6776 33.7574C88.6325 33.8542 88.561 33.9367 88.471 33.9957C88.3865 34.0473 88.2955 34.0877 88.2003 34.1158C88.093 34.1484 87.9815 34.1652 87.8692 34.1656C87.6775 34.1685 87.4862 34.1455 87.3008 34.0971C87.1456 34.0558 87.0018 33.9804 86.8804 33.8765C86.7599 33.7704 86.669 33.6357 86.616 33.4852C86.5508 33.2908 86.5203 33.0868 86.5258 32.8822L86.5312 31.2972Z" fill="white"/>
<path d="M90.992 34.1683C90.7576 34.167 90.5243 34.1372 90.2973 34.0794C90.0703 34.0224 89.8561 33.9241 89.6657 33.7894C89.4718 33.6503 89.3146 33.4673 89.2074 33.2558C89.0829 32.9981 89.0229 32.7147 89.0324 32.4295V31.8763C89.0224 31.5886 89.0798 31.3025 89.2002 31.0402C89.3021 30.8323 89.4505 30.6499 89.6341 30.5065C89.8083 30.3736 90.0077 30.2765 90.2206 30.221C90.4262 30.164 90.6386 30.134 90.8522 30.1321C91.0702 30.132 91.2875 30.1583 91.4991 30.2103C91.7094 30.2626 91.9035 30.3652 92.0639 30.5092C92.2443 30.6792 92.3807 30.8893 92.4618 31.122C92.572 31.4489 92.6227 31.7925 92.6115 32.1369C92.6115 32.1911 92.6115 32.256 92.6025 32.3316C92.5935 32.4072 92.5881 32.4722 92.58 32.5264H90.2901V32.5327C90.2869 32.6264 90.3114 32.7191 90.3604 32.7995C90.407 32.8708 90.4685 32.9315 90.5409 32.9774C90.612 33.0245 90.6912 33.0586 90.7746 33.0779C90.8538 33.0965 90.9349 33.1061 91.0164 33.1063C91.137 33.1082 91.2575 33.102 91.3773 33.0877C91.4639 33.0746 91.5491 33.0535 91.6317 33.0245C91.6786 33.0076 91.7264 32.9907 91.7752 32.9712C91.8256 32.9522 91.8779 32.9385 91.9312 32.9302C92.034 32.9167 92.1385 32.9299 92.2344 32.9685C92.2798 32.9871 92.321 33.0144 92.3556 33.049C92.3901 33.0835 92.4173 33.1245 92.4356 33.1695C92.4686 33.2355 92.4857 33.3081 92.4857 33.3816C92.4857 33.4552 92.4686 33.5278 92.4356 33.5938C92.3604 33.7309 92.2463 33.8434 92.1072 33.9175C92.0451 33.9524 91.9802 33.9821 91.9132 34.0064C91.8245 34.0383 91.7342 34.0653 91.6425 34.0874C91.5377 34.1138 91.4313 34.134 91.324 34.1479C91.2139 34.1615 91.103 34.1683 90.992 34.1683ZM90.8513 31.1523C90.7811 31.1518 90.7113 31.1611 90.6438 31.1798C90.5791 31.1986 90.5193 31.2311 90.4687 31.275C90.4152 31.3223 90.372 31.3798 90.3415 31.444C90.3046 31.5262 90.287 31.6156 90.2901 31.7055H91.3728C91.3787 31.6169 91.3667 31.528 91.3376 31.444C91.3134 31.3802 91.2752 31.3225 91.2257 31.275C91.1777 31.2303 91.1195 31.1977 91.0561 31.1798C90.9895 31.161 90.9205 31.1517 90.8513 31.1523Z" fill="white"/>
<path d="M93.176 34.0616V30.7627C93.1737 30.6689 93.1922 30.5757 93.2301 30.4897C93.2636 30.4156 93.3124 30.3492 93.3736 30.2949C93.4335 30.2424 93.503 30.2017 93.5784 30.1748C93.6558 30.1471 93.7377 30.1332 93.8202 30.1339C93.9418 30.1337 94.0614 30.1643 94.1675 30.2228C94.2751 30.2809 94.3611 30.3712 94.4129 30.4808C94.5374 30.3672 94.6837 30.2795 94.8433 30.2228C95.0036 30.1643 95.1731 30.1342 95.344 30.1339C95.5372 30.1326 95.7295 30.1602 95.9143 30.2157C96.0888 30.2691 96.2468 30.3652 96.3735 30.495C96.5151 30.6484 96.6207 30.8306 96.683 31.0287C96.7655 31.2975 96.8038 31.5777 96.7966 31.8585V34.0643H95.4839V31.7829C95.4866 31.6917 95.4703 31.6009 95.4361 31.5161C95.408 31.4493 95.3666 31.3888 95.3143 31.3382C95.2689 31.2932 95.2132 31.2597 95.1519 31.2403C95.0965 31.2225 95.0387 31.2132 94.9804 31.2128C94.9219 31.2131 94.8638 31.2224 94.8081 31.2403C94.7463 31.2607 94.6896 31.2941 94.6421 31.3382C94.5887 31.3883 94.5466 31.4489 94.5185 31.5161C94.4843 31.6009 94.468 31.6917 94.4707 31.7829V34.0643L93.176 34.0616Z" fill="white"/>
<path d="M97.8682 31.2974H97.658C97.4586 31.2974 97.3151 31.244 97.2276 31.14C97.1431 31.0402 97.0971 30.9142 97.0977 30.7842C97.0976 30.7203 97.107 30.6568 97.1256 30.5956C97.1452 30.5331 97.1777 30.4752 97.2213 30.4257C97.2713 30.372 97.333 30.3301 97.4017 30.303C97.4844 30.2696 97.5732 30.2536 97.6625 30.2559H97.8727V29.6021C97.8708 29.5075 97.8893 29.4135 97.9268 29.3264C97.9597 29.2519 98.0086 29.1855 98.0703 29.1316C98.1296 29.0817 98.1979 29.0431 98.2715 29.0178C98.3464 28.9927 98.4251 28.9801 98.5043 28.9804C98.5834 28.9801 98.6621 28.9927 98.737 29.0178C98.8107 29.0431 98.8789 29.0817 98.9382 29.1316C98.9999 29.1855 99.0488 29.2519 99.0817 29.3264C99.1188 29.4137 99.1372 29.5075 99.1358 29.6021V30.2559H99.5112C99.5996 30.2533 99.6876 30.2694 99.7692 30.303C99.835 30.3312 99.8937 30.373 99.9415 30.4257C99.9858 30.4752 100.02 30.533 100.041 30.5956C100.061 30.6564 100.072 30.7201 100.072 30.7842C100.073 30.9143 100.027 31.0404 99.9415 31.14C99.8513 31.244 99.7114 31.2974 99.5112 31.2974H99.1358V32.8548C99.1309 32.8887 99.1336 32.9234 99.1439 32.9561C99.1542 32.9889 99.1718 33.019 99.1954 33.0442C99.2378 33.0733 99.2873 33.0905 99.3388 33.094C99.3818 33.0986 99.4252 33.0953 99.4669 33.0843C99.5169 33.0731 99.5682 33.068 99.6194 33.0691C99.7215 33.0675 99.821 33.1008 99.9009 33.1634C99.981 33.226 100.035 33.3151 100.053 33.4142C100.084 33.5294 100.074 33.6516 100.025 33.7602C99.9791 33.8571 99.9072 33.9396 99.817 33.9986C99.7327 34.0504 99.6416 34.0908 99.5463 34.1187C99.4387 34.1513 99.3269 34.1681 99.2143 34.1685C99.0229 34.1713 98.8319 34.1483 98.6468 34.1C98.4915 34.0589 98.3477 33.9835 98.2264 33.8794C98.1066 33.7714 98.0166 33.6352 97.9647 33.4836C97.9 33.2891 97.8695 33.0852 97.8745 32.8806L97.8682 31.2974Z" fill="white"/>
<path d="M101.642 31.3347C101.634 31.4094 101.68 31.4664 101.779 31.5046C101.945 31.558 102.114 31.5979 102.286 31.6238L102.411 31.6487L102.528 31.6736C102.911 31.7703 103.191 31.9348 103.37 32.1672C103.549 32.3997 103.614 32.7065 103.567 33.0878C103.547 33.2601 103.485 33.4251 103.387 33.569C103.29 33.7069 103.162 33.8217 103.014 33.9052C102.851 33.9975 102.674 34.0641 102.489 34.1026C102.282 34.148 102.07 34.1701 101.858 34.1685C101.747 34.1685 101.633 34.1631 101.517 34.1533C101.4 34.1427 101.283 34.1248 101.168 34.1C101.055 34.075 100.944 34.0402 100.837 33.9959C100.736 33.9548 100.641 33.8987 100.557 33.8296C100.45 33.7391 100.373 33.6192 100.337 33.4854C100.317 33.4169 100.313 33.3448 100.326 33.2747C100.338 33.2046 100.367 33.1382 100.41 33.0807C100.454 33.016 100.517 32.9658 100.59 32.9366C100.664 32.9064 100.743 32.8893 100.823 32.8859C100.906 32.8781 100.99 32.8932 101.065 32.9295C101.124 32.9633 101.182 32.9971 101.237 33.03C101.328 33.0799 101.427 33.1139 101.53 33.1305C101.654 33.1557 101.78 33.1686 101.906 33.1687C102.005 33.1748 102.103 33.1529 102.19 33.1056C102.219 33.0902 102.243 33.0688 102.263 33.0428C102.282 33.0168 102.295 32.9869 102.302 32.9553C102.311 32.8797 102.245 32.8201 102.107 32.7774C101.917 32.7201 101.725 32.6729 101.53 32.636C101.483 32.6271 101.44 32.6173 101.393 32.6066C101.351 32.5975 101.309 32.5859 101.269 32.5719C101.052 32.5152 100.852 32.4112 100.682 32.2677C100.551 32.1524 100.45 32.0066 100.39 31.8435C100.334 31.6885 100.314 31.5231 100.332 31.3596C100.347 31.1965 100.39 31.0371 100.459 30.8882C100.521 30.7607 100.607 30.6455 100.711 30.5485C100.817 30.4511 100.939 30.3718 101.072 30.3137C101.209 30.2519 101.354 30.2062 101.502 30.1776C101.658 30.1486 101.815 30.134 101.973 30.134C102.194 30.1302 102.415 30.1535 102.63 30.2034C102.784 30.2384 102.932 30.2934 103.07 30.367C103.199 30.4354 103.306 30.5361 103.383 30.6588C103.42 30.7177 103.444 30.7839 103.453 30.8529C103.461 30.9219 103.455 30.9919 103.433 31.0581C103.42 31.1104 103.397 31.1596 103.364 31.2027C103.331 31.2459 103.29 31.282 103.243 31.3089C103.148 31.3565 103.042 31.3804 102.936 31.3783C102.887 31.3775 102.839 31.37 102.792 31.3561C102.748 31.3454 102.706 31.3273 102.668 31.3027C102.624 31.275 102.577 31.2529 102.528 31.2369C102.473 31.2182 102.414 31.2004 102.353 31.1835C102.291 31.1671 102.228 31.1543 102.165 31.1453C102.108 31.1379 102.05 31.134 101.993 31.1337C101.908 31.1292 101.823 31.1499 101.75 31.1933C101.722 31.2063 101.697 31.226 101.678 31.2507C101.659 31.2754 101.647 31.3042 101.642 31.3347Z" fill="white"/>
<path d="M105.627 31.5418C105.629 31.4768 105.64 31.4123 105.661 31.3506C105.679 31.2886 105.71 31.2309 105.751 31.1807C105.794 31.1285 105.848 31.0865 105.91 31.0579C105.985 31.0251 106.067 31.0093 106.15 31.0117H106.834V30.3508C106.834 30.1463 106.892 29.9951 107.014 29.899C107.129 29.8033 107.275 29.7519 107.426 29.754C107.576 29.7518 107.721 29.8033 107.836 29.899C107.953 29.9951 108.016 30.1463 108.016 30.3508V31.0117H108.705C108.787 31.0093 108.869 31.0251 108.944 31.0579C109.006 31.0867 109.06 31.1286 109.104 31.1807C109.144 31.2313 109.175 31.2889 109.194 31.3506C109.212 31.4117 109.222 31.4753 109.222 31.5391C109.222 31.6038 109.212 31.6682 109.194 31.7304C109.176 31.7949 109.145 31.8553 109.104 31.9082C109.06 31.9618 109.006 32.0058 108.944 32.0372C108.871 32.073 108.79 32.0905 108.709 32.0879H108.007V32.747C108.007 32.9527 107.946 33.1036 107.826 33.1997C107.712 33.2955 107.566 33.3467 107.416 33.3438C107.265 33.3467 107.119 33.2955 107.004 33.1997C106.884 33.1036 106.824 32.9527 106.824 32.747V32.0879H106.136C106.053 32.0903 105.971 32.0729 105.896 32.0372C105.834 32.0069 105.78 31.9627 105.737 31.9082C105.696 31.8552 105.665 31.7948 105.647 31.7304C105.632 31.6687 105.625 31.6052 105.627 31.5418Z" fill="white"/>
<path d="M112.701 32.1699C112.698 32.3025 112.723 32.4341 112.774 32.5568C112.819 32.6621 112.886 32.7565 112.972 32.8334C113.054 32.9071 113.151 32.9636 113.256 32.9998C113.362 33.0379 113.474 33.0572 113.587 33.0567C113.716 33.0584 113.845 33.0477 113.972 33.0247C114.072 33.0061 114.169 32.9763 114.262 32.9357C114.309 32.9144 114.361 32.8895 114.419 32.8601C114.473 32.8313 114.533 32.812 114.594 32.8032C114.698 32.7816 114.807 32.7906 114.906 32.829C115.007 32.8724 115.09 32.9475 115.143 33.0425C115.181 33.0989 115.206 33.163 115.217 33.2301C115.227 33.2973 115.222 33.366 115.203 33.4311C115.163 33.5605 115.084 33.6747 114.977 33.7585C114.787 33.9063 114.567 34.0125 114.332 34.0698C114.089 34.1336 113.839 34.1662 113.587 34.1667C113.313 34.1673 113.04 34.1314 112.775 34.06C112.52 33.9929 112.281 33.8765 112.071 33.7175C111.861 33.5563 111.691 33.3501 111.574 33.1145C111.441 32.8367 111.377 32.532 111.386 32.2251V30.9176C111.377 30.6106 111.441 30.3059 111.574 30.0282C111.691 29.7922 111.861 29.5856 112.071 29.4242C112.281 29.2656 112.52 29.1492 112.775 29.0818C113.04 29.0104 113.313 28.9745 113.587 28.9751C113.84 28.9715 114.091 29.0014 114.336 29.064C114.517 29.1076 114.688 29.1819 114.843 29.2837C114.967 29.3679 115.062 29.4878 115.114 29.627C115.139 29.6929 115.149 29.7636 115.142 29.8337C115.136 29.9039 115.113 29.9716 115.076 30.0317C115.019 30.1345 114.93 30.2161 114.821 30.2639C114.719 30.3099 114.606 30.3233 114.496 30.3021C114.428 30.2914 114.363 30.2713 114.302 30.2425C114.244 30.2149 114.192 30.1909 114.146 30.1705C114.068 30.1408 113.988 30.1197 113.906 30.1073C113.799 30.093 113.692 30.0865 113.584 30.0878C113.471 30.0877 113.359 30.107 113.253 30.1447C113.148 30.1815 113.052 30.2383 112.969 30.3119C112.883 30.3887 112.816 30.4831 112.771 30.5885C112.72 30.7109 112.696 30.8423 112.698 30.9745L112.701 32.1699Z" fill="white"/>
<path d="M115.659 31.8621C115.649 31.5725 115.706 31.2845 115.825 31.0198C115.925 30.8109 116.074 30.628 116.258 30.4861C116.435 30.3526 116.638 30.2563 116.854 30.2033C117.068 30.1496 117.287 30.1221 117.508 30.1215C117.726 30.1224 117.944 30.1499 118.155 30.2033C118.371 30.2562 118.574 30.3525 118.751 30.4861C118.936 30.6287 119.086 30.8113 119.188 31.0198C119.309 31.284 119.367 31.5722 119.357 31.8621V32.4402C119.367 32.7301 119.31 33.0184 119.188 33.2825C119.086 33.4912 118.937 33.6738 118.751 33.8162C118.574 33.9494 118.371 34.0457 118.155 34.099C117.944 34.1524 117.726 34.1799 117.508 34.1808C117.29 34.18 117.073 34.1525 116.861 34.099C116.645 34.0457 116.442 33.9494 116.265 33.8162C116.079 33.6738 115.93 33.4912 115.828 33.2825C115.707 33.0183 115.649 32.73 115.659 32.4402V31.8621ZM118.076 31.806C118.078 31.7082 118.061 31.6108 118.025 31.5196C117.995 31.4477 117.95 31.3826 117.893 31.3284C117.842 31.2789 117.781 31.2412 117.713 31.2181C117.647 31.1954 117.578 31.1837 117.509 31.1834C117.44 31.1836 117.371 31.1954 117.305 31.2181C117.238 31.2415 117.176 31.2791 117.125 31.3284C117.069 31.3829 117.025 31.448 116.995 31.5196C116.958 31.6106 116.94 31.7081 116.943 31.806V32.4971C116.94 32.5948 116.958 32.692 116.995 32.7826C117.025 32.8546 117.069 32.9199 117.125 32.9748C117.176 33.0238 117.238 33.0611 117.305 33.0842C117.371 33.1069 117.44 33.1187 117.509 33.1188C117.578 33.1186 117.647 33.1069 117.713 33.0842C117.781 33.0614 117.842 33.024 117.893 32.9748C117.95 32.9203 117.995 32.8549 118.025 32.7826C118.061 32.6918 118.078 32.5947 118.076 32.4971V31.806Z" fill="white"/>
<path d="M119.942 34.0616V30.7627C119.939 30.6689 119.958 30.5757 119.996 30.4896C120.029 30.4155 120.078 30.3492 120.139 30.2949C120.199 30.2424 120.269 30.2016 120.344 30.1748C120.421 30.147 120.503 30.1332 120.586 30.1339C120.707 30.1337 120.827 30.1643 120.933 30.2228C121.04 30.2799 121.124 30.3708 121.172 30.4808C121.291 30.368 121.43 30.2795 121.583 30.2201C121.737 30.1607 121.9 30.1317 122.065 30.1348C122.256 30.1342 122.446 30.1683 122.626 30.2353C122.81 30.3066 122.972 30.4236 123.097 30.575C123.233 30.4377 123.396 30.3285 123.576 30.2539C123.788 30.1699 124.016 30.1293 124.244 30.1348C124.442 30.1348 124.638 30.1648 124.825 30.2237C125.006 30.2788 125.171 30.3758 125.306 30.5065C125.457 30.6572 125.57 30.8397 125.637 31.0402C125.727 31.3052 125.769 31.5836 125.762 31.8629V34.0687H124.449V31.7873C124.451 31.6964 124.436 31.6058 124.404 31.5205C124.378 31.4539 124.338 31.3933 124.287 31.3426C124.241 31.2988 124.187 31.2654 124.127 31.2448C124.075 31.2271 124.02 31.2178 123.965 31.2172C123.908 31.2179 123.852 31.2272 123.799 31.2448C123.738 31.2642 123.683 31.2978 123.639 31.3426C123.589 31.394 123.549 31.4544 123.522 31.5205C123.487 31.6052 123.471 31.696 123.473 31.7873V34.0687H122.21V31.7873C122.212 31.6964 122.197 31.6058 122.165 31.5205C122.139 31.4535 122.099 31.3928 122.047 31.3426C122.002 31.2985 121.948 31.265 121.888 31.2448C121.835 31.2271 121.78 31.2178 121.724 31.2172C121.669 31.2178 121.614 31.2271 121.562 31.2448C121.504 31.2635 121.451 31.2938 121.406 31.3337C121.356 31.3805 121.316 31.4372 121.289 31.5C121.254 31.5805 121.235 31.6669 121.234 31.7544V34.0669L119.942 34.0616Z" fill="white"/>
<path d="M126.383 34.0616V30.7627C126.381 30.6689 126.399 30.5757 126.437 30.4896C126.471 30.4157 126.52 30.3494 126.581 30.2949C126.641 30.2425 126.71 30.2017 126.785 30.1748C126.863 30.1472 126.945 30.1333 127.027 30.1339C127.149 30.1337 127.268 30.1643 127.375 30.2228C127.481 30.2799 127.566 30.3708 127.614 30.4807C127.732 30.368 127.872 30.2795 128.025 30.2201C128.178 30.1607 128.341 30.1317 128.506 30.1348C128.698 30.1342 128.888 30.1683 129.067 30.2353C129.252 30.3066 129.414 30.4236 129.539 30.575C129.675 30.4379 129.838 30.3288 130.017 30.2539C130.23 30.1699 130.458 30.1293 130.687 30.1348C130.884 30.1348 131.079 30.1648 131.267 30.2237C131.448 30.2788 131.613 30.3758 131.748 30.5065C131.898 30.6572 132.011 30.8397 132.079 31.0402C132.169 31.3051 132.211 31.5836 132.203 31.8629V34.0687H130.891V31.7873C130.893 31.6964 130.877 31.6058 130.845 31.5205C130.82 31.4535 130.78 31.3928 130.728 31.3426C130.683 31.2985 130.629 31.265 130.568 31.2448C130.516 31.2271 130.461 31.2178 130.406 31.2172C130.35 31.2179 130.294 31.2272 130.24 31.2448C130.18 31.2642 130.125 31.2977 130.08 31.3426C130.03 31.394 129.99 31.4544 129.963 31.5205C129.929 31.6054 129.913 31.6961 129.915 31.7873V34.0687H128.652V31.7873C128.654 31.6965 128.639 31.606 128.608 31.5205C128.581 31.4538 128.541 31.3932 128.49 31.3426C128.445 31.2985 128.39 31.265 128.33 31.2448C128.278 31.227 128.223 31.2177 128.168 31.2172C128.112 31.2177 128.057 31.227 128.005 31.2448C127.947 31.2633 127.894 31.2936 127.848 31.3337C127.798 31.3805 127.758 31.4371 127.731 31.5C127.696 31.5806 127.678 31.667 127.677 31.7544V34.0669L126.383 34.0616Z" fill="white"/>
<path d="M134.259 34.1683C134.066 34.1701 133.873 34.1425 133.688 34.0864C133.513 34.0333 133.355 33.9372 133.229 33.8072C133.087 33.6538 132.982 33.4716 132.92 33.2735C132.837 33.0048 132.798 32.7245 132.806 32.4437V30.76C132.806 30.5423 132.87 30.3831 133 30.2823C133.131 30.1811 133.294 30.1277 133.462 30.1311C133.629 30.1275 133.792 30.1809 133.924 30.2823C134.053 30.3825 134.118 30.5417 134.118 30.76V32.5193C134.116 32.6105 134.132 32.7012 134.166 32.7861C134.194 32.8527 134.236 32.9132 134.288 32.964C134.333 33.0087 134.389 33.0419 134.45 33.0609C134.506 33.0791 134.564 33.0887 134.622 33.0894C134.678 33.0884 134.734 33.0788 134.788 33.0609C134.848 33.0424 134.903 33.0121 134.951 32.972C135.003 32.925 135.045 32.8685 135.075 32.8057C135.111 32.7254 135.131 32.6385 135.132 32.5504V30.7537C135.132 30.5403 135.195 30.3831 135.32 30.2823C135.448 30.1814 135.608 30.1279 135.771 30.1311C135.938 30.1272 136.1 30.1806 136.23 30.2823C136.357 30.3825 136.421 30.5397 136.422 30.7537V34.0589H135.409L135.338 33.6506C135.218 33.8107 135.06 33.9401 134.879 34.0277C134.686 34.1217 134.474 34.1699 134.259 34.1683Z" fill="white"/>
<path d="M137.059 34.0616V30.7627C137.057 30.6689 137.075 30.5758 137.113 30.4897C137.147 30.4157 137.196 30.3494 137.256 30.2949C137.316 30.2425 137.386 30.2018 137.461 30.1748C137.539 30.1471 137.621 30.1333 137.703 30.1339C137.825 30.1337 137.944 30.1643 138.05 30.2228C138.158 30.2806 138.244 30.371 138.296 30.4808C138.42 30.3672 138.567 30.2795 138.726 30.2228C138.886 30.1644 139.056 30.1342 139.227 30.1339C139.42 30.1325 139.612 30.1601 139.797 30.2157C139.972 30.2691 140.13 30.3652 140.256 30.495C140.398 30.6482 140.504 30.8304 140.566 31.0287C140.649 31.2974 140.688 31.5776 140.68 31.8585V34.0643H139.369V31.7829C139.372 31.6917 139.356 31.6009 139.322 31.5161C139.294 31.4493 139.253 31.3888 139.201 31.3382C139.155 31.2936 139.099 31.2601 139.038 31.2404C138.983 31.2225 138.925 31.2132 138.866 31.2128C138.807 31.2132 138.749 31.2225 138.694 31.2404C138.632 31.2608 138.575 31.2941 138.528 31.3382C138.474 31.3883 138.432 31.4489 138.404 31.5161C138.37 31.6009 138.354 31.6917 138.356 31.7829V34.0643L137.059 34.0616Z" fill="white"/>
<path d="M141.324 29.3299C141.324 29.1241 141.39 28.9759 141.522 28.8851C141.659 28.7931 141.822 28.7458 141.988 28.7499C142.153 28.7458 142.316 28.7931 142.453 28.8851C142.585 28.9741 142.65 29.1226 142.65 29.3299C142.653 29.4217 142.634 29.5129 142.596 29.5967C142.563 29.666 142.514 29.7269 142.453 29.7746C142.391 29.822 142.319 29.8562 142.242 29.8751C142.159 29.8968 142.074 29.9075 141.988 29.9071C141.901 29.9075 141.816 29.8968 141.732 29.8751C141.656 29.8568 141.584 29.8225 141.522 29.7746C141.461 29.7272 141.412 29.6662 141.379 29.5967C141.34 29.5129 141.322 29.4217 141.324 29.3299ZM141.331 30.8063C141.331 30.5893 141.395 30.4292 141.525 30.3287C141.657 30.2273 141.82 30.1739 141.988 30.1775C142.155 30.1736 142.318 30.2271 142.45 30.3287C142.579 30.4292 142.644 30.5893 142.644 30.8063V34.0616H141.331V30.8063Z" fill="white"/>
<path d="M143.643 31.1529H143.43C143.23 31.1529 143.087 31.0995 143 30.9954C142.915 30.8959 142.869 30.7698 142.869 30.6397C142.869 30.5757 142.879 30.5122 142.898 30.4511C142.917 30.3884 142.95 30.3304 142.994 30.2812C143.042 30.2283 143.102 30.1864 143.169 30.1585C143.252 30.1252 143.341 30.1091 143.43 30.1113H143.641V29.4576C143.639 29.363 143.657 29.269 143.695 29.1819C143.727 29.107 143.776 29.0404 143.838 28.9871C143.897 28.9369 143.966 28.8982 144.039 28.8732C144.114 28.8482 144.193 28.8356 144.272 28.8359C144.351 28.8357 144.43 28.8483 144.505 28.8732C144.578 28.8984 144.646 28.9371 144.705 28.9871C144.767 29.0404 144.817 29.107 144.849 29.1819C144.886 29.269 144.905 29.363 144.903 29.4576V30.1113H145.279C145.367 30.1088 145.455 30.1249 145.537 30.1585C145.603 30.1866 145.662 30.2285 145.709 30.2812C145.753 30.3308 145.787 30.3885 145.808 30.4511C145.829 30.5117 145.84 30.5755 145.84 30.6397C145.84 30.7697 145.794 30.8957 145.709 30.9954C145.619 31.0995 145.479 31.1529 145.279 31.1529H144.903V32.7103C144.903 32.8072 144.923 32.8703 144.963 32.8997C145.006 32.9289 145.055 32.9462 145.107 32.9495C145.15 32.9541 145.193 32.9508 145.235 32.9397C145.285 32.9285 145.336 32.9235 145.387 32.9246C145.489 32.9228 145.588 32.9562 145.668 33.0189C145.748 33.0814 145.803 33.1705 145.821 33.2697C145.852 33.3849 145.842 33.5069 145.792 33.6157C145.747 33.7126 145.675 33.7951 145.585 33.8541C145.501 33.906 145.41 33.9464 145.314 33.9741C145.207 34.0067 145.095 34.0235 144.983 34.0239C144.792 34.0269 144.601 34.0038 144.416 33.9555C144.26 33.9144 144.116 33.839 143.994 33.7349C143.875 33.6268 143.785 33.4906 143.733 33.3391C143.669 33.1446 143.638 32.9407 143.643 32.736V31.1529Z" fill="white"/>
<path d="M148.598 34.0553C148.404 34.4994 148.141 34.8136 147.812 34.9981C147.456 35.1869 147.046 35.2512 146.649 35.1804C146.563 35.1703 146.481 35.1437 146.406 35.1021C146.341 35.0641 146.283 35.0139 146.237 34.9545C146.194 34.8985 146.164 34.8343 146.147 34.7659C146.13 34.6979 146.125 34.6274 146.134 34.5578C146.152 34.4209 146.218 34.2948 146.322 34.202C146.426 34.1077 146.574 34.0781 146.765 34.1131C146.89 34.1383 147.02 34.1319 147.141 34.0944C147.195 34.0794 147.246 34.0538 147.29 34.0191C147.334 33.9844 147.37 33.9413 147.397 33.8925V33.8872L146.096 31.0339C146.055 30.9506 146.035 30.8593 146.035 30.767C146.036 30.6824 146.055 30.5989 146.089 30.5215C146.123 30.4465 146.172 30.379 146.233 30.3232C146.296 30.266 146.371 30.2224 146.453 30.1951C146.535 30.1655 146.62 30.1484 146.707 30.1444C146.793 30.1394 146.878 30.1512 146.959 30.1791C147.039 30.207 147.113 30.2523 147.173 30.3116C147.241 30.3798 147.294 30.4621 147.326 30.5527L148.059 32.5094L148.735 30.5527C148.763 30.4618 148.814 30.3791 148.882 30.3116C148.942 30.2523 149.015 30.207 149.096 30.1791C149.174 30.1515 149.257 30.1397 149.34 30.1444C149.427 30.1492 149.513 30.1663 149.595 30.1951C149.675 30.2235 149.747 30.267 149.809 30.3232C149.87 30.3786 149.918 30.4463 149.949 30.5215C149.981 30.5995 149.998 30.6829 149.997 30.767C149.996 30.8588 149.976 30.9495 149.939 31.0339L148.598 34.0553Z" fill="white"/>
</g>
<path d="M9.36378 12.2356C9.36378 12.2356 6.9487 9.07648 8.67423 4.81157C10.3998 0.546652 15.1258 -0.137211 18.5727 0.0204139C22.0196 0.178039 29.5047 1.33396 36.4968 0.0204139L34.3316 3.17949L22.4643 7.01422H13.1555L10.2549 8.91804L9.36378 10.7077V12.2356Z" fill="white"/>
<path d="M9.36194 12.2364C9.36194 12.2364 10.0032 8.13153 15.8127 8.6553C21.6222 9.17908 34.9668 10.4984 36.4949 0.0203857C36.4949 0.0203857 32.605 5.96992 19.5552 4.23276C19.5552 4.23276 6.65371 2.49478 9.36194 12.2364Z" fill="white"/>
<path d="M31.4379 13.5733C35.3012 13.5733 35.935 18.8496 34.7857 22.4857L33.8131 25.6513C32.8736 28.6284 30.9528 31.2111 28.3552 32.9896C25.7576 34.7682 22.632 35.6409 19.4741 35.4693C16.3029 35.296 13.12 34.8535 10.9056 33.8971C4.72882 31.2282 -0.976598 25.4297 0.141001 15.1093C1.0121 7.06386 5.96135 3.31369 8.09911 2.05597C8.14977 2.02595 8.20934 2.01397 8.26788 2.02205C8.32642 2.03012 8.38038 2.05775 8.42073 2.10033C8.46109 2.1429 8.48541 2.19783 8.48962 2.25595C8.49384 2.31408 8.47769 2.37186 8.44388 2.41966C6.92155 4.57633 3.40386 10.3929 5.90555 16.2094C5.90555 16.2094 8.65374 27.4805 20.491 25.4461C22.1416 25.162 23.5764 24.1326 24.2668 22.6482C24.286 22.6068 24.2944 22.5614 24.2912 22.516C24.288 22.4706 24.2733 22.4267 24.2484 22.3883C24.2236 22.3499 24.1894 22.3183 24.149 22.2963C24.1085 22.2743 24.0632 22.2627 24.017 22.2624H23.524C22.3534 22.2624 21.2307 21.804 20.403 20.988C19.5752 20.172 19.1102 19.0653 19.1102 17.9113C19.1102 17.3395 19.2245 16.7733 19.4467 16.245C19.6688 15.7168 19.9944 15.2369 20.4047 14.8328C20.8151 14.4287 21.3023 14.1083 21.8384 13.89C22.3744 13.6716 22.9489 13.5595 23.529 13.5602L31.4379 13.5733Z" fill="white"/>
<path d="M23.8612 22.2985C23.8612 22.2985 35.5203 22.6884 29.7874 31.866C29.7874 31.866 35.6259 27.5737 35.4386 18.4848C35.4386 18.4848 35.4645 13.7161 31.8468 13.4985H23.0376C23.0376 13.4985 19.0527 13.6143 19.0527 17.5139C19.0527 20.9907 21.193 22.2985 23.8612 22.2985Z" fill="white"/>
<defs>
<clipPath id="clip0_7143_6574">
<rect width="114.325" height="6.45284" fill="white" transform="translate(35.6699 28.7518)"/>
</clipPath>
</defs>
</svg>
